<?xml version="1.0" encoding="utf-8"?>
<!-- Generator: Adobe Illustrator 16.0.0, SVG Export Plug-In . SVG Version: 6.00 Build 0)  -->
<!DOCTYPE svg PUBLIC "-//W3C//DTD SVG 1.1//EN" "http://www.w3.org/Graphics/SVG/1.1/DTD/svg11.dtd">
<svg version="1.1" id="Layer_1" xmlns="http://www.w3.org/2000/svg" xmlns:xlink="http://www.w3.org/1999/xlink" x="0px" y="0px"
	 width="199.977px" height="195.744px" viewBox="0 0 199.977 195.744" enable-background="new 0 0 199.977 195.744"
	 xml:space="preserve">
<g>
	<circle fill="none" stroke="#414142" stroke-miterlimit="10" cx="101.353" cy="97.852" r="90.253"/>
	<g>
		<rect x="95.403" y="97.945" fill="#F8CB96" width="12.217" height="15.266"/>
		<g>
			<path fill="#232020" d="M141.177,136.371c-5.609-12.951-14.353-25.15-14.361-25.164c-0.83-1.426-2.079-2.334-3.478-2.334H79.954
				c-1.315,0-2.496,0.809-3.322,2.09l0,0c0,0-9.933,14.021-13.234,25.408c-1.05,3.621-2.559,28.635-3.368,41.873
				c4.959,2.414,10.011,4.633,15.406,6.164c3.34,0.947,6.759,1.711,10.237,2.291c5.135,0.857,10.406,1.311,15.783,1.311
				c4.965,0,9.839-0.381,14.598-1.113c4.024-0.619,7.964-1.494,11.805-2.602c7.215-2.082,13.89-5.498,20.29-9.131
				C146.581,162.303,143.994,142.873,141.177,136.371z"/>
		</g>
		<polygon fill="#232020" points="99.667,65.524 69.217,46.437 99.667,32.556 130.119,46.437 		"/>
		<path fill="#F8CB96" d="M110.299,62.636H92.26c-3.065,0-5.551,2.487-5.551,5.552v20.505c0,0.792,0.17,1.54,0.469,2.222
			c1.606,6.296,7.304,10.96,14.103,10.96s12.493-4.665,14.101-10.96c0.299-0.682,0.47-1.43,0.47-2.222V68.188
			C115.851,65.124,113.365,62.636,110.299,62.636z"/>
		<path fill="#3D2519" d="M91.538,64.177c0,0,6.58,6.938,14.443,6.784c7.863-0.153,15.727-5.396,15.727-5.396l-4.779-0.153
			l1.233-1.234h-1.542l3.084-1.541l-5.551-0.926c0,0-0.154-7.864-4.472-9.714c-4.317-1.851-14.34-0.925-19.735,6.013
			c0,0-4.472-1.538-6.477,1.696c-1.772,2.862-0.462,8.019,2.005,10.176v8.561h1.235v-8.308
			C86.709,70.134,91.538,71.634,91.538,64.177z"/>
		<rect x="85.474" y="69.209" fill="#3D2519" width="1.698" height="11.083"/>
		<rect x="114.771" y="67.878" fill="#3D2519" width="1.697" height="12.414"/>
		<g>
			<g>
				<g>
					<g id="Layer_2_8_">
						<path fill="#3D2519" d="M97.489,92.14c1.133,0,3.117-0.568,3.968-2.268c0.851,1.699,2.835,2.268,3.968,2.268
							c3.683,0,4.25-2.551,4.25-2.551c-0.282,0.283-0.851,0.568-1.7,0.568c-1.416,0-1.7-2.554-3.683-2.554
							c-1.984,0-2.835,1.418-2.835,1.418s-0.851-1.418-2.835-1.418c-1.983,0-2.267,2.554-3.683,2.554
							c-0.852,0-1.418-0.285-1.701-0.568C93.238,89.589,93.804,92.14,97.489,92.14z"/>
					</g>
				</g>
			</g>
			<g id="Layer_2_988_">
				<path fill="#3D2519" d="M101.456,89.022c0,0-0.85-1.418-2.834-1.418c-1.983,0-2.267,2.554-3.684,2.554
					c-0.851,0-1.418-0.285-1.7-0.568c0,0,0.566,2.551,4.25,2.551c1.134,0,3.118-0.568,3.968-2.268"/>
			</g>
		</g>
		
			<line fill="none" stroke="#232020" stroke-width="0.5" stroke-miterlimit="10" x1="101.647" y1="187.682" x2="101.647" y2="109.51"/>
		<polygon fill="#FFFFFF" points="95.326,109.51 101.734,148.549 108.07,109.602 		"/>
		<path fill="#BE1E2D" d="M101.647,110.002c0,0-3.938,15.871-3.308,23.465c0.564,6.793,3.308,23.574,3.308,23.574
			s3.093-16.34,3.474-23.574C105.533,125.672,101.647,110.002,101.647,110.002z"/>
		<path fill="#BE1E2D" d="M102.572,114.869c-0.511,0.51-1.34,0.51-1.851,0l-1.999-1.998c-0.511-0.512-0.511-1.34,0-1.852
			l1.999-1.998c0.511-0.512,1.34-0.512,1.851,0l1.997,1.998c0.512,0.512,0.512,1.34,0,1.852L102.572,114.869z"/>
		<polygon fill="#FFFFFF" points="101.647,108.568 94.977,104.543 92.23,108.568 98.736,111.945 		"/>
		<polygon fill="#FFFFFF" points="101.647,108.568 108.21,104.543 110.958,108.568 104.454,111.945 		"/>
		<rect x="82.652" y="50.547" fill="#232020" width="32.119" height="11.321"/>
		
			<line fill="none" stroke="#232020" stroke-width="0.75" stroke-miterlimit="10" x1="123.94" y1="47.705" x2="123.94" y2="64.108"/>
		<path fill="#232020" d="M122.649,69.273c0,0.714,0.577,1.291,1.291,1.291l0,0c0.713,0,1.291-0.577,1.291-1.291v-4.648
			c0-0.713-0.578-1.292-1.291-1.292l0,0c-0.714,0-1.291,0.579-1.291,1.292V69.273z"/>
	</g>
</g>
</svg>
