<?xml version="1.0" encoding="utf-8"?>
<!-- Generator: Adobe Illustrator 16.0.0, SVG Export Plug-In . SVG Version: 6.00 Build 0)  -->
<!DOCTYPE svg PUBLIC "-//W3C//DTD SVG 1.1//EN" "http://www.w3.org/Graphics/SVG/1.1/DTD/svg11.dtd">
<svg version="1.1" id="Layer_1" xmlns="http://www.w3.org/2000/svg" xmlns:xlink="http://www.w3.org/1999/xlink" x="0px" y="0px"
	 width="199.977px" height="195.744px" viewBox="0 0 199.977 195.744" enable-background="new 0 0 199.977 195.744"
	 xml:space="preserve">
<g>
	<g>
		<defs>
			<path id="SVGID_1_" d="M193.519,97.851c0,50.905-41.265,92.168-92.165,92.168c-50.904,0-92.167-41.264-92.167-92.168
				c0-50.9,41.263-92.166,92.167-92.166C152.254,5.685,193.519,46.951,193.519,97.851z"/>
		</defs>
		<use xlink:href="#SVGID_1_"  overflow="visible" fill="#FFFFFF"/>
		<clipPath id="SVGID_2_">
			<use xlink:href="#SVGID_1_"  overflow="visible"/>
		</clipPath>
		<use xlink:href="#SVGID_1_"  overflow="visible" fill="none" stroke="#414142" stroke-miterlimit="10"/>
	</g>
	<g>
		<path fill="#F7CA96" d="M53.706,121.533c-0.232-2.721-0.802-2.754,0.555-5.67l0.484-1.041l0.301-0.65c0,0,0.013-1.816,0.122-2.938
			c0.087-0.891,0.022-1.779-0.79-2.158c-0.403-0.188-0.62-0.229-1.01-0.086c-0.389,0.143-0.546,0.271-0.736,0.678l0.534,3.652
			l-3.128-8.572l-0.021,0.006c-0.014-0.062-0.025-0.133-0.052-0.199l-2.477-9.875c-0.306-0.843-1.239-1.275-2.079-0.97
			c-0.392,0.144-0.687,0.423-0.87,0.764c-0.131,0.246-0.197,0.519-0.188,0.806c0.002,0.171,0.027,0.342,0.09,0.515l2.535,10.001
			c0.022,0.066,0,0,0.033,0.057l-0.394,0.145c-0.016-0.062-0.028-0.135-0.054-0.199l-0.784-3.299
			c-0.064-0.176-0.158-0.328-0.269-0.465c-0.428-0.521-1.146-0.748-1.812-0.506c-0.842,0.309-1.276,1.242-0.966,2.08l0.785,3.303
			c0.023,0.062,0.059,0.127,0.089,0.184l-0.373,0.137l-0.863-3.348c-0.309-0.838-1.239-1.271-2.08-0.967
			c-0.847,0.307-1.272,1.238-0.968,2.078l0.865,3.348l-0.428,0.156l0.072,0.072c-0.31-0.84-1.242-1.271-2.082-0.963
			c-0.842,0.305-1.276,1.236-0.964,2.076c0,0,2.429,8.357,5.91,10.67l-0.023,0.008c0,0,4.866,4.408,5.303,5.398
			c0.066,0.152,0.389,0.771,0.896,1.705l10.964,5.793C56.68,128.725,53.82,122.865,53.706,121.533z"/>
	</g>
	<path fill="#F7CA96" d="M69.264,144.023l-15.503-21.537l-5.541,3.824l18.073,31.42c0,0,7.436,1.639,10.834-8.303"/>
	<polyline fill="#F7CA96" points="89.823,125.379 74.511,154.383 68.493,147.588 79.684,123.74 	"/>
	<rect x="95.181" y="106.842" fill="#F7CA96" width="18.969" height="10.395"/>
	<path fill="#F7CA96" d="M95.181,116.807c0,2.814,2.284,5.096,5.101,5.096h7.921c2.814,0,5.1-2.281,5.1-5.096l0,0
		c0-2.816-2.285-5.102-5.1-5.102h-7.921C97.465,111.705,95.181,113.99,95.181,116.807L95.181,116.807z"/>
	<rect x="89.836" y="73.031" fill="#856C39" width="28.057" height="34.137"/>
	<path fill="#F7CA96" d="M92.747,88.964c0-3.815-1.95-10.393,0-12.893c1.952-2.5,7.806-0.922,11.623-0.922
		c4.356,0,9.281-3.685,11.199-0.536c1.443,2.367,0.423,11.076,0.423,14.351c0,7.631-3.991,13.817-11.622,13.817
		S92.747,96.595,92.747,88.964z"/>
	<g>
		<g>
			<g>
				<g id="Layer_2_9_">
					<path fill="#424242" d="M120.116,118.148c-0.259,0-0.713-0.129-0.909-0.518c-0.192,0.389-0.646,0.518-0.905,0.518
						c-0.845,0-0.973-0.582-0.973-0.582c0.064,0.064,0.195,0.131,0.39,0.131c0.324,0,0.387-0.584,0.843-0.584
						c0.453,0,0.646,0.324,0.646,0.324s0.196-0.324,0.65-0.324c0.452,0,0.518,0.584,0.841,0.584c0.196,0,0.325-0.066,0.393-0.131
						C121.09,117.566,120.959,118.148,120.116,118.148z"/>
				</g>
			</g>
		</g>
		<path fill="#424242" d="M119.323,115.578c0,0.65,0.526,1.178,1.176,1.178s1.179-0.527,1.179-1.178
			c0-0.645-0.529-1.176-1.179-1.176S119.323,114.934,119.323,115.578z"/>
		<circle fill="#424242" cx="117.894" cy="115.59" r="1.175"/>
		<g id="Layer_2_180_">
			<path fill="#424242" d="M119.207,117.438c0,0,0.196-0.324,0.65-0.324c0.452,0,0.518,0.584,0.845,0.584
				c0.192,0,0.321-0.066,0.389-0.131c0,0-0.131,0.582-0.975,0.582c-0.259,0-0.713-0.129-0.909-0.518"/>
		</g>
	</g>
	<path fill="#A28B50" d="M115.36,73.935c0,0-6.239,6.579-13.695,6.431c-7.456-0.145-11.842-5.116-11.842-5.116l1.464-0.146
		l-1.172-1.169h1.463l-1.609-1.462l3.948-0.878c0,0,0.146-7.456,4.238-9.212c4.097-1.752,13.599-0.877,18.715,5.703"/>
	<rect x="98.357" y="99.053" fill="#F7CA96" width="11.586" height="14.475"/>
	<g>
		<path fill="none" d="M142.251,175.148c0.065-1.248-0.405-2.348-0.405-2.348l-13.502-30.584l-0.679,0.227l-5.356-11.617
			c-0.128,2.391,2.949,6.943,2.18,10.365c-0.394,1.74-2.262,3.242-2.266,3.701c-0.072,6.293,0,9.842,0,12.824
			c0,3.945,1.486,20.502,2.282,29.07c5.595-1.486,10.985-3.48,16.108-5.939c0.054-0.984,0.102-1.9,0.135-2.527
			C140.844,176.572,142.186,176.395,142.251,175.148z"/>
		<path fill="#F7CA96" d="M148.625,169.781l-13.21-29.922l-7.071,2.357l13.502,30.584c0,0,0.471,1.1,0.405,2.348
			c-0.065,1.246-1.407,1.424-1.503,3.172c-0.033,0.627-0.081,1.543-0.135,2.527c3.027-1.453,5.96-3.068,8.792-4.83
			C149.38,170.736,148.625,169.781,148.625,169.781z"/>
		<path fill="#414042" d="M135.888,134.09l0.025-0.025l-2.068-4.424c-2.892-6.26-5.28-11.299-5.28-11.299l-4.277-9.15
			c-0.932-1.445-2.693-2.309-4.558-2.309h-1.042h-3.592h-1.291v6.701v0.428h-0.021c-0.218,2.615-2.407,4.67-5.078,4.67h-3.805
			h-0.186h-3.804c-2.671,0-4.858-2.055-5.078-4.67h-0.021v-0.428v-6.701h-1.29h-3.595h-1.043c-1.862,0-3.624,0.863-4.558,2.309
			l-4.275,9.15c0,0-6.126,12.803-9.018,19.062l9.916,5.039l5.356-11.617c0.13,2.391-2.948,6.943-2.177,10.365
			c0.392,1.74,2.259,3.242,2.263,3.701c0.069,6.293,0.003,9.842,0.003,12.824c0,4.23-1.712,22.961-2.445,30.791
			c5.148,0.893,10.442,1.363,15.846,1.363c8.197,0,16.144-1.074,23.708-3.084c-0.796-8.568-2.282-25.125-2.282-29.07
			c0-2.982-0.072-6.531,0-12.824c0.004-0.459,1.872-1.961,2.266-3.701c0.77-3.422-2.308-7.975-2.18-10.365l5.356,11.617l0.679-0.227
			l7.071-2.357l2.392-0.799C137.807,139.061,137.807,139.061,135.888,134.09z"/>
	</g>
	<path fill="#241F20" d="M73.729,134.09"/>
	<g>
		<path fill="#241F20" d="M115.68,83.434v1.872c0,0-0.855,0.214-0.976,1.068c-0.117,0.854-0.924,3.371-2.634,3.893
			c-1.708,0.521-3.844,0.238-4.746-0.475c-0.9-0.711-1.212-1.495-1.471-2.279c-0.263-0.782-0.212-1.732-1.281-1.732
			s-0.901,1.092-1.141,1.662c-0.235,0.569-0.711,1.873-1.754,2.468c-1.045,0.595-2.706,0.902-4.391,0.405
			c-1.688-0.5-2.445-2.684-2.731-3.727c-0.284-1.044-1.044-1.425-1.044-1.425v-1.828c0,0,2.398-0.332,4.582-0.309
			c2.182,0.023,3.867,0.382,4.364,0.642c0.498,0.26,0.62,0.926,2.114,0.926c1.493,0,1.86-0.716,2.135-0.902
			C107.422,83.208,109.877,82.744,115.68,83.434z"/>
		<path fill="#424242" d="M113.875,86.282c0.025-0.558-0.05-1.771-1.02-2.166c-0.976-0.396-3.562-0.258-4.912,0.118
			c-1.354,0.372-1.663,1.303-1.638,1.838c0.023,0.537,0.14,2.869,1.847,3.498c1.709,0.629,4.155,0.465,4.867-0.653
			C113.734,87.799,113.843,86.973,113.875,86.282z"/>
		<path fill="#424242" d="M95.318,86.282c-0.025-0.559,0.05-1.771,1.021-2.166s3.56-0.258,4.912,0.118
			c1.354,0.372,1.663,1.301,1.639,1.838c-0.023,0.537-0.144,2.862-1.852,3.493c-1.709,0.627-4.154,0.464-4.865-0.65
			C95.46,87.794,95.35,86.971,95.318,86.282z"/>
	</g>
	<path fill="#A28B50" d="M84.596,119.418c0,0,2.635-31.507,3.461-44.542c0.693-10.928,5.366-13.681,16.312-13.681
		c10.945,0,16.75,2.734,16.75,13.681h-0.01l3.07,44.917c0,0-8.384,1.893-9.695,0c3.699-9.686,0-47.985,0-47.985H94.247
		c0,0-2.792,43.809,0,47.985c0.736,1.104-2.343,1.117-5.252,0.713C86.514,120.16,84.596,119.418,84.596,119.418z"/>
	
		<text transform="matrix(0.9791 -0.2034 0.2034 0.9791 52.2749 77.063)" fill="#F15D22" font-family="'HelveticaNeue-Bold'" font-size="58.4774">?</text>
	
		<text transform="matrix(0.8361 0.5485 -0.5485 0.8361 128.0063 61.5405)" fill="#F15D22" font-family="'HelveticaNeue-Bold'" font-size="42.9991">?</text>
</g>
</svg>
