<?xml version="1.0" encoding="utf-8"?>
<!-- Generator: Adobe Illustrator 16.0.0, SVG Export Plug-In . SVG Version: 6.00 Build 0)  -->
<!DOCTYPE svg PUBLIC "-//W3C//DTD SVG 1.1//EN" "http://www.w3.org/Graphics/SVG/1.1/DTD/svg11.dtd">
<svg version="1.1" id="Layer_1" xmlns="http://www.w3.org/2000/svg" xmlns:xlink="http://www.w3.org/1999/xlink" x="0px" y="0px"
	 width="288.494px" height="284.722px" viewBox="0 0 288.494 284.722" enable-background="new 0 0 288.494 284.722"
	 xml:space="preserve">
<g>
	<g>
		<path fill-rule="evenodd" clip-rule="evenodd" fill="#F8CB96" d="M196.971,162.124c-0.975,1.102-4.906-2.125-6.242-2.477
			c0.596,6.34-3.348,16.285-9.883,14.564c3.744,6.238-7.941,16.814-16.348,15.359c3.93,7.232,3.582,19.932-4.605,20.004
			c4.834,5.32-0.951,14.662-6.971,16.777c11.303,6.945,17.59,8.303,31.68,12.057c9.344,3.486,33.02,3.16,41.383-4.721
			c3.928-3.707-8.51,0.896-4.652-5.604c3.832-6.475,9.562-13.488,10.807-18.234c2.057-7.875-7.146-11.666-13.852-15.678"/>
		<path fill-rule="evenodd" clip-rule="evenodd" fill="#F8CB96" stroke="#F7CB95" stroke-miterlimit="10" d="M188.975,160.622
			c-4.277-3.441-27.494-20.189-34.484-17.25c-4.963,2.074-7.594,9.273-5.658,12.566c1.66,2.832,28.393,23.455,33.701,23.443
			C190.887,179.366,194.684,165.196,188.975,160.622z"/>
		<path fill-rule="evenodd" clip-rule="evenodd" fill="#F8CB96" stroke="#F7CB95" stroke-miterlimit="10" d="M179.992,178.456
			c-2.441-3.221-11.832-7.764-20.115-12.666c-8.066-4.789-20.193-14.98-25.242-5.26c-4.424,8.494,7.758,13.553,17.617,19.4
			c8.223,4.877,20.553,15.092,26.375,9.658C183.008,185.487,181.172,179.995,179.992,178.456z"/>
		<path fill-rule="evenodd" clip-rule="evenodd" fill="#F8CB96" stroke="#F7CB95" stroke-miterlimit="10" d="M169.641,194.499
			c-2.615-3.154-29.572-21.02-36.273-19.211c-2.729,0.717-5.066,3.672-6.062,6.043c-3.291,7.879,8.076,12.574,17.391,17.904
			c8.664,4.965,18.25,13.002,24.219,6.75C174.004,200.667,171.057,196.208,169.641,194.499z"/>
		<path fill-rule="evenodd" clip-rule="evenodd" fill="#F8CB96" stroke="#F7CB95" stroke-width="2" stroke-miterlimit="10" d="
			M124.324,207.67c2.809,3.717,24.811,21.484,33.994,16.174c4.219-2.443,3.756-8.48-0.004-11.473
			c-6.398-5.09-19.643-12.496-25.715-14.205c-2.879-0.809-5.369,0.393-6.561,2.057C123.125,204.262,124.203,207.506,124.324,207.67z
			"/>
	</g>
	<path fill="#414142" d="M171.543,246.614c-1.23,4.867-6.174,7.812-11.039,6.584l-78.336-19.801
		c-4.867-1.23-7.816-6.174-6.584-11.041l43.363-171.549c1.232-4.865,6.176-7.812,11.043-6.584l78.332,19.805
		c4.871,1.229,7.812,6.171,6.586,11.04L171.543,246.614z"/>
	<path fill="#FFFFFF" d="M172.537,219.735c-0.957,3.779-5.229,5.963-9.543,4.871l-69.432-17.551c-4.314-1.092-7.039-5.041-6.08-8.82
		l33.684-133.246c0.953-3.781,5.225-5.962,9.539-4.87l69.434,17.551c4.314,1.091,7.035,5.04,6.082,8.818L172.537,219.735z"/>
	<g>
		<defs>
			<path id="SVGID_1_" d="M172.365,220.581c-0.965,3.832-5.246,6.053-9.561,4.967l-69.441-17.512
				c-4.318-1.088-7.031-5.074-6.068-8.902l34.039-134.992c0.969-3.828,5.248-6.052,9.561-4.965l69.447,17.513
				c4.314,1.085,7.029,5.072,6.062,8.903L172.365,220.581z"/>
		</defs>
		<clipPath id="SVGID_2_">
			<use xlink:href="#SVGID_1_"  overflow="visible"/>
		</clipPath>
		<g transform="matrix(1 0 0 1 7.629395e-06 3.814697e-06)" clip-path="url(#SVGID_2_)">
			
				<image overflow="visible" width="643" height="775" xlink:href="whatts-android-holo-theme.png"  transform="matrix(0.241 -2.961624e-04 2.879841e-04 0.2344 71.2124 53.2041)">
			</image>
		</g>
	</g>
	<path fill="#8F9294" d="M130.117,231.5c-0.762,3.012-3.816,4.834-6.83,4.074c-3.014-0.758-4.836-3.818-4.072-6.83
		c0.76-3.01,3.818-4.834,6.83-4.072S130.881,228.491,130.117,231.5z"/>
	<g>
		<path fill-rule="evenodd" clip-rule="evenodd" fill="#F8CB96" d="M189.723,184.206c1.146-0.727,2.115-5.215,1.977-6.654
			c-1.66-12.598-23.926-36.565-18.037-47.443c1.746-3.224,9.408-7.002,13.23-5.1c3.994,1.979,3.967,6.577,7.52,12.255
			c7.475,11.909,32,35.448,36.203,47.227c2.531,7.082,3.111,14.986,13.506,26.879"/>
	</g>
	<g>
		<path fill="#F8CB96" d="M255.012,219.53c-16.205-11.047-24.393-22.018-34.582-21.621c-13.898,0.543-52.311,35.805-39.027,39.65
			c16.254,4.709,24.9,14.062,30.641,20.521C228.686,248.034,243.256,234.915,255.012,219.53z"/>
	</g>
	<path fill="none" stroke="#414142" stroke-miterlimit="10" d="M278.971,142.36c0,73.857-59.873,133.726-133.723,133.726
		c-73.857,0-133.725-59.869-133.725-133.726c0-73.851,59.867-133.725,133.725-133.725C219.098,8.636,278.971,68.51,278.971,142.36z"
		/>
</g>
</svg>
