<?xml version="1.0" encoding="utf-8"?>
<!-- Generator: Adobe Illustrator 16.0.0, SVG Export Plug-In . SVG Version: 6.00 Build 0)  -->
<!DOCTYPE svg PUBLIC "-//W3C//DTD SVG 1.1//EN" "http://www.w3.org/Graphics/SVG/1.1/DTD/svg11.dtd">
<svg version="1.1" id="Layer_1" xmlns="http://www.w3.org/2000/svg" xmlns:xlink="http://www.w3.org/1999/xlink" x="0px" y="0px"
	 width="199.977px" height="195.744px" viewBox="0 0 199.977 195.744" enable-background="new 0 0 199.977 195.744"
	 xml:space="preserve">
<g>
	<defs>
		<path id="SVGID_1_" d="M191.606,97.853c0,50.052-40.577,90.626-90.625,90.626c-50.053,0-90.627-40.575-90.627-90.626
			c0-50.05,40.574-90.627,90.627-90.627C151.029,7.226,191.606,47.802,191.606,97.853z"/>
	</defs>
	<use xlink:href="#SVGID_1_"  overflow="visible" fill="#FFFFFF"/>
	<clipPath id="SVGID_2_">
		<use xlink:href="#SVGID_1_"  overflow="visible"/>
	</clipPath>
	<g clip-path="url(#SVGID_2_)">
		<path fill="#F7CA96" d="M30.688,125.919c0,0.599,0.346,1.083,0.776,1.083c0.426,0,0.776-0.485,0.776-1.083
			c0-0.595-0.292-1.436-0.721-1.436C31.093,124.483,30.688,125.325,30.688,125.919z"/>
		<polyline fill="#992B23" points="45.974,116.84 38.482,129.328 31.878,128.144 42.591,102.165 		"/>
		<polygon fill="#BE946B" points="84.513,147.946 84.48,147.946 81.898,147.946 46.993,147.946 44.414,147.946 44.414,150.531 
			44.414,187.198 46.993,187.198 46.993,150.531 81.898,150.531 81.898,187.198 84.48,187.198 84.48,150.531 84.513,150.531 		"/>
		<rect x="60.463" y="84.128" fill="#F7CA96" width="8.072" height="10.085"/>
		<path fill="#F7CA96" d="M70.306,60.812H58.391c-2.025,0-3.668,1.643-3.668,3.666v13.543c0,0.525,0.113,1.016,0.311,1.467
			c1.061,4.159,4.825,7.238,9.313,7.238c4.489,0,8.25-3.079,9.31-7.238c0.201-0.451,0.314-0.942,0.314-1.467V64.478
			C73.971,62.454,72.327,60.812,70.306,60.812z"/>
		<rect x="50.549" y="172.752" fill="#6E6F71" width="5.498" height="4.989"/>
		<rect x="72.544" y="172.752" fill="#6E6F71" width="5.499" height="4.989"/>
		<path fill="#992B23" d="M54.108,91.828h-3.163c-2.026,0-3.667,1.625-3.667,3.631v43.872v0.493v3.632h3.156h27.737h3.727v-3.632
			v-0.153l-0.062-44.211c0-2.006-1.641-3.631-3.665-3.631h-3.101"/>
		<path fill="#3F251A" d="M57.912,61.832c0,0,4.346,4.581,9.541,4.479c5.193-0.103,10.384-3.564,10.384-3.564l-3.157-0.102
			l0.812-0.813H74.48l2.032-1.021l-3.665-0.61c0,0-0.102-5.191-2.953-6.413c-2.85-1.222-9.47-0.611-13.031,3.971
			c0,0-2.953-1.018-4.279,1.118c-1.172,1.891-0.307,5.298,1.326,6.721v5.653h0.812v-5.485
			C54.723,65.766,57.912,66.756,57.912,61.832z"/>
		<rect x="53.911" y="65.154" fill="#3F251A" width="1.12" height="7.317"/>
		<rect x="73.257" y="64.276" fill="#3F251A" width="1.119" height="8.195"/>
		<g>
			<g>
				<g>
					<g id="Layer_2_31_">
						<path fill="#3F251A" d="M61.843,80.298c0.747,0,2.058-0.375,2.621-1.497c0.561,1.122,1.871,1.497,2.619,1.497
							c2.433,0,2.807-1.686,2.807-1.686c-0.186,0.188-0.56,0.376-1.122,0.376c-0.934,0-1.12-1.687-2.433-1.687
							c-1.31,0-1.871,0.936-1.871,0.936s-0.563-0.936-1.874-0.936c-1.306,0-1.496,1.687-2.432,1.687
							c-0.562,0-0.936-0.188-1.12-0.376C59.039,78.613,59.41,80.298,61.843,80.298z"/>
					</g>
				</g>
			</g>
			<g id="Layer_2_669_">
				<path fill="#3F251A" d="M64.464,78.237c0,0-0.563-0.936-1.874-0.936c-1.306,0-1.496,1.687-2.432,1.687
					c-0.562,0-0.936-0.188-1.12-0.376c0,0,0.372,1.686,2.804,1.686c0.747,0,2.058-0.375,2.621-1.497"/>
			</g>
		</g>
		
			<line fill="none" stroke="#241F20" stroke-width="0.6612" stroke-miterlimit="10" x1="64.588" y1="143.393" x2="64.588" y2="91.767"/>
		<g>
			<g>
				<g>
					<g id="Layer_2_30_">
						<path fill="#424242" d="M53.38,97.432c0.18,0,0.499-0.088,0.632-0.36c0.136,0.271,0.449,0.36,0.634,0.36
							c0.586,0,0.674-0.406,0.674-0.406c-0.043,0.046-0.136,0.091-0.27,0.091c-0.225,0-0.27-0.408-0.59-0.408
							c-0.312,0-0.449,0.229-0.449,0.229s-0.134-0.229-0.452-0.229c-0.317,0-0.363,0.408-0.587,0.408
							c-0.135,0-0.227-0.045-0.272-0.091C52.701,97.026,52.792,97.432,53.38,97.432z"/>
					</g>
				</g>
			</g>
			<circle fill="#424242" cx="53.113" cy="95.642" r="0.819"/>
			<circle fill="#424242" cx="54.927" cy="95.65" r="0.82"/>
			<g id="Layer_2_666_">
				<path fill="#424242" d="M54.013,96.937c0,0-0.134-0.229-0.452-0.229c-0.317,0-0.363,0.408-0.588,0.408
					c-0.134,0-0.226-0.045-0.271-0.091c0,0,0.091,0.406,0.679,0.406c0.18,0,0.499-0.088,0.632-0.36"/>
			</g>
		</g>
		<g>
			<g>
				<g>
					<g id="Layer_2_29_">
						<path fill="#424242" d="M59.902,103.952c0.181,0,0.496-0.089,0.631-0.36c0.135,0.271,0.449,0.36,0.632,0.36
							c0.585,0,0.678-0.406,0.678-0.406c-0.043,0.045-0.137,0.091-0.27,0.091c-0.226,0-0.271-0.406-0.59-0.406
							c-0.314,0-0.449,0.225-0.449,0.225s-0.135-0.225-0.45-0.225c-0.318,0-0.362,0.406-0.588,0.406
							c-0.135,0-0.225-0.046-0.272-0.091C59.223,103.546,59.316,103.952,59.902,103.952z"/>
					</g>
				</g>
			</g>
			<circle fill="#424242" cx="59.636" cy="102.165" r="0.822"/>
			<path fill="#424242" d="M62.271,102.173c0,0.451-0.37,0.82-0.823,0.82c-0.45,0-0.817-0.369-0.817-0.82
				c0-0.455,0.368-0.82,0.817-0.82C61.901,101.353,62.271,101.718,62.271,102.173z"/>
			<g id="Layer_2_663_">
				<path fill="#424242" d="M60.533,103.457c0,0-0.135-0.225-0.45-0.225c-0.318,0-0.362,0.406-0.588,0.406
					c-0.135,0-0.225-0.046-0.272-0.091c0,0,0.093,0.406,0.68,0.406c0.181,0,0.496-0.089,0.631-0.36"/>
			</g>
		</g>
		<g>
			<g>
				<g>
					<g id="Layer_2_28_">
						<path fill="#424242" d="M67.834,111.883c0.181,0,0.495-0.089,0.633-0.358c0.134,0.269,0.449,0.358,0.634,0.358
							c0.583,0,0.671-0.406,0.671-0.406c-0.043,0.048-0.133,0.091-0.268,0.091c-0.225,0-0.271-0.406-0.588-0.406
							c-0.315,0-0.449,0.222-0.449,0.222s-0.138-0.222-0.452-0.222c-0.318,0-0.364,0.406-0.588,0.406
							c-0.138,0-0.229-0.043-0.272-0.091C67.155,111.478,67.245,111.883,67.834,111.883z"/>
					</g>
				</g>
			</g>
			<circle fill="#424242" cx="67.567" cy="110.095" r="0.818"/>
			<path fill="#424242" d="M70.202,110.104c0,0.453-0.367,0.818-0.824,0.818c-0.451,0-0.815-0.366-0.815-0.818
				c0-0.453,0.364-0.82,0.815-0.82C69.834,109.284,70.202,109.651,70.202,110.104z"/>
			<g id="Layer_2_660_">
				<path fill="#424242" d="M68.464,111.385c0,0-0.135-0.222-0.45-0.222c-0.318,0-0.364,0.406-0.588,0.406
					c-0.138,0-0.229-0.043-0.272-0.091c0,0,0.09,0.406,0.679,0.406c0.181,0,0.495-0.089,0.63-0.358"/>
			</g>
		</g>
		<g>
			<g>
				<g>
					<g id="Layer_2_27_">
						<path fill="#424242" d="M75.556,119.608c0.181,0,0.497-0.091,0.633-0.362c0.136,0.271,0.451,0.362,0.63,0.362
							c0.588,0,0.677-0.406,0.677-0.406c-0.047,0.043-0.134,0.087-0.271,0.087c-0.225,0-0.274-0.407-0.585-0.407
							c-0.315,0-0.451,0.229-0.451,0.229s-0.136-0.229-0.452-0.229c-0.316,0-0.364,0.407-0.586,0.407
							c-0.134,0-0.229-0.043-0.271-0.087C74.879,119.203,74.968,119.608,75.556,119.608z"/>
					</g>
				</g>
			</g>
			<circle fill="#424242" cx="75.289" cy="117.817" r="0.82"/>
			<circle fill="#424242" cx="77.103" cy="117.825" r="0.819"/>
			<g id="Layer_2_657_">
				<path fill="#424242" d="M76.188,119.112c0,0-0.136-0.229-0.452-0.229c-0.316,0-0.364,0.407-0.59,0.407
					c-0.13,0-0.225-0.043-0.267-0.087c0,0,0.088,0.406,0.676,0.406c0.181,0,0.497-0.091,0.633-0.362"/>
			</g>
		</g>
		<g>
			<g>
				<g>
					<g id="Layer_2_26_">
						<path fill="#424242" d="M67.834,98.577c0.181,0,0.495-0.089,0.633-0.362c0.134,0.273,0.449,0.362,0.634,0.362
							c0.583,0,0.671-0.408,0.671-0.408c-0.043,0.045-0.133,0.089-0.268,0.089c-0.225,0-0.271-0.405-0.588-0.405
							c-0.315,0-0.449,0.228-0.449,0.228s-0.138-0.228-0.452-0.228c-0.318,0-0.364,0.405-0.588,0.405
							c-0.138,0-0.229-0.043-0.272-0.089C67.155,98.169,67.245,98.577,67.834,98.577z"/>
					</g>
				</g>
			</g>
			<circle fill="#424242" cx="67.567" cy="96.787" r="0.818"/>
			<path fill="#424242" d="M70.202,96.796c0,0.45-0.367,0.817-0.824,0.817c-0.451,0-0.815-0.367-0.815-0.817
				c0-0.454,0.364-0.821,0.815-0.821C69.834,95.975,70.202,96.342,70.202,96.796z"/>
			<g id="Layer_2_654_">
				<path fill="#424242" d="M68.464,98.08c0,0-0.135-0.228-0.45-0.228c-0.318,0-0.364,0.405-0.588,0.405
					c-0.138,0-0.229-0.043-0.272-0.089c0,0,0.09,0.408,0.679,0.408c0.181,0,0.495-0.089,0.63-0.362"/>
			</g>
		</g>
		<g>
			<g>
				<g>
					<g id="Layer_2_25_">
						<path fill="#424242" d="M75.556,106.299c0.181,0,0.497-0.091,0.633-0.362c0.136,0.271,0.451,0.362,0.63,0.362
							c0.588,0,0.677-0.409,0.677-0.409c-0.047,0.047-0.134,0.095-0.271,0.095c-0.225,0-0.274-0.407-0.585-0.407
							c-0.315,0-0.451,0.225-0.451,0.225s-0.136-0.225-0.452-0.225c-0.316,0-0.364,0.407-0.586,0.407
							c-0.134,0-0.229-0.047-0.271-0.095C74.879,105.89,74.968,106.299,75.556,106.299z"/>
					</g>
				</g>
			</g>
			<circle fill="#424242" cx="75.289" cy="104.507" r="0.82"/>
			<path fill="#424242" d="M77.922,104.519c0,0.453-0.366,0.816-0.82,0.816c-0.452,0-0.818-0.364-0.818-0.816
				c0-0.455,0.366-0.82,0.818-0.82C77.557,103.698,77.922,104.063,77.922,104.519z"/>
			<g id="Layer_2_651_">
				<path fill="#424242" d="M76.188,105.803c0,0-0.136-0.225-0.452-0.225c-0.316,0-0.364,0.407-0.59,0.407
					c-0.13,0-0.225-0.047-0.267-0.095c0,0,0.088,0.409,0.676,0.409c0.181,0,0.497-0.091,0.633-0.362"/>
			</g>
		</g>
		<g>
			<g>
				<g>
					<g id="Layer_2_24_">
						<path fill="#424242" d="M53.38,111.29c0.18,0,0.499-0.091,0.632-0.362c0.136,0.271,0.449,0.362,0.634,0.362
							c0.586,0,0.674-0.405,0.674-0.405c-0.043,0.043-0.136,0.091-0.27,0.091c-0.225,0-0.27-0.407-0.59-0.407
							c-0.312,0-0.449,0.224-0.449,0.224s-0.134-0.224-0.452-0.224c-0.317,0-0.363,0.407-0.587,0.407
							c-0.135,0-0.227-0.047-0.272-0.091C52.701,110.885,52.792,111.29,53.38,111.29z"/>
					</g>
				</g>
			</g>
			<path fill="#424242" d="M53.931,109.502c0,0.453-0.365,0.818-0.817,0.818c-0.453,0-0.82-0.365-0.82-0.818
				c0-0.455,0.367-0.821,0.82-0.821C53.566,108.681,53.931,109.047,53.931,109.502z"/>
			<path fill="#424242" d="M55.747,109.509c0,0.452-0.367,0.817-0.818,0.817c-0.453,0-0.821-0.365-0.821-0.817
				c0-0.454,0.368-0.818,0.821-0.818C55.38,108.691,55.747,109.055,55.747,109.509z"/>
			<g id="Layer_2_648_">
				<path fill="#424242" d="M54.013,110.792c0,0-0.134-0.224-0.452-0.224c-0.317,0-0.363,0.407-0.588,0.407
					c-0.134,0-0.226-0.047-0.271-0.091c0,0,0.091,0.405,0.679,0.405c0.18,0,0.499-0.091,0.632-0.362"/>
			</g>
		</g>
		<g>
			<g>
				<g>
					<g id="Layer_2_23_">
						<path fill="#424242" d="M59.902,117.812c0.181,0,0.496-0.09,0.631-0.359c0.135,0.269,0.449,0.359,0.632,0.359
							c0.585,0,0.678-0.407,0.678-0.407c-0.043,0.048-0.137,0.091-0.27,0.091c-0.226,0-0.271-0.407-0.59-0.407
							c-0.314,0-0.449,0.227-0.449,0.227s-0.135-0.227-0.45-0.227c-0.318,0-0.362,0.407-0.588,0.407
							c-0.135,0-0.225-0.043-0.272-0.091C59.223,117.404,59.316,117.812,59.902,117.812z"/>
					</g>
				</g>
			</g>
			<circle fill="#424242" cx="59.636" cy="116.021" r="0.822"/>
			<path fill="#424242" d="M62.271,116.031c0,0.451-0.37,0.819-0.823,0.819c-0.45,0-0.817-0.368-0.817-0.819
				c0-0.453,0.368-0.82,0.817-0.82C61.901,115.21,62.271,115.578,62.271,116.031z"/>
			<g id="Layer_2_645_">
				<path fill="#424242" d="M60.533,117.315c0,0-0.135-0.227-0.45-0.227c-0.318,0-0.362,0.407-0.588,0.407
					c-0.135,0-0.225-0.043-0.272-0.091c0,0,0.093,0.407,0.68,0.407c0.181,0,0.496-0.09,0.631-0.359"/>
			</g>
		</g>
		<g>
			<g>
				<g>
					<g id="Layer_2_22_">
						<path fill="#424242" d="M67.834,125.741c0.181,0,0.495-0.09,0.633-0.36c0.134,0.27,0.449,0.36,0.634,0.36
							c0.583,0,0.671-0.403,0.671-0.403c-0.043,0.043-0.133,0.089-0.268,0.089c-0.225,0-0.271-0.405-0.588-0.405
							c-0.315,0-0.449,0.226-0.449,0.226s-0.138-0.226-0.452-0.226c-0.318,0-0.364,0.405-0.588,0.405
							c-0.138,0-0.229-0.045-0.272-0.089C67.155,125.338,67.245,125.741,67.834,125.741z"/>
					</g>
				</g>
			</g>
			<circle fill="#424242" cx="67.567" cy="123.953" r="0.818"/>
			<path fill="#424242" d="M70.202,123.96c0,0.453-0.367,0.819-0.824,0.819c-0.451,0-0.815-0.366-0.815-0.819
				c0-0.451,0.364-0.817,0.815-0.817C69.834,123.144,70.202,123.51,70.202,123.96z"/>
			<g id="Layer_2_642_">
				<path fill="#424242" d="M68.464,125.247c0,0-0.135-0.226-0.45-0.226c-0.318,0-0.364,0.405-0.588,0.405
					c-0.138,0-0.229-0.045-0.272-0.089c0,0,0.09,0.403,0.679,0.403c0.181,0,0.495-0.09,0.63-0.36"/>
			</g>
		</g>
		<g>
			<g>
				<g>
					<g id="Layer_2_21_">
						<path fill="#424242" d="M75.556,133.464c0.181,0,0.497-0.089,0.633-0.362c0.136,0.272,0.451,0.362,0.63,0.362
							c0.588,0,0.677-0.407,0.677-0.407c-0.047,0.045-0.134,0.093-0.271,0.093c-0.225,0-0.274-0.407-0.585-0.407
							c-0.315,0-0.451,0.225-0.451,0.225s-0.136-0.225-0.452-0.225c-0.316,0-0.364,0.407-0.586,0.407
							c-0.134,0-0.229-0.047-0.271-0.093C74.879,133.057,74.968,133.464,75.556,133.464z"/>
					</g>
				</g>
			</g>
			<circle fill="#424242" cx="75.289" cy="131.674" r="0.82"/>
			<circle fill="#424242" cx="77.103" cy="131.684" r="0.819"/>
			<g id="Layer_2_639_">
				<path fill="#424242" d="M76.188,132.968c0,0-0.136-0.225-0.452-0.225c-0.316,0-0.364,0.407-0.59,0.407
					c-0.13,0-0.225-0.047-0.267-0.093c0,0,0.088,0.407,0.676,0.407c0.181,0,0.497-0.089,0.633-0.362"/>
			</g>
		</g>
		<g>
			<g>
				<g>
					<g id="Layer_2_20_">
						<path fill="#424242" d="M53.38,124.631c0.18,0,0.499-0.093,0.632-0.362c0.136,0.269,0.449,0.362,0.634,0.362
							c0.586,0,0.674-0.409,0.674-0.409c-0.043,0.047-0.136,0.091-0.27,0.091c-0.225,0-0.27-0.405-0.59-0.405
							c-0.312,0-0.449,0.227-0.449,0.227s-0.134-0.227-0.452-0.227c-0.317,0-0.363,0.405-0.587,0.405
							c-0.135,0-0.227-0.044-0.272-0.091C52.701,124.222,52.792,124.631,53.38,124.631z"/>
					</g>
				</g>
			</g>
			<circle fill="#424242" cx="53.113" cy="122.841" r="0.819"/>
			<circle fill="#424242" cx="54.927" cy="122.849" r="0.82"/>
			<g id="Layer_2_636_">
				<path fill="#424242" d="M54.013,124.135c0,0-0.134-0.227-0.452-0.227c-0.317,0-0.363,0.405-0.588,0.405
					c-0.134,0-0.226-0.044-0.271-0.091c0,0,0.091,0.409,0.679,0.409c0.18,0,0.499-0.093,0.632-0.362"/>
			</g>
		</g>
		<g>
			<g>
				<g>
					<g id="Layer_2_19_">
						<path fill="#424242" d="M59.902,131.149c0.181,0,0.496-0.087,0.631-0.36c0.135,0.273,0.449,0.36,0.632,0.36
							c0.585,0,0.678-0.403,0.678-0.403c-0.043,0.043-0.137,0.091-0.27,0.091c-0.226,0-0.271-0.407-0.59-0.407
							c-0.314,0-0.449,0.227-0.449,0.227s-0.135-0.227-0.45-0.227c-0.318,0-0.362,0.407-0.588,0.407
							c-0.135,0-0.225-0.047-0.272-0.091C59.223,130.746,59.316,131.149,59.902,131.149z"/>
					</g>
				</g>
			</g>
			<path fill="#424242" d="M60.458,129.36c0,0.453-0.369,0.82-0.823,0.82c-0.452,0-0.82-0.367-0.82-0.82
				c0-0.449,0.369-0.818,0.82-0.818C60.089,128.542,60.458,128.912,60.458,129.36z"/>
			<path fill="#424242" d="M62.271,129.368c0,0.455-0.37,0.82-0.823,0.82c-0.45,0-0.817-0.366-0.817-0.82
				c0-0.449,0.368-0.819,0.817-0.819C61.901,128.549,62.271,128.919,62.271,129.368z"/>
			<g id="Layer_2_633_">
				<path fill="#424242" d="M60.533,130.656c0,0-0.135-0.227-0.45-0.227c-0.318,0-0.362,0.407-0.588,0.407
					c-0.135,0-0.225-0.047-0.272-0.091c0,0,0.093,0.403,0.68,0.403c0.181,0,0.496-0.087,0.631-0.36"/>
			</g>
		</g>
		<g>
			<g>
				<g>
					<g id="Layer_2_18_">
						<path fill="#424242" d="M67.834,139.083c0.181,0,0.495-0.091,0.633-0.362c0.134,0.271,0.449,0.362,0.634,0.362
							c0.583,0,0.671-0.405,0.671-0.405c-0.043,0.043-0.133,0.088-0.268,0.088c-0.225,0-0.271-0.407-0.588-0.407
							c-0.315,0-0.449,0.226-0.449,0.226s-0.138-0.226-0.452-0.226c-0.318,0-0.364,0.407-0.588,0.407
							c-0.138,0-0.229-0.045-0.272-0.088C67.155,138.677,67.245,139.083,67.834,139.083z"/>
					</g>
				</g>
			</g>
			<path fill="#424242" d="M68.385,137.293c0,0.452-0.366,0.817-0.819,0.817c-0.452,0-0.817-0.365-0.817-0.817
				c0-0.454,0.366-0.82,0.817-0.82C68.02,136.474,68.385,136.839,68.385,137.293z"/>
			<path fill="#424242" d="M70.202,137.301c0,0.451-0.367,0.817-0.824,0.817c-0.451,0-0.815-0.366-0.815-0.817
				c0-0.455,0.364-0.82,0.815-0.82C69.834,136.481,70.202,136.847,70.202,137.301z"/>
			<g id="Layer_2_630_">
				<path fill="#424242" d="M68.464,138.584c0,0-0.135-0.226-0.45-0.226c-0.318,0-0.364,0.407-0.588,0.407
					c-0.138,0-0.229-0.045-0.272-0.088c0,0,0.09,0.405,0.679,0.405c0.181,0,0.495-0.091,0.63-0.362"/>
			</g>
		</g>
		<g>
			<g>
				<g>
					<g id="Layer_2_17_">
						<path fill="#424242" d="M53.38,138.156c0.18,0,0.499-0.089,0.632-0.364c0.136,0.275,0.449,0.364,0.634,0.364
							c0.586,0,0.674-0.407,0.674-0.407c-0.043,0.043-0.136,0.093-0.27,0.093c-0.225,0-0.27-0.407-0.59-0.407
							c-0.312,0-0.449,0.226-0.449,0.226s-0.134-0.226-0.452-0.226c-0.317,0-0.363,0.407-0.587,0.407
							c-0.135,0-0.227-0.049-0.272-0.093C52.701,137.749,52.792,138.156,53.38,138.156z"/>
					</g>
				</g>
			</g>
			<circle fill="#424242" cx="53.113" cy="136.366" r="0.819"/>
			<circle fill="#424242" cx="54.927" cy="136.375" r="0.82"/>
			<g id="Layer_2_627_">
				<path fill="#424242" d="M54.013,137.66c0,0-0.134-0.226-0.452-0.226c-0.317,0-0.363,0.407-0.588,0.407
					c-0.134,0-0.226-0.049-0.271-0.093c0,0,0.091,0.407,0.679,0.407c0.18,0,0.499-0.089,0.632-0.364"/>
			</g>
		</g>
		<polygon fill="#241F20" points="81.898,143.393 47.278,143.393 49.212,172.752 57.053,172.752 58.681,154.391 69.678,154.391 
			72.021,172.752 79.864,172.875 		"/>
		<circle fill="none" stroke="#424242" stroke-width="1.3225" stroke-miterlimit="10" cx="63.507" cy="95.434" r="0.458"/>
		<circle fill="none" stroke="#424242" stroke-width="1.3225" stroke-miterlimit="10" cx="63.507" cy="101.085" r="0.458"/>
		<circle fill="none" stroke="#424242" stroke-width="1.3225" stroke-miterlimit="10" cx="63.507" cy="106.737" r="0.458"/>
		<circle fill="none" stroke="#424242" stroke-width="1.3225" stroke-miterlimit="10" cx="63.507" cy="112.388" r="0.458"/>
		<circle fill="none" stroke="#424242" stroke-width="1.3225" stroke-miterlimit="10" cx="63.507" cy="118.037" r="0.458"/>
		<circle fill="none" stroke="#424242" stroke-width="1.3225" stroke-miterlimit="10" cx="63.507" cy="123.691" r="0.458"/>
		<circle fill="none" stroke="#424242" stroke-width="1.3225" stroke-miterlimit="10" cx="63.507" cy="129.342" r="0.458"/>
		<path fill="none" stroke="#424242" stroke-width="1.3225" stroke-miterlimit="10" d="M63.966,134.992
			c0,0.253-0.208,0.46-0.458,0.46c-0.253,0-0.458-0.207-0.458-0.46c0-0.25,0.206-0.455,0.458-0.455
			C63.758,134.537,63.966,134.742,63.966,134.992z"/>
		<circle fill="none" stroke="#424242" stroke-width="1.3225" stroke-miterlimit="10" cx="63.507" cy="140.644" r="0.458"/>
		<polygon fill="#241F20" points="64.588,91.828 60.184,89.171 58.814,91.828 62.666,94.06 		"/>
		<polygon fill="#241F20" points="64.588,91.828 68.924,89.171 70.293,91.828 66.443,94.06 		"/>
		<g>
			<g>
				<g>
					<g id="Layer_2_16_">
						<path fill="#424242" d="M79.377,97.436c0.127-0.126,0.285-0.415,0.192-0.701c0.286,0.096,0.573-0.063,0.701-0.193
							c0.417-0.416,0.19-0.765,0.19-0.765c0,0.062-0.032,0.159-0.124,0.253c-0.162,0.163-0.482-0.096-0.705,0.129
							c-0.224,0.223-0.16,0.478-0.16,0.478s-0.255-0.062-0.477,0.16c-0.227,0.224,0.033,0.542-0.129,0.703
							c-0.098,0.097-0.189,0.129-0.253,0.129C78.613,97.629,78.963,97.853,79.377,97.436z"/>
					</g>
				</g>
			</g>
			<path fill="#424242" d="M78.502,95.781c0.32,0.318,0.32,0.839,0,1.156c-0.319,0.322-0.839,0.322-1.158,0
				c-0.32-0.317-0.32-0.838-0.001-1.156C77.664,95.459,78.183,95.459,78.502,95.781z"/>
			<path fill="#424242" d="M79.791,94.502c0.317,0.319,0.317,0.839,0,1.159c-0.319,0.318-0.839,0.318-1.158,0
				c-0.321-0.319-0.321-0.837,0-1.159C78.952,94.183,79.472,94.183,79.791,94.502z"/>
			<g id="Layer_2_624_">
				<path fill="#424242" d="M79.472,96.639c0,0-0.255-0.063-0.477,0.159c-0.227,0.224,0.033,0.542-0.129,0.703
					c-0.098,0.097-0.189,0.129-0.253,0.129c0,0,0.35,0.223,0.764-0.193c0.127-0.126,0.285-0.415,0.192-0.701"/>
			</g>
		</g>
		<g>
			<g>
				<g>
					<g id="Layer_2_15_">
						<path fill="#424242" d="M48.322,104.519c0.125,0.128,0.413,0.288,0.704,0.191c-0.098,0.288,0.06,0.576,0.188,0.705
							c0.416,0.413,0.766,0.189,0.766,0.189c-0.064,0-0.161-0.032-0.258-0.125c-0.155-0.165,0.097-0.481-0.125-0.705
							c-0.224-0.226-0.48-0.159-0.48-0.159s0.064-0.257-0.16-0.479c-0.218-0.223-0.541,0.031-0.7-0.127
							c-0.096-0.096-0.13-0.193-0.126-0.257C48.131,103.751,47.906,104.101,48.322,104.519z"/>
					</g>
				</g>
			</g>
			<path fill="#424242" d="M49.977,103.645c-0.318,0.318-0.839,0.318-1.157,0c-0.322-0.322-0.322-0.841,0-1.161
				c0.317-0.318,0.838-0.318,1.157,0C50.296,102.804,50.296,103.323,49.977,103.645z"/>
			<circle fill="#424242" cx="50.675" cy="104.353" r="0.818"/>
			<g id="Layer_2_621_">
				<path fill="#424242" d="M49.117,104.615c0,0,0.064-0.257-0.16-0.479c-0.218-0.223-0.541,0.031-0.7-0.128
					c-0.096-0.095-0.13-0.191-0.126-0.256c0,0-0.225,0.35,0.191,0.768c0.125,0.128,0.413,0.288,0.704,0.191"/>
			</g>
		</g>
		<g>
			<polygon fill="#992B23" points="58.882,100.816 48.963,92.41 42.591,102.165 45.859,115.47 			"/>
		</g>
		<g>
			<path fill="#F7CA96" d="M86.752,104.725l-6.239,2.723c0,0,2.394,9.024,4.521,10.889c3.233,2.84,6.208,2.848,7.261-2.456
				C92.778,113.441,86.752,104.725,86.752,104.725z"/>
			<polygon fill="#992B23" points="70.13,100.816 80.055,92.41 91.832,107.55 83.156,115.47 			"/>
		</g>
		<g>
			<g>
				<g>
					<g id="Layer_2_14_">
						<path fill="#424242" d="M75.556,106.299c0.181,0,0.497-0.091,0.633-0.362c0.136,0.271,0.451,0.362,0.63,0.362
							c0.588,0,0.677-0.409,0.677-0.409c-0.047,0.047-0.134,0.095-0.271,0.095c-0.225,0-0.274-0.407-0.585-0.407
							c-0.315,0-0.451,0.225-0.451,0.225s-0.136-0.225-0.452-0.225c-0.316,0-0.364,0.407-0.586,0.407
							c-0.134,0-0.229-0.047-0.271-0.095C74.879,105.89,74.968,106.299,75.556,106.299z"/>
					</g>
				</g>
			</g>
			<circle fill="#424242" cx="75.289" cy="104.507" r="0.82"/>
			<path fill="#424242" d="M77.922,104.519c0,0.453-0.366,0.816-0.82,0.816c-0.452,0-0.818-0.364-0.818-0.816
				c0-0.455,0.366-0.82,0.818-0.82C77.557,103.698,77.922,104.063,77.922,104.519z"/>
			<g id="Layer_2_618_">
				<path fill="#424242" d="M76.188,105.803c0,0-0.136-0.225-0.452-0.225c-0.316,0-0.364,0.407-0.59,0.407
					c-0.13,0-0.225-0.047-0.267-0.095c0,0,0.088,0.409,0.676,0.409c0.181,0,0.497-0.091,0.633-0.362"/>
			</g>
		</g>
		<g>
			<g>
				<g>
					<g id="Layer_2_13_">
						<path fill="#424242" d="M79.377,97.436c0.127-0.126,0.285-0.415,0.192-0.701c0.286,0.096,0.573-0.063,0.701-0.193
							c0.417-0.416,0.19-0.765,0.19-0.765c0,0.062-0.032,0.159-0.124,0.253c-0.162,0.163-0.482-0.096-0.705,0.129
							c-0.224,0.223-0.16,0.478-0.16,0.478s-0.255-0.062-0.477,0.16c-0.227,0.224,0.033,0.542-0.129,0.703
							c-0.098,0.097-0.189,0.129-0.253,0.129C78.613,97.629,78.963,97.853,79.377,97.436z"/>
					</g>
				</g>
			</g>
			<path fill="#424242" d="M78.502,95.781c0.32,0.318,0.32,0.839,0,1.156c-0.319,0.322-0.839,0.322-1.158,0
				c-0.32-0.317-0.32-0.838-0.001-1.156C77.664,95.459,78.183,95.459,78.502,95.781z"/>
			<path fill="#424242" d="M79.791,94.502c0.317,0.319,0.317,0.839,0,1.159c-0.319,0.318-0.839,0.318-1.158,0
				c-0.321-0.319-0.321-0.837,0-1.159C78.952,94.183,79.472,94.183,79.791,94.502z"/>
			<g id="Layer_2_615_">
				<path fill="#424242" d="M79.472,96.639c0,0-0.255-0.063-0.477,0.159c-0.227,0.224,0.033,0.542-0.129,0.703
					c-0.098,0.097-0.189,0.129-0.253,0.129c0,0,0.35,0.223,0.764-0.193c0.127-0.126,0.285-0.415,0.192-0.701"/>
			</g>
		</g>
		<ellipse fill="#241F20" cx="53.669" cy="143.455" rx="6.391" ry="5.353"/>
		<ellipse fill="#241F20" cx="75.507" cy="143.455" rx="6.392" ry="5.353"/>
		<polygon fill="#241F20" points="57.755,183.831 48.839,183.831 49.751,175.805 56.842,175.805 		"/>
		<path fill="#241F20" d="M46.886,187.198c0-3.543,2.872-6.412,6.411-6.412c3.543,0,6.412,2.868,6.412,6.412"/>
		<polygon fill="#241F20" points="79.965,183.831 71.049,183.831 71.961,175.805 79.055,175.805 		"/>
		<path fill="#241F20" d="M69.101,187.198c0-3.543,2.867-6.412,6.408-6.412c3.54,0,6.41,2.868,6.41,6.412"/>
		<path fill="#F7CA96" d="M37.388,125.95c-0.084-0.545,0.144-1.034,0.516-1.093c0.365-0.059,0.734,0.337,0.821,0.882
			c0.084,0.546-0.143,1.035-0.512,1.092C37.843,126.892,37.475,126.495,37.388,125.95z"/>
		<path fill="#B9BABB" d="M38.455,128.462c0-2.014-1.629-3.649-3.645-3.649c-2.01,0-3.646,1.635-3.646,3.649"/>
		<path fill="#F7CA96" d="M38.189,124.877c0,0-0.658-0.828-1.366-1.041c-0.246-0.073-1.707-1.042-3.475-0.443
			c-1.769,0.599-1.922,0.936-1.883,1.374c0.043,0.442,0.373,0.794,0.373,0.794l5.954,0.455L38.189,124.877z"/>
		<path fill="#F7CA96" d="M32.038,125.846c0,0.51,0.407,0.923,0.911,0.923c0.5,0,0.914-0.413,0.914-0.923
			c0-0.512-0.413-0.925-0.914-0.925C32.445,124.921,32.038,125.334,32.038,125.846z"/>
		<ellipse fill="#F7CA96" cx="36.154" cy="125.846" rx="0.911" ry="0.923"/>
		<g>
			<g>
				<path fill="#B9BABB" d="M88.628,125.727c0,1.66-1.48,3.005-3.307,3.005H44.047c-1.823,0-3.304-1.345-3.304-3.005V100.21
					c0-1.658,1.481-3.008,3.304-3.008h41.274c1.827,0,3.307,1.35,3.307,3.008V125.727z"/>
				
					<image overflow="visible" width="960" height="960" xlink:href="A6B3F3246DDC8C51.png"  transform="matrix(0.0072 0 0 0.0072 61.7505 108.7588)">
				</image>
			</g>
			<rect x="61.228" y="108.222" fill="#B9BABB" width="6.613" height="7.49"/>
			<g>
				<circle fill="#FFFFFF" cx="63.532" cy="111.301" r="1.545"/>
				<path fill="#FFFFFF" d="M68.431,111.315c0,0.852-0.69,1.546-1.547,1.546c-0.852,0-1.543-0.694-1.543-1.546
					c0-0.854,0.691-1.544,1.543-1.544C67.74,109.771,68.431,110.46,68.431,111.315z"/>
				<g>
					<g>
						<g id="Layer_2_12_">
							<path fill="#FFFFFF" d="M65.227,113.994c0.254,0.51,0.851,0.683,1.189,0.683c1.107,0,1.281-0.77,1.281-0.77
								c-0.09,0.087-0.258,0.175-0.514,0.175c-0.429,0-0.51-0.766-1.106-0.766c-0.597,0-0.851,0.423-0.851,0.423"/>
						</g>
					</g>
				</g>
				<g id="Layer_2_611_">
					<g>
						<path fill="#FFFFFF" d="M65.227,113.738c0,0-0.256-0.423-0.853-0.423c-0.599,0-0.684,0.766-1.107,0.766
							c-0.257,0-0.427-0.088-0.513-0.175c0,0,0.171,0.77,1.276,0.77c0.344,0,0.94-0.172,1.197-0.683"/>
					</g>
				</g>
			</g>
		</g>
		<path fill="#F7CA96" d="M116.622,126.448c0,0.601,0.348,1.082,0.774,1.082c0.435,0,0.78-0.481,0.78-1.082
			c0-0.597-0.291-1.437-0.721-1.437C117.027,125.012,116.622,125.851,116.622,126.448z"/>
		<polyline fill="#241F20" points="131.912,119.023 124.419,129.855 117.814,128.667 131.912,100.626 		"/>
		<path fill="#F7CA96" d="M123.324,126.479c-0.084-0.55,0.145-1.037,0.513-1.096c0.372-0.057,0.738,0.337,0.82,0.885
			c0.091,0.545-0.142,1.034-0.509,1.091C123.778,127.418,123.412,127.022,123.324,126.479z"/>
		<path fill="#B9BABB" d="M124.392,128.987c0-2.012-1.63-3.646-3.646-3.646c-2.011,0-3.646,1.633-3.646,3.646"/>
		<path fill="#F7CA96" d="M124.124,125.404c0,0-0.659-0.828-1.364-1.039c-0.248-0.072-1.712-1.04-3.475-0.441
			c-1.767,0.597-1.922,0.933-1.882,1.372c0.041,0.439,0.372,0.792,0.372,0.792l5.956,0.455L124.124,125.404z"/>
		<path fill="#F7CA96" d="M117.972,126.373c0,0.511,0.41,0.924,0.911,0.924c0.507,0,0.914-0.413,0.914-0.924
			c0-0.51-0.407-0.926-0.914-0.926C118.381,125.446,117.972,125.863,117.972,126.373z"/>
		<ellipse fill="#F7CA96" cx="122.09" cy="126.373" rx="0.912" ry="0.924"/>
		<polygon fill="#BE946B" points="168.891,148.475 168.863,148.475 166.279,148.475 131.374,148.475 128.794,148.475 
			128.794,151.059 128.794,187.727 131.374,187.727 131.374,151.059 166.279,151.059 166.279,187.727 168.863,187.727 
			168.863,151.059 168.891,151.059 		"/>
		<rect x="142.408" y="90.304" fill="#F7CA96" width="12.866" height="6.424"/>
		<path fill="#F7CA96" d="M155.274,96.463c0,1.738-1.547,3.147-3.457,3.147h-5.373c-1.912,0-3.458-1.41-3.458-3.147l0,0
			c0-1.742,1.546-3.15,3.458-3.15h5.373C153.727,93.313,155.274,94.722,155.274,96.463L155.274,96.463z"/>
		<rect x="140.822" y="69.417" fill="#856C39" width="16.845" height="21.089"/>
		<rect x="153.623" y="174.016" fill="#F7CA96" width="4.984" height="7.592"/>
		<rect x="138.525" y="174.016" fill="#F7CA96" width="4.987" height="7.592"/>
		<path fill="#F7CA96" d="M155.921,79.262c0-2.357,1.174-6.42,0-7.966c-1.173-1.543-4.688-0.568-6.979-0.568
			c-2.616,0-5.572-2.278-6.727-0.332c-0.863,1.462-0.251,6.84-0.251,8.866c0,4.715,2.397,8.534,6.978,8.534
			S155.921,83.977,155.921,79.262z"/>
		<g>
			<g>
				<g>
					<g id="Layer_2_10_">
						<path fill="#424242" d="M138.36,97.293c0.177,0,0.484-0.082,0.619-0.32c0.129,0.239,0.437,0.32,0.614,0.32
							c0.571,0,0.656-0.364,0.656-0.364c-0.041,0.043-0.129,0.083-0.261,0.083c-0.218,0-0.263-0.359-0.572-0.359
							c-0.308,0-0.437,0.199-0.437,0.199s-0.135-0.199-0.442-0.199c-0.306,0-0.351,0.359-0.572,0.359
							c-0.132,0-0.22-0.039-0.263-0.083C137.702,96.929,137.79,97.293,138.36,97.293z"/>
					</g>
				</g>
			</g>
			<ellipse fill="#424242" cx="138.101" cy="95.704" rx="0.798" ry="0.727"/>
			<ellipse fill="#424242" cx="139.869" cy="95.711" rx="0.797" ry="0.728"/>
			<g id="Layer_2_608_">
				<path fill="#424242" d="M138.979,96.852c0,0-0.135-0.199-0.442-0.199c-0.306,0-0.351,0.359-0.575,0.359
					c-0.129,0-0.217-0.039-0.26-0.083c0,0,0.088,0.364,0.658,0.364c0.177,0,0.484-0.082,0.619-0.32"/>
			</g>
		</g>
		<polygon fill="#2B7A80" points="161.945,139.115 135.963,139.115 138.34,174.834 144.239,174.834 146.176,151.65 150.936,151.65 
			153.553,174.761 159.168,174.958 		"/>
		<path fill="#A28B50" d="M142.344,69.977c0,0,3.744,4.065,8.222,3.973c4.479-0.089,7.11-3.161,7.11-3.161l-0.877-0.092l0.702-0.721
			h-0.876l0.962-0.902l-2.367-0.542c0,0-0.089-4.609-2.546-5.694c-2.461-1.083-8.166-0.54-11.236,3.524"/>
		<rect x="145.261" y="85.494" fill="#F7CA96" width="7.86" height="8.942"/>
		<g>
			<g>
				<path fill="none" stroke="#FFFFFF" stroke-width="1.3225" stroke-miterlimit="10" stroke-dasharray="6.8054,6.8054" d="
					M142.868,184.92"/>
				<path fill="none" stroke="#FFFFFF" stroke-width="1.3225" stroke-miterlimit="10" stroke-dasharray="6.8054,6.8054" d="
					M145.55,150.601"/>
			</g>
		</g>
		<path fill="#241F20" d="M169.832,107.139"/>
		<g>
			<path fill="#241F20" d="M142.151,75.845v1.158c0,0,0.512,0.131,0.586,0.659c0.071,0.527,0.555,2.083,1.581,2.404
				c1.027,0.323,2.307,0.148,2.85-0.292c0.541-0.443,0.727-0.924,0.885-1.407c0.156-0.485,0.125-1.071,0.77-1.071
				c0.64,0,0.541,0.671,0.682,1.023c0.143,0.352,0.427,1.161,1.056,1.528c0.628,0.367,1.624,0.557,2.639,0.249
				c1.009-0.308,1.466-1.656,1.635-2.303c0.171-0.646,0.628-0.879,0.628-0.879v-1.127c0,0-1.438-0.205-2.751-0.193
				c-1.311,0.015-2.321,0.236-2.62,0.398c-0.299,0.159-0.374,0.571-1.268,0.571c-0.9,0-1.119-0.442-1.283-0.559
				C147.107,75.704,145.634,75.419,142.151,75.845z"/>
			<path fill="#424242" d="M143.234,77.607c-0.015-0.346,0.026-1.096,0.612-1.342c0.585-0.245,2.138-0.16,2.951,0.073
				c0.813,0.232,0.997,0.806,0.987,1.137c-0.016,0.331-0.087,1.771-1.115,2.162c-1.026,0.388-2.493,0.287-2.923-0.402
				C143.321,78.541,143.254,78.033,143.234,77.607z"/>
			<path fill="#424242" d="M154.374,77.604c0.015-0.343-0.029-1.092-0.613-1.338c-0.58-0.245-2.134-0.16-2.948,0.073
				c-0.813,0.232-0.999,0.806-0.984,1.137c0.018,0.331,0.088,1.768,1.113,2.157c1.027,0.389,2.495,0.288,2.921-0.401
				C154.291,78.539,154.357,78.029,154.374,77.604z"/>
		</g>
		<path fill="#A28B50" d="M160.812,98.076c0,0-1.577-19.466-2.077-27.52c-0.414-6.749-3.22-8.45-9.793-8.45
			c-6.572,0-10.058,1.688-10.058,8.45h0.007l-1.847,27.751c0,0,5.037,1.17,5.824,0c-2.223-5.984,0-29.646,0-29.646h12.153
			c0,0,1.676,27.066,0,29.646c-0.442,0.682,1.408,0.691,3.152,0.439C159.664,98.535,160.812,98.076,160.812,98.076z"/>
		<path fill="#241F20" d="M157.712,65.722c-0.417-5.335-5.306-9.281-10.494-8.847c-5.186,0.431-9.045,5.106-8.627,10.441
			L157.712,65.722z"/>
		<path fill="#595B5C" d="M158.788,67.26c0.079,0.943-0.605,1.772-1.527,1.849l-17.585,1.468c-0.919,0.076-1.722-0.631-1.798-1.574
			l0,0c-0.074-0.946,0.564-2.313,1.486-2.39l17.588-1.467C157.869,65.069,158.716,66.313,158.788,67.26L158.788,67.26z"/>
		<g>
			<path fill="#241F20" d="M165.634,98.351c-0.423-0.821-0.677-1.308-0.677-1.308l-2.901-5.653c-0.631-0.893-1.828-1.424-3.09-1.424
				h-0.707h-2.44h-0.874v4.136v0.267h-0.016c-0.147,1.616-1.632,2.886-3.444,2.886h-2.578h-0.129h-2.58
				c-1.813,0-3.296-1.27-3.444-2.886h-0.016v-0.267v-4.136h-0.872h-2.438h-0.71c-1.264,0-2.458,0.531-3.091,1.424l-2.899,5.653
				c0,0-0.306,0.59-0.816,1.571l2.106,11.975l2.953-5.832c0.085,1.478-2,4.29-1.481,6.402c0.267,1.079,1.536,2.003,1.54,2.288
				c0.047,3.886,0,6.08,0,7.923c0,3.326-1.878,21.161-1.878,21.161h5.764h0.952h6.912h0.129h6.912h0.952h5.762
				c0,0-1.879-17.835-1.879-21.161c0-1.843-0.046-4.038,0-7.923c0.003-0.285,1.271-1.209,1.54-2.288
				c0.519-2.112-1.568-4.924-1.481-6.402l2.508,4.951L165.634,98.351z"/>
		</g>
		<ellipse fill="#2B7A80" cx="141.929" cy="142.544" rx="5.741" ry="5.512"/>
		<ellipse fill="#2B7A80" cx="155.904" cy="142.544" rx="5.74" ry="5.512"/>
		<g>
			<polygon fill="#241F20" points="145.571,184.522 137.09,184.522 137.959,179.45 144.703,179.45 			"/>
			<g>
				<path fill="#FFFFFF" d="M135.354,186.507c-0.079,0.394-0.12,0.801-0.12,1.22h12.196c0-0.419-0.042-0.826-0.121-1.22H135.354z"/>
				<path fill="#241F20" d="M141.333,181.625c-2.952,0-5.413,2.098-5.979,4.881h11.955
					C146.741,183.723,144.283,181.625,141.333,181.625z"/>
			</g>
		</g>
		<g>
			<polygon fill="#241F20" points="160.354,184.522 151.873,184.522 152.739,179.45 159.485,179.45 			"/>
			<g>
				<path fill="#FFFFFF" d="M150.137,186.507c-0.079,0.394-0.122,0.801-0.122,1.22h12.195c0-0.419-0.041-0.826-0.118-1.22H150.137z"
					/>
				<path fill="#241F20" d="M156.113,181.625c-2.951,0-5.409,2.098-5.976,4.881h11.955
					C161.526,183.723,159.063,181.625,156.113,181.625z"/>
			</g>
		</g>
		<polygon fill="#BE946B" points="183.079,128.462 183.079,128.462 21.07,128.462 42.306,128.462 36.229,128.462 14.996,128.462 
			14.996,134.537 14.996,187.198 21.07,187.198 21.07,134.537 183.079,134.537 183.079,187.198 189.153,187.198 189.153,134.537 
			189.153,128.462 189.153,128.462 		"/>
		<g>
			<g>
				<path fill="#B9BABB" d="M176.044,125.727c0,1.66-1.478,3.005-3.301,3.005h-41.277c-1.823,0-3.302-1.345-3.302-3.005V100.21
					c0-1.658,1.479-3.008,3.302-3.008h41.277c1.823,0,3.301,1.35,3.301,3.008V125.727z"/>
				
					<image overflow="visible" width="960" height="960" xlink:href="A6B3F3246DDC8C53.png"  transform="matrix(0.0072 0 0 0.0072 149.1738 108.7588)">
				</image>
			</g>
			<rect x="148.645" y="108.222" fill="#B9BABB" width="6.614" height="7.49"/>
			<g>
				<circle fill="#FFFFFF" cx="150.951" cy="111.301" r="1.545"/>
				<circle fill="#FFFFFF" cx="154.307" cy="111.315" r="1.543"/>
				<g>
					<g>
						<g id="Layer_2_11_">
							<path fill="#FFFFFF" d="M152.646,113.994c0.254,0.51,0.85,0.683,1.19,0.683c1.108,0,1.277-0.77,1.277-0.77
								c-0.084,0.087-0.255,0.175-0.51,0.175c-0.427,0-0.51-0.766-1.107-0.766c-0.596,0-0.85,0.423-0.85,0.423"/>
						</g>
					</g>
				</g>
				<g id="Layer_2_604_">
					<g>
						<path fill="#FFFFFF" d="M152.646,113.738c0,0-0.257-0.423-0.855-0.423c-0.595,0-0.68,0.766-1.106,0.766
							c-0.255,0-0.424-0.088-0.512-0.175c0,0,0.173,0.77,1.277,0.77c0.341,0,0.939-0.172,1.196-0.683"/>
					</g>
				</g>
			</g>
		</g>
		<g>
			<path fill="#FFFFFF" d="M21.099,111.262c0,0,1.083-1.012,1.546-0.959c0.462,0.053,1.091-0.332,1.337-0.255
				c0.342,0.102,1.112,0.013,1.476-0.01c0.721-0.045,1.055,0.593,1.271,0.523c0.565-0.181,1.113,0.701,1.113,0.701"/>
			<g>
				<path fill="#F5F4EC" stroke="#CDCFD1" stroke-miterlimit="10" d="M28.262,113.255c0.221-1.43,0.165-1.993-0.607-1.993
					c-1.236,0-5.49,0-6.451,0c-0.662,0-0.747,0.36-0.508,1.993"/>
				<path fill="#EAA422" stroke="#CDCFD1" stroke-miterlimit="10" d="M20.695,113.255c0.111,0.739,0.285,1.74,0.508,3.09
					c0.706,4.343,0.48,12.216,0.48,12.216c0,0.481,0.55,0.618,1.099,0.618c0.545,0,2.742,0,3.431,0c0.687,0,0.687-0.479,0.687-0.891
					c0-0.413,0.136-7.484,0.755-11.465c0.239-1.546,0.476-2.712,0.607-3.568"/>
			</g>
		</g>
		<g>
			<path fill="#FFFFFF" d="M106.555,111.262c0,0,1.082-1.012,1.546-0.959c0.462,0.053,1.092-0.332,1.337-0.255
				c0.342,0.102,1.112,0.013,1.477-0.01c0.721-0.045,1.053,0.593,1.27,0.523c0.566-0.181,1.115,0.701,1.115,0.701"/>
			<g>
				<path fill="#F5F4EC" stroke="#CDCFD1" stroke-miterlimit="10" d="M113.719,113.255c0.221-1.43,0.165-1.993-0.606-1.993
					c-1.237,0-5.492,0-6.453,0c-0.665,0-0.748,0.36-0.506,1.993"/>
				<path fill="#EAA422" stroke="#CDCFD1" stroke-miterlimit="10" d="M106.153,113.255c0.111,0.739,0.283,1.74,0.506,3.09
					c0.707,4.343,0.478,12.216,0.478,12.216c0,0.481,0.551,0.618,1.101,0.618c0.548,0,2.742,0,3.432,0
					c0.684,0,0.684-0.479,0.684-0.891c0-0.413,0.141-7.484,0.759-11.465c0.238-1.546,0.474-2.712,0.606-3.568"/>
			</g>
		</g>
		
			<rect x="89.338" y="26.013" fill="none" stroke="#8F9294" stroke-width="0.5" stroke-miterlimit="10" width="34.372" height="19.758"/>
		<text transform="matrix(1 0 0 1 94.1377 40.4834)" fill="#BA202E" font-family="'Lato-Regular'" font-size="12.405">BAR</text>
	</g>
	<use xlink:href="#SVGID_1_"  overflow="visible" fill="none" stroke="#414142" stroke-miterlimit="10"/>
</g>
</svg>
