<?xml version="1.0" encoding="utf-8"?>
<!-- Generator: Adobe Illustrator 16.0.0, SVG Export Plug-In . SVG Version: 6.00 Build 0)  -->
<!DOCTYPE svg PUBLIC "-//W3C//DTD SVG 1.1//EN" "http://www.w3.org/Graphics/SVG/1.1/DTD/svg11.dtd">
<svg version="1.1" id="Layer_1" xmlns="http://www.w3.org/2000/svg" xmlns:xlink="http://www.w3.org/1999/xlink" x="0px" y="0px"
	 width="199.977px" height="195.744px" viewBox="0 0 199.977 195.744" enable-background="new 0 0 199.977 195.744"
	 xml:space="preserve">
<g>
	<defs>
		<path id="SVGID_1_" d="M191.645,97.872c0,50.064-40.584,90.647-90.646,90.647c-50.064,0-90.646-40.583-90.646-90.647
			c0-50.06,40.581-90.647,90.646-90.647C151.061,7.225,191.645,47.812,191.645,97.872z"/>
	</defs>
	<use xlink:href="#SVGID_1_"  overflow="visible" fill="#FFFFFF"/>
	<clipPath id="SVGID_2_">
		<use xlink:href="#SVGID_1_"  overflow="visible"/>
	</clipPath>
	<g clip-path="url(#SVGID_2_)">
		<g>
			<g>
				<g>
					<g>
						<path fill="#B9BABB" d="M177.046,114.012c0,2.914-2.592,5.278-5.797,5.278H98.764c-3.202,0-5.799-2.365-5.799-5.278V69.208
							c0-2.917,2.598-5.279,5.799-5.279h72.485c3.205,0,5.797,2.362,5.797,5.279V114.012z"/>
						<rect x="127.354" y="99" fill="#B9BABB" width="15.304" height="29.954"/>
						<path fill="#B9BABB" d="M154.487,129.741c0,0.437-0.389,0.793-0.878,0.793h-37.206c-0.482,0-0.879-0.356-0.879-0.793l0,0
							c0-0.441,0.396-0.787,0.879-0.787h37.206C154.098,128.954,154.487,129.299,154.487,129.741L154.487,129.741z"/>
						
							<image overflow="visible" width="960" height="960" xlink:href="7A55712BF75EE766.png"  transform="matrix(0.0126 0 0 0.0126 129.8584 84.2183)">
						</image>
					</g>
					<rect x="128.934" y="83.276" fill="#B9BABB" width="11.613" height="13.153"/>
					<g>
						<path fill="#FFFFFF" d="M135.691,88.683c0,1.495-1.211,2.71-2.712,2.71c-1.5,0-2.711-1.215-2.711-2.71
							c0-1.499,1.212-2.717,2.711-2.717C134.48,85.966,135.691,87.184,135.691,88.683z"/>
						<path fill="#FFFFFF" d="M141.582,88.708c0,1.498-1.214,2.71-2.709,2.71c-1.503,0-2.714-1.212-2.714-2.71
							c0-1.499,1.21-2.715,2.714-2.715C140.368,85.993,141.582,87.209,141.582,88.708z"/>
						<g>
							<g>
								<g id="Layer_2_45_">
									<path fill="#FFFFFF" d="M135.953,93.413c0.448,0.895,1.496,1.196,2.094,1.196c1.95,0,2.243-1.348,2.243-1.348
										c-0.15,0.152-0.451,0.301-0.899,0.301c-0.749,0-0.894-1.348-1.941-1.348c-1.048,0-1.496,0.752-1.496,0.752"/>
								</g>
							</g>
						</g>
						<g id="Layer_2_535_">
							<g>
								<path fill="#FFFFFF" d="M135.953,92.965c0,0-0.448-0.752-1.494-0.752c-1.046,0-1.199,1.348-1.942,1.348
									c-0.448,0-0.751-0.148-0.897-0.301c0,0,0.297,1.348,2.241,1.348c0.599,0,1.645-0.301,2.093-1.196"/>
							</g>
						</g>
					</g>
				</g>
				<path fill="#414142" d="M173.427,106.38c0,1.331-1.256,2.416-2.801,2.416H99.631c-1.551,0-2.803-1.084-2.803-2.416V70.799
					c0-1.332,1.251-2.409,2.803-2.409h70.995c1.545,0,2.801,1.077,2.801,2.409V106.38z"/>
				<path fill="#6E6F71" d="M136.65,113.974c0,0.909-0.734,1.647-1.648,1.647c-0.903,0-1.641-0.738-1.641-1.647
					c0-0.905,0.738-1.641,1.641-1.641C135.916,112.333,136.65,113.068,136.65,113.974z"/>
			</g>
			<g>
				<g>
					<defs>
						<path id="SVGID_5_" d="M173.427,106.494c0,1.338-1.256,2.417-2.801,2.417H99.631c-1.551,0-2.803-1.079-2.803-2.417V70.916
							c0-1.333,1.251-2.411,2.803-2.411h70.995c1.545,0,2.801,1.079,2.801,2.411V106.494z"/>
					</defs>
					<clipPath id="SVGID_4_">
						<use xlink:href="#SVGID_5_"  overflow="visible"/>
					</clipPath>
					<g transform="matrix(1 0 0 1 7.629395e-06 0)" clip-path="url(#SVGID_4_)">
						
							<image overflow="visible" width="559" height="340" xlink:href="7A55712BF75EE76A.png"  transform="matrix(0.137 0 0 0.1193 96.8281 68.5049)">
						</image>
					</g>
				</g>
				<rect x="106.103" y="68.505" fill="#414142" width="58.173" height="35.611"/>
				<g>
					<path fill="#FFFFFF" d="M129.919,84.512c-0.046,0.039-0.068,0.086-0.068,0.14c0,0.058,0.022,0.108,0.068,0.142
						c0.04,0.041,0.085,0.056,0.156,0.056c0.061,0,0.116-0.021,0.152-0.056c0.048-0.042,0.07-0.084,0.07-0.144
						c0-0.055-0.022-0.104-0.07-0.139c-0.036-0.041-0.091-0.057-0.154-0.057C130.005,84.455,129.961,84.47,129.919,84.512z"/>
					<path fill="#FFFFFF" d="M132.869,84.537c-0.065,0.069-0.099,0.162-0.099,0.283c0,0.112,0.03,0.198,0.087,0.262
						c0.033,0.035,0.07,0.059,0.107,0.071c0.038,0.012,0.112,0.018,0.209,0.018h0.174v-0.69c-0.071-0.033-0.138-0.049-0.213-0.049
						C133.021,84.432,132.933,84.464,132.869,84.537z"/>
					<path fill="#FFFFFF" d="M129.767,85.576c0,0.11,0.099,0.172,0.314,0.172c0.091,0,0.169-0.017,0.227-0.043
						c0.051-0.031,0.082-0.068,0.082-0.122c0-0.048-0.038-0.09-0.103-0.126c-0.072-0.027-0.16-0.048-0.265-0.048
						c-0.078,0-0.138,0.021-0.189,0.047C129.786,85.488,129.767,85.529,129.767,85.576z"/>
					<path fill="#FFFFFF" d="M141.13,91.806l0.003-0.002c-0.707,0.14-2.037-0.556-2.037-0.556c-0.143-0.057-0.206-0.219-0.138-0.359
						c0.06-0.13,0.216-0.189,0.355-0.139l0.03-0.062l-0.519-0.293c-0.141-0.064-0.204-0.225-0.139-0.362
						c0.061-0.137,0.23-0.197,0.374-0.137l0.516,0.294l0.031-0.06c-0.008,0-0.027-0.007-0.035-0.015l-0.503-0.292
						c-0.141-0.063-0.202-0.225-0.141-0.359c0.055-0.113,0.169-0.171,0.29-0.16c0.027,0.005,0.055,0.009,0.086,0.021l0.503,0.296
						c0.009,0.004,0.019,0.016,0.031,0.017l0.032-0.061c-0.009-0.01,0,0-0.009-0.01l-0.8-0.723
						c-0.031-0.009-0.056-0.027-0.073-0.046c-0.04-0.034-0.063-0.078-0.08-0.117c-0.021-0.066-0.019-0.133,0.017-0.197
						c0.042-0.095,0.145-0.156,0.25-0.157l-0.585-0.5c-0.034-0.026,0.025-0.175,0.138-0.322c0.103-0.152,0.219-0.248,0.257-0.223
						l2.133,1.814c0.013-0.008,0.026-0.016,0.047-0.022c0.149-0.054,0.262,0.042,0.361,0.159c0.125,0.143,0.351,0.358,0.351,0.358
						l0.04,0.117l0.069,0.178c0.189,0.484,0.269,0.455,0.593,0.704l0.019-0.028l1.87,0.356c0-0.025,0.009-0.05,0.009-0.081V78.581
						c0-1.399-1.172-2.534-2.612-2.534h-28.878c-1.446,0-2.621,1.135-2.621,2.534V90.84c0,1.4,1.174,2.536,2.621,2.536h28.878
						c0.871,0,1.642-0.418,2.117-1.058l-2.24-0.537C141.426,91.793,141.13,91.806,141.13,91.806z M119.503,84.064
						c0-0.608,0.505-1.096,1.128-1.096c0.625,0,1.132,0.488,1.132,1.096c0,0.606-0.507,1.092-1.132,1.092
						C120.008,85.156,119.503,84.67,119.503,84.064z M121.87,85.971c-0.189,0.362-0.624,0.48-0.873,0.48
						c-0.808,0-0.932-0.54-0.932-0.54c0.063,0.06,0.184,0.121,0.372,0.121c0.311,0,0.375-0.54,0.81-0.54
						c0.435,0,0.624,0.293,0.624,0.293V85.971z M122.735,86.451c-0.242,0-0.683-0.118-0.865-0.48v-0.186
						c0,0,0.183-0.293,0.623-0.293c0.431,0,0.492,0.54,0.804,0.54c0.189,0,0.311-0.061,0.375-0.121
						C123.672,85.911,123.549,86.451,122.735,86.451z M123.08,85.166c-0.625,0-1.13-0.488-1.13-1.093
						c0-0.601,0.505-1.092,1.13-1.092c0.624,0,1.128,0.491,1.128,1.092C124.208,84.678,123.703,85.166,123.08,85.166z
						 M126.106,85.34c-0.026,0.025-0.064,0.041-0.104,0.041c-0.044,0-0.077-0.016-0.109-0.041c-0.023-0.027-0.04-0.063-0.04-0.102
						s0.017-0.075,0.04-0.104c0.032-0.027,0.065-0.04,0.109-0.04c0.04,0,0.074,0.013,0.101,0.04
						c0.034,0.029,0.049,0.065,0.049,0.104S126.137,85.312,126.106,85.34z M126.581,85.917h-0.251l0.385-0.792l-0.434-0.861h0.253
						l0.301,0.619l0.295-0.619h0.251L126.581,85.917z M128.138,85.292c-0.07,0.057-0.164,0.088-0.278,0.088
						c-0.069,0-0.129-0.006-0.181-0.025c-0.05-0.012-0.118-0.037-0.196-0.075v-0.235c0.065,0.045,0.126,0.08,0.194,0.104
						c0.063,0.025,0.124,0.045,0.162,0.045c0.049,0,0.09-0.014,0.124-0.036c0.035-0.024,0.048-0.049,0.048-0.083
						c0-0.03-0.01-0.058-0.03-0.077c-0.023-0.02-0.067-0.05-0.141-0.092c-0.143-0.077-0.242-0.142-0.282-0.197
						c-0.044-0.058-0.062-0.115-0.062-0.182c0-0.08,0.028-0.153,0.097-0.201c0.068-0.062,0.154-0.087,0.261-0.087
						c0.11,0,0.225,0.035,0.339,0.094v0.212c-0.133-0.077-0.24-0.115-0.322-0.115c-0.046,0-0.079,0.009-0.105,0.026
						c-0.03,0.017-0.042,0.04-0.042,0.07c0,0.026,0.012,0.048,0.038,0.073c0.023,0.023,0.062,0.048,0.12,0.082l0.082,0.044
						c0.194,0.107,0.284,0.219,0.284,0.346C128.246,85.161,128.212,85.235,128.138,85.292z M129.472,84.83h-0.799
						c0.006,0.107,0.046,0.188,0.109,0.252c0.065,0.059,0.152,0.089,0.257,0.089c0.148,0,0.284-0.043,0.41-0.129v0.21
						c-0.067,0.043-0.135,0.076-0.204,0.095c-0.073,0.02-0.151,0.033-0.235,0.033c-0.127,0-0.23-0.031-0.303-0.08
						c-0.084-0.048-0.144-0.117-0.19-0.202c-0.044-0.085-0.069-0.183-0.069-0.294c0-0.165,0.05-0.301,0.145-0.407
						c0.103-0.103,0.229-0.158,0.383-0.158c0.15,0,0.269,0.055,0.358,0.154c0.086,0.103,0.138,0.236,0.138,0.41V84.83z
						 M130.609,84.433h-0.227c0.044,0.042,0.074,0.08,0.091,0.118c0.018,0.035,0.025,0.079,0.025,0.124
						c0,0.056-0.019,0.112-0.054,0.167c-0.03,0.056-0.072,0.099-0.125,0.127c-0.052,0.03-0.139,0.053-0.26,0.073
						c-0.085,0.01-0.125,0.04-0.125,0.084c0,0.023,0.014,0.045,0.047,0.062c0.035,0.017,0.092,0.033,0.171,0.049
						c0.138,0.028,0.227,0.054,0.262,0.068c0.045,0.021,0.078,0.042,0.112,0.074c0.057,0.05,0.078,0.117,0.078,0.195
						c0,0.104-0.046,0.187-0.141,0.25c-0.094,0.065-0.223,0.091-0.381,0.091c-0.161,0-0.292-0.026-0.389-0.091
						c-0.095-0.063-0.143-0.145-0.143-0.251c0-0.148,0.096-0.245,0.284-0.287c-0.074-0.044-0.114-0.092-0.114-0.137
						c0-0.037,0.015-0.067,0.052-0.097c0.028-0.03,0.074-0.047,0.133-0.064c-0.17-0.072-0.255-0.185-0.255-0.347
						c0-0.113,0.047-0.208,0.135-0.278c0.087-0.066,0.208-0.1,0.364-0.1h0.459V84.433z M131.729,85.36h-0.228v-0.139
						c-0.042,0.049-0.102,0.085-0.159,0.119c-0.063,0.025-0.124,0.041-0.185,0.041c-0.069,0-0.138-0.016-0.193-0.054
						c-0.059-0.034-0.11-0.083-0.139-0.138c-0.034-0.062-0.049-0.16-0.049-0.299v-0.626H131v0.625c0,0.116,0.019,0.193,0.053,0.24
						c0.036,0.046,0.093,0.071,0.179,0.071c0.105,0,0.198-0.05,0.269-0.153v-0.782h0.228V85.36z M132.271,85.36h-0.227v-1.097h0.227
						V85.36z M132.25,84.021c-0.025,0.026-0.057,0.04-0.096,0.04c-0.028,0-0.061-0.014-0.085-0.042
						c-0.031-0.024-0.042-0.057-0.042-0.088c0-0.035,0.011-0.062,0.042-0.09c0.025-0.027,0.058-0.039,0.085-0.039
						c0.039,0,0.071,0.012,0.096,0.036c0.029,0.023,0.043,0.056,0.043,0.093C132.293,83.965,132.279,83.995,132.25,84.021z
						 M133.571,85.36h-0.475c-0.167,0-0.301-0.054-0.402-0.149c-0.101-0.104-0.146-0.248-0.146-0.417c0-0.164,0.047-0.292,0.152-0.4
						c0.104-0.099,0.236-0.157,0.402-0.157c0.076,0,0.153,0.02,0.246,0.05v-0.595h0.223V85.36z M134.84,85.223
						c-0.11,0.104-0.258,0.157-0.435,0.157c-0.167,0-0.311-0.054-0.423-0.159c-0.117-0.107-0.175-0.236-0.175-0.397
						c0-0.163,0.059-0.295,0.175-0.401c0.116-0.104,0.257-0.159,0.434-0.159c0.174,0,0.316,0.055,0.429,0.163
						c0.112,0.105,0.169,0.24,0.169,0.403C135.015,84.988,134.954,85.117,134.84,85.223z"/>
					<path fill="#FFFFFF" d="M128.976,84.432c-0.08,0-0.145,0.023-0.196,0.07c-0.055,0.045-0.084,0.113-0.104,0.198h0.573
						c-0.006-0.085-0.036-0.153-0.08-0.198C129.117,84.455,129.054,84.432,128.976,84.432z"/>
					<path fill="#FFFFFF" d="M134.399,84.455c-0.103,0-0.192,0.036-0.259,0.107c-0.071,0.065-0.105,0.152-0.105,0.258
						c0,0.102,0.035,0.19,0.105,0.256c0.066,0.065,0.16,0.099,0.272,0.099c0.11,0,0.2-0.034,0.267-0.099
						c0.072-0.068,0.108-0.154,0.108-0.256c0-0.106-0.04-0.193-0.108-0.258C134.604,84.49,134.514,84.455,134.399,84.455z"/>
					<path fill="#8E9193" d="M126.001,85.094c-0.044,0-0.077,0.013-0.109,0.04c-0.023,0.029-0.04,0.065-0.04,0.104
						s0.017,0.075,0.04,0.102c0.032,0.025,0.065,0.041,0.109,0.041c0.04,0,0.078-0.016,0.104-0.041
						c0.031-0.027,0.046-0.063,0.046-0.102s-0.015-0.075-0.049-0.104C126.076,85.107,126.042,85.094,126.001,85.094z"/>
					<polygon fill="#8E9193" points="126.834,84.883 126.533,84.264 126.28,84.264 126.714,85.125 126.329,85.917 126.581,85.917 
						127.381,84.264 127.129,84.264 					"/>
					<path fill="#8E9193" d="M127.962,84.728l-0.082-0.044c-0.058-0.034-0.097-0.059-0.12-0.082
						c-0.026-0.025-0.038-0.047-0.038-0.073c0-0.031,0.012-0.053,0.042-0.07c0.027-0.018,0.059-0.026,0.105-0.026
						c0.082,0,0.188,0.038,0.322,0.115v-0.212c-0.114-0.059-0.229-0.094-0.339-0.094c-0.107,0-0.192,0.025-0.261,0.087
						c-0.069,0.048-0.097,0.121-0.097,0.201c0,0.066,0.019,0.124,0.062,0.182c0.04,0.055,0.139,0.12,0.282,0.197
						c0.074,0.042,0.118,0.072,0.141,0.092c0.021,0.019,0.03,0.047,0.03,0.077c0,0.034-0.013,0.059-0.048,0.083
						c-0.034,0.021-0.074,0.036-0.124,0.036c-0.039,0-0.099-0.02-0.162-0.045c-0.068-0.023-0.129-0.058-0.194-0.104v0.235
						c0.078,0.038,0.146,0.062,0.196,0.075c0.052,0.019,0.112,0.025,0.181,0.025c0.114,0,0.208-0.031,0.278-0.088
						c0.074-0.057,0.108-0.131,0.108-0.218C128.246,84.947,128.156,84.835,127.962,84.728z"/>
					<path fill="#8E9193" d="M128.976,84.24c-0.154,0-0.28,0.055-0.383,0.158c-0.095,0.105-0.145,0.242-0.145,0.407
						c0,0.111,0.024,0.208,0.069,0.294c0.047,0.085,0.106,0.154,0.19,0.202c0.072,0.049,0.175,0.08,0.303,0.08
						c0.084,0,0.162-0.013,0.235-0.033c0.068-0.019,0.137-0.052,0.204-0.095v-0.21c-0.125,0.086-0.261,0.129-0.41,0.129
						c-0.105,0-0.192-0.031-0.257-0.089c-0.063-0.064-0.103-0.145-0.109-0.252h0.799v-0.026c0-0.173-0.051-0.307-0.138-0.41
						C129.245,84.295,129.126,84.24,128.976,84.24z M128.675,84.699c0.021-0.085,0.049-0.153,0.104-0.198
						c0.051-0.047,0.116-0.07,0.196-0.07c0.078,0,0.141,0.023,0.192,0.07c0.044,0.045,0.074,0.113,0.08,0.198H128.675z"/>
					<path fill="#8E9193" d="M129.786,84.363c-0.088,0.07-0.135,0.165-0.135,0.278c0,0.162,0.085,0.274,0.255,0.347
						c-0.059,0.017-0.105,0.034-0.133,0.064c-0.037,0.03-0.052,0.06-0.052,0.097c0,0.045,0.04,0.093,0.114,0.137
						c-0.188,0.042-0.284,0.139-0.284,0.287c0,0.106,0.048,0.188,0.143,0.251c0.097,0.065,0.229,0.091,0.389,0.091
						c0.158,0,0.287-0.026,0.381-0.091c0.095-0.063,0.141-0.145,0.141-0.25c0-0.079-0.021-0.145-0.078-0.195
						c-0.035-0.033-0.067-0.054-0.112-0.074c-0.035-0.015-0.124-0.041-0.262-0.068c-0.08-0.017-0.137-0.032-0.171-0.049
						c-0.034-0.017-0.047-0.039-0.047-0.062c0-0.044,0.04-0.074,0.125-0.084c0.121-0.02,0.208-0.043,0.26-0.073
						c0.053-0.028,0.095-0.071,0.125-0.127c0.035-0.054,0.054-0.11,0.054-0.167c0-0.045-0.007-0.089-0.025-0.124
						c-0.017-0.038-0.047-0.076-0.091-0.118h0.227v-0.169h-0.459C129.994,84.264,129.874,84.297,129.786,84.363z M130.022,85.408
						c0.104,0,0.192,0.021,0.265,0.048c0.065,0.036,0.103,0.078,0.103,0.126c0,0.054-0.03,0.091-0.082,0.122
						c-0.058,0.027-0.135,0.043-0.227,0.043c-0.216,0-0.314-0.062-0.314-0.172c0-0.047,0.019-0.088,0.066-0.121
						C129.885,85.429,129.944,85.408,130.022,85.408z M130.298,84.65c0,0.06-0.022,0.102-0.07,0.144
						c-0.036,0.036-0.091,0.056-0.152,0.056c-0.071,0-0.117-0.015-0.156-0.056c-0.046-0.034-0.068-0.084-0.068-0.142
						c0-0.054,0.022-0.101,0.068-0.14c0.042-0.042,0.085-0.058,0.154-0.058c0.063,0,0.118,0.016,0.154,0.057
						C130.276,84.546,130.298,84.595,130.298,84.65z"/>
					<path fill="#8E9193" d="M131.501,85.046c-0.071,0.104-0.164,0.153-0.269,0.153c-0.086,0-0.143-0.025-0.179-0.071
						c-0.034-0.046-0.053-0.124-0.053-0.24v-0.625h-0.223v0.626c0,0.139,0.016,0.236,0.049,0.299
						c0.029,0.055,0.081,0.104,0.139,0.138c0.055,0.038,0.124,0.054,0.193,0.054c0.061,0,0.122-0.016,0.185-0.041
						c0.057-0.034,0.117-0.07,0.159-0.119v0.139h0.228v-1.097h-0.228V85.046z"/>
					<rect x="132.044" y="84.264" fill="#8E9193" width="0.227" height="1.097"/>
					<path fill="#8E9193" d="M132.154,83.802c-0.028,0-0.061,0.012-0.085,0.039c-0.031,0.028-0.042,0.055-0.042,0.09
						c0,0.031,0.011,0.063,0.042,0.088c0.025,0.028,0.058,0.042,0.085,0.042c0.039,0,0.071-0.014,0.096-0.04
						c0.029-0.026,0.043-0.055,0.043-0.089c0-0.037-0.015-0.07-0.043-0.093C132.225,83.814,132.193,83.802,132.154,83.802z"/>
					<path fill="#8E9193" d="M133.348,84.288c-0.093-0.031-0.17-0.05-0.246-0.05c-0.166,0-0.297,0.058-0.402,0.157
						c-0.105,0.107-0.152,0.236-0.152,0.4c0,0.17,0.046,0.313,0.146,0.417c0.101,0.095,0.234,0.149,0.402,0.149h0.475v-1.667h-0.223
						V84.288z M133.348,85.171h-0.174c-0.097,0-0.171-0.006-0.209-0.018c-0.037-0.013-0.074-0.037-0.107-0.071
						c-0.057-0.064-0.087-0.15-0.087-0.262c0-0.121,0.034-0.213,0.099-0.283c0.063-0.073,0.152-0.105,0.265-0.105
						c0.076,0,0.143,0.017,0.213,0.049V85.171z"/>
					<path fill="#8E9193" d="M134.417,84.264c-0.177,0-0.318,0.055-0.434,0.159c-0.117,0.106-0.175,0.238-0.175,0.401
						c0,0.161,0.059,0.291,0.175,0.397c0.112,0.105,0.255,0.159,0.423,0.159c0.177,0,0.324-0.054,0.435-0.157
						c0.114-0.106,0.175-0.235,0.175-0.394c0-0.163-0.058-0.297-0.169-0.403C134.733,84.319,134.59,84.264,134.417,84.264z
						 M134.68,85.076c-0.066,0.065-0.156,0.099-0.267,0.099c-0.113,0-0.206-0.034-0.272-0.099c-0.071-0.066-0.105-0.154-0.105-0.256
						c0-0.106,0.035-0.193,0.105-0.258c0.066-0.071,0.156-0.107,0.259-0.107c0.114,0,0.204,0.036,0.28,0.107
						c0.068,0.065,0.108,0.152,0.108,0.258C134.788,84.922,134.752,85.007,134.68,85.076z"/>
					<path fill="#8E9193" d="M121.763,84.064c0-0.608-0.507-1.096-1.132-1.096c-0.623,0-1.128,0.488-1.128,1.096
						c0,0.606,0.505,1.092,1.128,1.092C121.256,85.156,121.763,84.67,121.763,84.064z"/>
					<ellipse fill="#8E9193" cx="123.08" cy="84.073" rx="1.13" ry="1.092"/>
					<path fill="#8E9193" d="M122.493,85.492c-0.44,0-0.623,0.293-0.623,0.293v0.186c0.183,0.362,0.623,0.48,0.865,0.48
						c0.813,0,0.937-0.54,0.937-0.54c-0.065,0.06-0.187,0.121-0.375,0.121C122.985,86.032,122.924,85.492,122.493,85.492z"/>
					<path fill="#8E9193" d="M121.247,85.492c-0.434,0-0.499,0.54-0.81,0.54c-0.188,0-0.309-0.061-0.372-0.121
						c0,0,0.124,0.54,0.932,0.54c0.25,0,0.684-0.118,0.873-0.48v-0.186C121.87,85.785,121.681,85.492,121.247,85.492z"/>
					<polygon fill="#F7CA96" points="146.889,91.381 146.933,91.389 147.811,92.663 148.907,90.646 147.563,89.985 					"/>
					<path fill="#F7CA96" d="M153.755,85.781c0.286,0.103,0.484,0.343,0.532,0.644c0.062-0.1,0.101-0.209,0.112-0.328l0,0v-0.071
						v-1.042h-0.644V85.781z"/>
					<path fill="#F7CA96" d="M151.808,85.785v-0.8h-0.421v1.042v0.071h0.001c0.002,0.019,0.013,0.032,0.015,0.05
						C151.497,85.987,151.638,85.853,151.808,85.785z"/>
					<path fill="#F7CA96" d="M152.24,86.855h0.635h0.032h0.637c0.233,0,0.442-0.089,0.595-0.235h-2.489
						C151.8,86.766,152.008,86.855,152.24,86.855z"/>
					<path fill="#F7CA96" d="M153.755,85.781v0.238h-1.947v-0.234c-0.17,0.068-0.311,0.202-0.404,0.363
						c0.027,0.185,0.113,0.351,0.246,0.472h2.489c0.063-0.055,0.112-0.121,0.149-0.194
						C154.239,86.124,154.041,85.884,153.755,85.781z"/>
					<path fill="#856C39" d="M154.737,82.413c-0.079,0.723-0.419,1.316-0.982,1.626v0.893h0.704v0.009h0.156h0.167
						C154.799,84.142,154.778,83.254,154.737,82.413z"/>
					<path fill="#856C39" d="M151.808,84.932v-0.938c-0.444-0.277-0.728-0.729-0.855-1.288c-0.025,0.757-0.046,1.54-0.041,2.234
						h0.258h0.108v-0.009H151.808z"/>
					<polygon fill="#856C39" points="153.755,84.932 153.755,84.985 154.399,84.985 154.399,84.941 154.458,84.941 154.458,84.932 
											"/>
					<polygon fill="#856C39" points="151.808,84.932 151.278,84.932 151.278,84.941 151.387,84.941 151.387,84.985 151.808,84.985 
											"/>
					<path fill="#F7CA96" d="M159.104,95.654c0,0,0.074,0.183,0.068,0.385c-0.015,0.201-0.238,0.232-0.255,0.516
						c-0.016,0.28-0.051,0.932-0.065,1.175c-0.013,0.245,0.072,0.352,0.255,0.36c0.149,0.012,0.192-0.56,0.175-0.839
						c-0.009-0.188,0.452-0.258,0.461,0.022c0.006,0.165-0.022,0.405-0.034,0.61c-0.007,0.206-0.32,0.504-0.459,0.723
						c-0.103,0.163-0.099,0.297-0.072,0.394c0,0,0.571-0.653,0.672-0.761c0.065-0.069,0.135-0.021,0.077,0.063
						c-0.086,0.127-0.742,0.832-0.814,1.01c-0.034,0.091,0.065,0.267,0.145,0.229c0.132-0.073,0.612-0.616,0.928-1.026
						c0.286-0.359,0.169-1.141,0.183-2.159c0.011-1.012-0.131-1.19-0.131-1.19l-2.214-4.867l-1.186,0.385L159.104,95.654z"/>
					<path fill="#F7CA96" d="M152.5,81.166c0.082,0.04,0.104,0.151,0.351,0.151c0.255,0,0.312-0.117,0.366-0.145
						c0.116-0.082,0.516-0.153,1.452-0.047c-0.042-0.604-0.082-1.111-0.116-1.441c-0.282,0.255-1.164,0.964-2.189,0.944
						c-0.535-0.01-0.972-0.167-1.299-0.343c-0.013,0.243-0.031,0.519-0.044,0.824c0.051-0.004,0.404-0.051,0.751-0.05
						C152.135,81.067,152.412,81.125,152.5,81.166z"/>
					<path fill="#F7CA96" d="M151.808,83.995v-0.33h1.947v0.375c0.562-0.311,0.903-0.903,0.982-1.626
						c-0.01-0.334-0.031-0.662-0.052-0.969c-0.04,0.012-0.122,0.06-0.134,0.16c-0.015,0.138-0.158,0.545-0.444,0.633
						c-0.284,0.086-0.642,0.038-0.794-0.077c-0.151-0.111-0.204-0.243-0.244-0.369c-0.044-0.13-0.038-0.283-0.219-0.283
						c-0.175,0-0.147,0.178-0.187,0.269c-0.042,0.092-0.118,0.306-0.299,0.405c-0.175,0.093-0.452,0.144-0.735,0.063
						c-0.281-0.08-0.404-0.435-0.456-0.605c-0.044-0.16-0.154-0.224-0.167-0.228c-0.019,0.409-0.036,0.847-0.053,1.295
						C151.08,83.266,151.364,83.718,151.808,83.995z"/>
					<polygon fill="#754E29" points="154.849,98.774 154.615,98.774 152.907,98.774 152.875,98.774 151.169,98.774 150.935,98.774 
						149.681,98.774 149.982,103.98 152.103,103.98 152.353,100.424 153.528,100.424 153.709,103.98 155.75,103.98 156.004,98.774 
											"/>
					<path fill="#A28B50" d="M154.514,79.234h-3.392c0,0-0.006,0.085-0.013,0.201h3.428
						C154.523,79.313,154.514,79.234,154.514,79.234z"/>
					<path fill="#A28B50" d="M152.819,79.781c0.633,0,1.338-0.453,1.723-0.235c0-0.042-0.006-0.079-0.006-0.11h-3.428
						c-0.002,0.088-0.008,0.202-0.017,0.345C151.52,79.61,152.288,79.781,152.819,79.781z"/>
					<path fill="#A28B50" d="M152.362,80.627c1.025,0.02,1.908-0.689,2.189-0.944c0-0.049-0.005-0.097-0.009-0.138
						c-0.385-0.218-1.09,0.235-1.723,0.235c-0.532,0-1.299-0.171-1.728,0c-0.012,0.146-0.021,0.311-0.029,0.504
						C151.39,80.46,151.827,80.617,152.362,80.627z"/>
					<path fill="#F7CA96" d="M151.808,85.785c0.104-0.038,0.213-0.065,0.328-0.065h1.324c0.103,0,0.203,0.027,0.295,0.061v-0.796
						h-1.947V85.785z"/>
					<path fill="#F7CA96" d="M152.135,85.72c-0.114,0-0.223,0.027-0.328,0.065v0.234h1.947v-0.238
						c-0.093-0.034-0.192-0.061-0.295-0.061H152.135z"/>
					<path fill="#F7CA96" d="M151.808,83.995v0.938h1.947V84.04c-0.265,0.146-0.577,0.23-0.936,0.23
						C152.419,84.27,152.086,84.167,151.808,83.995z"/>
					<rect x="151.808" y="84.932" fill="#F7CA96" width="1.947" height="0.053"/>
					<path fill="#F7CA96" d="M151.808,83.665v0.33c0.278,0.172,0.612,0.275,1.012,0.275c0.358,0,0.671-0.084,0.936-0.23v-0.375
						H151.808z"/>
					<path fill="#241F20" d="M156.052,97.858l-0.048,0.916h0.271c0,0-0.463-4.694-0.463-5.57c0-0.485-0.012-1.063,0-2.084
						c0-0.078,0.31-0.321,0.383-0.602c0.127-0.559-0.393-1.296-0.368-1.685l0.9,1.887l0.112-0.035l-0.276-0.603l1.138-0.494
						l0.324,0.711l0.402-0.13c0,0,0,0-0.322-0.807l0.005-0.007l-0.352-0.715c-0.479-1.019-0.883-1.841-0.883-1.841l-0.716-1.484
						c-0.044-0.063-0.096-0.116-0.154-0.166l0.137,1.89c0,0-1.406,0.305-1.627,0c0.164-0.421,0.242-1.175,0.265-2.054h-0.32v1.635
						H154.3c-0.035,0.425-0.391,0.76-0.841,0.76h-1.324c-0.45,0-0.804-0.335-0.846-0.76h-0.012v-0.067v-1.567h-0.364
						c0.007,1.029,0.061,1.846,0.208,2.054c0.126,0.178-0.393,0.178-0.878,0.114c-0.417-0.056-0.737-0.177-0.737-0.177
						s0.057-0.698,0.141-1.685c-0.004,0.006-0.013,0.015-0.019,0.024l-0.72,1.484c0,0-1.027,2.084-1.509,3.102l0.166,0.084
						l1.115-2.309l1.702,0.267l-1.473,2.703l0.154,0.074l0.896-1.887c0.018,0.389-0.493,1.126-0.366,1.685
						c0.07,0.281,0.377,0.524,0.377,0.602c0.013,1.021,0.006,1.599,0.006,2.084c0,0.875-0.465,5.57-0.465,5.57h0.171l-0.047-0.916
						H156.052z"/>
					<polygon fill="#241F20" points="148.678,87.676 147.563,89.985 148.907,90.646 150.38,87.943 					"/>
					<path fill="#241F20" d="M154.399,86.027v0.071l0,0c-0.011,0.118-0.049,0.228-0.112,0.328c0.005,0.042,0.026,0.081,0.026,0.127
						c0,0.028-0.013,0.044-0.013,0.067h0.158v-1.635h-0.06V86.027z"/>
					<path fill="#241F20" d="M151.388,86.098h-0.001v-0.071v-1.042h-0.109v1.567c0-0.148,0.051-0.284,0.125-0.404
						C151.401,86.13,151.39,86.117,151.388,86.098z"/>
					<path fill="#241F20" d="M151.278,86.62h0.012c0-0.023-0.012-0.04-0.012-0.067V86.62z"/>
					<path fill="#241F20" d="M153.543,86.855h-0.637h-0.032h-0.635c-0.232,0-0.439-0.089-0.59-0.235h-0.36
						c0.042,0.425,0.396,0.76,0.846,0.76h1.324c0.45,0,0.806-0.335,0.841-0.76h-0.162C153.986,86.766,153.776,86.855,153.543,86.855
						z"/>
					<path fill="#241F20" d="M154.287,86.425c-0.037,0.073-0.086,0.139-0.149,0.194h0.162c0-0.023,0.013-0.04,0.013-0.067
						C154.313,86.506,154.292,86.467,154.287,86.425z"/>
					<path fill="#241F20" d="M151.403,86.148c-0.074,0.12-0.125,0.256-0.125,0.404c0,0.028,0.012,0.044,0.012,0.067h0.36
						C151.516,86.499,151.43,86.333,151.403,86.148z"/>
					<path fill="#241F20" d="M154.615,84.941h-0.156v0.044h0.32c0-0.016,0-0.032,0.004-0.044H154.615z"/>
					<path fill="#241F20" d="M151.169,84.941h-0.258c0,0.012,0.002,0.028,0.002,0.044h0.364v-0.044H151.169z"/>
					<rect x="151.278" y="84.941" fill="#241F20" width="0.109" height="0.044"/>
					<rect x="154.399" y="84.941" fill="#241F20" width="0.06" height="0.044"/>
					<polygon fill="#241F20" points="156.562,90.083 156.838,90.685 158.024,90.3 157.7,89.589 					"/>
					<polygon fill="#241F20" points="151.169,98.774 152.875,98.774 152.907,98.774 154.615,98.774 154.849,98.774 156.004,98.774 
						156.052,97.858 149.633,97.858 149.681,98.774 150.935,98.774 					"/>
					<path fill="#241F20" d="M153.216,81.171c-0.054,0.028-0.11,0.145-0.366,0.145c-0.246,0-0.269-0.111-0.351-0.151
						c-0.088-0.041-0.364-0.099-0.73-0.107c-0.347,0-0.7,0.046-0.751,0.05c-0.004,0.096-0.007,0.198-0.013,0.303
						c0.013,0.004,0.124,0.068,0.167,0.228c0.052,0.17,0.175,0.525,0.456,0.605c0.283,0.081,0.56,0.03,0.735-0.063
						c0.181-0.099,0.257-0.312,0.299-0.405c0.04-0.091,0.012-0.269,0.187-0.269c0.181,0,0.175,0.153,0.219,0.283
						c0.04,0.125,0.093,0.257,0.244,0.369c0.152,0.115,0.511,0.163,0.794,0.077c0.286-0.088,0.429-0.495,0.444-0.633
						c0.012-0.1,0.094-0.148,0.134-0.16c-0.008-0.113-0.012-0.22-0.018-0.319C153.732,81.018,153.332,81.09,153.216,81.171z
						 M152.259,82.125c-0.283,0.099-0.697,0.074-0.813-0.106c-0.122-0.184-0.139-0.315-0.143-0.431
						c-0.006-0.087,0.003-0.285,0.169-0.351c0.166-0.063,0.597-0.043,0.823,0.022c0.23,0.058,0.28,0.208,0.278,0.3
						C152.568,81.639,152.547,82.018,152.259,82.125z M154.27,82.018c-0.12,0.18-0.529,0.209-0.817,0.106
						c-0.29-0.106-0.305-0.485-0.311-0.566c-0.002-0.092,0.049-0.242,0.274-0.3c0.229-0.065,0.659-0.085,0.823-0.022
						c0.168,0.066,0.177,0.264,0.171,0.351C154.409,81.703,154.392,81.834,154.27,82.018z"/>
					<path fill="#424242" d="M154.239,81.236c-0.164-0.063-0.595-0.043-0.823,0.022c-0.225,0.058-0.276,0.208-0.274,0.3
						c0.006,0.081,0.021,0.459,0.311,0.566c0.288,0.103,0.697,0.074,0.817-0.106c0.122-0.184,0.139-0.315,0.141-0.431
						C154.417,81.5,154.407,81.302,154.239,81.236z"/>
					<path fill="#424242" d="M152.295,81.258c-0.227-0.065-0.658-0.085-0.823-0.022c-0.166,0.066-0.175,0.264-0.169,0.351
						c0.003,0.115,0.021,0.247,0.143,0.431c0.116,0.18,0.53,0.205,0.813,0.106c0.288-0.106,0.309-0.485,0.314-0.566
						C152.576,81.466,152.526,81.316,152.295,81.258z"/>
					<path fill="#595B5C" d="M139.293,88.35l0.778,0.719c0.005,0.007,0.019,0.013,0.028,0.018v-0.004l1.443,0.639l-0.517-0.371
						c-0.027-0.069-0.027-0.105,0.006-0.167c0.022-0.044,0.047-0.065,0.086-0.085l-2.133-1.814c-0.038-0.025-0.154,0.07-0.257,0.223
						c-0.113,0.147-0.171,0.295-0.138,0.322l0.585,0.5C139.219,88.328,139.255,88.334,139.293,88.35z"/>
					<path fill="#F7CA96" d="M142.577,90.592c-0.324-0.249-0.404-0.22-0.593-0.704l-0.069-0.178l-0.04-0.117
						c0,0-0.225-0.216-0.351-0.358c-0.099-0.117-0.212-0.212-0.361-0.159c-0.021,0.006-0.034,0.014-0.047,0.022l0.726,0.613
						c0.033,0.027-0.026,0.172-0.137,0.322c-0.113,0.152-0.225,0.249-0.258,0.22l-2.273-1.925c-0.105,0.001-0.208,0.062-0.25,0.157
						c-0.036,0.064-0.038,0.131-0.017,0.197c0.017,0.039,0.04,0.083,0.08,0.117c0.017,0.019,0.042,0.037,0.073,0.046l0.8,0.723
						c0.009,0.01,0,0,0.009,0.01l-0.032,0.061c-0.012-0.001-0.021-0.013-0.031-0.017l-0.503-0.296
						c-0.031-0.012-0.059-0.016-0.086-0.021c-0.12-0.012-0.234,0.047-0.29,0.16c-0.061,0.134,0,0.296,0.141,0.359l0.503,0.292
						c0.007,0.008,0.027,0.015,0.035,0.015l-0.031,0.06l-0.516-0.294c-0.144-0.06-0.313,0-0.374,0.137
						c-0.065,0.137-0.001,0.297,0.139,0.362l0.519,0.293l-0.03,0.062c0.003,0.006,0.013,0.002,0.017,0.008h-0.017V90.75
						c-0.139-0.05-0.295,0.009-0.355,0.139c-0.068,0.14-0.005,0.302,0.138,0.359c0,0,1.33,0.696,2.037,0.556l-0.003,0.002
						c0,0,0.295-0.013,0.609-0.026l0,0L142.577,90.592z"/>
					<path fill="#F7CA96" d="M139.331,90.758c-0.003-0.006-0.013-0.002-0.017-0.008v0.008H139.331z"/>
					<path fill="#F7CA96" d="M141.706,90.033c0.11-0.149,0.169-0.294,0.137-0.322l-0.726-0.613c-0.039,0.02-0.063,0.041-0.086,0.085
						c-0.033,0.062-0.033,0.099-0.006,0.167l0.517,0.371l-1.443-0.639v0.004c-0.01-0.004-0.023-0.011-0.028-0.018l-0.778-0.719
						c-0.038-0.016-0.074-0.022-0.118-0.022l2.273,1.925C141.481,90.282,141.593,90.185,141.706,90.033z"/>
					<path fill="#F7CA96" d="M146.889,91.381l-2.424-0.46c-0.004,0.1-0.017,0.184-0.029,0.28c0.124,0.024,0.251,0.053,0.375,0.073
						l-0.404,0.128c-0.085,0.333-0.23,0.643-0.428,0.916l3.098,0.734c0,0,0.553,0.285,0.733-0.389l-1.006-1.107L146.889,91.381z"/>
					<path fill="#F7CA96" d="M142.577,90.592c0.017,0.011,0.024,0.019,0.038,0.031c0.16,0.126,0.985,0.408,1.822,0.577
						c0.012-0.096,0.025-0.18,0.029-0.28l-1.87-0.356L142.577,90.592z"/>
					<path fill="#F7CA96" d="M142.762,91.907c-0.176-0.054-0.292-0.09-0.32-0.101c-0.086-0.028-0.404-0.028-0.702-0.026l2.24,0.537
						c0.198-0.272,0.343-0.582,0.428-0.916L142.762,91.907z"/>
					<polygon fill="#F7CA96" points="146.889,91.381 146.805,91.556 147.811,92.663 146.933,91.389 					"/>
					<path fill="#F7CA96" d="M144.812,91.273c-0.124-0.02-0.252-0.049-0.375-0.073c-0.007,0.069-0.016,0.133-0.029,0.201
						L144.812,91.273z"/>
					<path fill="#F7CA96" d="M142.577,90.592l-0.837,1.188l0,0c0.297-0.002,0.616-0.002,0.702,0.026
						c0.029,0.011,0.145,0.047,0.32,0.101l1.646-0.505c0.013-0.068,0.021-0.132,0.029-0.201c-0.836-0.169-1.662-0.451-1.822-0.577
						C142.601,90.611,142.594,90.604,142.577,90.592z"/>
					<path fill="#A28B50" d="M150.386,84.941v-5.142l-0.006-0.003h0.006v-0.36h0.122l-0.103-0.091l0.661-0.145
						c0,0,0.025-1.208,0.712-1.496c0.686-0.286,2.279-0.145,3.135,0.93l-0.211,0.802h0.383v5.505h0.134h0.177
						c0.227,0,0.448,0.074,0.608,0.208l-0.381-5.415l0,0c0-1.782-0.964-2.224-2.803-2.224c-1.833,0-2.618,0.447-2.734,2.224
						c-0.087,1.334-0.297,3.871-0.438,5.557C149.808,85.074,150.085,84.944,150.386,84.941z"/>
					<path fill="#A28B50" d="M150.567,84.941h0.344c-0.006-0.695,0.016-1.477,0.041-2.234c-0.048-0.214-0.086-0.443-0.086-0.681
						c0-0.541-0.248-1.42-0.09-1.908c-0.25-0.17-0.39-0.312-0.39-0.319v5.142c0,0,0,0,0.007,0H150.567z"/>
					<path fill="#A28B50" d="M154.621,79.62c0.028,0.021,0.053,0.043,0.074,0.075c0.24,0.383,0.074,1.8,0.074,2.331
						c0,0.134-0.014,0.263-0.032,0.388c0.042,0.841,0.062,1.729,0.045,2.528h0.303v-5.505h-0.383l-0.04,0.146
						C154.663,79.582,154.645,79.599,154.621,79.62z"/>
					<polygon fill="#A28B50" points="150.428,79.582 150.674,79.582 150.508,79.436 150.386,79.436 150.386,79.795 150.624,79.769 
											"/>
					<path fill="#A28B50" d="M151.001,81.406v-0.297c0,0,0.013,0,0.017,0c0.013-0.305,0.031-0.582,0.044-0.824
						c-0.109-0.054-0.206-0.112-0.286-0.167c-0.158,0.488,0.09,1.367,0.09,1.908c0,0.238,0.038,0.467,0.086,0.681
						c0.017-0.448,0.034-0.886,0.053-1.295L151.001,81.406z"/>
					<path fill="#A28B50" d="M154.667,81.125c0.018,0,0.031,0,0.046,0.004v0.299c0,0-0.011,0.008-0.028,0.016
						c0.021,0.307,0.042,0.635,0.052,0.969c0.019-0.125,0.032-0.253,0.032-0.388c0-0.53,0.166-1.948-0.074-2.331
						c-0.021-0.032-0.046-0.053-0.074-0.075c-0.012,0.015-0.035,0.036-0.069,0.063C154.586,80.014,154.626,80.52,154.667,81.125z"/>
					<path fill="#A28B50" d="M151.122,79.234h3.392c0,0,0.01,0.079,0.023,0.201h0.166l0.211-0.802
						c-0.855-1.075-2.449-1.216-3.135-0.93c-0.688,0.288-0.712,1.496-0.712,1.496l-0.661,0.145l0.103,0.091h0.601
						C151.116,79.319,151.122,79.234,151.122,79.234z"/>
					<polygon fill="#A28B50" points="150.38,79.795 150.386,79.799 150.386,79.795 					"/>
					<path fill="#A28B50" d="M150.776,80.118c0.018-0.071,0.054-0.136,0.09-0.186c0.055-0.072,0.135-0.118,0.225-0.151
						c0.009-0.144,0.015-0.257,0.017-0.345h-0.601l0.166,0.146h-0.246l0.196,0.187l-0.238,0.026v0.003
						C150.386,79.805,150.527,79.947,150.776,80.118z"/>
					<path fill="#A28B50" d="M154.542,79.546c0.03,0.017,0.053,0.047,0.078,0.074c0.024-0.021,0.042-0.038,0.042-0.038l0.04-0.146
						h-0.166C154.537,79.467,154.542,79.504,154.542,79.546z"/>
					<path fill="#A28B50" d="M154.621,79.62c-0.025-0.027-0.048-0.058-0.078-0.074c0.003,0.041,0.009,0.089,0.009,0.138
						C154.586,79.656,154.609,79.635,154.621,79.62z"/>
					<path fill="#A28B50" d="M151.091,79.781c-0.09,0.034-0.17,0.08-0.225,0.151c-0.036,0.049-0.072,0.114-0.09,0.186
						c0.08,0.055,0.177,0.113,0.286,0.167C151.07,80.092,151.08,79.926,151.091,79.781z"/>
					<path fill="#A28B50" d="M155.219,84.941h-0.134v0.044h-0.307c-0.023,0.879-0.101,1.633-0.265,2.054
						c0.221,0.305,1.627,0,1.627,0l-0.137-1.89c-0.16-0.135-0.381-0.208-0.608-0.208H155.219z M154.889,86.354
						c0-0.104,0.089-0.191,0.196-0.191c0.11,0,0.193,0.086,0.193,0.191c0,0.105-0.083,0.19-0.193,0.19
						C154.979,86.544,154.889,86.459,154.889,86.354z M155.46,86.774c-0.042,0-0.12-0.024-0.152-0.089
						c-0.032,0.065-0.11,0.089-0.152,0.089c-0.143,0-0.164-0.099-0.164-0.099c0.008,0.01,0.037,0.025,0.065,0.025
						c0.053,0,0.061-0.101,0.141-0.101c0.078,0,0.11,0.054,0.11,0.054s0.032-0.054,0.11-0.054c0.069,0,0.084,0.099,0.136,0.101
						c0.034,0,0.057-0.016,0.064-0.025C155.619,86.676,155.604,86.774,155.46,86.774z M155.72,86.35
						c0,0.109-0.089,0.191-0.202,0.191c-0.103,0-0.193-0.083-0.193-0.191c0-0.106,0.09-0.188,0.193-0.188
						C155.63,86.163,155.72,86.244,155.72,86.35z"/>
					<path fill="#A28B50" d="M150.243,87.153c0.486,0.064,1.004,0.064,0.878-0.114c-0.146-0.208-0.2-1.025-0.208-2.054h-0.528
						v-0.044c-0.301,0.003-0.578,0.133-0.74,0.351c-0.084,0.986-0.141,1.685-0.141,1.685S149.826,87.097,150.243,87.153z"/>
					<path fill="#A28B50" d="M155.085,84.941h-0.303c-0.004,0.012-0.004,0.028-0.004,0.044h0.307V84.941z"/>
					<path fill="#A28B50" d="M150.567,84.941h-0.174c-0.007,0-0.007,0-0.007,0v0.044h0.528c0-0.016-0.002-0.032-0.002-0.044H150.567
						z"/>
					<path fill="#A28B50" d="M155.554,86.701c0.034,0,0.057-0.016,0.064-0.025C155.611,86.686,155.588,86.701,155.554,86.701
						L155.554,86.701z"/>
					<path fill="#A28B50" d="M155.198,86.601c-0.08,0-0.088,0.101-0.141,0.101c-0.028,0-0.057-0.016-0.065-0.025
						c0,0,0.021,0.099,0.164,0.099c0.042,0,0.12-0.024,0.152-0.089v-0.031C155.308,86.655,155.276,86.601,155.198,86.601z"/>
					<path fill="#A28B50" d="M155.325,86.35c0,0.109,0.09,0.191,0.193,0.191c0.112,0,0.202-0.083,0.202-0.191
						c0-0.106-0.089-0.188-0.202-0.188C155.415,86.163,155.325,86.244,155.325,86.35z"/>
					<path fill="#A28B50" d="M155.278,86.354c0-0.104-0.083-0.191-0.193-0.191c-0.106,0-0.196,0.086-0.196,0.191
						c0,0.105,0.089,0.19,0.196,0.19C155.195,86.544,155.278,86.459,155.278,86.354z"/>
					<path fill="#A28B50" d="M155.554,86.701c-0.052-0.001-0.067-0.101-0.136-0.101C155.487,86.601,155.502,86.701,155.554,86.701
						L155.554,86.701z"/>
					<path fill="#A28B50" d="M155.554,86.701L155.554,86.701c-0.052,0-0.067-0.101-0.136-0.101c-0.078,0-0.11,0.054-0.11,0.054
						v0.031c0.032,0.065,0.11,0.089,0.152,0.089c0.143,0,0.158-0.099,0.158-0.099C155.611,86.686,155.588,86.701,155.554,86.701
						L155.554,86.701z"/>
					<path fill="#A28B50" d="M151.001,81.109v0.297l0.004,0.005c0.006-0.105,0.009-0.207,0.013-0.303
						C151.015,81.109,151.001,81.109,151.001,81.109z"/>
					<path fill="#A28B50" d="M154.713,81.128c-0.015-0.004-0.028-0.004-0.046-0.004c0.006,0.1,0.01,0.206,0.018,0.319
						c0.017-0.008,0.028-0.016,0.028-0.016V81.128z"/>
				</g>
				<rect x="161.467" y="95.638" fill="#B9BBBD" width="11.173" height="7.213"/>
				<g>
					<defs>
						<rect id="SVGID_7_" x="162.727" y="95.091" width="10.273" height="7.76"/>
					</defs>
					<clipPath id="SVGID_6_">
						<use xlink:href="#SVGID_7_"  overflow="visible"/>
					</clipPath>
					<rect x="167.443" y="99.758" clip-path="url(#SVGID_6_)" fill="#F7CA96" width="0.909" height="1.131"/>
					<path clip-path="url(#SVGID_6_)" fill="#F7CA96" d="M168.555,97.133h-1.346c-0.23,0-0.414,0.185-0.414,0.412v1.526
						c0,0.055,0.015,0.112,0.038,0.163c0.12,0.47,0.541,0.814,1.046,0.814c0.509,0,0.926-0.345,1.048-0.814
						c0.023-0.051,0.032-0.108,0.032-0.163v-1.526C168.96,97.318,168.779,97.133,168.555,97.133z"/>
					<path clip-path="url(#SVGID_6_)" fill="#992B23" d="M166.73,100.625h-0.358c-0.231,0-0.416,0.186-0.416,0.412v4.936v0.055
						v0.411h0.361h3.121h0.419v-0.411v-0.013l-0.011-4.978c0-0.226-0.181-0.412-0.408-0.412h-0.351"/>
					<path clip-path="url(#SVGID_6_)" fill="#3F251A" d="M167.156,97.247c0,0,0.49,0.517,1.071,0.505
						c0.591-0.012,1.176-0.398,1.176-0.398l-0.36-0.012l0.096-0.095h-0.119l0.229-0.113l-0.41-0.069c0,0-0.011-0.585-0.335-0.721
						c-0.32-0.139-1.06-0.066-1.465,0.45c0,0-0.332-0.117-0.484,0.121c-0.132,0.212-0.033,0.594,0.152,0.757v0.637h0.089v-0.619
						C166.795,97.689,167.156,97.802,167.156,97.247z"/>
					<rect x="166.706" y="97.623" clip-path="url(#SVGID_6_)" fill="#3F251A" width="0.124" height="0.822"/>
					<rect x="168.884" y="97.522" clip-path="url(#SVGID_6_)" fill="#3F251A" width="0.125" height="0.923"/>
					<g clip-path="url(#SVGID_6_)">
						<g>
							<g>
								<g id="Layer_2_43_">
									<path fill="#3F251A" d="M167.602,99.326c0.082,0,0.232-0.043,0.29-0.166c0.065,0.123,0.21,0.166,0.297,0.166
										c0.274,0,0.314-0.191,0.314-0.191c-0.023,0.025-0.059,0.045-0.124,0.045c-0.108,0-0.125-0.188-0.278-0.188
										c-0.145,0-0.21,0.105-0.21,0.105s-0.057-0.105-0.208-0.105c-0.147,0-0.17,0.188-0.28,0.188
										c-0.058,0-0.103-0.021-0.122-0.045C167.281,99.135,167.325,99.326,167.602,99.326z"/>
								</g>
							</g>
						</g>
						<g id="Layer_2_506_">
							<path fill="#3F251A" d="M167.891,99.098c0,0-0.057-0.105-0.208-0.105c-0.147,0-0.17,0.188-0.28,0.188
								c-0.058,0-0.103-0.021-0.122-0.045c0,0,0.044,0.191,0.32,0.191c0.082,0,0.232-0.043,0.29-0.166"/>
						</g>
					</g>
					<path clip-path="url(#SVGID_6_)" fill="none" stroke="#241F20" stroke-miterlimit="10" d="M167.908,100.618"/>
					<path clip-path="url(#SVGID_6_)" fill="none" stroke="#241F20" stroke-miterlimit="10" d="M167.908,106.431"/>
					<g clip-path="url(#SVGID_6_)">
						<g>
							<g>
								<g id="Layer_2_42_">
									<path fill="#424242" d="M166.646,101.256c0.018,0,0.054-0.011,0.069-0.042c0.015,0.03,0.053,0.042,0.072,0.042
										c0.065,0,0.077-0.047,0.077-0.047c-0.006,0.006-0.021,0.011-0.031,0.011c-0.023,0-0.03-0.042-0.065-0.042
										c-0.038,0-0.053,0.024-0.053,0.024s-0.016-0.024-0.052-0.024c-0.035,0-0.041,0.042-0.065,0.042
										c-0.018,0-0.027-0.005-0.028-0.011C166.571,101.208,166.578,101.256,166.646,101.256z"/>
								</g>
							</g>
						</g>
						<path fill="#424242" d="M166.706,101.058c0,0.045-0.038,0.092-0.094,0.092c-0.045,0-0.091-0.046-0.091-0.092
							c0-0.053,0.046-0.099,0.091-0.099C166.668,100.959,166.706,101.004,166.706,101.058z"/>
						<path fill="#424242" d="M166.914,101.058c0,0.049-0.04,0.092-0.091,0.092c-0.054,0-0.092-0.043-0.092-0.092
							c0-0.053,0.038-0.099,0.092-0.099C166.874,100.959,166.914,101.004,166.914,101.058z"/>
						<g id="Layer_2_495_">
							<path fill="#424242" d="M166.716,101.202c0,0-0.016-0.024-0.052-0.024c-0.035,0-0.041,0.042-0.065,0.042
								c-0.018,0-0.027-0.005-0.028-0.011c0,0,0.007,0.047,0.076,0.047c0.018,0,0.054-0.011,0.069-0.042"/>
						</g>
					</g>
					<g clip-path="url(#SVGID_6_)">
						<g>
							<g>
								<g id="Layer_2_41_">
									<path fill="#424242" d="M167.378,101.99c0.021,0,0.057-0.006,0.07-0.041c0.014,0.035,0.052,0.041,0.071,0.041
										c0.065,0,0.082-0.046,0.082-0.046c-0.008,0.005-0.021,0.011-0.03,0.011c-0.03,0-0.035-0.046-0.071-0.046
										c-0.038,0-0.052,0.027-0.052,0.027s-0.013-0.027-0.049-0.027c-0.032,0-0.04,0.046-0.064,0.046
										c-0.014,0-0.025-0.006-0.03-0.011C167.305,101.944,167.315,101.99,167.378,101.99z"/>
								</g>
							</g>
						</g>
						<circle fill="#424242" cx="167.35" cy="101.787" r="0.093"/>
						<path fill="#424242" d="M167.647,101.787c0,0.053-0.042,0.094-0.089,0.094c-0.057,0-0.095-0.041-0.095-0.094
							c0-0.049,0.038-0.091,0.095-0.091C167.605,101.696,167.647,101.737,167.647,101.787z"/>
						<g id="Layer_2_486_">
							<path fill="#424242" d="M167.449,101.936c0,0-0.013-0.027-0.049-0.027c-0.032,0-0.04,0.046-0.064,0.046
								c-0.014,0-0.025-0.006-0.03-0.011c0,0,0.011,0.046,0.074,0.046c0.021,0,0.057-0.006,0.07-0.041"/>
						</g>
					</g>
					<g clip-path="url(#SVGID_6_)">
						<g>
							<g>
								<g id="Layer_2_40_">
									<path fill="#424242" d="M168.271,102.884c0.019,0,0.057-0.012,0.074-0.045c0.013,0.034,0.048,0.045,0.071,0.045
										c0.064,0,0.078-0.049,0.078-0.049c-0.004,0.004-0.017,0.011-0.039,0.011c-0.017,0-0.026-0.044-0.062-0.044
										c-0.035,0-0.048,0.024-0.048,0.024s-0.017-0.024-0.055-0.024c-0.031,0-0.036,0.044-0.063,0.044
										c-0.015,0-0.021-0.007-0.033-0.011C168.194,102.835,168.209,102.884,168.271,102.884z"/>
								</g>
							</g>
						</g>
						<circle fill="#424242" cx="168.239" cy="102.68" r="0.089"/>
						<path fill="#424242" d="M168.541,102.682c0,0.054-0.04,0.09-0.093,0.09c-0.055,0-0.096-0.036-0.096-0.09
							c0-0.049,0.041-0.092,0.096-0.092C168.501,102.589,168.541,102.633,168.541,102.682z"/>
						<g id="Layer_2_477_">
							<path fill="#424242" d="M168.345,102.826c0,0-0.017-0.024-0.055-0.024c-0.031,0-0.036,0.044-0.063,0.044
								c-0.015,0-0.021-0.007-0.033-0.011c0,0,0.016,0.049,0.077,0.049c0.019,0,0.057-0.012,0.074-0.045"/>
						</g>
					</g>
					<g clip-path="url(#SVGID_6_)">
						<g>
							<g>
								<g id="Layer_2_39_">
									<path fill="#424242" d="M168.271,101.384c0.019,0,0.057-0.007,0.074-0.043c0.013,0.036,0.048,0.043,0.071,0.043
										c0.064,0,0.078-0.047,0.078-0.047c-0.004,0.004-0.017,0.012-0.039,0.012c-0.017,0-0.026-0.046-0.062-0.046
										c-0.035,0-0.048,0.022-0.048,0.022s-0.017-0.022-0.055-0.022c-0.031,0-0.036,0.046-0.063,0.046
										c-0.015,0-0.021-0.008-0.033-0.012C168.194,101.337,168.209,101.384,168.271,101.384z"/>
								</g>
							</g>
						</g>
						<circle fill="#424242" cx="168.239" cy="101.183" r="0.089"/>
						<path fill="#424242" d="M168.541,101.183c0,0.049-0.04,0.093-0.093,0.093c-0.055,0-0.096-0.044-0.096-0.093
							c0-0.047,0.041-0.09,0.096-0.09C168.501,101.092,168.541,101.136,168.541,101.183z"/>
						<g id="Layer_2_470_">
							<path fill="#424242" d="M168.345,101.325c0,0-0.017-0.022-0.055-0.022c-0.031,0-0.036,0.046-0.063,0.046
								c-0.015,0-0.021-0.008-0.033-0.012c0,0,0.016,0.047,0.077,0.047c0.019,0,0.057-0.007,0.074-0.043"/>
						</g>
					</g>
					<g clip-path="url(#SVGID_6_)">
						<g>
							<g>
								<g id="Layer_2_38_">
									<path fill="#424242" d="M169.145,102.256c0.017,0,0.054-0.011,0.067-0.043c0.015,0.032,0.053,0.043,0.072,0.043
										c0.063,0,0.076-0.047,0.076-0.047c-0.005,0.004-0.019,0.01-0.031,0.01c-0.022,0-0.03-0.046-0.064-0.046
										c-0.039,0-0.053,0.024-0.053,0.024s-0.013-0.024-0.05-0.024c-0.038,0-0.042,0.046-0.066,0.046
										c-0.016,0-0.025-0.006-0.031-0.01C169.065,102.209,169.074,102.256,169.145,102.256z"/>
								</g>
							</g>
						</g>
						<path fill="#424242" d="M169.206,102.051c0,0.053-0.044,0.094-0.095,0.094c-0.05,0-0.095-0.041-0.095-0.094
							c0-0.049,0.045-0.091,0.095-0.091C169.162,101.96,169.206,102.002,169.206,102.051z"/>
						<path fill="#424242" d="M169.404,102.056c0,0.048-0.034,0.09-0.088,0.09c-0.051,0-0.093-0.042-0.093-0.09
							c0-0.053,0.042-0.096,0.093-0.096C169.37,101.96,169.404,102.003,169.404,102.056z"/>
						<g id="Layer_2_463_">
							<path fill="#424242" d="M169.212,102.197c0,0-0.013-0.024-0.05-0.024c-0.038,0-0.042,0.046-0.066,0.046
								c-0.016,0-0.025-0.006-0.031-0.01c0,0,0.009,0.047,0.08,0.047c0.017,0,0.054-0.011,0.067-0.043"/>
						</g>
					</g>
					<g clip-path="url(#SVGID_6_)">
						<g>
							<g>
								<g id="Layer_2_37_">
									<path fill="#424242" d="M166.646,102.815c0.018,0,0.054-0.007,0.069-0.043c0.015,0.036,0.053,0.043,0.072,0.043
										c0.065,0,0.077-0.048,0.077-0.048c-0.006,0.005-0.021,0.013-0.031,0.013c-0.023,0-0.03-0.044-0.065-0.044
										c-0.038,0-0.053,0.025-0.053,0.025s-0.016-0.025-0.052-0.025c-0.035,0-0.041,0.044-0.065,0.044
										c-0.018,0-0.027-0.008-0.028-0.013C166.571,102.767,166.578,102.815,166.646,102.815z"/>
								</g>
							</g>
						</g>
						<path fill="#424242" d="M166.706,102.613c0,0.051-0.038,0.092-0.094,0.092c-0.045,0-0.091-0.042-0.091-0.092
							c0-0.05,0.046-0.09,0.091-0.09C166.668,102.523,166.706,102.563,166.706,102.613z"/>
						<path fill="#424242" d="M166.914,102.613c0,0.051-0.04,0.092-0.091,0.092c-0.054,0-0.092-0.042-0.092-0.092
							c0-0.05,0.038-0.09,0.092-0.09C166.874,102.523,166.914,102.563,166.914,102.613z"/>
						<g id="Layer_2_456_">
							<path fill="#424242" d="M166.716,102.761c0,0-0.016-0.025-0.052-0.025c-0.035,0-0.041,0.044-0.065,0.044
								c-0.018,0-0.027-0.008-0.028-0.013c0,0,0.007,0.048,0.076,0.048c0.018,0,0.054-0.007,0.069-0.043"/>
						</g>
					</g>
					<polygon clip-path="url(#SVGID_6_)" fill="#241F20" points="167.908,100.625 167.413,100.327 167.257,100.625 167.689,100.876 
											"/>
					<polygon clip-path="url(#SVGID_6_)" fill="#241F20" points="167.908,100.625 168.393,100.327 168.549,100.625 168.114,100.876 
											"/>
					<g clip-path="url(#SVGID_6_)">
						<g>
							<g>
								<g id="Layer_2_36_">
									<path fill="#424242" d="M169.572,101.256c0.019-0.016,0.03-0.047,0.023-0.079c0.032,0.01,0.062-0.006,0.078-0.019
										c0.046-0.051,0.023-0.089,0.023-0.089s-0.004,0.017-0.013,0.031c-0.017,0.016-0.056-0.014-0.081,0.011
										c-0.024,0.028-0.019,0.055-0.019,0.055s-0.028-0.007-0.054,0.016c-0.022,0.026,0.004,0.062-0.015,0.078
										c-0.007,0.016-0.023,0.02-0.026,0.02C169.488,101.28,169.526,101.303,169.572,101.256z"/>
								</g>
							</g>
						</g>
						<path fill="#424242" d="M169.471,101.069c0.038,0.037,0.038,0.094,0,0.132c-0.033,0.033-0.09,0.033-0.13,0
							c-0.031-0.038-0.031-0.095,0-0.132C169.381,101.036,169.438,101.036,169.471,101.069z"/>
						<path fill="#424242" d="M169.62,100.927c0.033,0.032,0.033,0.095,0,0.131c-0.036,0.035-0.093,0.035-0.131,0
							c-0.035-0.036-0.035-0.099,0-0.131C169.526,100.89,169.583,100.89,169.62,100.927z"/>
						<g id="Layer_2_451_">
							<path fill="#424242" d="M169.583,101.167c0,0-0.028-0.007-0.054,0.016c-0.022,0.026,0.004,0.062-0.015,0.078
								c-0.007,0.016-0.023,0.02-0.026,0.02c0,0,0.038,0.023,0.083-0.024c0.019-0.016,0.03-0.047,0.023-0.079"/>
						</g>
					</g>
					<g clip-path="url(#SVGID_6_)">
						<g>
							<g>
								<g id="Layer_2_35_">
									<path fill="#424242" d="M166.079,102.056c0.009,0.011,0.044,0.028,0.074,0.018c-0.012,0.035,0.006,0.067,0.025,0.08
										c0.045,0.044,0.084,0.019,0.084,0.019c-0.008,0-0.018,0-0.029-0.013c-0.021-0.015,0.011-0.051-0.018-0.078
										c-0.019-0.025-0.049-0.018-0.049-0.018s0.004-0.029-0.019-0.054c-0.024-0.023-0.065,0.001-0.078-0.014
										c-0.013-0.009-0.016-0.021-0.016-0.021S166.026,102.01,166.079,102.056z"/>
								</g>
							</g>
						</g>
						<circle fill="#424242" cx="166.197" cy="101.889" r="0.092"/>
						<path fill="#424242" d="M166.407,102.102c-0.034,0.034-0.097,0.034-0.131,0c-0.037-0.038-0.037-0.099,0-0.131
							c0.034-0.035,0.097-0.035,0.131,0C166.441,102.003,166.441,102.064,166.407,102.102z"/>
						<g id="Layer_2_439_">
							<path fill="#424242" d="M166.167,102.064c0,0,0.004-0.029-0.019-0.054c-0.024-0.023-0.065,0.001-0.078-0.014
								c-0.013-0.009-0.016-0.021-0.016-0.021s-0.028,0.036,0.025,0.082c0.009,0.011,0.044,0.028,0.074,0.018"/>
						</g>
					</g>
					<g clip-path="url(#SVGID_6_)">
						<path fill="#F7CA96" d="M165.391,102.077l0.705,0.305c0,0-0.272,1.019-0.51,1.226c-0.362,0.325-0.698,0.325-0.814-0.276
							C164.715,103.058,165.391,102.077,165.391,102.077z"/>
						<polygon fill="#992B23" points="167.266,101.635 166.147,100.692 164.821,102.396 165.799,103.285 						"/>
					</g>
					<g clip-path="url(#SVGID_6_)">
						<path fill="#F7CA96" d="M170.399,102.077l-0.7,0.305c0,0,0.271,1.019,0.509,1.226c0.36,0.325,0.7,0.325,0.821-0.276
							C171.083,103.058,170.399,102.077,170.399,102.077z"/>
						<polygon fill="#992B23" points="168.532,101.635 169.648,100.692 170.975,102.396 169.997,103.285 						"/>
					</g>
					<g clip-path="url(#SVGID_6_)">
						<g>
							<g>
								<g id="Layer_2_34_">
									<path fill="#424242" d="M169.145,102.256c0.017,0,0.054-0.011,0.067-0.043c0.015,0.032,0.053,0.043,0.072,0.043
										c0.063,0,0.076-0.047,0.076-0.047c-0.005,0.004-0.019,0.01-0.031,0.01c-0.022,0-0.03-0.046-0.064-0.046
										c-0.039,0-0.053,0.024-0.053,0.024s-0.013-0.024-0.05-0.024c-0.038,0-0.042,0.046-0.066,0.046
										c-0.016,0-0.025-0.006-0.031-0.01C169.065,102.209,169.074,102.256,169.145,102.256z"/>
								</g>
							</g>
						</g>
						<path fill="#424242" d="M169.206,102.051c0,0.053-0.044,0.094-0.095,0.094c-0.05,0-0.095-0.041-0.095-0.094
							c0-0.049,0.045-0.091,0.095-0.091C169.162,101.96,169.206,102.002,169.206,102.051z"/>
						<path fill="#424242" d="M169.404,102.056c0,0.048-0.034,0.09-0.088,0.09c-0.051,0-0.093-0.042-0.093-0.09
							c0-0.053,0.042-0.096,0.093-0.096C169.37,101.96,169.404,102.003,169.404,102.056z"/>
						<g id="Layer_2_430_">
							<path fill="#424242" d="M169.212,102.197c0,0-0.013-0.024-0.05-0.024c-0.038,0-0.042,0.046-0.066,0.046
								c-0.016,0-0.025-0.006-0.031-0.01c0,0,0.009,0.047,0.08,0.047c0.017,0,0.054-0.011,0.067-0.043"/>
						</g>
					</g>
					<g clip-path="url(#SVGID_6_)">
						<g>
							<g>
								<g id="Layer_2_44_">
									<path fill="#424242" d="M169.572,101.256c0.019-0.016,0.03-0.047,0.023-0.079c0.032,0.01,0.062-0.006,0.078-0.019
										c0.046-0.051,0.023-0.089,0.023-0.089s-0.004,0.017-0.013,0.031c-0.017,0.016-0.056-0.014-0.081,0.011
										c-0.024,0.028-0.019,0.055-0.019,0.055s-0.028-0.007-0.054,0.016c-0.022,0.026,0.004,0.062-0.015,0.078
										c-0.007,0.016-0.023,0.02-0.026,0.02C169.488,101.28,169.526,101.303,169.572,101.256z"/>
								</g>
							</g>
						</g>
						<path fill="#424242" d="M169.471,101.069c0.038,0.037,0.038,0.094,0,0.132c-0.033,0.033-0.09,0.033-0.13,0
							c-0.031-0.038-0.031-0.095,0-0.132C169.381,101.036,169.438,101.036,169.471,101.069z"/>
						<path fill="#424242" d="M169.62,100.927c0.033,0.032,0.033,0.095,0,0.131c-0.036,0.035-0.093,0.035-0.131,0
							c-0.035-0.036-0.035-0.099,0-0.131C169.526,100.89,169.583,100.89,169.62,100.927z"/>
						<g id="Layer_2_260_">
							<path fill="#424242" d="M169.583,101.167c0,0-0.028-0.007-0.054,0.016c-0.022,0.026,0.004,0.062-0.015,0.078
								c-0.007,0.016-0.023,0.02-0.026,0.02c0,0,0.038,0.023,0.083-0.024c0.019-0.016,0.03-0.047,0.023-0.079"/>
						</g>
					</g>
				</g>
			</g>
		</g>
		<polygon fill="#BE946B" points="185.947,130.438 185.947,130.438 25.734,130.438 56.506,130.438 47.704,130.438 16.936,130.438 
			16.936,139.241 16.936,215.554 25.734,215.554 25.734,139.241 185.947,139.241 185.947,215.554 194.747,215.554 194.747,139.241 
			194.747,130.438 194.747,130.438 		"/>
		<g>
			<path fill="#4A4050" d="M57.475,127.927c0,1.308-1.098,2.367-2.447,2.367H28.474c-1.354,0-2.443-1.06-2.443-2.367v-16.064
				c0-1.304,1.088-2.361,2.443-2.361h26.553c1.35,0,2.447,1.057,2.447,2.361V127.927z"/>
			<path fill="#C4B6B8" d="M25.967,116.291v-4.451c0-1.319,1.098-2.379,2.454-2.379h26.658c1.353,0,2.454,1.061,2.454,2.379v4.451"
				/>
			<path fill="#C4B6B8" d="M57.533,127.342v0.614c0,1.315-1.101,2.376-2.454,2.376H28.421c-1.356,0-2.454-1.062-2.454-2.376v-0.614"
				/>
			<path fill="#E3E4E5" d="M51.21,122.002c0,4.652-3.775,8.428-8.431,8.428c-4.659,0-8.433-3.776-8.433-8.428
				c0-4.659,3.773-8.437,8.433-8.437C47.436,113.566,51.21,117.343,51.21,122.002z"/>
			<path fill="#4A4050" d="M50.31,122.002c0,4.156-3.375,7.527-7.53,7.527c-4.158,0-7.533-3.371-7.533-7.527
				c0-4.164,3.375-7.533,7.533-7.533C46.934,114.469,50.31,117.838,50.31,122.002z"/>
			<path fill="#59595B" d="M47.9,122.002c0,2.826-2.294,5.122-5.121,5.122c-2.83,0-5.128-2.296-5.128-5.122
				c0-2.832,2.298-5.128,5.128-5.128C45.606,116.874,47.9,119.17,47.9,122.002z"/>
			<path fill="#232020" d="M46.511,122.002c0,2.063-1.669,3.729-3.731,3.729c-2.063,0-3.74-1.666-3.74-3.729
				c0-2.068,1.677-3.741,3.74-3.741C44.842,118.261,46.511,119.935,46.511,122.002z"/>
			<rect x="27.619" y="117.335" fill="#E3E4E5" width="5.879" height="2.56"/>
			<rect x="48.754" y="110.633" fill="#4A4050" width="6.51" height="4.054"/>
			<rect x="40.43" y="110.633" fill="#4A4050" width="7.255" height="2.933"/>
		</g>
		<rect x="156.558" y="126.498" fill="#88C242" width="28.728" height="3.941"/>
		<rect x="155.237" y="118.645" fill="#BE946B" width="28.724" height="3.939"/>
		<rect x="155.623" y="114.725" fill="#D3DB28" width="28.728" height="3.939"/>
		<rect x="157.168" y="111.178" fill="#241F20" width="28.724" height="3.936"/>
		<rect x="158.247" y="122.561" fill="#595B5C" width="28.724" height="3.937"/>
		<g>
			<path fill="#F7CA96" d="M75.199,91.798l7.337,3.199c0,0-2.811,10.61-5.307,12.803c-3.804,3.336-7.299,3.354-8.545-2.888
				C68.117,102.051,75.199,91.798,75.199,91.798z"/>
			<path fill="#F7CA96" d="M127.512,91.798l-7.336,3.199c0,0,2.812,10.61,5.312,12.803c3.8,3.336,7.301,3.354,8.54-2.888
				C134.592,102.051,127.512,91.798,127.512,91.798z"/>
			<g>
				<path fill="#2B7A80" d="M99.284,149.977c0-4.408-3.722-7.986-8.314-7.986c-4.594,0-8.32,3.579-8.32,7.986
					c0,4.41,3.726,7.988,8.32,7.988C95.562,157.965,99.284,154.387,99.284,149.977z"/>
				<path fill="#2B7A80" d="M119.536,149.977c0-4.408-3.724-7.986-8.318-7.986s-8.316,3.579-8.316,7.986
					c0,4.41,3.722,7.988,8.316,7.988S119.536,154.387,119.536,149.977z"/>
				<rect x="91.662" y="74.279" fill="#F7CA96" width="18.643" height="9.305"/>
				<path fill="#F7CA96" d="M110.304,83.197c0,2.523-2.237,4.568-5.009,4.568H97.51c-2.769,0-5.01-2.045-5.01-4.568l0,0
					c0-2.518,2.241-4.564,5.01-4.564h7.785C108.067,78.633,110.304,80.68,110.304,83.197L110.304,83.197z"/>
				<rect x="89.365" y="44.008" fill="#856C39" width="24.415" height="30.558"/>
				<rect x="107.909" y="195.583" fill="#F7CA96" width="7.228" height="11.003"/>
				<rect x="86.035" y="195.583" fill="#F7CA96" width="7.226" height="11.003"/>
				<path fill="#F7CA96" d="M111.242,58.271c0-3.417,1.7-9.301,0-11.543c-1.696-2.235-6.792-0.82-10.111-0.82
					c-3.792,0-8.076-3.304-9.748-0.483c-1.25,2.12-0.366,9.916-0.366,12.847c0,6.833,3.476,12.373,10.113,12.373
					C107.772,70.644,111.242,65.104,111.242,58.271z"/>
				<g>
					<g>
						<g>
							<g id="Layer_2_64_">
								<path fill="#424242" d="M85.8,84.398c0.251,0,0.698-0.113,0.892-0.459c0.19,0.347,0.632,0.459,0.896,0.459
									c0.825,0,0.953-0.521,0.953-0.521c-0.065,0.061-0.191,0.119-0.383,0.119c-0.32,0-0.385-0.524-0.833-0.524
									c-0.442,0-0.632,0.293-0.632,0.293s-0.194-0.293-0.641-0.293c-0.444,0-0.511,0.524-0.827,0.524
									c-0.188,0-0.322-0.058-0.381-0.119C84.843,83.877,84.971,84.398,85.8,84.398z"/>
							</g>
						</g>
					</g>
					<path fill="#424242" d="M86.577,82.1c0,0.584-0.52,1.055-1.157,1.055c-0.642,0-1.156-0.471-1.156-1.055
						c0-0.582,0.515-1.052,1.156-1.052C86.057,81.048,86.577,81.518,86.577,82.1z"/>
					<path fill="#424242" d="M89.138,82.107c0,0.585-0.52,1.058-1.154,1.058c-0.633,0-1.157-0.473-1.157-1.058
						c0-0.578,0.524-1.048,1.157-1.048C88.619,81.059,89.138,81.529,89.138,82.107z"/>
					<g id="Layer_2_241_">
						<path fill="#424242" d="M86.692,83.765c0,0-0.194-0.293-0.641-0.293c-0.444,0-0.511,0.524-0.833,0.524
							c-0.183,0-0.316-0.058-0.375-0.119c0,0,0.127,0.521,0.957,0.521c0.251,0,0.698-0.113,0.892-0.459"/>
					</g>
				</g>
				<polygon fill="#2B7A80" points="119.976,145.007 82.322,145.007 85.773,196.771 94.312,196.771 97.124,163.174 104.022,163.174 
					107.812,196.664 115.949,196.947 				"/>
				<rect x="95.797" y="67.303" fill="#F7CA96" width="11.388" height="12.954"/>
				<g>
					<g>
						<path fill="none" stroke="#FFFFFF" stroke-width="1.3225" stroke-miterlimit="10" stroke-dasharray="6.8054,6.8054" d="
							M96.218,161.649"/>
					</g>
				</g>
				<path fill="#241F20" d="M131.4,98.673"/>
				<g>
					<path fill="#241F20" d="M91.292,53.32v1.676c0,0,0.742,0.192,0.846,0.958c0.106,0.762,0.804,3.012,2.292,3.483
						c1.484,0.465,3.342,0.213,4.129-0.426c0.785-0.636,1.052-1.34,1.28-2.039c0.227-0.701,0.185-1.549,1.113-1.549
						s0.789,0.974,0.991,1.482c0.208,0.513,0.618,1.684,1.526,2.212c0.911,0.533,2.355,0.811,3.823,0.361
						c1.462-0.449,2.127-2.4,2.376-3.338c0.248-0.928,0.909-1.271,0.909-1.271v-1.631c0,0-2.092-0.302-3.991-0.279
						c-1.898,0.019-3.365,0.342-3.794,0.571c-0.432,0.234-0.541,0.833-1.84,0.833c-1.3,0-1.618-0.642-1.856-0.807
						C98.474,53.119,96.34,52.703,91.292,53.32z"/>
					<path fill="#424242" d="M92.86,55.868c-0.023-0.5,0.04-1.582,0.886-1.938c0.846-0.354,3.099-0.233,4.276,0.106
						c1.176,0.333,1.446,1.163,1.421,1.65c-0.018,0.476-0.118,2.565-1.61,3.127c-1.484,0.562-3.611,0.416-4.232-0.583
						C92.984,57.227,92.889,56.487,92.86,55.868z"/>
					<path fill="#424242" d="M109.005,55.868c0.021-0.502-0.042-1.582-0.888-1.938c-0.847-0.354-3.095-0.233-4.275,0.106
						c-1.178,0.333-1.444,1.163-1.423,1.65c0.021,0.476,0.122,2.56,1.608,3.125c1.488,0.562,3.615,0.414,4.234-0.585
						C108.883,57.226,108.979,56.487,109.005,55.868z"/>
				</g>
				<g>
					<path fill="#241F20" d="M127.989,91.609c-0.612-1.19-3.654-7.569-3.654-7.569l-4.2-8.188c-0.918-1.297-2.647-2.07-4.478-2.07
						h-1.028h-3.531h-1.269v5.999v0.382h-0.021c-0.213,2.343-2.367,4.18-4.997,4.18h-3.733h-0.187h-3.737
						c-2.628,0-4.778-1.837-4.993-4.18h-0.021v-0.382v-5.999h-1.271h-3.525h-1.029c-1.832,0-3.56,0.773-4.479,2.07l-4.206,8.188
						c0,0-4.084,7.538-4.819,8.964l6.69,10.665l4.28-8.451c0.124,2.141-1.898,6.218-1.145,9.279c0.385,1.556,1.225,2.9,1.229,3.313
						c0.067,5.635,0,8.808,0,11.479c0,4.823-2.723,30.667-2.723,30.667h8.35h1.376h10.022h0.187h10.02h1.38h8.35
						c0,0-2.725-25.844-2.725-30.667c0-2.672-0.066-5.845,0-11.479c0.004-0.413,0.843-1.757,1.224-3.313
						c0.763-3.061-1.261-7.139-1.135-9.279l3.63,7.172L127.989,91.609z"/>
				</g>
				<path fill="#A28B50" d="M91.57,44.816c0,0,5.427,5.888,11.912,5.759c6.491-0.127,10.308-4.582,10.308-4.582l-1.273-0.13
					l1.02-1.046h-1.273l1.399-1.312l-3.438-0.783c0,0-0.125-6.677-3.691-8.248c-3.558-1.573-11.83-0.783-16.28,5.106"/>
				<path fill="#A28B50" d="M118.336,85.534c0,0-2.29-28.207-3.014-39.876c-0.6-9.783-4.665-12.248-14.191-12.248
					c-9.521,0-14.573,2.447-14.573,12.248h0.004L83.89,85.873c0,0,7.297,1.693,8.435,0c-3.219-8.674,0-42.96,0-42.96h17.615
					c0,0,2.428,39.219,0,42.96c-0.644,0.989,2.04,1.001,4.568,0.638C116.666,86.204,118.336,85.534,118.336,85.534z"/>
				<path fill="#A28B50" d="M89.365,86.618c0,0,7.882,2.357,24.25,0L112,46.31l-20.339-4.136l-2.296,10.782V86.618z"/>
				<path fill="#241F20" d="M113.843,38.648c-0.61-7.729-7.695-13.447-15.211-12.819c-7.514,0.627-13.107,7.405-12.5,15.133
					L113.843,38.648z"/>
				<path fill="#595B5C" d="M115.4,40.88c0.109,1.368-0.886,2.567-2.216,2.678l-25.486,2.127c-1.326,0.104-2.494-0.91-2.601-2.28
					l0,0c-0.109-1.368,0.823-3.35,2.153-3.46l25.482-2.125C114.068,37.706,115.295,39.512,115.4,40.88L115.4,40.88z"/>
			</g>
			<polygon fill="#BE946B" points="129.454,158.25 129.407,158.25 125.666,158.25 75.083,158.25 71.345,158.25 71.345,161.992 
				71.345,215.124 75.083,215.124 75.083,161.992 125.666,161.992 125.666,215.124 129.407,215.124 129.407,161.992 
				129.454,161.992 			"/>
		</g>
	</g>
	<use xlink:href="#SVGID_1_"  overflow="visible" fill="none" stroke="#414142" stroke-miterlimit="10"/>
</g>
</svg>
