<?xml version="1.0" encoding="utf-8"?>
<!-- Generator: Adobe Illustrator 16.0.0, SVG Export Plug-In . SVG Version: 6.00 Build 0)  -->
<!DOCTYPE svg PUBLIC "-//W3C//DTD SVG 1.1//EN" "http://www.w3.org/Graphics/SVG/1.1/DTD/svg11.dtd">
<svg version="1.1" id="Layer_1" xmlns="http://www.w3.org/2000/svg" xmlns:xlink="http://www.w3.org/1999/xlink" x="0px" y="0px"
	 width="101.539px" height="103.078px" viewBox="0 0 101.539 103.078" enable-background="new 0 0 101.539 103.078"
	 xml:space="preserve">
<path fill="#00A7A6" d="M7.336,50.482c0-24.038,19.486-43.529,43.529-43.529c24.037,0,43.527,19.491,43.527,43.529
	c0,24.036-19.49,43.525-43.527,43.525C26.822,94.009,7.336,74.519,7.336,50.482z"/>
<path fill="#FFFFFF" d="M39.91,36.026c0,4.831-3.921,8.755-8.759,8.755c-4.836,0-8.759-3.924-8.759-8.755
	c0-4.843,3.923-8.76,8.759-8.76C35.989,27.267,39.91,31.184,39.91,36.026z"/>
<path fill="#FFFFFF" d="M79.102,36.026c0,4.831-3.922,8.755-8.759,8.755c-4.836,0-8.761-3.924-8.761-8.755
	c0-4.843,3.925-8.76,8.761-8.76C75.18,27.267,79.102,31.184,79.102,36.026z"/>
<path fill="#FFFFFF" d="M69.117,59.716c0,10.517-8.521,19.035-19.035,19.035c-10.512,0-19.033-8.52-19.033-19.035
	c0-10.51,8.521-19.029,19.033-19.029C60.596,40.687,69.117,49.206,69.117,59.716z"/>
</svg>
