<?xml version="1.0" encoding="utf-8"?>
<!-- Generator: Adobe Illustrator 16.0.0, SVG Export Plug-In . SVG Version: 6.00 Build 0)  -->
<!DOCTYPE svg PUBLIC "-//W3C//DTD SVG 1.1//EN" "http://www.w3.org/Graphics/SVG/1.1/DTD/svg11.dtd">
<svg version="1.1" id="Layer_1" xmlns="http://www.w3.org/2000/svg" xmlns:xlink="http://www.w3.org/1999/xlink" x="0px" y="0px"
	 width="101.539px" height="103.078px" viewBox="0 0 101.539 103.078" enable-background="new 0 0 101.539 103.078"
	 xml:space="preserve">
<g>
	<path fill="#00A7A6" d="M6.685,50.698c0-23.849,19.333-43.173,43.183-43.173c23.841,0,43.169,19.324,43.169,43.173
		c0,23.844-19.328,43.176-43.169,43.176C26.018,93.875,6.685,74.542,6.685,50.698z"/>
</g>
<path fill="#FFFFFF" d="M73.66,54.423C73.357,41.556,62.8,31.185,49.859,31.185c-12.938,0-23.496,10.371-23.801,23.238h-4.291v8.147
	h56.188v-8.147H73.66z M49.859,39.756c7.437,0,13.51,5.929,13.758,13.3H36.106C36.354,45.685,42.425,39.756,49.859,39.756z"/>
</svg>
