<?xml version="1.0" encoding="utf-8"?>
<!-- Generator: Adobe Illustrator 16.0.0, SVG Export Plug-In . SVG Version: 6.00 Build 0)  -->
<!DOCTYPE svg PUBLIC "-//W3C//DTD SVG 1.1//EN" "http://www.w3.org/Graphics/SVG/1.1/DTD/svg11.dtd">
<svg version="1.1" id="Layer_1" xmlns="http://www.w3.org/2000/svg" xmlns:xlink="http://www.w3.org/1999/xlink" x="0px" y="0px"
	 width="101.539px" height="103.078px" viewBox="0 0 101.539 103.078" enable-background="new 0 0 101.539 103.078"
	 xml:space="preserve">
<path fill="#00A7A6" d="M7.331,50.485c0-24.045,19.486-43.536,43.535-43.536c24.041,0,43.53,19.491,43.53,43.536
	c0,24.039-19.489,43.528-43.53,43.528C26.817,94.013,7.331,74.524,7.331,50.485z"/>
<path fill="#FFFFFF" d="M39.329,27.435c4.443-0.536,7.896,2.257,8.383,6.252c1.234,10.019-13.717,11.74-14.965,2.302
	C32.128,31.334,34.985,27.961,39.329,27.435z M38.009,34.84c0.053,3.234,4.41,2.626,4.441,0c0.021-1.445-0.889-2.603-2.959-1.977
	C38.323,33.218,37.999,33.898,38.009,34.84z"/>
<path fill="#FFFFFF" d="M58.009,28.827c4.451-0.535,7.898,2.258,8.394,6.257c1.229,10.014-13.721,11.736-14.969,2.297
	C50.813,32.725,53.669,29.358,58.009,28.827z M56.693,36.233c0.054,3.232,4.406,2.621,4.443,0c0.021-1.445-0.893-2.603-2.961-1.971
	C57.009,34.611,56.682,35.29,56.693,36.233z"/>
<path fill="#FFFFFF" d="M68.341,46.905c0,1.723,0,3.45,0,5.172c2.813-0.636,5.875-4.163,8.543-4.947c0,7.57,0,15.136,0,22.71
	c-3.057-1.588-5.489-3.812-8.543-5.4c0,2.697,0,5.4,0,8.094c-12.59,0-25.18,0-37.771,0c0-8.539,0-17.089,0-25.628
	C43.161,46.905,55.751,46.905,68.341,46.905z"/>
</svg>
