<?xml version="1.0" encoding="utf-8"?>
<!-- Generator: Adobe Illustrator 16.0.0, SVG Export Plug-In . SVG Version: 6.00 Build 0)  -->
<!DOCTYPE svg PUBLIC "-//W3C//DTD SVG 1.1//EN" "http://www.w3.org/Graphics/SVG/1.1/DTD/svg11.dtd">
<svg version="1.1" id="Layer_1" xmlns="http://www.w3.org/2000/svg" xmlns:xlink="http://www.w3.org/1999/xlink" x="0px" y="0px"
	 width="40.359px" height="40.342px" viewBox="0 0 40.359 40.342" enable-background="new 0 0 40.359 40.342" xml:space="preserve">
<g>
	<g>
		<path fill="#F15E24" d="M24.14,16.232c-0.185-4.288-3.806-7.615-8.094-7.434c-4.287,0.183-7.612,3.806-7.432,8.093
			c0.184,4.287,3.806,7.615,8.091,7.432C20.993,24.143,24.321,20.519,24.14,16.232z M16.626,22.384
			c-3.213,0.137-5.936-2.364-6.072-5.574c-0.139-3.211,2.361-5.934,5.574-6.07c3.213-0.137,5.936,2.363,6.072,5.574
			C22.339,19.525,19.833,22.248,16.626,22.384z"/>
		<path fill="#F15E24" d="M29.525,25.984l-6.558-6.248c-0.663,1.131-1.558,2.107-2.628,2.86l6.555,6.247
			c0.795,0.728,2.021,0.674,2.746-0.117C30.367,27.939,30.311,26.708,29.525,25.984z"/>
	</g>
</g>
<circle fill="none" stroke="#F15D22" stroke-miterlimit="10" cx="20.339" cy="20.021" r="19.02"/>
</svg>
