<?xml version="1.0" encoding="utf-8"?>
<!-- Generator: Adobe Illustrator 15.0.0, SVG Export Plug-In . SVG Version: 6.00 Build 0)  -->
<!DOCTYPE svg PUBLIC "-//W3C//DTD SVG 1.1//EN" "http://www.w3.org/Graphics/SVG/1.1/DTD/svg11.dtd">
<svg version="1.1" id="Capa_1" xmlns="http://www.w3.org/2000/svg" xmlns:xlink="http://www.w3.org/1999/xlink" x="0px" y="0px"
	 width="39.686px" height="39.686px" viewBox="0 0 39.686 39.686" enable-background="new 0 0 39.686 39.686" xml:space="preserve">
<g id="Layer_3" display="none">
</g>
<g id="Mensaje_de_error_3_copy_2">
	<g>
		<circle fill="#F05D22" cx="19.843" cy="19.823" r="19.177"/>
		<g>
			<g>
				<line fill="none" x1="11.47" y1="13.905" x2="28.552" y2="13.905"/>
				<g>
					<path fill="#FFFFFF" d="M11.47,15.55c5.694,0,11.389,0,17.083,0c2.121,0,2.121-3.289,0-3.289c-5.693,0-11.388,0-17.083,0
						C9.349,12.26,9.349,15.55,11.47,15.55L11.47,15.55z"/>
				</g>
			</g>
			<g>
				<line fill="none" x1="11.47" y1="20.027" x2="28.552" y2="20.027"/>
				<g>
					<path fill="#FFFFFF" d="M11.47,21.672c5.694,0,11.389,0,17.083,0c2.121,0,2.121-3.289,0-3.289c-5.693,0-11.388,0-17.083,0
						C9.349,18.383,9.349,21.672,11.47,21.672L11.47,21.672z"/>
				</g>
			</g>
			<g>
				<line fill="none" x1="11.47" y1="25.737" x2="28.552" y2="25.737"/>
				<g>
					<path fill="#FFFFFF" d="M11.47,27.383c5.694,0,11.389,0,17.083,0c2.121,0,2.121-3.289,0-3.289c-5.693,0-11.388,0-17.083,0
						C9.349,24.094,9.349,27.383,11.47,27.383L11.47,27.383z"/>
				</g>
			</g>
		</g>
	</g>
</g>
</svg>
