<?xml version="1.0" encoding="utf-8"?>
<!-- Generator: Adobe Illustrator 16.0.0, SVG Export Plug-In . SVG Version: 6.00 Build 0)  -->
<!DOCTYPE svg PUBLIC "-//W3C//DTD SVG 1.1//EN" "http://www.w3.org/Graphics/SVG/1.1/DTD/svg11.dtd">
<svg version="1.1" id="Layer_1" xmlns="http://www.w3.org/2000/svg" xmlns:xlink="http://www.w3.org/1999/xlink" x="0px" y="0px"
	 width="202.735px" height="161.765px" viewBox="0 0 202.735 161.765" enable-background="new 0 0 202.735 161.765"
	 xml:space="preserve">
<g>
	<defs>
		<rect id="SVGID_1_" x="11.957" y="11" width="178.024" height="136.708"/>
	</defs>
	<clipPath id="SVGID_2_">
		<use xlink:href="#SVGID_1_"  overflow="visible"/>
	</clipPath>
	<g clip-path="url(#SVGID_2_)">
		<g>
			<path fill="#FBCE99" d="M149.929,93.011l10.104,25.873c0,0,0.312,0.832,0.223,1.752s-1.09,1.01-1.217,2.299
				c-0.124,1.293-0.408,4.236-0.517,5.346c-0.106,1.104,0.25,1.625,1.058,1.703c0.646,0.064,0.945-2.523,0.945-3.803
				c0-0.861,2.026-1.092,2.026,0.195c0,0.742-0.18,1.84-0.272,2.762c-0.086,0.92-1.516,2.24-2.168,3.199
				c-0.491,0.725-0.504,1.344-0.406,1.797c0,0,2.65-2.863,3.123-3.355c0.287-0.303,0.596-0.057,0.316,0.316
				c-0.408,0.551-3.432,3.652-3.774,4.424c-0.192,0.428,0.223,1.248,0.576,1.078c0.62-0.303,2.828-2.699,4.31-4.48
				c1.324-1.588,0.967-5.172,1.229-9.795c0.265-4.623-0.34-5.453-0.34-5.453L155.04,90.994L149.929,93.011z"/>
			<path fill="#FBCE99" d="M118.237,93.404l-9.646,25.408c0,0-0.352,0.816-0.297,1.742c0.049,0.924,1.041,1.055,1.108,2.35
				c0.071,1.293,0.229,4.25,0.286,5.357c0.062,1.111-0.32,1.615-1.127,1.658c-0.648,0.035-0.836-2.562-0.779-3.84
				c0.039-0.861-1.979-1.178-2.029,0.107c-0.035,0.74,0.094,1.848,0.144,2.773c0.049,0.922,1.423,2.303,2.029,3.289
				c0.46,0.744,0.444,1.365,0.327,1.811c0,0-2.523-2.975-2.971-3.484c-0.275-0.318-0.596-0.084-0.331,0.303
				c0.386,0.564,3.267,3.797,3.578,4.582c0.173,0.436-0.276,1.24-0.622,1.053c-0.605-0.33-2.711-2.82-4.109-4.662
				c-1.256-1.648-0.742-5.211-0.805-9.844c-0.062-4.627,0.576-5.43,0.576-5.43l9.647-25.41L118.237,93.404z"/>
			<g>
				<polygon fill="#004882" points="148.761,127.976 120.382,127.976 122.979,181.917 128.425,181.917 131.538,139.675 
					136.737,139.675 139.594,181.839 145.729,182.05 				"/>
				<rect x="126.787" y="73.043" fill="#FFFFFF" width="15.358" height="54.855"/>
				<path fill="#FBCE99" d="M127.743,73.043v5.281h0.016c0.162,1.938,1.785,3.46,3.764,3.46h5.865c1.983,0,3.603-1.523,3.766-3.46
					h0.014v-5.281H127.743z"/>
				<rect x="124.388" y="45.653" fill="#754C29" width="20.787" height="29.839"/>
				<path fill="#FBCE99" d="M143.022,57.461c0-2.828,1.445-7.703,0-9.556c-1.451-1.853-5.788-0.681-8.615-0.681
					c-3.23,0-6.876-2.729-8.295-0.397c-1.07,1.753-0.316,8.208-0.316,10.634c0,5.652,2.958,10.236,8.611,10.236
					C140.063,67.697,143.022,63.113,143.022,57.461z"/>
				<g>
					<g>
						<g>
							<g id="Layer_2_9_">
								<path fill="#414042" d="M122.741,79.083c0.193,0,0.527-0.098,0.674-0.383c0.143,0.285,0.479,0.383,0.672,0.383
									c0.625,0,0.72-0.433,0.72-0.433c-0.046,0.05-0.143,0.099-0.29,0.099c-0.237,0-0.286-0.437-0.623-0.437
									c-0.336,0-0.479,0.24-0.479,0.24s-0.146-0.24-0.48-0.24c-0.336,0-0.385,0.437-0.625,0.437c-0.141,0-0.242-0.049-0.291-0.099
									C122.019,78.65,122.117,79.083,122.741,79.083z"/>
							</g>
						</g>
					</g>
					<path fill="#414042" d="M123.33,77.179c0,0.481-0.392,0.872-0.874,0.872c-0.479,0-0.869-0.391-0.869-0.872
						c0-0.479,0.391-0.87,0.869-0.87C122.938,76.309,123.33,76.699,123.33,77.179z"/>
					<path fill="#414042" d="M125.261,77.189c0,0.48-0.391,0.869-0.873,0.869c-0.478,0-0.87-0.389-0.87-0.869
						c0-0.482,0.393-0.872,0.87-0.872C124.87,76.317,125.261,76.707,125.261,77.189z"/>
					<g id="Layer_2_751_">
						<path fill="#414042" d="M123.415,78.553c0,0-0.146-0.24-0.48-0.24c-0.336,0-0.385,0.437-0.625,0.437
							c-0.141,0-0.242-0.049-0.291-0.099c0,0,0.099,0.433,0.723,0.433c0.193,0,0.527-0.098,0.674-0.383"/>
					</g>
				</g>
				<g>
					<g>
						<g>
							<g id="Layer_2_8_">
								<path fill="#414042" d="M138.116,80.301c0.193,0,0.528-0.096,0.672-0.384c0.145,0.288,0.48,0.384,0.676,0.384
									c0.621,0,0.717-0.434,0.717-0.434c-0.047,0.05-0.145,0.099-0.288,0.099c-0.239,0-0.288-0.437-0.624-0.437
									s-0.48,0.241-0.48,0.241s-0.144-0.241-0.479-0.241c-0.336,0-0.385,0.437-0.625,0.437c-0.145,0-0.24-0.049-0.29-0.099
									C137.395,79.867,137.491,80.301,138.116,80.301z"/>
							</g>
						</g>
					</g>
					<path fill="#414042" d="M138.706,78.396c0,0.481-0.395,0.87-0.873,0.87c-0.482,0-0.871-0.389-0.871-0.87
						c0-0.48,0.389-0.872,0.871-0.872C138.312,77.523,138.706,77.915,138.706,78.396z"/>
					<circle fill="#414042" cx="139.763" cy="78.404" r="0.871"/>
					<g id="Layer_2_747_">
						<path fill="#414042" d="M138.788,79.771c0,0-0.144-0.241-0.479-0.241c-0.336,0-0.385,0.437-0.625,0.437
							c-0.145,0-0.24-0.049-0.29-0.099c0,0,0.097,0.434,0.722,0.434c0.193,0,0.528-0.096,0.672-0.384"/>
					</g>
				</g>
				<path fill="#A97C50" d="M126.266,46.324c0,0,4.621,4.874,10.146,4.766c5.527-0.109,8.776-3.79,8.776-3.79l-1.084-0.11
					l0.866-0.865h-1.08l1.189-1.082l-2.926-0.652c0,0-0.109-5.525-3.141-6.824c-3.032-1.302-10.074-0.651-13.867,4.227"/>
				<path fill="#A97C50" d="M149.093,80.301c0,0-1.984-23.621-2.598-33.281c-0.517-8.092-3.979-10.139-12.088-10.139
					s-12.408,2.029-12.408,10.139h0.006l-2.275,33.281c0,0,6.211,1.4,7.187,0c-2.743-7.178,0-35.555,0-35.555h14.993
					c0,0,2.447,35.555,0,35.555C139.464,80.301,149.093,80.301,149.093,80.301z"/>
				<path fill="#570A30" d="M145.962,41.651c0-6.417-5.629-11.625-12.051-11.625c-6.418,0-11.62,5.208-11.62,11.625H145.962z"/>
				<path fill="#771341" d="M147.138,43.594c0,1.137-0.924,2.06-2.059,2.06h-21.771c-1.138,0-2.061-0.923-2.061-2.06l0,0
					c0-1.135,0.923-2.709,2.061-2.709h21.771C146.214,40.885,147.138,42.459,147.138,43.594L147.138,43.594z"/>
				<rect x="126.833" y="73.123" fill="#FFFFFF" width="15.355" height="54.853"/>
				<rect x="130.279" y="64.936" fill="#FBCE99" width="8.581" height="10.722"/>
				<path fill="#FBCE99" d="M127.79,73.123v5.281h0.016c0.16,1.939,1.782,3.462,3.76,3.462h5.871c1.979,0,3.6-1.523,3.762-3.462
					h0.018v-5.281H127.79z"/>
				<g>
					<line fill="#FFFFFF" x1="130.778" y1="139.667" x2="127.8" y2="179.646"/>
					<g>
						
							<line fill="none" stroke="#FFFFFF" stroke-width="0.577" stroke-miterlimit="10" x1="130.778" y1="139.667" x2="130.716" y2="140.482"/>
						
							<line fill="none" stroke="#FFFFFF" stroke-width="0.577" stroke-miterlimit="10" stroke-dasharray="2.969,2.969" x1="130.593" y1="142.148" x2="127.924" y2="178.001"/>
					</g>
				</g>
				<g>
					<line fill="#FFFFFF" x1="137.401" y1="139.667" x2="140.382" y2="179.646"/>
					<g>
						
							<line fill="none" stroke="#FFFFFF" stroke-width="0.577" stroke-miterlimit="10" x1="137.401" y1="139.667" x2="137.464" y2="140.482"/>
						
							<line fill="none" stroke="#FFFFFF" stroke-width="0.577" stroke-miterlimit="10" stroke-dasharray="2.969,2.969" x1="137.585" y1="142.148" x2="140.257" y2="178.001"/>
					</g>
				</g>
				<g>
					<path d="M133.558,57.456c0,0.536-0.436,0.978-0.976,0.978h-4.753c-0.539,0-0.977-0.441-0.977-0.978v-3.77
						c0-0.538,0.438-0.977,0.977-0.977h4.753c0.54,0,0.976,0.438,0.976,0.977V57.456z"/>
					<path d="M141.696,57.456c0,0.536-0.438,0.978-0.977,0.978h-4.753c-0.535,0-0.972-0.441-0.972-0.978v-3.77
						c0-0.538,0.437-0.977,0.972-0.977h4.753c0.539,0,0.977,0.438,0.977,0.977V57.456z"/>
				</g>
				<g>
					<line stroke="#000000" stroke-width="1.1539" stroke-miterlimit="10" x1="133.399" y1="55.572" x2="134.995" y2="55.572"/>
					<rect x="133.399" y="55.409" stroke="#000000" stroke-width="1.1539" stroke-miterlimit="10" width="1.596" height="0.326"/>
				</g>
				<g>
					<polygon stroke="#000000" stroke-width="1.1539" stroke-miterlimit="10" points="126.976,55.246 126.499,54.314 
						126.507,53.898 126.976,54.805 					"/>
				</g>
				<g>
					<polygon stroke="#000000" stroke-width="1.1539" stroke-miterlimit="10" points="141.463,55.357 142.147,54.314 
						142.134,53.898 141.557,54.805 					"/>
				</g>
				<g>
					<path fill="#004A2B" d="M126.787,73.043h-3.435c-1.379,0-2.588,0.715-3.283,1.785l-0.095-0.076l-12.022,16.542l9.521,8.098
						l3.133-3.789c0.32,5.875,0.902,11.709,0.902,15.105c0,3.986-2.055,19.527-2.055,19.527h7.333V73.043z"/>
					<path fill="#004A2B" d="M151.427,99.392l9.526-8.098l-11.667-16.145c-0.646-1.247-1.955-2.106-3.469-2.106h-3.672v57.193h3.672
						h3.969c0,0-2.174-15.52-2.18-19.527c-0.004-3.344,0.58-9.057,0.904-14.848L151.427,99.392z"/>
				</g>
			</g>
		</g>
		<g>
			
				<rect x="106.732" y="68.399" transform="matrix(0.9348 -0.3553 0.3553 0.9348 -40.3793 46.9831)" fill="#493E4F" width="1.995" height="130.065"/>
			
				<rect x="60.613" y="68.399" transform="matrix(-0.9349 -0.355 0.355 -0.9349 71.8449 280.0437)" fill="#493E4F" width="1.997" height="130.066"/>
			<polygon fill="#493E4F" points="83.972,191.687 85.806,191.687 85.599,72.215 83.763,72.215 			"/>
			<path fill="#493E4F" d="M106.251,70.918c0,1.412-1.144,2.558-2.558,2.558H63.834c-1.415,0-2.56-1.146-2.56-2.558V49.842
				c0-1.414,1.145-2.559,2.56-2.559h39.859c1.414,0,2.558,1.145,2.558,2.559V70.918z"/>
			<path fill="#493E4F" d="M64.372,64.172c0,1.857-1.504,3.362-3.361,3.362l-13.555,3.257l-3.057,0.736
				c-1.859,0-3.364-1.505-3.364-3.363V52.598c0-1.858,1.505-3.365,3.364-3.365l2.618,0.629l13.993,3.365
				c1.857,0,3.361,1.506,3.361,3.363V64.172z"/>
			<path fill="#493E4F" d="M90.325,54.615c0-2.82,1.507-5.109,3.361-5.109l16.612-6.069c1.856,0,3.364,2.288,3.364,5.111v23.665
				c0,2.82-1.508,5.111-3.364,5.111l-16.612-6.07c-1.854,0-3.361-2.289-3.361-5.112V54.615z"/>
			<path fill="#6D6E71" d="M104.206,35.87c1.439,2.431,2.4,4.523,0.423,5.696l-13.831,8.186c-1.978,1.17-4.748,0.147-6.188-2.283
				l0,0c-1.438-2.432-1.001-5.353,0.975-6.523l13.834-8.186C101.396,31.588,102.769,33.438,104.206,35.87L104.206,35.87z"/>
			<path fill="#6D6E71" d="M92.591,45.885c0,2.52-2.234,4.563-4.988,4.563h-7.43c-2.755,0-4.989-2.044-4.989-4.563l0,0
				c0-2.523,2.234-4.566,4.989-4.566h7.43C90.356,41.318,92.591,43.361,92.591,45.885L92.591,45.885z"/>
			<path fill="#493E4F" d="M82.421,39.779c0,0.85-0.688,1.539-1.539,1.539H69.735c-0.851,0-1.541-0.689-1.541-1.539l0,0
				c0-0.85,0.69-1.54,1.541-1.54l11.146-0.999C81.732,37.24,82.421,38.93,82.421,39.779L82.421,39.779z"/>
			<path fill="#493E4F" d="M106.577,40.023c0.232,0.424,0.076,0.955-0.348,1.187l0,0c-0.423,0.233-0.953,0.077-1.185-0.348
				l-4.435-8.099c-0.231-0.422-0.075-0.955,0.349-1.186l0,0c0.423-0.231,0.954-0.076,1.185,0.348L106.577,40.023z"/>
			<path fill="#6D6E71" d="M100.591,36.473c1.547,2.611,2.672,4.809,1.432,5.54l-8.674,5.134c-1.238,0.733-3.498-0.789-5.047-3.402
				l0,0c-1.547-2.613-1.793-5.327-0.555-6.062l8.675-5.131C97.663,31.818,99.045,33.859,100.591,36.473L100.591,36.473z"/>
			<path fill="#6D6E71" d="M68.194,51.862c0,0.781-0.633,1.414-1.412,1.414c-0.783,0-1.414-0.633-1.414-1.414
				c0-0.78,0.631-1.414,1.414-1.414C67.562,50.448,68.194,51.082,68.194,51.862z"/>
			<path fill="#6D6E71" d="M71.69,51.862c0,0.781-0.631,1.414-1.414,1.414c-0.78,0-1.412-0.633-1.412-1.414
				c0-0.78,0.632-1.414,1.412-1.414C71.06,50.448,71.69,51.082,71.69,51.862z"/>
			<circle fill="#6D6E71" cx="66.011" cy="71.572" r="0.643"/>
			<circle fill="#6D6E71" cx="67.599" cy="71.572" r="0.643"/>
			<circle fill="#6D6E71" cx="69.221" cy="71.572" r="0.642"/>
			
				<line fill="none" stroke="#6D6E71" stroke-width="1.7847" stroke-miterlimit="10" x1="51.112" y1="69.912" x2="51.112" y2="50.846"/>
			<g>
				
					<line fill="none" stroke="#F1F2F2" stroke-width="0.4462" stroke-miterlimit="10" x1="52.079" y1="52.479" x2="52.973" y2="52.479"/>
				
					<line fill="none" stroke="#F1F2F2" stroke-width="0.4462" stroke-miterlimit="10" x1="52.079" y1="54.059" x2="52.973" y2="54.059"/>
				
					<line fill="none" stroke="#F1F2F2" stroke-width="0.4462" stroke-miterlimit="10" x1="52.079" y1="55.639" x2="52.973" y2="55.639"/>
				
					<line fill="none" stroke="#F1F2F2" stroke-width="0.4462" stroke-miterlimit="10" x1="52.079" y1="57.219" x2="52.973" y2="57.219"/>
				
					<line fill="none" stroke="#F1F2F2" stroke-width="0.4462" stroke-miterlimit="10" x1="52.079" y1="58.8" x2="52.973" y2="58.8"/>
				
					<line fill="none" stroke="#F1F2F2" stroke-width="0.4462" stroke-miterlimit="10" x1="52.079" y1="60.381" x2="52.973" y2="60.381"/>
				
					<line fill="none" stroke="#F1F2F2" stroke-width="0.4462" stroke-miterlimit="10" x1="52.079" y1="61.961" x2="52.973" y2="61.961"/>
				
					<line fill="none" stroke="#F1F2F2" stroke-width="0.4462" stroke-miterlimit="10" x1="52.079" y1="63.541" x2="52.973" y2="63.541"/>
				
					<line fill="none" stroke="#F1F2F2" stroke-width="0.4462" stroke-miterlimit="10" x1="52.079" y1="65.12" x2="52.973" y2="65.12"/>
				
					<line fill="none" stroke="#F1F2F2" stroke-width="0.4462" stroke-miterlimit="10" x1="52.079" y1="66.7" x2="52.973" y2="66.7"/>
				
					<line fill="none" stroke="#F1F2F2" stroke-width="0.4462" stroke-miterlimit="10" x1="52.079" y1="68.283" x2="52.973" y2="68.283"/>
			</g>
			<rect x="57.298" y="56.222" fill="#6D6E71" width="1.665" height="4.006"/>
			<rect x="102.913" y="56.222" fill="#6D6E71" width="4.352" height="8.898"/>
			<rect x="73.52" y="56.222" fill="#6D6E71" width="1.664" height="4.006"/>
			<rect x="70.86" y="56.222" width="1.662" height="4.006"/>
			<rect x="68.2" y="56.222" fill="#6D6E71" width="1.662" height="4.006"/>
			<rect x="41.035" y="49.232" width="5.616" height="22.295"/>
			<rect x="109.751" y="43.437" width="5.616" height="33.888"/>
			
				<line fill="none" stroke="#6D6E71" stroke-width="1.7847" stroke-miterlimit="10" x1="77.79" y1="53.863" x2="77.79" y2="66.592"/>
			
				<line fill="none" stroke="#000000" stroke-width="0.4462" stroke-miterlimit="10" x1="85.585" y1="40.945" x2="90.325" y2="50.846"/>
		</g>
	</g>
</g>
<rect x="10.87" y="12.533" fill="none" stroke="#414042" stroke-width="0.5" stroke-miterlimit="10" width="178.025" height="136.708"/>
</svg>
