<?xml version="1.0" encoding="utf-8"?>
<!-- Generator: Adobe Illustrator 16.0.0, SVG Export Plug-In . SVG Version: 6.00 Build 0)  -->
<!DOCTYPE svg PUBLIC "-//W3C//DTD SVG 1.1//EN" "http://www.w3.org/Graphics/SVG/1.1/DTD/svg11.dtd">
<svg version="1.1" id="Layer_1" xmlns="http://www.w3.org/2000/svg" xmlns:xlink="http://www.w3.org/1999/xlink" x="0px" y="0px"
	 width="202.735px" height="161.765px" viewBox="0 0 202.735 161.765" enable-background="new 0 0 202.735 161.765"
	 xml:space="preserve">
<g>
	
		<rect x="11.341" y="11.886" fill="none" stroke="#414042" stroke-width="0.5" stroke-miterlimit="10" width="178.025" height="136.709"/>
	<g>
		<g>
			<polygon fill="#E6E7E8" points="94.994,84.624 82.6,74.119 67.889,93.033 78.727,102.929 			"/>
		</g>
		<rect x="96.972" y="63.778" fill="#FBCE99" width="10.078" height="12.593"/>
		<path fill="#FBCE99" d="M109.264,34.651H94.38c-2.528,0-4.578,2.05-4.578,4.582v16.914c0,0.655,0.14,1.271,0.385,1.834
			c1.326,5.193,6.025,9.04,11.634,9.04c5.61,0,10.31-3.847,11.635-9.04c0.245-0.563,0.386-1.179,0.386-1.834V39.233
			C113.841,36.701,111.791,34.651,109.264,34.651z"/>
		<path fill="#E6E7E8" d="M89.031,73.396h-3.952c-2.532,0-4.578,2.031-4.578,4.533v54.807v0.617v4.533h3.94h34.647h4.656v-4.533
			v-0.195l-0.077-55.229c0-2.502-2.05-4.533-4.579-4.533h-3.875"/>
		<g>
			<polygon fill="#E6E7E8" points="109.335,84.624 121.728,74.119 136.441,93.033 125.604,102.929 			"/>
		</g>
		<path fill="#3E2418" d="M93.785,35.923c0,0,5.427,5.722,11.913,5.596c6.489-0.127,12.976-4.451,12.976-4.451l-3.941-0.127
			l1.015-1.018h-1.272l2.544-1.272l-4.577-0.763c0,0-0.128-6.488-3.69-8.017c-3.56-1.524-11.83-0.761-16.282,4.964
			c0,0-3.69-1.27-5.341,1.397c-1.463,2.361-0.383,6.614,1.65,8.396v7.062h1.023v-6.854C89.802,40.837,93.785,42.074,93.785,35.923z"
			/>
		<rect x="88.778" y="40.074" fill="#3E2418" width="1.404" height="9.142"/>
		<rect x="112.952" y="38.976" fill="#3E2418" width="1.397" height="10.239"/>
		<g>
			<g>
				<g>
					<g id="Layer_2_24_">
						<path fill="#3E2418" d="M98.694,58.99c0.933,0,2.57-0.467,3.271-1.87c0.701,1.403,2.338,1.87,3.273,1.87
							c3.039,0,3.508-2.104,3.508-2.104c-0.233,0.233-0.703,0.469-1.402,0.469c-1.171,0-1.403-2.105-3.041-2.105
							c-1.637,0-2.338,1.17-2.338,1.17s-0.701-1.17-2.339-1.17c-1.636,0-1.87,2.105-3.037,2.105c-0.702,0-1.169-0.235-1.404-0.469
							C95.186,56.886,95.653,58.99,98.694,58.99z"/>
					</g>
				</g>
			</g>
			<g id="Layer_2_802_">
				<path fill="#3E2418" d="M101.964,56.419c0,0-0.699-1.17-2.337-1.17c-1.636,0-1.87,2.105-3.039,2.105
					c-0.7,0-1.169-0.235-1.402-0.469c0,0,0.468,2.104,3.505,2.104c0.937,0,2.574-0.467,3.273-1.87"/>
			</g>
		</g>
		
			<line fill="none" stroke="#000000" stroke-width="0.8923" stroke-miterlimit="10" x1="102.122" y1="137.809" x2="102.122" y2="73.32"/>
		<g>
			<g>
				<g>
					<g id="Layer_2_23_">
						<path fill="#414042" d="M88.12,80.394c0.227,0,0.62-0.113,0.789-0.449c0.172,0.336,0.565,0.449,0.792,0.449
							c0.731,0,0.845-0.507,0.845-0.507C90.49,79.945,90.377,80,90.208,80c-0.281,0-0.34-0.508-0.733-0.508
							s-0.565,0.282-0.565,0.282s-0.169-0.282-0.562-0.282c-0.395,0-0.451,0.508-0.734,0.508c-0.168,0-0.28-0.055-0.337-0.112
							C87.275,79.887,87.385,80.394,88.12,80.394z"/>
					</g>
				</g>
			</g>
			<circle fill="#414042" cx="87.787" cy="78.16" r="1.025"/>
			<circle fill="#414042" cx="90.054" cy="78.168" r="1.023"/>
			<g id="Layer_2_799_">
				<path fill="#414042" d="M88.909,79.774c0,0-0.169-0.282-0.562-0.282c-0.395,0-0.451,0.508-0.734,0.508
					c-0.168,0-0.28-0.055-0.337-0.112c0,0,0.109,0.507,0.845,0.507c0.227,0,0.62-0.113,0.789-0.449"/>
			</g>
		</g>
		<g>
			<g>
				<g>
					<g id="Layer_2_22_">
						<path fill="#414042" d="M96.267,88.542c0.227,0,0.62-0.112,0.79-0.453c0.169,0.341,0.565,0.453,0.791,0.453
							c0.733,0,0.847-0.509,0.847-0.509c-0.06,0.056-0.168,0.113-0.34,0.113c-0.28,0-0.34-0.508-0.732-0.508
							c-0.396,0-0.565,0.285-0.565,0.285s-0.17-0.285-0.563-0.285s-0.45,0.508-0.732,0.508c-0.168,0-0.282-0.058-0.338-0.113
							C95.423,88.034,95.533,88.542,96.267,88.542z"/>
					</g>
				</g>
			</g>
			<circle fill="#414042" cx="95.935" cy="86.306" r="1.023"/>
			<path fill="#414042" d="M99.225,86.318c0,0.565-0.457,1.02-1.023,1.02c-0.563,0-1.022-0.454-1.022-1.02
				c0-0.566,0.459-1.023,1.022-1.023C98.768,85.294,99.225,85.751,99.225,86.318z"/>
			<g id="Layer_2_796_">
				<path fill="#414042" d="M97.057,87.924c0,0-0.17-0.285-0.563-0.285s-0.45,0.508-0.732,0.508c-0.168,0-0.282-0.058-0.338-0.113
					c0,0,0.11,0.509,0.844,0.509c0.227,0,0.62-0.112,0.79-0.453"/>
			</g>
		</g>
		<g>
			<g>
				<g>
					<g id="Layer_2_21_">
						<path fill="#414042" d="M106.174,98.45c0.227,0,0.62-0.112,0.791-0.45c0.171,0.338,0.563,0.45,0.788,0.45
							c0.734,0,0.848-0.507,0.848-0.507c-0.056,0.057-0.169,0.113-0.339,0.113c-0.281,0-0.337-0.51-0.733-0.51
							c-0.393,0-0.563,0.283-0.563,0.283s-0.171-0.283-0.564-0.283c-0.395,0-0.451,0.51-0.733,0.51
							c-0.168,0-0.283-0.057-0.338-0.113C105.329,97.943,105.442,98.45,106.174,98.45z"/>
					</g>
				</g>
			</g>
			<path fill="#414042" d="M106.864,96.212c0,0.566-0.456,1.026-1.023,1.026c-0.562,0-1.022-0.46-1.022-1.026
				c0-0.564,0.461-1.023,1.022-1.023C106.408,95.189,106.864,95.648,106.864,96.212z"/>
			<circle fill="#414042" cx="108.109" cy="96.222" r="1.022"/>
			<g id="Layer_2_793_">
				<path fill="#414042" d="M106.964,97.83c0,0-0.17-0.283-0.563-0.283c-0.395,0-0.451,0.51-0.733,0.51
					c-0.168,0-0.283-0.057-0.338-0.113c0,0,0.113,0.507,0.845,0.507c0.227,0,0.62-0.112,0.79-0.45"/>
			</g>
		</g>
		<g>
			<g>
				<g>
					<g id="Layer_2_20_">
						<path fill="#414042" d="M115.823,108.095c0.225,0,0.62-0.111,0.79-0.45c0.168,0.339,0.562,0.45,0.789,0.45
							c0.729,0,0.843-0.507,0.843-0.507c-0.053,0.057-0.166,0.113-0.336,0.113c-0.283,0-0.338-0.508-0.734-0.508
							c-0.394,0-0.562,0.283-0.562,0.283s-0.17-0.283-0.565-0.283c-0.395,0-0.452,0.508-0.735,0.508
							c-0.168,0-0.28-0.057-0.338-0.113C114.975,107.588,115.089,108.095,115.823,108.095z"/>
					</g>
				</g>
			</g>
			<circle fill="#414042" cx="115.489" cy="105.859" r="1.023"/>
			<circle fill="#414042" cx="117.757" cy="105.871" r="1.024"/>
			<g id="Layer_2_790_">
				<path fill="#414042" d="M116.61,107.477c0,0-0.167-0.283-0.562-0.283c-0.395,0-0.452,0.508-0.735,0.508
					c-0.168,0-0.28-0.057-0.338-0.113c0,0,0.114,0.507,0.849,0.507c0.225,0,0.62-0.111,0.787-0.45"/>
			</g>
		</g>
		<g>
			<g>
				<g>
					<g id="Layer_2_19_">
						<path fill="#414042" d="M106.174,81.824c0.227,0,0.62-0.111,0.791-0.451c0.171,0.34,0.563,0.451,0.788,0.451
							c0.734,0,0.848-0.508,0.848-0.508c-0.056,0.057-0.169,0.113-0.339,0.113c-0.281,0-0.337-0.507-0.733-0.507
							c-0.393,0-0.563,0.28-0.563,0.28s-0.171-0.28-0.564-0.28c-0.395,0-0.451,0.507-0.733,0.507c-0.168,0-0.283-0.057-0.338-0.113
							C105.329,81.316,105.442,81.824,106.174,81.824z"/>
					</g>
				</g>
			</g>
			<path fill="#414042" d="M106.864,79.587c0,0.566-0.456,1.025-1.023,1.025c-0.562,0-1.022-0.459-1.022-1.025
				s0.461-1.021,1.022-1.021C106.408,78.567,106.864,79.021,106.864,79.587z"/>
			<circle fill="#414042" cx="108.109" cy="79.597" r="1.022"/>
			<g id="Layer_2_787_">
				<path fill="#414042" d="M106.964,81.203c0,0-0.17-0.28-0.563-0.28c-0.395,0-0.451,0.507-0.733,0.507
					c-0.168,0-0.283-0.057-0.338-0.113c0,0,0.113,0.508,0.845,0.508c0.227,0,0.62-0.111,0.79-0.451"/>
			</g>
		</g>
		<g>
			<g>
				<g>
					<g id="Layer_2_18_">
						<path fill="#414042" d="M115.823,91.471c0.225,0,0.62-0.113,0.79-0.451c0.168,0.338,0.562,0.451,0.789,0.451
							c0.729,0,0.843-0.507,0.843-0.507c-0.053,0.056-0.166,0.112-0.336,0.112c-0.283,0-0.338-0.509-0.734-0.509
							c-0.394,0-0.562,0.285-0.562,0.285s-0.17-0.285-0.565-0.285c-0.395,0-0.452,0.509-0.735,0.509
							c-0.168,0-0.28-0.057-0.338-0.112C114.975,90.964,115.089,91.471,115.823,91.471z"/>
					</g>
				</g>
			</g>
			<circle fill="#414042" cx="115.489" cy="89.236" r="1.023"/>
			<circle fill="#414042" cx="117.757" cy="89.245" r="1.024"/>
			<g id="Layer_2_784_">
				<path fill="#414042" d="M116.61,90.853c0,0-0.167-0.285-0.562-0.285c-0.395,0-0.452,0.509-0.735,0.509
					c-0.168,0-0.28-0.057-0.338-0.112c0,0,0.114,0.507,0.849,0.507c0.225,0,0.62-0.113,0.787-0.451"/>
			</g>
		</g>
		<g>
			<g>
				<g>
					<g id="Layer_2_17_">
						<path fill="#414042" d="M88.12,97.705c0.227,0,0.62-0.111,0.789-0.449c0.172,0.338,0.565,0.449,0.792,0.449
							c0.731,0,0.845-0.508,0.845-0.508c-0.056,0.059-0.169,0.115-0.338,0.115c-0.281,0-0.34-0.508-0.733-0.508
							s-0.565,0.281-0.565,0.281s-0.169-0.281-0.562-0.281c-0.395,0-0.451,0.508-0.734,0.508c-0.168,0-0.28-0.057-0.337-0.115
							C87.275,97.197,87.385,97.705,88.12,97.705z"/>
					</g>
				</g>
			</g>
			<circle fill="#414042" cx="87.787" cy="95.47" r="1.025"/>
			<circle fill="#414042" cx="90.054" cy="95.48" r="1.023"/>
			<g id="Layer_2_781_">
				<path fill="#414042" d="M88.909,97.085c0,0-0.169-0.281-0.562-0.281c-0.395,0-0.451,0.508-0.734,0.508
					c-0.168,0-0.28-0.057-0.337-0.115c0,0,0.109,0.508,0.845,0.508c0.227,0,0.62-0.111,0.789-0.449"/>
			</g>
		</g>
		<g>
			<g>
				<g>
					<g id="Layer_2_16_">
						<path fill="#414042" d="M96.267,105.851c0.227,0,0.62-0.111,0.79-0.449c0.169,0.338,0.565,0.449,0.791,0.449
							c0.733,0,0.847-0.506,0.847-0.506c-0.06,0.057-0.168,0.113-0.34,0.113c-0.28,0-0.34-0.508-0.732-0.508
							c-0.396,0-0.565,0.282-0.565,0.282s-0.17-0.282-0.563-0.282s-0.45,0.508-0.732,0.508c-0.168,0-0.282-0.057-0.338-0.113
							C95.423,105.345,95.533,105.851,96.267,105.851z"/>
					</g>
				</g>
			</g>
			<path fill="#414042" d="M96.958,103.619c0,0.563-0.456,1.021-1.023,1.021c-0.562,0-1.023-0.458-1.023-1.021
				c0-0.568,0.461-1.025,1.023-1.025C96.502,102.593,96.958,103.05,96.958,103.619z"/>
			<path fill="#414042" d="M99.225,103.629c0,0.563-0.457,1.019-1.023,1.019c-0.563,0-1.022-0.455-1.022-1.019
				c0-0.566,0.459-1.025,1.022-1.025C98.768,102.604,99.225,103.063,99.225,103.629z"/>
			<g id="Layer_2_778_">
				<path fill="#414042" d="M97.057,105.233c0,0-0.17-0.282-0.563-0.282s-0.45,0.508-0.732,0.508c-0.168,0-0.282-0.057-0.338-0.113
					c0,0,0.11,0.506,0.844,0.506c0.227,0,0.62-0.111,0.79-0.449"/>
			</g>
		</g>
		<g>
			<g>
				<g>
					<g id="Layer_2_15_">
						<path fill="#414042" d="M106.174,115.761c0.227,0,0.62-0.113,0.791-0.452c0.171,0.339,0.563,0.452,0.788,0.452
							c0.734,0,0.848-0.508,0.848-0.508c-0.056,0.056-0.169,0.111-0.339,0.111c-0.281,0-0.337-0.508-0.733-0.508
							c-0.393,0-0.563,0.283-0.563,0.283s-0.171-0.283-0.564-0.283c-0.395,0-0.451,0.508-0.733,0.508
							c-0.168,0-0.283-0.056-0.338-0.111C105.329,115.253,105.442,115.761,106.174,115.761z"/>
					</g>
				</g>
			</g>
			<path fill="#414042" d="M106.864,113.525c0,0.564-0.456,1.023-1.023,1.023c-0.562,0-1.022-0.459-1.022-1.023
				c0-0.568,0.461-1.025,1.022-1.025C106.408,112.5,106.864,112.957,106.864,113.525z"/>
			<circle fill="#414042" cx="108.109" cy="113.535" r="1.022"/>
			<g id="Layer_2_775_">
				<path fill="#414042" d="M106.964,115.14c0,0-0.17-0.283-0.563-0.283c-0.395,0-0.451,0.508-0.733,0.508
					c-0.168,0-0.283-0.056-0.338-0.111c0,0,0.113,0.508,0.845,0.508c0.227,0,0.62-0.113,0.79-0.452"/>
			</g>
		</g>
		<g>
			<g>
				<g>
					<g id="Layer_2_14_">
						<path fill="#414042" d="M115.823,125.408c0.225,0,0.62-0.113,0.79-0.453c0.168,0.34,0.562,0.453,0.789,0.453
							c0.729,0,0.843-0.51,0.843-0.51c-0.053,0.057-0.166,0.115-0.336,0.115c-0.283,0-0.338-0.509-0.734-0.509
							c-0.394,0-0.562,0.282-0.562,0.282s-0.17-0.282-0.565-0.282c-0.395,0-0.452,0.509-0.735,0.509
							c-0.168,0-0.28-0.059-0.338-0.115C114.975,124.898,115.089,125.408,115.823,125.408z"/>
					</g>
				</g>
			</g>
			<circle fill="#414042" cx="115.489" cy="123.169" r="1.023"/>
			<circle fill="#414042" cx="117.757" cy="123.182" r="1.024"/>
			<g id="Layer_2_772_">
				<path fill="#414042" d="M116.61,124.787c0,0-0.167-0.282-0.562-0.282c-0.395,0-0.452,0.509-0.735,0.509
					c-0.168,0-0.28-0.059-0.338-0.115c0,0,0.114,0.51,0.849,0.51c0.225,0,0.62-0.113,0.787-0.453"/>
			</g>
		</g>
		<g>
			<g>
				<g>
					<g id="Layer_2_13_">
						<path fill="#414042" d="M88.12,114.371c0.227,0,0.62-0.111,0.789-0.451c0.172,0.34,0.565,0.451,0.792,0.451
							c0.731,0,0.845-0.508,0.845-0.508c-0.056,0.057-0.169,0.113-0.338,0.113c-0.281,0-0.34-0.51-0.733-0.51
							s-0.565,0.284-0.565,0.284s-0.169-0.284-0.562-0.284c-0.395,0-0.451,0.51-0.734,0.51c-0.168,0-0.28-0.057-0.337-0.113
							C87.275,113.863,87.385,114.371,88.12,114.371z"/>
					</g>
				</g>
			</g>
			<circle fill="#414042" cx="87.787" cy="112.134" r="1.025"/>
			<circle fill="#414042" cx="90.054" cy="112.143" r="1.023"/>
			<g id="Layer_2_769_">
				<path fill="#414042" d="M88.909,113.75c0,0-0.169-0.284-0.562-0.284c-0.395,0-0.451,0.51-0.734,0.51
					c-0.168,0-0.28-0.057-0.337-0.113c0,0,0.109,0.508,0.845,0.508c0.227,0,0.62-0.111,0.789-0.451"/>
			</g>
		</g>
		<g>
			<g>
				<g>
					<g id="Layer_2_12_">
						<path fill="#414042" d="M96.267,122.515c0.227,0,0.62-0.109,0.79-0.449c0.169,0.34,0.565,0.449,0.791,0.449
							c0.733,0,0.847-0.506,0.847-0.506c-0.06,0.057-0.168,0.114-0.34,0.114c-0.28,0-0.34-0.508-0.732-0.508
							c-0.396,0-0.565,0.281-0.565,0.281s-0.17-0.281-0.563-0.281s-0.45,0.508-0.732,0.508c-0.168,0-0.282-0.058-0.338-0.114
							C95.423,122.009,95.533,122.515,96.267,122.515z"/>
					</g>
				</g>
			</g>
			<circle fill="#414042" cx="95.935" cy="120.281" r="1.023"/>
			<circle fill="#414042" cx="98.202" cy="120.291" r="1.023"/>
			<g id="Layer_2_766_">
				<path fill="#414042" d="M97.057,121.897c0,0-0.17-0.281-0.563-0.281s-0.45,0.508-0.732,0.508c-0.168,0-0.282-0.058-0.338-0.114
					c0,0,0.11,0.506,0.844,0.506c0.227,0,0.62-0.109,0.79-0.449"/>
			</g>
		</g>
		<g>
			<g>
				<g>
					<g id="Layer_2_11_">
						<path fill="#414042" d="M106.174,132.424c0.227,0,0.62-0.113,0.791-0.452c0.171,0.339,0.563,0.452,0.788,0.452
							c0.734,0,0.848-0.507,0.848-0.507c-0.056,0.055-0.169,0.113-0.339,0.113c-0.281,0-0.337-0.51-0.733-0.51
							c-0.393,0-0.563,0.281-0.563,0.281s-0.171-0.281-0.564-0.281c-0.395,0-0.451,0.51-0.733,0.51
							c-0.168,0-0.283-0.059-0.338-0.113C105.329,131.917,105.442,132.424,106.174,132.424z"/>
					</g>
				</g>
			</g>
			<path fill="#414042" d="M106.864,130.188c0,0.564-0.456,1.023-1.023,1.023c-0.562,0-1.022-0.459-1.022-1.023
				c0-0.565,0.461-1.022,1.022-1.022C106.408,129.166,106.864,129.623,106.864,130.188z"/>
			<circle fill="#414042" cx="108.109" cy="130.199" r="1.022"/>
			<g id="Layer_2_763_">
				<path fill="#414042" d="M106.964,131.802c0,0-0.17-0.281-0.563-0.281c-0.395,0-0.451,0.51-0.733,0.51
					c-0.168,0-0.283-0.059-0.338-0.113c0,0,0.113,0.507,0.845,0.507c0.227,0,0.62-0.113,0.79-0.452"/>
			</g>
		</g>
		<g>
			<g>
				<g>
					<g id="Layer_2_10_">
						<path fill="#414042" d="M88.12,131.268c0.227,0,0.62-0.113,0.789-0.452c0.172,0.339,0.565,0.452,0.792,0.452
							c0.731,0,0.845-0.508,0.845-0.508c-0.056,0.056-0.169,0.111-0.338,0.111c-0.281,0-0.34-0.507-0.733-0.507
							s-0.565,0.282-0.565,0.282s-0.169-0.282-0.562-0.282c-0.395,0-0.451,0.507-0.734,0.507c-0.168,0-0.28-0.056-0.337-0.111
							C87.275,130.76,87.385,131.268,88.12,131.268z"/>
					</g>
				</g>
			</g>
			<circle fill="#414042" cx="87.787" cy="129.032" r="1.025"/>
			<circle fill="#414042" cx="90.054" cy="129.04" r="1.023"/>
			<g id="Layer_2_760_">
				<path fill="#414042" d="M88.909,130.647c0,0-0.169-0.282-0.562-0.282c-0.395,0-0.451,0.507-0.734,0.507
					c-0.168,0-0.28-0.056-0.337-0.111c0,0,0.109,0.508,0.845,0.508c0.227,0,0.62-0.113,0.789-0.452"/>
			</g>
		</g>
		<polyline points="123.161,147.994 123.635,137.809 80.387,137.809 80.733,147.835 		"/>
		<polygon fill="#726658" points="123.37,144.425 80.641,144.425 80.387,139.718 123.555,139.718 		"/>
		<rect x="98.832" y="139.526" fill="#FBB040" width="5.978" height="5.153"/>
		<circle fill="none" stroke="#000000" stroke-width="1.7847" stroke-miterlimit="10" cx="96.319" cy="142.246" r="0.764"/>
		<circle fill="none" stroke="#000000" stroke-width="1.7847" stroke-miterlimit="10" cx="93.22" cy="142.246" r="0.763"/>
		<circle fill="none" stroke="#414042" stroke-width="1.7847" stroke-miterlimit="10" cx="100.771" cy="77.898" r="0.572"/>
		<circle fill="none" stroke="#414042" stroke-width="1.7847" stroke-miterlimit="10" cx="100.771" cy="84.958" r="0.572"/>
		<path fill="none" stroke="#414042" stroke-width="1.7847" stroke-miterlimit="10" d="M101.344,92.02
			c0,0.313-0.257,0.57-0.572,0.57c-0.316,0-0.572-0.257-0.572-0.57c0-0.318,0.256-0.575,0.572-0.575
			C101.087,91.445,101.344,91.702,101.344,92.02z"/>
		<circle fill="none" stroke="#414042" stroke-width="1.7847" stroke-miterlimit="10" cx="100.771" cy="99.078" r="0.572"/>
		<circle fill="none" stroke="#414042" stroke-width="1.7847" stroke-miterlimit="10" cx="100.771" cy="106.136" r="0.572"/>
		<circle fill="none" stroke="#414042" stroke-width="1.7847" stroke-miterlimit="10" cx="100.771" cy="113.197" r="0.572"/>
		<path fill="none" stroke="#414042" stroke-width="1.7847" stroke-miterlimit="10" d="M101.344,120.255
			c0,0.316-0.257,0.572-0.572,0.572c-0.316,0-0.572-0.256-0.572-0.572c0-0.312,0.256-0.571,0.572-0.571
			C101.087,119.684,101.344,119.943,101.344,120.255z"/>
		<circle fill="none" stroke="#414042" stroke-width="1.7847" stroke-miterlimit="10" cx="100.771" cy="127.315" r="0.572"/>
		<circle fill="none" stroke="#414042" stroke-width="1.7847" stroke-miterlimit="10" cx="100.771" cy="134.375" r="0.572"/>
		<polygon points="102.122,73.396 96.621,70.076 94.911,73.396 99.721,76.183 		"/>
		<polygon points="102.122,73.396 107.539,70.076 109.249,73.396 104.439,76.183 		"/>
		<g>
			<g>
				<g>
					<g id="Layer_2_9_">
						<path fill="#414042" d="M120.597,80.398c0.159-0.156,0.358-0.516,0.238-0.875c0.359,0.121,0.719-0.08,0.879-0.239
							c0.518-0.519,0.238-0.958,0.238-0.958c0.002,0.079-0.041,0.201-0.158,0.32c-0.201,0.199-0.602-0.121-0.879,0.158
							c-0.277,0.28-0.201,0.598-0.201,0.598s-0.317-0.079-0.598,0.199c-0.278,0.281,0.039,0.678-0.157,0.879
							c-0.121,0.121-0.241,0.159-0.32,0.159C119.639,80.639,120.077,80.919,120.597,80.398z"/>
					</g>
				</g>
			</g>
			<path fill="#414042" d="M119.504,78.332c0.4,0.398,0.4,1.048,0,1.448c-0.401,0.396-1.048,0.396-1.448,0
				c-0.4-0.4-0.398-1.05,0-1.448C118.456,77.933,119.103,77.933,119.504,78.332z"/>
			<path fill="#414042" d="M121.114,76.737c0.399,0.396,0.399,1.046,0,1.444c-0.402,0.4-1.048,0.4-1.449,0
				c-0.396-0.398-0.396-1.046,0-1.444C120.066,76.336,120.714,76.334,121.114,76.737z"/>
			<g id="Layer_2_757_">
				<path fill="#414042" d="M120.714,79.404c0,0-0.317-0.081-0.598,0.197c-0.278,0.281,0.039,0.678-0.157,0.879
					c-0.121,0.121-0.241,0.159-0.32,0.159c0,0,0.438,0.28,0.958-0.241c0.159-0.156,0.358-0.516,0.238-0.873"/>
			</g>
		</g>
		<g>
			<g>
				<g>
					<g id="Layer_2_8_">
						<path fill="#414042" d="M81.8,89.248c0.162,0.16,0.519,0.357,0.877,0.241c-0.117,0.356,0.08,0.716,0.239,0.876
							c0.519,0.518,0.958,0.236,0.958,0.236c-0.079,0.002-0.199-0.038-0.319-0.156c-0.199-0.199,0.12-0.6-0.159-0.879
							c-0.278-0.279-0.599-0.199-0.599-0.199s0.08-0.32-0.197-0.6c-0.281-0.278-0.679,0.043-0.88-0.158
							c-0.12-0.12-0.158-0.238-0.156-0.32C81.563,88.289,81.282,88.728,81.8,89.248z"/>
					</g>
				</g>
			</g>
			<path fill="#414042" d="M83.871,88.153c-0.401,0.4-1.049,0.4-1.447,0c-0.4-0.4-0.4-1.046,0-1.446c0.398-0.4,1.046-0.397,1.447,0
				C84.268,87.107,84.268,87.752,83.871,88.153z"/>
			<circle fill="#414042" cx="84.741" cy="89.04" r="1.022"/>
			<g id="Layer_2_754_">
				<path fill="#414042" d="M82.797,89.367c0,0,0.08-0.32-0.197-0.6c-0.281-0.278-0.679,0.043-0.88-0.158
					c-0.12-0.12-0.158-0.238-0.156-0.32c0,0-0.281,0.439,0.236,0.959c0.162,0.16,0.519,0.357,0.877,0.238"/>
			</g>
		</g>
		<path d="M118.368,73.127c0,0-0.717,10.192-4.01,15.415h-4.15c0,0,0.323,4.709,4.379-15.415H118.368z"/>
		<path d="M86.345,73.127c0,0,0.717,10.192,4.008,15.415h4.152c0,0-0.326,4.709-4.381-15.415H86.345z"/>
		<path fill="#493E4F" d="M90.353,88.542c0,0,6.677-24.041,4.152-34.947h3.497c0,0,2.033,10.332-4.091,34.947H90.353z"/>
		<path fill="#493E4F" d="M114.193,88.542c0,0-6.677-24.041-4.153-34.947h-3.495c0,0-2.035,10.332,4.089,34.947H114.193z"/>
		<g>
			<path fill="#493E4F" d="M112.625,54.56c0,0.877-0.733,1.585-1.64,1.585H93.202c-0.907,0-1.639-0.708-1.639-1.585V43.806
				c0-0.877,0.731-1.585,1.639-1.585h17.783c0.906,0,1.64,0.708,1.64,1.585V54.56z"/>
			<path fill="#C8B9BB" d="M91.524,46.767v-2.98c0-0.882,0.736-1.594,1.645-1.594h17.851c0.907,0,1.644,0.712,1.644,1.594v2.98"/>
			<path fill="#C8B9BB" d="M112.663,54.169v0.41c0,0.881-0.736,1.592-1.644,1.592H93.169c-0.908,0-1.645-0.711-1.645-1.592v-0.41"/>
			<circle fill="#E6E7E8" cx="102.782" cy="50.591" r="5.646"/>
			<circle fill="#493E4F" cx="102.783" cy="50.591" r="5.042"/>
			<circle fill="#58595B" cx="102.782" cy="50.591" r="3.43"/>
			<circle cx="102.781" cy="50.591" r="2.501"/>
			<rect x="92.632" y="47.468" fill="#E6E7E8" width="3.932" height="1.715"/>
			<rect x="106.788" y="42.982" fill="#493E4F" width="4.355" height="2.713"/>
			<rect x="101.209" y="42.982" fill="#493E4F" width="4.86" height="1.963"/>
		</g>
		<g>
			<path fill="#FBCE99" d="M132.693,89.46l-8.17,2.36c0,0,1.501,11.567,3.832,14.223c3.544,4.04,7.225,4.536,9.394-1.864
				C138.744,101.24,132.693,89.46,132.693,89.46z"/>
		</g>
		<polygon fill="#FBCE99" points="136.284,97.731 127.512,104.574 115.488,65.706 121.63,64.586 		"/>
		<path fill="#FBCE99" d="M115.488,65.706c0,0-0.503-1.903-0.719-3.05c-0.222-1.146-1.487-1.145-1.796-2.752
			s-1.007-5.283-1.27-6.662c-0.261-1.379,0.129-2.077,1.129-2.268c0.807-0.153,1.485,3.068,1.631,4.676
			c0.102,1.084,2.676,1.138,2.529-0.479c-0.086-0.931-0.438-2.298-0.66-3.446c-0.218-1.148-2.17-2.641-3.096-3.772
			c-0.704-0.857-0.789-1.636-0.719-2.213c0,0,3.667,3.294,4.312,3.858c0.4,0.348,0.761,0,0.364-0.437
			c-0.58-0.643-4.741-4.2-5.26-5.128c-0.29-0.518,0.138-1.602,0.601-1.426c0.815,0.311,3.872,3.07,5.938,5.139
			c1.852,1.852,1.815,6.399,2.681,12.187c0.862,5.788,0.873,6.327,0.873,6.327"/>
		<g>
			<path fill="#FBCE99" d="M71.565,89.46l8.166,2.36c0,0-1.499,11.567-3.824,14.223c-3.55,4.04-7.229,4.536-9.398-1.864
				C65.515,101.24,71.565,89.46,71.565,89.46z"/>
		</g>
		<polygon fill="#FBCE99" points="67.974,97.731 76.746,104.574 88.77,65.706 82.624,64.586 		"/>
		<path fill="#FBCE99" d="M88.77,65.706c0,0,0.501-1.903,0.721-3.05c0.218-1.146,1.488-1.145,1.795-2.752
			c0.306-1.607,1.004-5.283,1.271-6.662c0.257-1.379-0.131-2.077-1.134-2.268c-0.808-0.153-1.48,3.068-1.629,4.676
			c-0.099,1.084-2.677,1.138-2.526-0.479c0.084-0.931,0.438-2.298,0.656-3.446c0.217-1.148,2.169-2.641,3.099-3.772
			c0.703-0.857,0.786-1.636,0.717-2.213c0,0-3.664,3.294-4.312,3.858c-0.397,0.348-0.758,0-0.364-0.437
			c0.581-0.643,4.741-4.2,5.26-5.128c0.292-0.518-0.136-1.602-0.6-1.426c-0.815,0.311-3.871,3.07-5.939,5.139
			c-1.848,1.852-1.812,6.399-2.675,12.187c-0.868,5.788-0.876,6.327-0.876,6.327"/>
	</g>
</g>
</svg>
