<?xml version="1.0" encoding="utf-8"?>
<!-- Generator: Adobe Illustrator 16.0.0, SVG Export Plug-In . SVG Version: 6.00 Build 0)  -->
<!DOCTYPE svg PUBLIC "-//W3C//DTD SVG 1.1//EN" "http://www.w3.org/Graphics/SVG/1.1/DTD/svg11.dtd">
<svg version="1.1" id="Layer_1" xmlns="http://www.w3.org/2000/svg" xmlns:xlink="http://www.w3.org/1999/xlink" x="0px" y="0px"
	 width="169.525px" height="29.109px" viewBox="-1.628 -3.573 169.525 29.109"
	 enable-background="new -1.628 -3.573 169.525 29.109" xml:space="preserve">
<g>
	<g>
		<path fill="#F15D22" d="M24.01,6.034l-7.093-0.672c-0.448-0.043-0.834-0.325-1.015-0.754l-2.543-6.154
			c-0.405-1.02-1.85-1.02-2.254,0L8.582,4.608C8.423,5.037,8.014,5.319,7.565,5.362L0.472,6.034
			c-1.057,0.102-1.483,1.425-0.691,2.132l5.348,4.696c0.346,0.309,0.487,0.752,0.385,1.199L3.91,20.649
			c-0.248,1.037,0.873,1.889,1.809,1.342l5.915-3.479c0.384-0.225,0.851-0.225,1.24,0l5.913,3.479
			c0.934,0.545,2.055-0.285,1.811-1.342l-1.588-6.588c-0.101-0.447,0.041-0.893,0.387-1.199l5.346-4.696
			C25.515,7.459,25.067,6.134,24.01,6.034z"/>
	</g>
</g>
<g opacity="0.3">
	<g>
		<path fill="#414142" d="M58.793,6.034l-7.092-0.672c-0.449-0.043-0.836-0.325-1.017-0.754l-2.543-6.154
			c-0.405-1.02-1.85-1.02-2.255,0l-2.523,6.154c-0.158,0.429-0.567,0.711-1.016,0.754l-7.091,0.672
			c-1.058,0.102-1.485,1.425-0.691,2.132l5.346,4.696c0.346,0.309,0.487,0.752,0.385,1.199l-1.604,6.588
			c-0.246,1.037,0.872,1.889,1.808,1.342l5.916-3.479c0.385-0.225,0.853-0.225,1.24,0l5.913,3.479
			c0.936,0.545,2.054-0.285,1.811-1.342l-1.588-6.588c-0.101-0.447,0.041-0.893,0.387-1.199l5.348-4.696
			C60.299,7.459,59.851,6.134,58.793,6.034z"/>
	</g>
</g>
<g opacity="0.3">
	<g>
		<path fill="#414142" d="M93.574,6.034l-7.093-0.672c-0.447-0.043-0.834-0.325-1.017-0.754l-2.543-6.154
			c-0.407-1.02-1.852-1.02-2.255,0l-2.523,6.154c-0.161,0.429-0.567,0.711-1.016,0.754l-7.093,0.672
			c-1.058,0.102-1.484,1.425-0.691,2.132l5.346,4.696c0.346,0.309,0.488,0.752,0.387,1.199l-1.604,6.588
			c-0.248,1.037,0.87,1.889,1.808,1.342l5.916-3.479c0.383-0.225,0.851-0.225,1.237,0l5.917,3.479
			c0.935,0.545,2.055-0.285,1.81-1.342l-1.586-6.588c-0.103-0.447,0.041-0.893,0.387-1.199l5.347-4.696
			C95.079,7.459,94.631,6.134,93.574,6.034z"/>
	</g>
</g>
<g opacity="0.3">
	<path fill="#414142" d="M130.224,6.406l-7.094-0.673c-0.447-0.039-0.833-0.321-1.017-0.75l-2.541-6.154
		c-0.404-1.02-1.849-1.02-2.255,0l-2.522,6.154c-0.161,0.429-0.567,0.711-1.016,0.75l-7.095,0.673
		c-1.059,0.104-1.482,1.425-0.69,2.134l5.349,4.695c0.346,0.309,0.486,0.752,0.385,1.201l-1.604,6.586
		c-0.247,1.035,0.871,1.889,1.811,1.34l5.916-3.477c0.383-0.227,0.852-0.227,1.235,0l5.916,3.477
		c0.935,0.549,2.056-0.285,1.812-1.34l-1.588-6.586c-0.102-0.449,0.041-0.895,0.389-1.201l5.346-4.695
		C131.729,7.831,131.281,6.509,130.224,6.406z"/>
</g>
<g opacity="0.3">
	<path fill="#414142" d="M165.003,6.406l-7.091-0.673c-0.448-0.039-0.834-0.321-1.017-0.75l-2.541-6.154
		c-0.406-1.02-1.854-1.02-2.256,0l-2.523,6.154c-0.159,0.429-0.568,0.711-1.016,0.75l-7.092,0.673
		c-1.062,0.104-1.484,1.425-0.691,2.134l5.346,4.695c0.346,0.309,0.486,0.752,0.387,1.201l-1.604,6.586
		c-0.245,1.035,0.873,1.889,1.809,1.34l5.915-3.477c0.388-0.227,0.854-0.227,1.24,0l5.914,3.477c0.935,0.549,2.054-0.285,1.812-1.34
		l-1.59-6.586c-0.101-0.449,0.043-0.895,0.391-1.201l5.348-4.695C166.511,7.831,166.063,6.509,165.003,6.406z"/>
</g>
</svg>
