<?xml version="1.0" encoding="utf-8"?>
<!-- Generator: Adobe Illustrator 16.0.0, SVG Export Plug-In . SVG Version: 6.00 Build 0)  -->
<!DOCTYPE svg PUBLIC "-//W3C//DTD SVG 1.1//EN" "http://www.w3.org/Graphics/SVG/1.1/DTD/svg11.dtd">
<svg version="1.1" id="Layer_1" xmlns="http://www.w3.org/2000/svg" xmlns:xlink="http://www.w3.org/1999/xlink" x="0px" y="0px"
	 width="169.25px" height="24.848px" viewBox="12.13 0 169.25 24.848" enable-background="new 12.13 0 169.25 24.848"
	 xml:space="preserve">
<g>
	<g>
		<path fill="#00A6A5" d="M38.014,8.344l-7.093-0.672c-0.448-0.043-0.834-0.325-1.015-0.754l-2.543-6.154
			c-0.405-1.02-1.85-1.02-2.254,0l-2.523,6.154c-0.159,0.429-0.568,0.711-1.017,0.754l-7.093,0.672
			c-1.057,0.102-1.483,1.425-0.691,2.132l5.348,4.696c0.346,0.309,0.487,0.752,0.385,1.199l-1.604,6.588
			c-0.248,1.037,0.873,1.889,1.809,1.342l5.915-3.479c0.384-0.226,0.851-0.226,1.24,0l5.913,3.479
			c0.934,0.545,2.055-0.285,1.811-1.342l-1.588-6.588c-0.101-0.447,0.041-0.894,0.387-1.199l5.346-4.696
			C39.519,9.769,39.071,8.444,38.014,8.344z"/>
	</g>
</g>
<g opacity="0.3">
	<g>
		<path fill="#414142" d="M72.797,8.344l-7.092-0.672c-0.449-0.043-0.836-0.325-1.017-0.754l-2.543-6.154
			c-0.405-1.02-1.85-1.02-2.255,0l-2.523,6.154C57.209,7.347,56.8,7.63,56.351,7.673L49.26,8.344
			c-1.058,0.102-1.485,1.425-0.691,2.132l5.346,4.696c0.346,0.309,0.487,0.752,0.385,1.199l-1.604,6.588
			c-0.246,1.037,0.872,1.889,1.808,1.342l5.916-3.479c0.385-0.226,0.853-0.226,1.24,0l5.913,3.479
			c0.936,0.545,2.054-0.285,1.811-1.342l-1.588-6.588c-0.101-0.447,0.041-0.894,0.387-1.199l5.348-4.696
			C74.303,9.769,73.855,8.444,72.797,8.344z"/>
	</g>
</g>
<g opacity="0.3">
	<g>
		<path fill="#414142" d="M107.578,8.344l-7.093-0.672c-0.447-0.043-0.834-0.325-1.016-0.754l-2.546-6.154
			c-0.407-1.02-1.852-1.02-2.255,0l-2.523,6.154c-0.161,0.429-0.567,0.711-1.016,0.754l-7.093,0.672
			c-1.058,0.102-1.484,1.425-0.691,2.132l5.346,4.696c0.346,0.309,0.488,0.752,0.387,1.199l-1.604,6.588
			c-0.248,1.037,0.87,1.889,1.808,1.342l5.916-3.479c0.383-0.226,0.851-0.226,1.237,0l5.917,3.479
			c0.936,0.545,2.056-0.285,1.811-1.342l-1.586-6.588c-0.104-0.447,0.041-0.894,0.387-1.199l5.348-4.696
			C109.083,9.769,108.635,8.444,107.578,8.344z"/>
	</g>
</g>
<g opacity="0.3">
	<path fill="#414142" d="M144.228,8.717l-7.094-0.673c-0.447-0.039-0.833-0.321-1.017-0.75l-2.541-6.154
		c-0.404-1.02-1.849-1.02-2.255,0l-2.522,6.154c-0.161,0.429-0.567,0.711-1.016,0.75l-7.095,0.673
		c-1.061,0.104-1.482,1.425-0.69,2.134l5.349,4.695c0.346,0.309,0.486,0.752,0.385,1.201l-1.604,6.586
		c-0.247,1.035,0.871,1.889,1.811,1.34l5.916-3.478c0.383-0.227,0.854-0.227,1.235,0l5.916,3.478
		c0.935,0.549,2.056-0.285,1.812-1.34l-1.588-6.586c-0.102-0.449,0.041-0.896,0.391-1.201l5.346-4.695
		C145.733,10.141,145.285,8.819,144.228,8.717z"/>
</g>
<g opacity="0.3">
	<path fill="#414142" d="M179.007,8.717l-7.091-0.673c-0.448-0.039-0.834-0.321-1.017-0.75l-2.541-6.154
		c-0.406-1.02-1.854-1.02-2.256,0l-2.523,6.154c-0.159,0.429-0.568,0.711-1.016,0.75l-7.092,0.673
		c-1.062,0.104-1.484,1.425-0.691,2.134l5.346,4.695c0.346,0.309,0.486,0.752,0.387,1.201l-1.604,6.586
		c-0.245,1.035,0.873,1.889,1.809,1.34l5.915-3.478c0.388-0.227,0.854-0.227,1.24,0l5.914,3.478c0.935,0.549,2.054-0.285,1.812-1.34
		l-1.59-6.586c-0.101-0.449,0.043-0.896,0.391-1.201l5.35-4.695C180.515,10.141,180.067,8.819,179.007,8.717z"/>
</g>
</svg>
