<?xml version="1.0" encoding="utf-8"?>
<!-- Generator: Adobe Illustrator 16.0.0, SVG Export Plug-In . SVG Version: 6.00 Build 0)  -->
<!DOCTYPE svg PUBLIC "-//W3C//DTD SVG 1.1//EN" "http://www.w3.org/Graphics/SVG/1.1/DTD/svg11.dtd">
<svg version="1.1" id="Layer_1" xmlns="http://www.w3.org/2000/svg" xmlns:xlink="http://www.w3.org/1999/xlink" x="0px" y="0px"
	 width="168.336px" height="24.846px" viewBox="11.796 0 168.336 24.846" enable-background="new 11.796 0 168.336 24.846"
	 xml:space="preserve">
<g>
	<g>
		<path fill="#00A6A5" d="M38.014,8.344l-7.093-0.673c-0.448-0.043-0.834-0.324-1.015-0.754l-2.543-6.153
			c-0.405-1.021-1.85-1.021-2.254,0l-2.523,6.153c-0.159,0.43-0.568,0.711-1.017,0.754l-7.093,0.673
			c-1.057,0.102-1.483,1.425-0.691,2.132l5.348,4.695c0.346,0.31,0.487,0.753,0.385,1.199l-1.604,6.588
			c-0.248,1.037,0.873,1.89,1.809,1.343l5.915-3.479c0.384-0.225,0.851-0.225,1.24,0l5.913,3.479
			c0.934,0.545,2.055-0.285,1.811-1.343l-1.588-6.588c-0.101-0.446,0.041-0.893,0.387-1.199l5.346-4.695
			C39.519,9.769,39.071,8.444,38.014,8.344z"/>
	</g>
</g>
<g>
	<g>
		<path fill="#00A6A5" d="M72.797,8.344l-7.092-0.673c-0.449-0.043-0.836-0.324-1.017-0.754l-2.543-6.153
			c-0.405-1.021-1.85-1.021-2.255,0l-2.523,6.153c-0.158,0.43-0.567,0.711-1.016,0.754L49.26,8.344
			c-1.058,0.102-1.485,1.425-0.691,2.132l5.346,4.695c0.346,0.31,0.487,0.753,0.385,1.199l-1.604,6.588
			c-0.246,1.037,0.872,1.89,1.808,1.343l5.916-3.479c0.385-0.225,0.853-0.225,1.24,0l5.913,3.479
			c0.936,0.545,2.054-0.285,1.811-1.343l-1.588-6.588c-0.101-0.446,0.041-0.893,0.387-1.199l5.348-4.695
			C74.303,9.769,73.855,8.444,72.797,8.344z"/>
	</g>
</g>
<g>
	<g>
		<path fill="#00A6A5" d="M107.578,8.344l-7.093-0.673c-0.447-0.043-0.834-0.324-1.016-0.754l-2.545-6.153
			c-0.407-1.021-1.852-1.021-2.255,0l-2.523,6.153c-0.161,0.43-0.567,0.711-1.016,0.754l-7.093,0.673
			c-1.058,0.102-1.484,1.425-0.691,2.132l5.346,4.695c0.346,0.31,0.488,0.753,0.387,1.199l-1.604,6.588
			c-0.248,1.037,0.87,1.89,1.808,1.343l5.916-3.479c0.383-0.225,0.851-0.225,1.237,0l5.917,3.479
			c0.935,0.545,2.055-0.285,1.81-1.343l-1.586-6.588c-0.103-0.446,0.041-0.893,0.387-1.199l5.347-4.695
			C109.083,9.769,108.635,8.444,107.578,8.344z"/>
	</g>
</g>
<g>
	<path fill="#00A6A5" d="M144.228,8.716l-7.094-0.674c-0.447-0.039-0.833-0.32-1.017-0.75l-2.541-6.153
		c-0.404-1.021-1.849-1.021-2.255,0l-2.522,6.153c-0.161,0.43-0.567,0.711-1.016,0.75l-7.095,0.674
		c-1.06,0.104-1.482,1.425-0.69,2.134l5.349,4.694c0.346,0.31,0.486,0.752,0.385,1.201l-1.604,6.586
		c-0.247,1.035,0.871,1.89,1.811,1.34l5.916-3.477c0.383-0.227,0.853-0.227,1.235,0l5.916,3.477c0.935,0.55,2.056-0.284,1.812-1.34
		l-1.588-6.586c-0.102-0.449,0.041-0.895,0.39-1.201l5.346-4.694C145.733,10.141,145.285,8.819,144.228,8.716z"/>
</g>
<g>
	<path fill="#00A6A5" d="M179.007,8.716l-7.091-0.674c-0.448-0.039-0.834-0.32-1.017-0.75l-2.541-6.153
		c-0.406-1.021-1.854-1.021-2.256,0l-2.523,6.153c-0.159,0.43-0.568,0.711-1.016,0.75l-7.092,0.674
		c-1.062,0.104-1.484,1.425-0.691,2.134l5.346,4.694c0.346,0.31,0.486,0.752,0.387,1.201l-1.604,6.586
		c-0.245,1.035,0.873,1.89,1.809,1.34l5.915-3.477c0.388-0.227,0.854-0.227,1.24,0l5.914,3.477c0.935,0.55,2.054-0.284,1.812-1.34
		l-1.59-6.586c-0.101-0.449,0.043-0.895,0.391-1.201l5.349-4.694C180.515,10.141,180.067,8.819,179.007,8.716z"/>
</g>
</svg>
