<?xml version="1.0" encoding="utf-8"?>
<!-- Generator: Adobe Illustrator 16.0.0, SVG Export Plug-In . SVG Version: 6.00 Build 0)  -->
<!DOCTYPE svg PUBLIC "-//W3C//DTD SVG 1.1//EN" "http://www.w3.org/Graphics/SVG/1.1/DTD/svg11.dtd">
<svg version="1.1" id="Layer_1" xmlns="http://www.w3.org/2000/svg" xmlns:xlink="http://www.w3.org/1999/xlink" x="0px" y="0px"
	 width="43px" height="44.666px" viewBox="0 0 43 44.666" enable-background="new 0 0 43 44.666" xml:space="preserve">
<g>
	<circle fill="#FFFFFF" cx="21.397" cy="22.829" r="19.701"/>
	<g>
		<g>
			<path d="M18.157,37.278V23.987h-4.382v-4.578h4.382v-4.974c0-2.98,2.702-4.981,4.883-4.981h4.905v4.166h-2.264
				c-1.115,0-2.603,0.904-2.603,2.018v3.771H27.5v4.578h-4.42v13.291"/>
			<path d="M22.889,37.47V23.797h4.42v-4.196h-4.42v-3.963c0-1.189,1.535-2.21,2.795-2.21h2.069V9.646H23.04
				c-1.96,0-4.69,1.822-4.69,4.79v5.165h-4.383v4.196h4.383V37.47 M17.966,37.087V24.179h-4.382v-4.962h4.382v-4.781
				c0-2.961,2.679-5.174,5.074-5.174h5.097v4.55h-2.453c-1.063,0-2.41,0.86-2.41,1.826v3.579h4.418v4.962h-4.418v12.908"/>
		</g>
	</g>
</g>
<g id="Mensaje_de_error_1" display="none">
	
		<text transform="matrix(0.7071 0.7071 -0.7071 0.7071 363.2246 73.6162)" display="inline" fill="#ED1C24" font-family="'Lato-Bold'" font-size="24">+</text>
	<text transform="matrix(1 0 0 1 386.333 78.4717)" display="inline" fill="#ED1C24" font-family="'Lato-Light'" font-size="16">Este correo electrónico no es válido por favor </text>
	<text transform="matrix(1 0 0 1 386.333 96.4717)" display="inline" fill="#ED1C24" font-family="'Lato-Light'" font-size="16">inténtelo nuevamente</text>
	
		<rect x="366.939" y="24.867" display="inline" fill="none" stroke="#ED1C24" stroke-width="0.5" stroke-miterlimit="10" width="239.434" height="30"/>
</g>
<g id="Mensaje_de_error_2_copy" display="none">
	
		<text transform="matrix(0.7071 0.7071 -0.7071 0.7071 363.2246 73.6162)" display="inline" fill="#ED1C24" font-family="'Lato-Bold'" font-size="24">+</text>
	<text transform="matrix(1 0 0 1 386.333 78.4717)" display="inline" fill="#ED1C24" font-family="'Lato-Light'" font-size="16">Por favor escriba un correo eléctrónico para que </text>
	<text transform="matrix(1 0 0 1 386.333 96.4717)" display="inline" fill="#ED1C24" font-family="'Lato-Light'" font-size="16">podamos informarle de las novedades </text>
	
		<rect x="366.939" y="24.867" display="inline" fill="none" stroke="#ED1C24" stroke-width="0.5" stroke-miterlimit="10" width="239.434" height="30"/>
</g>
<g id="Mensaje_de_error_3_copy_2" display="none">
	
		<text transform="matrix(0.7071 0.7071 -0.7071 0.7071 363.2246 73.6162)" display="inline" fill="#ED1C24" font-family="'Lato-Bold'" font-size="24">+</text>
	<text transform="matrix(1 0 0 1 386.333 78.4717)" display="inline" fill="#ED1C24" font-family="'Lato-Light'" font-size="16">Este correo ya está registrado en nuestra base </text>
	<text transform="matrix(1 0 0 1 386.333 96.4717)" display="inline" fill="#ED1C24" font-family="'Lato-Light'" font-size="16">de datos</text>
	
		<rect x="366.939" y="24.867" display="inline" fill="none" stroke="#ED1C24" stroke-width="0.5" stroke-miterlimit="10" width="239.434" height="30"/>
</g>
</svg>
