<?xml version="1.0" encoding="utf-8"?>
<!-- Generator: Adobe Illustrator 17.0.0, SVG Export Plug-In . SVG Version: 6.00 Build 0)  -->
<!DOCTYPE svg PUBLIC "-//W3C//DTD SVG 1.1//EN" "http://www.w3.org/Graphics/SVG/1.1/DTD/svg11.dtd">
<svg version="1.1" xmlns="http://www.w3.org/2000/svg" xmlns:xlink="http://www.w3.org/1999/xlink" x="0px" y="0px"
	 width="39.875px" height="40.1px" viewBox="0 0 39.875 40.1" enable-background="new 0 0 39.875 40.1" xml:space="preserve">
<g id="Selecionado">
	<g>
		<path fill="#FFFFFF" d="M19.936,0.321C9.04,0.321,0.207,9.156,0.207,20.052S9.04,39.782,19.936,39.782
			c10.897,0,19.732-8.833,19.732-19.729S30.833,0.321,19.936,0.321z M30.538,14.613c0.01,0.238,0.016,0.473,0.016,0.711
			c0,7.227-5.504,15.559-15.562,15.559c-3.088,0-5.964-0.905-8.384-2.456c0.428,0.049,0.863,0.076,1.304,0.076
			c2.564,0,4.921-0.873,6.792-2.341c-2.393-0.044-4.411-1.625-5.108-3.8c0.335,0.066,0.677,0.101,1.03,0.101
			c0.498,0,0.982-0.069,1.441-0.194c-2.503-0.5-4.389-2.711-4.389-5.361c0-0.022,0-0.047,0.001-0.069
			c0.738,0.41,1.581,0.655,2.478,0.684c-1.468-0.98-2.434-2.655-2.434-4.552c0-1.003,0.271-1.942,0.74-2.751
			c2.698,3.309,6.727,5.486,11.273,5.717c-0.093-0.4-0.141-0.819-0.141-1.248c0-3.018,2.449-5.469,5.468-5.469
			c1.573,0,2.995,0.664,3.992,1.728c1.248-0.245,2.417-0.701,3.474-1.329c-0.409,1.277-1.276,2.348-2.405,3.028
			c1.106-0.132,2.16-0.427,3.14-0.863C32.532,12.882,31.604,13.845,30.538,14.613z"/>
	</g>
</g>
<g id="Grilla" display="none">
	<g display="inline" opacity="0.2">
		<rect x="-54.287" y="-1780" opacity="0.3" fill="#CB2229" width="66.749" height="3767.602"/>
	</g>
</g>
</svg>
