<?xml version="1.0" encoding="utf-8"?>
<!-- Generator: Adobe Illustrator 17.0.0, SVG Export Plug-In . SVG Version: 6.00 Build 0)  -->
<!DOCTYPE svg PUBLIC "-//W3C//DTD SVG 1.1//EN" "http://www.w3.org/Graphics/SVG/1.1/DTD/svg11.dtd">
<svg version="1.1" xmlns="http://www.w3.org/2000/svg" xmlns:xlink="http://www.w3.org/1999/xlink" x="0px" y="0px"
	 width="39.875px" height="40.1px" viewBox="0 0 39.875 40.1" enable-background="new 0 0 39.875 40.1" xml:space="preserve">
<g id="Selecionado">
	<g>
		<g>
			<path fill="#FFFFFF" d="M25.834,15.098h2.915c0.639,0,1.162-0.521,1.162-1.16v-2.783c0-0.639-0.524-1.16-1.162-1.16h-2.915
				c-0.641,0-1.162,0.521-1.162,1.16v2.783C24.672,14.577,25.193,15.098,25.834,15.098z"/>
			<path fill="#FFFFFF" d="M19.96,24.994c2.865,0,5.184-2.245,5.184-5.021c0-2.774-2.32-5.021-5.184-5.021
				c-2.862,0-5.182,2.248-5.182,5.021C14.778,22.749,17.098,24.994,19.96,24.994z"/>
			<path fill="#FFFFFF" d="M19.939,0.124C9.037,0.124,0.2,8.96,0.2,19.862s8.837,19.739,19.739,19.739
				c10.9,0,19.736-8.837,19.736-19.739S30.838,0.124,19.939,0.124z M32.841,29.619c0,1.964-1.491,3.314-3.314,3.314H10.348
				c-1.823,0-3.314-1.35-3.314-3.314V10.44c0-1.964,1.491-3.314,3.314-3.314h19.179c1.823,0,3.314,1.35,3.314,3.314V29.619z"/>
			<path fill="#FFFFFF" d="M27.983,20.254c0,4.291-3.59,7.771-8.02,7.771c-4.43,0-8.02-3.48-8.02-7.771
				c0-0.771,0.115-1.513,0.329-2.214h-2.37v10.899c0,0.564,0.463,1.028,1.028,1.028h17.969c0.564,0,1.025-0.463,1.025-1.028V18.04
				h-2.272C27.868,18.741,27.983,19.483,27.983,20.254z"/>
		</g>
	</g>
</g>
<g id="Grilla" display="none">
	<g display="inline" opacity="0.2">
		<rect x="-47.655" y="-1780" opacity="0.3" fill="#CB2229" width="66.749" height="3767.602"/>
	</g>
</g>
</svg>
