<?xml version="1.0" encoding="utf-8"?>
<!-- Generator: Adobe Illustrator 17.0.0, SVG Export Plug-In . SVG Version: 6.00 Build 0)  -->
<!DOCTYPE svg PUBLIC "-//W3C//DTD SVG 1.1//EN" "http://www.w3.org/Graphics/SVG/1.1/DTD/svg11.dtd">
<svg version="1.1" xmlns="http://www.w3.org/2000/svg" xmlns:xlink="http://www.w3.org/1999/xlink" x="0px" y="0px"
	 width="39.875px" height="40.1px" viewBox="0 0 39.875 40.1" enable-background="new 0 0 39.875 40.1" xml:space="preserve">
<g id="Selecionado">
	<g>
		<path fill="#FFFFFF" d="M19.937,0.319C9.04,0.319,0.208,9.154,0.208,20.051S9.04,39.78,19.937,39.78
			c10.897,0,19.731-8.833,19.731-19.729S30.834,0.319,19.937,0.319z M26.686,11.02h-2.456c-1.064,0-2.415,0.863-2.415,1.829v3.584
			h4.425v4.969h-4.425v12.929h-0.191v0.191H21.43v0.191h-4.545v-0.191h-0.191v-0.191H16.5V21.402h-4.388v-4.969H16.5v-4.788
			c0-2.966,2.684-5.182,5.082-5.182h5.104V11.02z"/>
	</g>
</g>
<g id="Grilla" display="none">
	<g display="inline" opacity="0.2">
		<rect x="0.845" y="-1780" opacity="0.3" fill="#CB2229" width="66.749" height="3767.602"/>
	</g>
</g>
</svg>
