<?xml version="1.0" encoding="utf-8"?>
<!-- Generator: Adobe Illustrator 16.0.0, SVG Export Plug-In . SVG Version: 6.00 Build 0)  -->
<!DOCTYPE svg PUBLIC "-//W3C//DTD SVG 1.1//EN" "http://www.w3.org/Graphics/SVG/1.1/DTD/svg11.dtd">
<svg version="1.1" id="Layer_1" xmlns="http://www.w3.org/2000/svg" xmlns:xlink="http://www.w3.org/1999/xlink" x="0px" y="0px"
	 width="101.539px" height="103.078px" viewBox="0 0 101.539 103.078" enable-background="new 0 0 101.539 103.078"
	 xml:space="preserve">
<path fill="#00A6A5" d="M7.665,50.538c0-23.249,18.852-42.104,42.104-42.104c23.252,0,42.105,18.855,42.105,42.104
	c0,23.256-18.854,42.105-42.105,42.105C26.518,92.643,7.665,73.794,7.665,50.538z"/>
<path fill="#FFFFFF" d="M32.772,33.465c3.115,0,6.219,0,9.332,0c0,1.483,0,2.971,0,4.454c7.293,0.254,14.837,0.139,22.701,0.139
	c2.242,0,5.926-0.421,7.096,0.421c1.011,0.717,1.216,3.502,1.191,6.459c-0.018,2.584,0.07,12.547-0.037,15.64
	c-0.068,2.178-0.33,4.022-1.01,4.641c-1.695,1.531-7.746,0.693-11.143,0.693c-8.144,0-15.148,0-23.533,0
	c-3.234,0-9.48,0.664-10.861-0.832c-0.969-1.054-0.697-3.861-0.697-6.406c0-4.549,0-9.648,0-14.485c0-2.216-0.449-4.675,0.975-5.708
	c1.234-0.9,3.59-0.177,5.709-0.421c0.303-1.124,0.053-2.823,0.137-4.177C32.62,33.686,32.61,33.488,32.772,33.465z M42.384,54.074
	c0.66,2.545,3.061,4.561,5.564,5.014c6.165,1.109,9.872-5.086,8.223-9.75c-0.983-2.761-4.221-5.057-7.941-4.453
	C44.31,45.516,41.083,49.084,42.384,54.074z"/>
</svg>
