<?xml version="1.0" encoding="utf-8"?>
<!-- Generator: Adobe Illustrator 16.0.0, SVG Export Plug-In . SVG Version: 6.00 Build 0)  -->
<!DOCTYPE svg PUBLIC "-//W3C//DTD SVG 1.1//EN" "http://www.w3.org/Graphics/SVG/1.1/DTD/svg11.dtd">
<svg version="1.1" id="Layer_1" xmlns="http://www.w3.org/2000/svg" xmlns:xlink="http://www.w3.org/1999/xlink" x="0px" y="0px"
	 width="101.539px" height="103.078px" viewBox="0 0 101.539 103.078" enable-background="new 0 0 101.539 103.078"
	 xml:space="preserve">
<path fill="#00A7A6" d="M7.71,50.536c0-23.833,19.322-43.151,43.154-43.151c23.837,0,43.154,19.318,43.154,43.151
	c0,23.834-19.316,43.157-43.154,43.157C27.033,93.693,7.71,74.371,7.71,50.536z"/>
<g>
	<path fill="#FFFFFF" d="M73.551,28.08H28.184c-1.93,0-3.496,1.574-3.496,3.512v32.23c0,1.942,1.566,3.525,3.496,3.525h17.398
		c0,0,0.769,7.033-5.27,7.033v3.521h21.111V74.38c-6.272,0-5.282-7.033-5.282-7.033H73.55c1.935,0,3.495-1.583,3.495-3.525v-32.23
		C77.046,29.654,75.484,28.08,73.551,28.08L73.551,28.08z M48.083,63.037c0-1.664,1.352-3.014,3.018-3.014
		c1.668,0,3.02,1.35,3.02,3.014c0,1.67-1.352,3.021-3.02,3.021C49.434,66.056,48.083,64.707,48.083,63.037L48.083,63.037z
		 M73.305,58.996H28.424V31.817h44.881V58.996z"/>
</g>
</svg>
