<?xml version="1.0" encoding="utf-8"?>
<!-- Generator: Adobe Illustrator 17.0.0, SVG Export Plug-In . SVG Version: 6.00 Build 0)  -->
<!DOCTYPE svg PUBLIC "-//W3C//DTD SVG 1.1//EN" "http://www.w3.org/Graphics/SVG/1.1/DTD/svg11.dtd">
<svg version="1.1" xmlns="http://www.w3.org/2000/svg" xmlns:xlink="http://www.w3.org/1999/xlink" x="0px" y="0px"
	 width="45.125px" height="47.375px" viewBox="0 0 45.125 47.375" enable-background="new 0 0 45.125 47.375" xml:space="preserve">
<g id="Selecionado">
	<circle fill="#424243" cx="20.467" cy="27.2" r="19.603"/>
	<path fill="#FFFFFF" d="M30.222,18.722h-19.51c-0.193,0-0.358,0.059-0.486,0.186c-0.144,0.129-0.213,0.299-0.213,0.516v2.182
		c0,0.105,0.035,0.166,0.119,0.166l10.256,5.844l0.078,0.041c0.057,0,0.092-0.014,0.123-0.041l9.92-5.844
		c0.053-0.027,0.102-0.039,0.102-0.039c0.055,0,0.092-0.021,0.143-0.049c0.113,0,0.166-0.053,0.166-0.162v-2.098
		c0-0.217-0.066-0.387-0.207-0.516C30.573,18.78,30.413,18.722,30.222,18.722L30.222,18.722z M16.222,27.491
		c0.031-0.025,0.047-0.068,0.047-0.121c0-0.09-0.027-0.127-0.082-0.127l-5.881-3.375c-0.08-0.027-0.158-0.027-0.205,0
		c-0.062,0-0.088,0.041-0.088,0.127v8.848c0,0.08,0.035,0.133,0.119,0.16h0.094c0.055,0,0.08-0.016,0.08-0.041L16.222,27.491z
		 M23.39,28.151c-0.031-0.088-0.103-0.098-0.207-0.043l-2.27,1.322c-0.27,0.16-0.557,0.16-0.859,0l-1.971-1.115
		c-0.084-0.059-0.162-0.059-0.211,0l-7.529,6.998c-0.025,0.027-0.037,0.078-0.037,0.162c0,0.023,0.027,0.072,0.078,0.125
		c0.166,0.055,0.274,0.078,0.328,0.078h19.303c0.059,0,0.104-0.024,0.166-0.078c0-0.109-0.016-0.18-0.041-0.209L23.39,28.151z
		 M30.794,23.7h-0.158l-5.602,3.336c-0.057,0-0.076,0.049-0.076,0.123c-0.031,0.027-0.016,0.068,0.037,0.121l5.592,6.055
		c0.059,0.055,0.1,0.08,0.125,0.08h0.082c0.084-0.08,0.125-0.137,0.125-0.156v-9.391C30.919,23.817,30.878,23.759,30.794,23.7
		L30.794,23.7z M30.794,23.7"/>
	<g>
		<circle fill="#CB2229" cx="36.752" cy="8.679" r="7.833"/>
		<text transform="matrix(1 0 0 1 32.693 13.4451)" fill="#FFFFFF" font-family="'Lato-Bold'" font-size="14">1</text>
	</g>
</g>
<g id="Grilla" display="none">
	<g display="inline" opacity="0.2">
		<rect x="6.832" y="-1774" opacity="0.3" fill="#CB2229" width="66.749" height="3767.602"/>
	</g>
</g>
</svg>
