<?xml version="1.0" encoding="utf-8"?>
<!-- Generator: Adobe Illustrator 15.0.0, SVG Export Plug-In . SVG Version: 6.00 Build 0)  -->
<!DOCTYPE svg PUBLIC "-//W3C//DTD SVG 1.1//EN" "http://www.w3.org/Graphics/SVG/1.1/DTD/svg11.dtd">
<svg version="1.1" id="Layer_1" xmlns="http://www.w3.org/2000/svg" xmlns:xlink="http://www.w3.org/1999/xlink" x="0px" y="0px"
	 width="34.417px" height="34.334px" viewBox="0 0 34.417 34.334" enable-background="new 0 0 34.417 34.334" xml:space="preserve">
<g>
	<path fill="#01AFE5" d="M17.209,0.412c-9.253,0-16.756,7.502-16.756,16.755c0,9.251,7.503,16.755,16.756,16.755
		c9.255,0,16.755-7.504,16.755-16.755C33.964,7.914,26.464,0.412,17.209,0.412z M25.537,12.897c0.008,0.185,0.014,0.369,0.014,0.556
		c0,5.677-4.32,12.228-12.227,12.228c-2.427,0-4.685-0.713-6.586-1.932c0.336,0.039,0.678,0.061,1.025,0.061
		c2.013,0,3.866-0.688,5.337-1.84c-1.881-0.033-3.467-1.277-4.014-2.984c0.262,0.051,0.53,0.078,0.809,0.078
		c0.391,0,0.771-0.053,1.131-0.152c-1.966-0.395-3.447-2.13-3.447-4.211c0-0.018,0-0.037,0.002-0.054
		c0.579,0.322,1.241,0.516,1.945,0.537c-1.153-0.771-1.911-2.086-1.911-3.576c0-0.788,0.212-1.526,0.583-2.161
		c2.118,2.6,5.285,4.31,8.856,4.49c-0.071-0.315-0.11-0.643-0.11-0.979c0-2.373,1.923-4.296,4.296-4.296
		c1.236,0,2.354,0.522,3.137,1.357c0.979-0.192,1.898-0.55,2.727-1.043c-0.318,1.003-1,1.846-1.889,2.378
		c0.871-0.105,1.699-0.335,2.469-0.678C27.103,11.535,26.378,12.291,25.537,12.897z"/>
</g>
</svg>
