<?xml version="1.0" encoding="utf-8"?>
<!-- Generator: Adobe Illustrator 17.0.0, SVG Export Plug-In . SVG Version: 6.00 Build 0)  -->
<!DOCTYPE svg PUBLIC "-//W3C//DTD SVG 1.1//EN" "http://www.w3.org/Graphics/SVG/1.1/DTD/svg11.dtd">
<svg version="1.1" id="Layer_1" xmlns="http://www.w3.org/2000/svg" xmlns:xlink="http://www.w3.org/1999/xlink" x="0px" y="0px"
	 width="38px" height="37px" viewBox="0 0 38 37" enable-background="new 0 0 38 37" xml:space="preserve">
<g>
	<g>
		<g>
			<circle fill="#3F3E3E" cx="19" cy="17.899" r="16.649"/>
		</g>
	</g>
	<g>
		<g id="_x31_5_2_">
			<g>
				<path fill="#FFFFFF" d="M13.466,11.536h0.301c0.457,0,0.828-0.371,0.828-0.828V8.424V7.569c0-0.457-0.371-0.827-0.828-0.827
					h-0.301c-0.457,0-0.828,0.37-0.828,0.827v0.854v2.284C12.638,11.165,13.009,11.536,13.466,11.536z"/>
				<path fill="#FFFFFF" d="M24.082,11.515h0.3c0.458,0,0.828-0.37,0.828-0.827V8.207V7.549c0-0.456-0.37-0.827-0.828-0.827h-0.3
					c-0.458,0-0.828,0.371-0.828,0.827v0.658v2.481C23.254,11.144,23.624,11.515,24.082,11.515z"/>
				<path fill="#FFFFFF" d="M28.007,8.424h-2.124v2.481c0,0.827-0.673,1.284-1.501,1.284h-0.3c-0.827,0-1.501-0.674-1.501-1.501
					V8.424h-7.314v2.284c0,0.828-0.673,1.5-1.5,1.5h-0.301c-0.827,0-1.5-0.672-1.5-1.5V8.424H9.674
					c-0.742,0-1.346,0.605-1.346,1.346v16.259c0,0.742,0.604,1.346,1.346,1.346h18.333c0.742,0,1.346-0.604,1.346-1.346V9.769
					C29.353,9.028,28.749,8.424,28.007,8.424z M28.007,26.028H9.674V13.75h18.333l0.001,12.278H28.007z"/>
				<path fill="#FFFFFF" d="M19.535,17.868h2.416c0.096,0,0.173-0.077,0.173-0.173v-2.092c0-0.097-0.077-0.174-0.173-0.174h-2.416
					c-0.096,0-0.174,0.077-0.174,0.174v2.092C19.361,17.791,19.44,17.868,19.535,17.868z"/>
				<path fill="#FFFFFF" d="M23.478,17.868h2.416c0.096,0,0.174-0.077,0.174-0.173v-2.092c0-0.097-0.078-0.174-0.174-0.174h-2.416
					c-0.096,0-0.174,0.077-0.174,0.174v2.092C23.304,17.791,23.382,17.868,23.478,17.868z"/>
				<path fill="#FFFFFF" d="M11.649,21.294h2.416c0.096,0,0.174-0.078,0.174-0.174v-2.092c0-0.096-0.078-0.174-0.174-0.174h-2.416
					c-0.096,0-0.174,0.078-0.174,0.174v2.092C11.476,21.216,11.554,21.294,11.649,21.294z"/>
				<path fill="#FFFFFF" d="M15.593,21.294h2.416c0.096,0,0.173-0.078,0.173-0.174v-2.092c0-0.096-0.077-0.174-0.173-0.174h-2.416
					c-0.096,0-0.174,0.078-0.174,0.174v2.092C15.419,21.216,15.497,21.294,15.593,21.294z"/>
				<path fill="#FFFFFF" d="M19.535,21.294h2.416c0.096,0,0.173-0.078,0.173-0.174v-2.092c0-0.096-0.077-0.174-0.173-0.174h-2.416
					c-0.096,0-0.174,0.078-0.174,0.174v2.092C19.361,21.216,19.44,21.294,19.535,21.294z"/>
				<path fill="#FFFFFF" d="M23.478,21.294h2.416c0.096,0,0.174-0.078,0.174-0.174v-2.092c0-0.096-0.078-0.174-0.174-0.174h-2.416
					c-0.096,0-0.173,0.078-0.173,0.174v2.092C23.305,21.216,23.382,21.294,23.478,21.294z"/>
				<path fill="#FFFFFF" d="M14.065,22.28h-2.416c-0.096,0-0.174,0.077-0.174,0.173v2.093c0,0.095,0.078,0.173,0.174,0.173h2.416
					c0.096,0,0.174-0.078,0.174-0.173v-2.093C14.239,22.357,14.161,22.28,14.065,22.28z"/>
				<path fill="#FFFFFF" d="M18.009,22.28h-2.416c-0.096,0-0.174,0.077-0.174,0.173v2.093c0,0.095,0.078,0.173,0.174,0.173h2.416
					c0.096,0,0.173-0.078,0.173-0.173v-2.093C18.182,22.357,18.104,22.28,18.009,22.28z"/>
				<path fill="#FFFFFF" d="M21.951,22.28h-2.416c-0.096,0-0.174,0.077-0.174,0.173v2.093c0,0.095,0.078,0.173,0.174,0.173h2.416
					c0.096,0,0.173-0.078,0.173-0.173v-2.093C22.124,22.357,22.047,22.28,21.951,22.28z"/>
				<path fill="#FFFFFF" d="M25.894,22.28h-2.416c-0.096,0-0.173,0.077-0.173,0.173v2.093c0,0.095,0.077,0.173,0.173,0.173h2.416
					c0.096,0,0.174-0.078,0.174-0.173v-2.093C26.067,22.357,25.989,22.28,25.894,22.28z"/>
			</g>
		</g>
	</g>
</g>
</svg>
