<?xml version="1.0" encoding="utf-8"?>
<!-- Generator: Adobe Illustrator 15.0.0, SVG Export Plug-In . SVG Version: 6.00 Build 0)  -->
<!DOCTYPE svg PUBLIC "-//W3C//DTD SVG 1.1//EN" "http://www.w3.org/Graphics/SVG/1.1/DTD/svg11.dtd">
<svg version="1.1" id="Layer_1" xmlns="http://www.w3.org/2000/svg" xmlns:xlink="http://www.w3.org/1999/xlink" x="0px" y="0px"
	 width="34.417px" height="34.334px" viewBox="0 0 34.417 34.334" enable-background="new 0 0 34.417 34.334" xml:space="preserve">
<g>
	<g>
		<path fill="#385B9A" d="M17.209,0.248c-9.347,0-16.92,7.576-16.92,16.919c0,9.345,7.576,16.92,16.92,16.92
			c9.343,0,16.919-7.575,16.919-16.92C34.128,7.821,26.552,0.248,17.209,0.248z M21.582,17.165l-2.77,0.002l-0.006,10.152h-3.804
			V17.167h-2.538v-3.499l2.538-0.002l-0.004-2.06c0-2.856,0.774-4.592,4.136-4.592h2.799v3.5h-1.752
			c-1.309,0-1.371,0.489-1.371,1.401l-0.004,1.751h3.146L21.582,17.165z"/>
	</g>
</g>
</svg>
