<?xml version="1.0" encoding="utf-8"?>
<!-- Generator: Adobe Illustrator 16.0.0, SVG Export Plug-In . SVG Version: 6.00 Build 0)  -->
<!DOCTYPE svg PUBLIC "-//W3C//DTD SVG 1.1//EN" "http://www.w3.org/Graphics/SVG/1.1/DTD/svg11.dtd">
<svg version="1.1" id="Layer_1" xmlns="http://www.w3.org/2000/svg" xmlns:xlink="http://www.w3.org/1999/xlink" x="0px" y="0px"
	 width="37.667px" height="40.334px" viewBox="0 0 37.667 40.334" enable-background="new 0 0 37.667 40.334" xml:space="preserve">
<g>
	<g>
		<circle fill="#414042" cx="18.586" cy="19.738" r="16.649"/>
	</g>
</g>
<g>
	<circle fill="#FFFFFF" cx="18.587" cy="18.351" r="7.053"/>
	<path fill="#FFFFFF" d="M17.503,25.321c0,0,1.084,1.226,3.23,2.238c1.729,0.813,2.732,0.592,2.732,0.592s-0.6-0.309-0.826-2.411
		c-0.219-2.054,1.961-3.706,1.961-3.706"/>
	<circle fill="#FFFFFF" cx="18.587" cy="18.351" r="7.053"/>
	<path fill="#FFFFFF" d="M17.503,25.321c0,0,1.084,1.226,3.23,2.238c1.729,0.813,2.732,0.592,2.732,0.592s-0.6-0.309-0.826-2.411
		c-0.219-2.054,1.961-3.706,1.961-3.706"/>
</g>
</svg>
