<?xml version="1.0" encoding="utf-8"?>
<!-- Generator: Adobe Illustrator 16.0.0, SVG Export Plug-In . SVG Version: 6.00 Build 0)  -->
<!DOCTYPE svg PUBLIC "-//W3C//DTD SVG 1.1//EN" "http://www.w3.org/Graphics/SVG/1.1/DTD/svg11.dtd">
<svg version="1.1" id="Layer_1" xmlns="http://www.w3.org/2000/svg" xmlns:xlink="http://www.w3.org/1999/xlink" x="0px" y="0px"
	 width="106.909px" height="101.352px" viewBox="0 0 106.909 101.352" enable-background="new 0 0 106.909 101.352"
	 xml:space="preserve">
<g>
	<defs>
		<circle id="SVGID_1_" cx="53.455" cy="50.688" r="50.688"/>
	</defs>
	<use xlink:href="#SVGID_1_"  overflow="visible" opacity="0.1" fill="#333333"/>
	<clipPath id="SVGID_2_">
		<use xlink:href="#SVGID_1_"  overflow="visible" opacity="0.1"/>
	</clipPath>
	<g clip-path="url(#SVGID_2_)">
		<g>
			<path fill="none" d="M46.972,46.75c-0.008,0.011-0.014,0.022-0.021,0.035c0.1-0.022,0.201-0.035,0.309-0.035H46.972z"/>
		</g>
		<g>
			<path fill="none" d="M49.904,50.307v-0.19h-2.645c-0.787,0-1.422-0.628-1.447-1.405c-0.213,0.36-0.408,0.69-0.557,0.938
				c-0.648,1.102-1.58,0.764-2.045,1.55c-0.203,0.342-0.455,0.643-0.676,0.873l-0.285,0.883h0.887h5.012l1.455-2.83L49.904,50.307z"
				/>
		</g>
		<path fill="none" d="M35.833,109.472l-0.062-1.624h0.096v-3.8v-0.527v-5.146H16.144c5.635,5.049,12.303,8.96,19.643,11.402
			l-0.016-0.306H35.833z"/>
		<g>
			<path fill="none" d="M61.753,47.106c-0.064-0.122-0.129-0.239-0.191-0.356h-0.75C61.173,46.75,61.5,46.888,61.753,47.106z"/>
		</g>
		<polygon fill="none" points="14.656,91.974 35.867,91.974 35.867,91.974 		"/>
		<g>
			<path fill="none" d="M62.384,44.114c0,0.104-0.016,0.204-0.041,0.302c0.352,0.576,0.676,1.215,0.871,1.679
				c0.332,0.783,2.262,0.211,1.766-0.958c-0.285-0.674-0.871-1.603-1.307-2.407c-0.119-0.217-0.342-0.423-0.617-0.619
				c-0.252,0.471-0.543,0.921-0.863,1.345C62.312,43.647,62.384,43.872,62.384,44.114z"/>
		</g>
		<g>
			<path fill="none" d="M45.878,43.455c-0.244-0.321-0.465-0.66-0.668-1.01c-0.107,0.099-0.199,0.201-0.26,0.306
				c-0.467,0.787-1.086,1.697-1.395,2.358c-0.537,1.15,1.371,1.791,1.729,1.022c0.166-0.35,0.406-0.802,0.678-1.244
				c-0.17-0.212-0.275-0.479-0.275-0.773C45.687,43.872,45.759,43.647,45.878,43.455z"/>
		</g>
		<g>
			<path fill="none" d="M65.107,51.232c-0.438-0.8-1.379-0.496-1.99-1.619c-0.215-0.399-0.533-0.98-0.873-1.608
				c0.01,0.066,0.021,0.13,0.021,0.197v0.462c0,0.801-0.652,1.452-1.453,1.452h-2.32v0.266l0.416-0.257l1.457,2.83h5.084h1.191
				l-0.094-0.3C66.046,52.278,65.369,51.715,65.107,51.232z"/>
		</g>
		<g>
			<path fill="#F8CB96" d="M53.929,53.604V53.16l-4.389-2.648v-0.76h9.314v0.833l-4.199,2.573v0.375l-0.342-0.164L53.929,53.604z"/>
		</g>
		<g>
			<path fill="#F8CB96" d="M46.929,42.872h-0.4c-0.398,0-0.723-0.324-0.723-0.723c0-0.054,0.02-0.1,0.029-0.146
				c-0.242,0.141-0.459,0.289-0.625,0.442c0.203,0.35,0.424,0.688,0.668,1.01C46.099,43.105,46.486,42.872,46.929,42.872z"/>
		</g>
		<g>
			<path fill="#F8CB96" d="M50.154,37.06c0.146-0.002,0.24,0.126,0.283,0.302c0.979-0.223,2.16-0.36,3.6-0.36
				c1.809,0,3.219,0.214,4.32,0.549c-0.039-0.346,0.074-0.71,0.322-0.697c0.66,0.035,3.463,1.297,5.482,2.329
				c0.074-0.295,0.117-0.604,0.117-0.924v-5.907h-0.758v-7.905c-1.838,0.708-4.008,1.305-6.18,1.347
				c-5.529,0.109-10.154-4.77-10.154-4.77c0,4.241-2.221,4.359-3.07,4.252v7.076h-0.324v5.907c0,0.444,0.078,0.865,0.215,1.261
				c0.139-0.098,0.277-0.187,0.424-0.255C46.498,38.291,49.474,37.07,50.154,37.06z"/>
		</g>
		<g>
			<path fill="#F8CB96" d="M61.839,41.492c0.248,0.113,0.426,0.362,0.426,0.657c0,0.398-0.324,0.723-0.725,0.723h-0.4
				c0.445,0,0.832,0.233,1.053,0.583c0.32-0.424,0.611-0.874,0.863-1.345c-0.301-0.218-0.668-0.422-1.047-0.618H61.839z"/>
		</g>
		<path fill="#282561" d="M73.175,98.375H35.867v5.146v0.527v3.8h37.309V98.375z M41.207,100.365c0-0.481,0.389-0.873,0.871-0.873
			c0.48,0,0.871,0.392,0.871,0.873s-0.391,0.874-0.871,0.874C41.595,101.239,41.207,100.847,41.207,100.365z M43.707,102.271
			c-0.193,0-0.529-0.097-0.674-0.384c-0.143,0.287-0.479,0.384-0.672,0.384c-0.627,0-0.721-0.434-0.721-0.434
			c0.047,0.05,0.145,0.097,0.287,0.097c0.182,0,0.254-0.245,0.42-0.365c0.055-0.041,0.123-0.068,0.207-0.068
			c0.336,0,0.479,0.242,0.479,0.242s0.145-0.242,0.48-0.242c0.338,0,0.387,0.434,0.625,0.434c0.145,0,0.242-0.047,0.289-0.097
			C44.427,101.838,44.332,102.271,43.707,102.271z M44.009,101.247c-0.482,0-0.873-0.392-0.873-0.873c0-0.48,0.391-0.87,0.873-0.87
			s0.873,0.39,0.873,0.87C44.882,100.855,44.492,101.247,44.009,101.247z"/>
		<path fill="#282561" d="M59.392,100.487c0.484,0,0.875,0.392,0.875,0.873s-0.391,0.871-0.875,0.871
			c-0.48,0-0.869-0.39-0.869-0.871S58.912,100.487,59.392,100.487z M58.419,102.729c0,0,0.143-0.239,0.48-0.239
			c0.336,0,0.385,0.432,0.625,0.432c0.143,0,0.238-0.048,0.287-0.095c0,0-0.096,0.432-0.719,0.432c-0.193,0-0.531-0.098-0.674-0.385
			c-0.145,0.287-0.48,0.385-0.674,0.385c-0.625,0-0.719-0.432-0.719-0.432c0.045,0.047,0.143,0.095,0.287,0.095
			c0.18,0,0.252-0.243,0.418-0.366c0.057-0.038,0.121-0.065,0.207-0.065C58.275,102.489,58.419,102.729,58.419,102.729z
			 M57.462,100.48c0.48,0,0.871,0.39,0.871,0.871c0,0.48-0.391,0.872-0.871,0.872s-0.871-0.392-0.871-0.872
			C56.591,100.87,56.982,100.48,57.462,100.48z"/>
		<g>
			<path fill="#F8CB96" d="M74.376,78.054c0.045,0.097,0.088,0.193,0.133,0.289l-0.1-0.32L74.376,78.054z"/>
		</g>
		<g>
			<path fill="#F8CB96" d="M76.298,81.173c3.445,3.023,6.609,3.033,7.732-2.614c0.217-1.087-0.787-3.352-2.023-5.613l-7.342,5.729
				C75.201,79.786,75.757,80.699,76.298,81.173z"/>
		</g>
		<g>
			<polygon fill="#282561" points="83.535,69.691 73.697,57.042 81.359,71.678 			"/>
		</g>
		<g>
			<path fill="#282561" d="M72.681,76.299l1.619,1.824l0.076-0.069c-0.631-1.418-1.221-3.061-1.701-4.521L72.681,76.299z"/>
		</g>
		<path fill="#282561" d="M67.615,65.954c-0.281,0-0.51,0.229-0.51,0.51c0,0.278,0.229,0.507,0.51,0.507
			c0.279,0,0.508-0.229,0.508-0.507C68.123,66.183,67.894,65.954,67.615,65.954z M65.244,66.686l0.002,0.004
			c0.094,0.172,0.258,0.272,0.438,0.272c0.281,0,0.51-0.229,0.51-0.509s-0.229-0.509-0.51-0.509c-0.279,0-0.508,0.229-0.508,0.509
			C65.175,66.524,65.197,66.598,65.244,66.686z"/>
		<g>
			<path fill="#282561" d="M72.673,72.423l0.002,1.11c0.48,1.46,1.07,3.103,1.701,4.521l0.033-0.031L72.673,72.423z"/>
		</g>
		<g>
			<path fill="#282561" d="M71.49,69.581c0,0,0.471,1.773,1.186,3.952l-0.002-1.11l-0.916-2.959L71.49,69.581z"/>
		</g>
		<g>
			<path fill="#3D2519" d="M43.792,24.561v0.649c0,0,0.125,0.039,0.324,0.064v-0.714H43.792z"/>
		</g>
		<path fill="#3D2519" d="M65.037,21.89l0.867-0.867H64.82l2.166-1.083l-3.9-0.651c0,0-0.109-5.528-3.145-6.829
			c-3.033-1.301-10.08-0.649-13.875,4.228c0,0-3.143-1.081-4.551,1.193c-1.246,2.011-0.326,5.639,1.408,7.153v6.019v1.299h0.869
			h0.324v-6.714c0.105,0.013,0.221,0.023,0.355,0.023c0.859,0,2.781-0.392,3.047-3.812c1.422,1.297,5.197,4.309,9.641,4.309h0.188
			c1.879-0.037,3.957-0.488,6.174-1.326v7.521h0.758h0.434v-8.397c2.197-0.968,3.684-1.955,3.684-1.955L65.037,21.89z"/>
		<g>
			<circle fill="#A3A6A8" cx="44.009" cy="57.024" r="0.871"/>
		</g>
		<g>
			<path fill="#A3A6A8" d="M49.976,65.335v0.143c-0.145,0.289-0.48,0.385-0.672,0.385c0.191,0,0.527-0.096,0.672-0.385
				c0.145,0.289,0.48,0.385,0.674,0.385c0.625,0,0.721-0.432,0.721-0.432c-0.047,0.047-0.145,0.097-0.289,0.097
				c-0.24,0-0.289-0.434-0.625-0.434S49.976,65.335,49.976,65.335s-0.145-0.241-0.48-0.241
				C49.832,65.094,49.976,65.335,49.976,65.335z"/>
		</g>
		<g>
			<circle fill="#A3A6A8" cx="49.019" cy="63.957" r="0.872"/>
		</g>
		<g>
			<circle fill="#A3A6A8" cx="50.951" cy="63.965" r="0.873"/>
		</g>
		<g>
			<path fill="#A3A6A8" d="M49.976,65.478v-0.143c0,0-0.145-0.241-0.48-0.241s-0.383,0.434-0.625,0.434
				c-0.143,0-0.24-0.05-0.287-0.097c0,0,0.096,0.432,0.721,0.432C49.496,65.862,49.832,65.767,49.976,65.478z"/>
		</g>
		<g>
			<path fill="#A3A6A8" d="M57.13,72.22h1.168c-0.086-0.392-0.418-0.691-0.836-0.691c-0.48,0-0.871,0.391-0.871,0.872
				c0,0.088,0.023,0.169,0.049,0.249h0.059C56.699,72.413,56.892,72.22,57.13,72.22z"/>
		</g>
		<g>
			<path fill="#A3A6A8" d="M59.392,71.537c-0.412,0-0.742,0.296-0.832,0.683h1.668C60.14,71.833,59.808,71.537,59.392,71.537z"/>
		</g>
		<g>
			<path fill="#A3A6A8" d="M66.638,81.998v0.145c-0.105,0.216-0.324,0.325-0.504,0.364c0.18-0.039,0.398-0.148,0.504-0.364
				c0.146,0.289,0.482,0.384,0.674,0.384c0.625,0,0.721-0.432,0.721-0.432c-0.047,0.048-0.145,0.095-0.287,0.095
				c-0.242,0-0.289-0.432-0.625-0.432S66.638,81.998,66.638,81.998s-0.143-0.24-0.48-0.24
				C66.496,81.758,66.638,81.998,66.638,81.998z"/>
		</g>
		<g>
			<rect x="65.529" y="82.186" fill="#A3A6A8" width="0" height="0.008"/>
		</g>
		<g>
			<path fill="#A3A6A8" d="M65.683,81.493c0.48,0,0.873-0.392,0.873-0.871c0-0.446-0.34-0.8-0.77-0.853l-0.184,1.705
				C65.628,81.479,65.654,81.493,65.683,81.493z"/>
		</g>
		<g>
			<circle fill="#A3A6A8" cx="67.615" cy="80.629" r="0.871"/>
		</g>
		<g>
			<path fill="#A3A6A8" d="M66.158,81.758c-0.334,0-0.385,0.432-0.625,0.432l0,0C65.773,82.189,65.824,81.758,66.158,81.758z"/>
		</g>
		<g>
			<path fill="#A3A6A8" d="M65.525,82.189l-0.023,0.22c0.105,0.066,0.254,0.117,0.465,0.117c0.047,0,0.105-0.006,0.168-0.02
				c0.18-0.039,0.398-0.148,0.504-0.364v-0.145c0,0-0.143-0.24-0.48-0.24c-0.334,0-0.385,0.432-0.623,0.432h-0.002l0,0
				C65.531,82.189,65.529,82.189,65.525,82.189z"/>
		</g>
		<g>
			<path fill="#A3A6A8" d="M57.314,59.801c-0.145,0-0.242-0.045-0.287-0.097C57.072,59.756,57.169,59.801,57.314,59.801
				L57.314,59.801z"/>
		</g>
		<g>
			<path fill="#A3A6A8" d="M57.732,59.438c-0.166,0.12-0.238,0.363-0.418,0.363l0,0C57.494,59.801,57.566,59.558,57.732,59.438z"/>
		</g>
		<g>
			<path fill="#A3A6A8" d="M65.533,68.022c-0.143,0-0.24-0.049-0.285-0.095C65.292,67.974,65.39,68.022,65.533,68.022L65.533,68.022
				z"/>
		</g>
		<g>
			<path fill="#A3A6A8" d="M66.638,67.831v0.143c-0.105,0.218-0.324,0.325-0.504,0.365c0.18-0.04,0.398-0.147,0.504-0.365
				c0.146,0.291,0.482,0.384,0.674,0.384c0.625,0,0.721-0.43,0.721-0.43c-0.047,0.046-0.145,0.095-0.287,0.095
				c-0.242,0-0.289-0.434-0.625-0.434S66.638,67.831,66.638,67.831s-0.143-0.242-0.48-0.242
				C66.496,67.589,66.638,67.831,66.638,67.831z"/>
		</g>
		<g>
			<path fill="#A3A6A8" d="M65.683,67.324c0.48,0,0.873-0.388,0.873-0.871c0-0.481-0.393-0.871-0.873-0.871
				c-0.482,0-0.873,0.39-0.873,0.871c0,0.151,0.049,0.285,0.117,0.411l0.951-0.149l-0.951,0.149
				C65.076,67.136,65.353,67.324,65.683,67.324z"/>
		</g>
		<g>
			<circle fill="#A3A6A8" cx="67.615" cy="66.461" r="0.872"/>
		</g>
		<g>
			<path fill="#A3A6A8" d="M66.158,67.589c-0.334,0-0.385,0.434-0.625,0.434l0,0C65.773,68.022,65.824,67.589,66.158,67.589z"/>
		</g>
		<g>
			<path fill="#A3A6A8" d="M65.537,68.263l-0.287-0.326C65.259,67.977,65.324,68.149,65.537,68.263z"/>
		</g>
		<g>
			<path fill="#A3A6A8" d="M66.134,68.339c0.18-0.04,0.398-0.147,0.504-0.365v-0.143c0,0-0.143-0.242-0.48-0.242
				c-0.334,0-0.385,0.434-0.623,0.434h-0.002l0,0c-0.143,0-0.24-0.049-0.285-0.095c0,0,0,0.005,0.002,0.009l0.287,0.326
				c0.105,0.055,0.24,0.095,0.43,0.095C66.013,68.357,66.072,68.354,66.134,68.339z"/>
		</g>
		<g>
			<path fill="#A3A6A8" d="M41.927,73.337c-0.143,0-0.24-0.049-0.287-0.097C41.687,73.288,41.785,73.337,41.927,73.337
				L41.927,73.337z"/>
		</g>
		<g>
			<path fill="#A3A6A8" d="M43.707,73.672c0.625,0,0.721-0.432,0.721-0.432c-0.047,0.048-0.145,0.097-0.289,0.097
				c-0.238,0-0.287-0.434-0.625-0.434c-0.336,0-0.48,0.24-0.48,0.24v0.145C43.177,73.575,43.513,73.672,43.707,73.672z"/>
		</g>
		<g>
			<circle fill="#A3A6A8" cx="42.078" cy="71.767" r="0.872"/>
		</g>
		<g>
			<circle fill="#A3A6A8" cx="44.009" cy="71.776" r="0.872"/>
		</g>
		<g>
			<path fill="#A3A6A8" d="M42.347,72.972c-0.166,0.122-0.238,0.365-0.42,0.365l0,0C42.109,73.337,42.181,73.094,42.347,72.972z"/>
		</g>
		<g>
			<path fill="#A3A6A8" d="M42.347,72.972c-0.166,0.122-0.238,0.365-0.42,0.365l0,0l0,0c-0.143,0-0.24-0.049-0.287-0.097
				c0,0,0.094,0.432,0.721,0.432c0.193,0,0.529-0.097,0.672-0.384v-0.145c0,0-0.143-0.24-0.479-0.24
				C42.47,72.903,42.402,72.931,42.347,72.972z"/>
		</g>
		<g>
			<path fill="#A3A6A8" d="M50.457,79.847c-0.336,0-0.48,0.239-0.48,0.239s-0.145-0.239-0.48-0.239c0.336,0,0.48,0.239,0.48,0.239
				v0.145c-0.145,0.289-0.48,0.384-0.672,0.384c0.191,0,0.527-0.095,0.672-0.384c0.145,0.289,0.48,0.384,0.674,0.384
				c0.625,0,0.721-0.434,0.721-0.434c-0.047,0.05-0.145,0.098-0.289,0.098C50.841,80.278,50.792,79.847,50.457,79.847z"/>
		</g>
		<g>
			<circle fill="#A3A6A8" cx="49.02" cy="78.71" r="0.872"/>
		</g>
		<g>
			<circle fill="#A3A6A8" cx="50.951" cy="78.718" r="0.872"/>
		</g>
		<g>
			<path fill="#A3A6A8" d="M49.976,80.23v-0.145c0,0-0.145-0.239-0.48-0.239s-0.383,0.432-0.625,0.432
				c-0.143,0-0.24-0.048-0.287-0.098c0,0,0.096,0.434,0.721,0.434C49.496,80.614,49.832,80.52,49.976,80.23z"/>
		</g>
		<g>
			<path fill="#A3A6A8" d="M41.927,87.535c-0.143,0-0.24-0.047-0.287-0.097C41.687,87.488,41.785,87.535,41.927,87.535
				L41.927,87.535z"/>
		</g>
		<g>
			<path fill="#A3A6A8" d="M43.513,87.104c-0.336,0-0.48,0.24-0.48,0.24v0.145c0.145,0.289,0.48,0.384,0.674,0.384
				c0.625,0,0.721-0.434,0.721-0.434c-0.047,0.05-0.145,0.097-0.289,0.097C43.9,87.535,43.851,87.104,43.513,87.104z"/>
		</g>
		<g>
			<circle fill="#A3A6A8" cx="42.078" cy="85.968" r="0.871"/>
		</g>
		<g>
			<circle fill="#A3A6A8" cx="44.009" cy="85.976" r="0.872"/>
		</g>
		<g>
			<path fill="#A3A6A8" d="M42.347,87.17c-0.166,0.124-0.238,0.365-0.42,0.365l0,0C42.109,87.535,42.181,87.294,42.347,87.17z"/>
		</g>
		<g>
			<path fill="#A3A6A8" d="M42.554,87.104c-0.084,0-0.152,0.027-0.207,0.066c-0.166,0.124-0.238,0.365-0.42,0.365l0,0l0,0
				c-0.143,0-0.24-0.047-0.287-0.097c0,0,0.094,0.434,0.721,0.434c0.193,0,0.529-0.095,0.672-0.384v-0.145
				C43.033,87.344,42.89,87.104,42.554,87.104z"/>
		</g>
		<path fill="#A3A6A8" d="M57.314,102.921c-0.145,0-0.242-0.048-0.287-0.095C57.072,102.873,57.169,102.921,57.314,102.921
			L57.314,102.921z"/>
		<path fill="#A3A6A8" d="M58.417,102.729v0.145c-0.143,0.287-0.479,0.385-0.672,0.385c0.193,0,0.529-0.098,0.674-0.385
			c0.143,0.287,0.48,0.385,0.674,0.385c0.623,0,0.719-0.432,0.719-0.432c-0.049,0.047-0.145,0.095-0.287,0.095
			c-0.24,0-0.289-0.432-0.625-0.432c-0.338,0-0.48,0.239-0.48,0.239s-0.145-0.239-0.48-0.239
			C58.275,102.489,58.417,102.729,58.417,102.729z"/>
		<circle fill="#A3A6A8" cx="57.462" cy="101.352" r="0.872"/>
		<path fill="#A3A6A8" d="M59.392,102.231c0.484,0,0.875-0.39,0.875-0.871s-0.391-0.873-0.875-0.873
			c-0.48,0-0.869,0.392-0.869,0.873S58.912,102.231,59.392,102.231z"/>
		<path fill="#A3A6A8" d="M57.732,102.555c-0.166,0.123-0.238,0.366-0.418,0.366l0,0C57.494,102.921,57.566,102.678,57.732,102.555z
			"/>
		<path fill="#A3A6A8" d="M58.417,102.873v-0.145c0,0-0.143-0.239-0.479-0.239c-0.086,0-0.15,0.027-0.207,0.065
			c-0.166,0.123-0.238,0.366-0.418,0.366l0,0l0,0c-0.145,0-0.242-0.048-0.287-0.095c0,0,0.094,0.432,0.719,0.432
			C57.939,103.258,58.275,103.16,58.417,102.873z"/>
		<path fill="#A3A6A8" d="M43.513,101.501c-0.336,0-0.48,0.242-0.48,0.242v0.145c0.145,0.287,0.48,0.384,0.674,0.384
			c0.625,0,0.721-0.434,0.721-0.434c-0.047,0.05-0.145,0.097-0.289,0.097C43.9,101.935,43.851,101.501,43.513,101.501z"/>
		<path fill="#A3A6A8" d="M41.927,101.935c-0.143,0-0.24-0.047-0.287-0.097C41.687,101.888,41.785,101.935,41.927,101.935
			L41.927,101.935z"/>
		<circle fill="#A3A6A8" cx="42.078" cy="100.365" r="0.871"/>
		<circle fill="#A3A6A8" cx="44.009" cy="100.375" r="0.872"/>
		<path fill="#A3A6A8" d="M42.347,101.569c-0.166,0.12-0.238,0.365-0.42,0.365l0,0C42.109,101.935,42.181,101.689,42.347,101.569z"
			/>
		<path fill="#A3A6A8" d="M42.554,101.501c-0.084,0-0.152,0.027-0.207,0.068c-0.166,0.12-0.238,0.365-0.42,0.365l0,0l0,0
			c-0.143,0-0.24-0.047-0.287-0.097c0,0,0.094,0.434,0.721,0.434c0.193,0,0.529-0.097,0.672-0.384v-0.145
			C43.033,101.743,42.89,101.501,42.554,101.501z"/>
		<path fill="#232020" d="M68.75,107.911H39.226h-3.359v-0.063h-0.096l0.062,1.624h15.654v-0.162h5.094v0.162h15.441
			c0.18-0.062,0.365-0.118,0.545-0.185l0.055-1.376H68.75z"/>
		<polygon fill="#232020" points="54.294,107.848 36.593,107.848 35.867,107.911 39.226,107.911 68.75,107.911 72.623,107.911 
			72.625,107.848 		"/>
		<path fill="#726659" d="M35.833,109.472h-0.062l0.016,0.306c0.021,0.006,0.039,0.015,0.059,0.021L35.833,109.472z"/>
		<path fill="#726659" d="M46.875,112.244c1.52,0.177,3.059,0.294,4.613,0.347v-3.119H35.833l0.012,0.326
			c3.383,1.119,6.906,1.925,10.539,2.382"/>
		<path fill="#726659" d="M72.023,109.472H56.582v3.077C61.97,112.253,67.148,111.188,72.023,109.472z"/>
		<rect x="51.488" y="109.31" fill="#F6AD40" width="5.094" height="0.162"/>
		<path fill="#F6AD40" d="M53.455,112.643c1.049,0,2.092-0.036,3.127-0.094v-3.077h-5.094v3.119
			C52.142,112.615,52.796,112.643,53.455,112.643z"/>
		<path fill="#726659" d="M46.705,112.276c0.061,0,0.113-0.018,0.17-0.032c-0.164-0.021-0.328-0.042-0.49-0.064
			C46.482,112.238,46.585,112.276,46.705,112.276z"/>
		<g>
			<path fill="#282561" d="M53.142,68.336c-0.271,0-0.49,0.219-0.49,0.49c0,0.269,0.219,0.486,0.49,0.486
				c0.268,0,0.486-0.218,0.486-0.486C53.628,68.555,53.41,68.336,53.142,68.336z"/>
		</g>
		<g>
			<path fill="#282561" d="M53.142,74.354c-0.271,0-0.49,0.218-0.49,0.486c0,0.27,0.219,0.486,0.49,0.486
				c0.268,0,0.486-0.217,0.486-0.486C53.628,74.572,53.41,74.354,53.142,74.354z"/>
		</g>
		<g>
			<path fill="#282561" d="M53.142,80.368c-0.271,0-0.49,0.219-0.49,0.488c0,0.269,0.219,0.486,0.49,0.486
				c0.268,0,0.486-0.218,0.486-0.486C53.628,80.587,53.41,80.368,53.142,80.368z"/>
		</g>
		<g>
			<path fill="#282561" d="M53.142,86.385c-0.271,0-0.49,0.218-0.49,0.488c0,0.268,0.219,0.486,0.49,0.486
				c0.268,0,0.486-0.219,0.486-0.486C53.628,86.603,53.41,86.385,53.142,86.385z"/>
		</g>
		<g>
			<polygon fill="#232020" points="49.904,50.307 49.603,50.125 48.148,52.955 49.904,52.955 			"/>
		</g>
		<g>
			<polygon fill="#232020" points="48.148,52.955 49.904,53.973 49.904,52.955 			"/>
		</g>
		<polygon fill="#232020" points="49.904,50.307 49.904,52.955 49.904,53.973 52.248,55.33 54.294,52.955 		"/>
		<polygon fill="#232020" points="60.654,52.804 59.05,49.613 58.128,50.177 58.128,50.179 53.005,53.319 54.595,53.319 
			56.267,55.33 		"/>
		<g>
			<path fill="#A3A6A8" d="M67.871,57.163c-0.342,0.339-0.342,0.893,0,1.233c0.148,0.146,0.338,0.218,0.529,0.237l-0.469-1.511
				C67.912,57.138,67.888,57.145,67.871,57.163z"/>
		</g>
		<g>
			<path fill="#F8CB96" d="M66.546,52.655l0.094,0.3h0.322C66.859,52.884,66.718,52.782,66.546,52.655z"/>
		</g>
		<path fill="#F8CB96" d="M82.007,72.945l0.01-0.007l-0.658-1.261l-0.043,0.04C81.55,72.122,81.783,72.534,82.007,72.945z"/>
		<g>
			<path fill="#F8CB96" d="M71,52.772l-2.352,0.183h0.102c0.812,0,1.566,0.247,2.191,0.668L71,53.572l0.209,0.271
				c0.477,0.384,0.863,0.867,1.113,1.429l1.375,1.771l-2.922-5.583C71.072,52.462,71,52.772,71,52.772z"/>
		</g>
		<g>
			<path fill="#F8CB96" d="M74.623,78.707l0.043-0.033c-0.053-0.11-0.104-0.22-0.156-0.331L74.623,78.707z"/>
		</g>
		<g>
			<path fill="#F8CB96" d="M68.75,52.955h-0.102l-1.512,0.119c0,0-0.07-0.049-0.174-0.119H66.64l1.059,3.414l3.242-2.746
				C70.316,53.202,69.562,52.955,68.75,52.955z"/>
		</g>
		<g>
			<path fill="#F8CB96" d="M71.208,53.843l1.113,1.429C72.072,54.71,71.685,54.227,71.208,53.843z"/>
		</g>
		<g>
			<path fill="#F8CB96" d="M74.41,78.022l0.1,0.32c0.053,0.111,0.104,0.221,0.156,0.331l7.342-5.729
				c-0.225-0.411-0.457-0.823-0.691-1.228L74.41,78.022z"/>
		</g>
		<g>
			<path fill="#F8CB96" d="M71,53.572l-0.059,0.051c0.096,0.064,0.178,0.146,0.268,0.22L71,53.572z"/>
		</g>
		<g>
			<path fill="#F8CB96" d="M72.652,56.821l0.018,12.244l5.463-2.382c0,0,1.631,2.361,3.184,5.034l0.043-0.04l-7.662-14.636
				l-1.375-1.771C72.531,55.747,72.652,56.269,72.652,56.821z"/>
		</g>
		<g>
			<path fill="#F8CB96" d="M69.103,57.163c0.34,0.339,0.34,0.893,0,1.233c-0.191,0.191-0.451,0.262-0.703,0.237l3.357,10.83
				l0.912-0.398l-0.018-12.244c0-0.553-0.121-1.074-0.33-1.55l-1.113-1.429c-0.09-0.073-0.172-0.155-0.268-0.22l-3.242,2.746
				l0.232,0.754C68.275,56.834,68.781,56.84,69.103,57.163z M71.054,57.431c0.102-0.103,0.137-0.205,0.135-0.273
				c0,0,0.24,0.375-0.203,0.816c-0.135,0.136-0.441,0.308-0.746,0.203c0.051,0.153,0.033,0.308-0.014,0.438
				c-0.008,0.021-0.018,0.038-0.029,0.059c-0.045,0.104-0.104,0.195-0.162,0.252c-0.441,0.441-0.816,0.203-0.816,0.203
				c0.07,0,0.172-0.033,0.271-0.134c0.129-0.128,0.008-0.351,0.039-0.556c0.01-0.069,0.039-0.136,0.098-0.194
				c0.238-0.235,0.512-0.17,0.512-0.17s-0.068-0.272,0.168-0.509C70.544,57.328,70.884,57.601,71.054,57.431z M69.242,55.802
				c0.34-0.34,0.893-0.34,1.234,0c0.34,0.339,0.34,0.894,0,1.233c-0.342,0.339-0.895,0.339-1.234,0
				C68.902,56.695,68.902,56.145,69.242,55.802z"/>
		</g>
		<g>
			<path fill="#F8CB96" d="M74.41,78.022l6.906-6.305c-1.553-2.673-3.184-5.034-3.184-5.034l-5.463,2.382l0.004,3.357L74.41,78.022z
				"/>
		</g>
		<g>
			<polygon fill="#F8CB96" points="72.673,72.423 72.669,69.065 71.757,69.464 			"/>
		</g>
		<g>
			<path fill="#F8CB96" d="M70.197,58.673c-0.045,0.104-0.104,0.195-0.162,0.252C70.093,58.868,70.152,58.776,70.197,58.673z"/>
		</g>
		<g>
			<path fill="#F8CB96" d="M70.306,57.565c-0.236,0.236-0.168,0.509-0.168,0.509s-0.273-0.065-0.512,0.17
				c0.238-0.235,0.512-0.168,0.512-0.168l0.102,0.101c0.051,0.153,0.033,0.308-0.014,0.438c0.047-0.13,0.064-0.284,0.014-0.438
				c0.305,0.104,0.611-0.067,0.746-0.203c0.443-0.441,0.203-0.816,0.203-0.816c0.002,0.068-0.033,0.171-0.135,0.273
				C70.884,57.601,70.544,57.328,70.306,57.565z"/>
		</g>
		<g>
			<path fill="#F8CB96" d="M69.103,58.396c0.34-0.341,0.34-0.895,0-1.233c-0.322-0.323-0.828-0.329-1.172-0.04l0.469,1.511
				C68.652,58.658,68.912,58.588,69.103,58.396z"/>
		</g>
		<g>
			<circle fill="#F8CB96" cx="69.859" cy="56.418" r="0.872"/>
		</g>
		<g>
			<path fill="#F8CB96" d="M70.226,58.614c-0.008,0.021-0.018,0.038-0.029,0.059C70.208,58.652,70.218,58.636,70.226,58.614z"/>
		</g>
		<g>
			<path fill="#F8CB96" d="M69.529,58.438c-0.031,0.205,0.09,0.428-0.039,0.556c-0.1,0.101-0.201,0.134-0.271,0.134
				c0.07,0,0.172-0.033,0.273-0.134C69.619,58.866,69.498,58.644,69.529,58.438z"/>
		</g>
		<g>
			<path fill="#F8CB96" d="M70.24,58.177l-0.102-0.101c0,0-0.273-0.067-0.512,0.168c-0.059,0.059-0.088,0.125-0.098,0.194
				c-0.031,0.205,0.09,0.428-0.037,0.556c-0.102,0.101-0.203,0.134-0.273,0.134c0,0,0.375,0.238,0.816-0.203
				c0.059-0.057,0.117-0.148,0.162-0.252c0.012-0.021,0.021-0.037,0.029-0.059C70.273,58.484,70.291,58.33,70.24,58.177z"/>
		</g>
		<path fill="#F8CB96" d="M27.376,71.751l-0.035-0.033c-1.525,2.627-2.971,5.557-2.717,6.841c1.125,5.647,4.287,5.638,7.734,2.614
			c0.471-0.414,0.953-1.16,1.424-2.078l-6.943-6.266L27.376,71.751z"/>
		<path fill="#F8CB96" d="M33.875,78.909c0.137-0.272,0.271-0.56,0.406-0.855l-0.1-0.09L33.875,78.909z"/>
		<path fill="#282561" d="M34.281,78.054l0.076,0.069l1.51-1.699l0.277-4.545C35.687,73.251,34.796,76.592,34.281,78.054z"/>
		<path fill="#282561" d="M34.25,57.953l-9.129,11.738l2.221,2.026c0.113-0.193,0.225-0.386,0.338-0.574L34.25,57.953z"/>
		<g>
			<path fill="#282561" d="M41.927,58.585c-0.143,0-0.24-0.048-0.287-0.098C41.687,58.537,41.785,58.585,41.927,58.585
				L41.927,58.585z"/>
		</g>
		<g>
			<path fill="#282561" d="M42.347,58.219c-0.166,0.121-0.238,0.366-0.42,0.366l0,0C42.109,58.585,42.181,58.34,42.347,58.219z"/>
		</g>
		<path fill="#282561" d="M27.679,71.144c-0.113,0.188-0.225,0.381-0.338,0.574l0.035,0.033L27.679,71.144z"/>
		<path fill="#282561" d="M72.681,76.299l-0.006-2.766c-0.715-2.179-1.186-3.952-1.186-3.952l0.268-0.117L68.4,58.634
			c-0.191-0.02-0.381-0.091-0.529-0.237c-0.342-0.341-0.342-0.895,0-1.233c0.018-0.019,0.041-0.025,0.061-0.04l-0.232-0.754
			l-1.059-3.414h-1.191h-5.084l-1.873,1.087l-2.225,1.288l-2.178-2.675l-1.803,2.792l-4.041-2.854h-6.262l-1.297,4.023l0.299,0.254
			l-2.369,7.348l-0.506,1.567l0,0L37.9,66.438l-0.184,0.57l-0.797,2.467l-1.053,3.266v1.138v1.997l-0.271,0.306l-0.092,0.103v16.054
			h19.152l0.037-0.364h18.01L72.681,76.299z M64.81,66.453c0-0.481,0.391-0.871,0.873-0.871c0.48,0,0.873,0.39,0.873,0.871
			c0,0.483-0.393,0.871-0.873,0.871c-0.33,0-0.607-0.188-0.756-0.46C64.859,66.738,64.81,66.604,64.81,66.453z M65.248,67.928
			c0.045,0.046,0.143,0.095,0.285,0.095c0.24,0,0.291-0.434,0.625-0.434c0.338,0,0.48,0.242,0.48,0.242s0.146-0.242,0.482-0.242
			s0.383,0.434,0.625,0.434c0.143,0,0.24-0.049,0.287-0.095c0,0-0.096,0.43-0.721,0.43c-0.191,0-0.527-0.093-0.674-0.384
			c-0.105,0.218-0.324,0.325-0.504,0.365c-0.062,0.015-0.121,0.019-0.168,0.019c-0.189,0-0.324-0.04-0.43-0.095
			c-0.213-0.113-0.277-0.286-0.287-0.326C65.248,67.933,65.248,67.928,65.248,67.928z M68.488,66.464
			c0,0.481-0.393,0.869-0.873,0.869s-0.873-0.388-0.873-0.869c0-0.482,0.393-0.874,0.873-0.874S68.488,65.981,68.488,66.464z
			 M59.392,57.37c0.484,0,0.875,0.388,0.875,0.871c0,0.482-0.391,0.872-0.875,0.872c-0.48,0-0.869-0.39-0.869-0.872
			C58.523,57.758,58.912,57.37,59.392,57.37z M58.126,57.688c0.125,0.149,0.207,0.335,0.207,0.543c0,0.274-0.133,0.507-0.326,0.668
			L58.126,57.688z M57.958,59.373c0.32,0.011,0.461,0.236,0.461,0.236s0.143-0.24,0.48-0.24c0.336,0,0.385,0.432,0.625,0.432
			c0.143,0,0.238-0.045,0.287-0.097c0,0-0.096,0.434-0.719,0.434c-0.193,0-0.531-0.095-0.674-0.382
			c-0.115,0.229-0.348,0.331-0.537,0.365L57.958,59.373z M67.312,82.526c-0.191,0-0.527-0.095-0.674-0.384
			c-0.105,0.216-0.324,0.325-0.504,0.364c-0.062,0.014-0.121,0.02-0.168,0.02c-0.211,0-0.359-0.051-0.465-0.117l-1.031,9.564h-7.465
			l-1.199-11.121l0.822-8.203h0.012c-0.004-0.013-0.004-0.027-0.008-0.04l0.061-0.599c0.143-0.283,0.43-0.482,0.77-0.482
			c0.418,0,0.75,0.3,0.836,0.691h0.262c0.09-0.387,0.42-0.683,0.832-0.683c0.416,0,0.748,0.296,0.836,0.683h0.873h3.246
			c0.236,0,0.43,0.193,0.43,0.43h1.613v1.522l-0.604,5.598c0.43,0.053,0.77,0.406,0.77,0.853c0,0.479-0.393,0.871-0.873,0.871
			c-0.029,0-0.055-0.015-0.08-0.019l-0.078,0.715c0.004,0,0.006,0,0.008,0c0.24,0,0.291-0.432,0.625-0.432
			c0.338,0,0.48,0.24,0.48,0.24s0.146-0.24,0.482-0.24s0.383,0.432,0.625,0.432c0.143,0,0.24-0.047,0.287-0.095
			C68.033,82.095,67.937,82.526,67.312,82.526z M67.615,81.5c-0.48,0-0.873-0.39-0.873-0.871c0-0.48,0.393-0.87,0.873-0.87
			s0.873,0.39,0.873,0.87C68.488,81.11,68.095,81.5,67.615,81.5z"/>
		<path fill="#F8CB96" d="M33.808,79.118l0.066-0.209c-0.029,0.062-0.062,0.125-0.092,0.186L33.808,79.118z"/>
		<path fill="#F8CB96" d="M36.085,55.592l1.566-2.011C36.919,54.052,36.369,54.76,36.085,55.592z"/>
		<path fill="#F8CB96" d="M27.376,71.751l-0.537,1.078l6.943,6.266c0.029-0.061,0.062-0.123,0.092-0.186l0.307-0.945L27.376,71.751z
			"/>
		<polygon fill="#F8CB96" points="37.658,53.572 37.652,53.581 37.66,53.575 		"/>
		<path fill="#F8CB96" d="M37.722,66.667c-0.229,0.077-0.457,0-0.615-0.101c0.158,0.101,0.387,0.178,0.615,0.103
			c-0.039,0.117-0.031,0.232-0.006,0.34l0.143-0.448c-0.018,0.002-0.033,0.006-0.033,0.006L37.722,66.667z"/>
		<g>
			<path fill="#F8CB96" d="M37.503,64.298c-0.338,0.342-0.338,0.893,0,1.235c0.17,0.166,0.389,0.248,0.607,0.252l0.506-1.567
				C38.277,63.978,37.81,63.994,37.503,64.298z"/>
		</g>
		<path fill="#F8CB96" d="M37.46,65.957c-0.203-0.031-0.426,0.09-0.553-0.036c-0.102-0.103-0.137-0.205-0.137-0.272
			c0,0.067,0.035,0.17,0.137,0.272C37.035,66.049,37.257,65.926,37.46,65.957z"/>
		<path fill="#F8CB96" d="M37.722,66.667l0.104-0.101c0,0,0.066-0.274-0.172-0.512c-0.059-0.059-0.123-0.087-0.193-0.098
			c-0.203-0.031-0.426,0.092-0.553-0.036c-0.102-0.103-0.137-0.205-0.137-0.272c0,0-0.238,0.373,0.203,0.815
			c0.035,0.033,0.08,0.069,0.133,0.103C37.265,66.667,37.494,66.744,37.722,66.667z"/>
		<g>
			<line fill="#F8CB96" x1="34.181" y1="77.964" x2="34.281" y2="78.054"/>
			<path fill="#F8CB96" d="M35.867,72.741"/>
			<polygon fill="#F8CB96" points="35.867,69.015 35.867,72.741 36.919,69.476 			"/>
		</g>
		<g>
			<path fill="#337E3D" d="M58.156,42.872h2.984h0.4c0.4,0,0.725-0.324,0.725-0.723c0-0.295-0.178-0.544-0.426-0.657h-0.455
				L58.156,42.872z"/>
		</g>
		<g>
			<path fill="#337E3D" d="M46.529,42.872h0.4h2.986l-3.152-1.349c-0.324,0.153-0.643,0.311-0.928,0.479
				c-0.01,0.047-0.029,0.093-0.029,0.146C45.806,42.548,46.13,42.872,46.529,42.872z"/>
		</g>
		<path fill="#E28B56" d="M62.244,48.005c-0.16-0.294-0.324-0.596-0.49-0.898c-0.254-0.219-0.58-0.356-0.941-0.356h-2.32h-8.588
			h-2.645c-0.107,0-0.209,0.013-0.309,0.035c-0.379,0.644-0.787,1.331-1.139,1.926c0.025,0.777,0.66,1.405,1.447,1.405h2.645h8.588
			h2.32c0.801,0,1.453-0.651,1.453-1.452v-0.462C62.265,48.135,62.253,48.071,62.244,48.005z"/>
		<g>
			<path fill="#EA5332" d="M49.904,46.653v0.097h0.242C50.066,46.716,49.982,46.688,49.904,46.653z"/>
		</g>
		<g>
			<path fill="#EA5332" d="M58.492,46.75v-0.254c-0.186,0.091-0.373,0.174-0.566,0.254H58.492z"/>
		</g>
		<path fill="#EA5332" d="M58.492,46.75h2.32h0.75c-0.283-0.523-0.549-1.012-0.758-1.393h-0.479h-1.834h-8.588h-2.111
			c-0.004,0.01-0.008,0.017-0.014,0.026c-0.215,0.363-0.498,0.84-0.807,1.366h0.287h2.645v-0.097
			c0.078,0.034,0.162,0.062,0.242,0.097h7.779"/>
		<g>
			<path fill="#5D3E2E" d="M60.804,45.357c-0.055-0.104-0.104-0.189-0.15-0.277c-0.107,0.093-0.217,0.188-0.328,0.277H60.804z"/>
		</g>
		<g>
			<path fill="#5D3E2E" d="M45.878,43.455c-0.119,0.192-0.191,0.417-0.191,0.659c0,0.294,0.105,0.562,0.275,0.773
				c0.154-0.256,0.318-0.509,0.486-0.739C46.248,43.926,46.058,43.693,45.878,43.455z"/>
		</g>
		<g>
			<path fill="#5D3E2E" d="M62.193,43.455c-0.086,0.111-0.176,0.222-0.266,0.329c0.143,0.192,0.281,0.406,0.416,0.632
				c0.025-0.098,0.041-0.198,0.041-0.302C62.384,43.872,62.312,43.647,62.193,43.455z"/>
		</g>
		<g>
			<path fill="#5D3E2E" d="M58.492,45.357h1.834c0.111-0.089,0.221-0.185,0.328-0.277c-0.02-0.037-0.047-0.088-0.064-0.121
				c-0.523-0.962-0.398-1.575,0.301-1.954c0.25-0.137,0.641,0.23,1.037,0.779c0.09-0.107,0.18-0.218,0.266-0.329
				c-0.221-0.35-0.607-0.583-1.053-0.583h-2.984l-4.119,1.76l-4.121-1.76h-2.986c-0.443,0-0.83,0.233-1.051,0.583
				c0.18,0.238,0.369,0.471,0.57,0.693c0.488-0.684,0.986-1.19,1.271-1.022c0.686,0.404,0.787,1.022,0.23,1.965
				c-0.045,0.075-0.102,0.174-0.158,0.267h2.111"/>
		</g>
		<path fill="#FFCB05" d="M46.832,41.492c-0.023,0.009-0.045,0.022-0.068,0.031l3.152,1.349l4.121,1.76l4.119-1.76l3.229-1.38
			H46.832z"/>
		<g>
			<path fill="#E28B56" d="M58.742,39.288c0.342,0,0.609-0.069,0.822-0.163c-0.059-0.209-0.1-0.394-0.129-0.538
				c-0.408-0.214-0.727-0.402-0.865-0.532c-0.125-0.113-0.193-0.306-0.213-0.505c-1.102-0.335-2.512-0.549-4.32-0.549
				c-1.439,0-2.621,0.138-3.6,0.36c0.07,0.291,0,0.716-0.219,0.903c-0.146,0.129-0.482,0.308-0.912,0.515
				c-0.031,0.132-0.072,0.293-0.125,0.474c0.119,0.021,0.252,0.035,0.396,0.035"/>
		</g>
		<g>
			<path fill="#E28B56" d="M49.181,39.253c-0.17,0.388-0.621,1.347-0.955,1.546c-0.346,0.207-0.795,0.413-1.252,0.626h14.566
				c0.105,0,0.207,0.025,0.299,0.067h0.17c-0.553-0.289-1.123-0.565-1.539-0.832c-0.389-0.251-0.742-1.07-0.906-1.535"/>
		</g>
		<g>
			<path fill="#E28B56" d="M49.578,39.288L49.578,39.288c-0.145,0-0.277-0.015-0.396-0.035l0,0
				C49.3,39.273,49.433,39.288,49.578,39.288z"/>
		</g>
		<g>
			<path fill="#E28B56" d="M61.384,41.492h0.455c-0.092-0.042-0.193-0.067-0.299-0.067L61.384,41.492z"/>
		</g>
		<g>
			<path fill="#E28B56" d="M61.384,41.492l0.156-0.067H46.974c-0.051,0.021-0.096,0.046-0.143,0.067H61.384z"/>
		</g>
		<g>
			<path fill="#F8CB96" d="M45.21,42.445c0.166-0.153,0.383-0.302,0.625-0.442c0.051-0.229,0.191-0.419,0.398-0.511h-0.428
				c0,0-0.006-0.609,0.396-1.376c-0.576,0.24-1.035,0.432-1.207,0.523c-0.406,0.218-0.232-0.157,0.152-0.308
				c0.191-0.074,0.656-0.261,1.207-0.486c0.568-0.903,1.73-1.946,4.082-2.484c-0.043-0.176-0.137-0.304-0.283-0.302
				c-0.68,0.011-3.656,1.231-5.723,2.204c-0.146,0.068-0.285,0.157-0.424,0.255c0.035,0.103,0.072,0.203,0.115,0.3
				C44.361,40.753,44.734,41.633,45.21,42.445z"/>
		</g>
		<g>
			<path fill="#F8CB96" d="M45.148,40.332c-0.385,0.15-0.559,0.525-0.152,0.308c0.172-0.092,0.631-0.283,1.207-0.523
				c0.045-0.088,0.096-0.179,0.152-0.271C45.804,40.071,45.339,40.258,45.148,40.332z"/>
		</g>
		<path fill="#F8CB96" d="M46.501,46.75c-0.383,0-0.695-0.311-0.695-0.697c0-0.384,0.312-0.695,0.695-0.695h0.428
			c-0.393,0-0.738-0.187-0.967-0.47c-0.271,0.442-0.512,0.895-0.678,1.244c-0.357,0.769-2.266,0.128-1.729-1.022
			c0.309-0.661,0.928-1.571,1.395-2.358c0.061-0.104,0.152-0.207,0.26-0.306c-0.477-0.812-0.85-1.692-1.088-2.627
			c-0.043-0.097-0.08-0.197-0.115-0.3c-1.615,1.15-2.773,4.284-4.768,7.99c-1.115,2.067-1.604,3.332-1.816,4.076l-3.174,6.368
			l-6.57,13.19l-0.303,0.607l6.805,6.213l1.686-5.223v-3.727l1.053,0.461l0.797-2.467c-0.025-0.107-0.033-0.223,0.006-0.34
			c-0.229,0.075-0.457-0.002-0.615-0.103c-0.053-0.033-0.098-0.069-0.133-0.103c-0.441-0.442-0.203-0.815-0.203-0.815
			c0,0.067,0.035,0.17,0.137,0.272c0.127,0.126,0.35,0.005,0.553,0.036c0.07,0.011,0.135,0.039,0.193,0.098
			c0.238,0.237,0.172,0.512,0.172,0.512s0.016-0.004,0.033-0.006l0.252-0.775c-0.219-0.004-0.438-0.086-0.607-0.252
			c-0.338-0.343-0.338-0.894,0-1.235c0.307-0.304,0.773-0.32,1.113-0.08l2.49-7.723l1.143-3.54l0.285-0.883
			c0.221-0.23,0.473-0.531,0.676-0.873c0.465-0.786,1.396-0.448,2.045-1.55c0.148-0.248,0.344-0.578,0.557-0.938
			c-0.002-0.018-0.006-0.031-0.006-0.047v-0.462c0-0.696,0.492-1.276,1.145-1.417c0.008-0.013,0.014-0.024,0.021-0.035H46.501z
			 M37.652,53.581l-1.566,2.011C36.369,54.76,36.919,54.052,37.652,53.581l0.006-0.009l0.002,0.003
			C37.658,53.577,37.654,53.579,37.652,53.581z"/>
		<g>
			<path fill="#F8CB96" d="M46.687,41.492h-0.453c-0.207,0.092-0.348,0.282-0.398,0.511c0.285-0.169,0.604-0.326,0.928-0.479
				L46.687,41.492z"/>
		</g>
		<g>
			<path fill="#F8CB96" d="M45.806,48.202v0.462c0,0.016,0.004,0.029,0.006,0.047c0.352-0.595,0.76-1.282,1.139-1.926
				C46.298,46.926,45.806,47.506,45.806,48.202z"/>
		</g>
		<g>
			<path fill="#F8CB96" d="M47.746,45.357h-0.816h-0.428c-0.383,0-0.695,0.312-0.695,0.695c0,0.387,0.312,0.697,0.695,0.697h0.471
				c0.309-0.526,0.592-1.003,0.807-1.366C47.769,45.374,47.755,45.367,47.746,45.357z"/>
		</g>
		<g>
			<path fill="#F8CB96" d="M47.746,45.357c0.01,0.01,0.023,0.017,0.033,0.026c0.006-0.01,0.01-0.017,0.014-0.026H47.746z"/>
		</g>
		<g>
			<path fill="#F8CB96" d="M46.449,44.148c-0.168,0.23-0.332,0.483-0.486,0.739c0.229,0.283,0.574,0.47,0.967,0.47h0.816
				C47.279,44.992,46.847,44.588,46.449,44.148z"/>
		</g>
		<g>
			<path fill="#F8CB96" d="M47.951,45.091c0.557-0.942,0.455-1.561-0.23-1.965c-0.285-0.168-0.783,0.339-1.271,1.022
				c0.398,0.439,0.83,0.844,1.297,1.209h0.047C47.849,45.265,47.906,45.166,47.951,45.091z"/>
		</g>
		<g>
			<path fill="#F8CB96" d="M46.687,41.492l0.076,0.031c0.023-0.009,0.045-0.022,0.068-0.031H46.687z"/>
		</g>
		<g>
			<path fill="#F8CB96" d="M46.974,41.425c0.457-0.213,0.906-0.419,1.252-0.626c0.334-0.199,0.57-0.569,0.74-0.957
				c-0.246-0.243-0.398-0.49-0.482-0.673c0-0.006-0.002-0.009-0.004-0.013c-0.752,0.331-1.596,0.677-2.277,0.96
				c-0.402,0.767-0.396,1.376-0.396,1.376h0.428c0.092-0.042,0.191-0.067,0.295-0.067H46.974z"/>
		</g>
		<g>
			<path fill="#F8CB96" d="M48.421,39.008c-0.605,0.247-1.396,0.569-2.066,0.838c-0.057,0.092-0.107,0.183-0.152,0.271
				c0.682-0.283,1.525-0.629,2.277-0.96C48.453,39.098,48.435,39.05,48.421,39.008z"/>
		</g>
		<g>
			<path fill="#F8CB96" d="M49.306,38.779c0.01-0.052,0.023-0.104,0.031-0.143c0,0-0.346,0.141-0.842,0.342
				c0.049,0.035,0.102,0.066,0.162,0.099C48.888,38.975,49.107,38.874,49.306,38.779z"/>
		</g>
		<g>
			<path fill="#F8CB96" d="M48.382,38.887c0.029,0.031,0.074,0.062,0.113,0.092c0.496-0.201,0.842-0.342,0.842-0.342
				c-0.008,0.038-0.021,0.091-0.031,0.143c0.43-0.207,0.766-0.386,0.912-0.515c0.219-0.188,0.289-0.612,0.219-0.903
				c-2.352,0.538-3.514,1.581-4.082,2.484c0.67-0.269,1.461-0.591,2.066-0.838C48.394,38.935,48.382,38.887,48.382,38.887z"/>
		</g>
		<g>
			<path fill="#F8CB96" d="M49.181,39.253c0.053-0.181,0.094-0.342,0.125-0.474c-0.199,0.095-0.418,0.195-0.648,0.298
				C48.796,39.152,48.968,39.219,49.181,39.253z"/>
		</g>
		<g>
			<path fill="#F8CB96" d="M48.658,39.077c0.139,0.075,0.311,0.142,0.523,0.176l0,0C48.968,39.219,48.796,39.152,48.658,39.077
				L48.658,39.077z"/>
		</g>
		<g>
			<path fill="#F8CB96" d="M48.658,39.077L48.658,39.077c-0.061-0.032-0.113-0.063-0.162-0.099l0,0
				C48.544,39.014,48.597,39.045,48.658,39.077z"/>
		</g>
		<g>
			<path fill="#F8CB96" d="M48.496,38.979c-0.039-0.029-0.084-0.061-0.113-0.092C48.412,38.918,48.457,38.949,48.496,38.979
				L48.496,38.979z"/>
		</g>
		<g>
			<path fill="#F8CB96" d="M48.484,39.169c0.084,0.183,0.236,0.43,0.482,0.673l0,0C48.72,39.599,48.568,39.352,48.484,39.169z"/>
		</g>
		<g>
			<path fill="#F8CB96" d="M48.382,38.887c0,0,0.012,0.048,0.039,0.121c0.023-0.009,0.051-0.021,0.074-0.029
				C48.457,38.949,48.412,38.918,48.382,38.887z"/>
		</g>
		<g>
			<path fill="#F8CB96" d="M48.966,39.842c0.088-0.199,0.158-0.4,0.215-0.589c-0.213-0.034-0.385-0.101-0.523-0.176
				c-0.059,0.025-0.119,0.054-0.178,0.079c0.002,0.004,0.004,0.007,0.004,0.013C48.568,39.352,48.72,39.599,48.966,39.842z"/>
		</g>
		<g>
			<path fill="#F8CB96" d="M48.496,38.979c-0.023,0.009-0.051,0.021-0.074,0.029c0.014,0.042,0.031,0.09,0.059,0.148
				c0.059-0.025,0.119-0.054,0.178-0.079C48.597,39.045,48.544,39.014,48.496,38.979z"/>
		</g>
		<g>
			<path fill="#F8CB96" d="M46.529,41.425c-0.104,0-0.203,0.025-0.295,0.067h0.453L46.529,41.425z"/>
		</g>
		<g>
			<path fill="#F8CB96" d="M46.974,41.425h-0.445l0.158,0.067h0.145C46.878,41.471,46.923,41.446,46.974,41.425z"/>
		</g>
		<g>
			<path fill="#F8CB96" d="M63.761,40.442c-0.018,0.061-0.033,0.119-0.053,0.179C64.007,40.792,63.966,40.61,63.761,40.442z"/>
		</g>
		<g>
			<path fill="#F8CB96" d="M63.761,40.442c0.205,0.168,0.246,0.35-0.053,0.179c-0.178,0.517-0.398,1.014-0.652,1.489
				c0.275,0.196,0.498,0.402,0.617,0.619c0.436,0.805,1.021,1.733,1.307,2.407c0.496,1.169-1.434,1.741-1.766,0.958
				c-0.195-0.464-0.52-1.103-0.871-1.679c-0.135,0.539-0.621,0.941-1.203,0.941h0.428c0.385,0,0.697,0.312,0.697,0.695
				c0,0.387-0.312,0.697-0.697,0.697h-0.006c0.062,0.117,0.127,0.234,0.191,0.356c0.264,0.226,0.441,0.54,0.49,0.898
				c0.34,0.628,0.658,1.209,0.873,1.608c0.611,1.123,1.553,0.819,1.99,1.619c0.262,0.482,0.939,1.046,1.439,1.423l-0.604-1.948
				l3.916-0.999l0.916,1.751c-0.23-0.779-0.684-1.978-1.568-3.771c-2.018-4.098-3.076-7.489-4.889-8.426
				c-0.053-0.026-0.105-0.054-0.156-0.081c-0.055,0.222-0.125,0.436-0.213,0.637C63.896,40.03,63.828,40.237,63.761,40.442z"/>
		</g>
		<g>
			<path fill="#F8CB96" d="M63.703,40.616c0.002,0.002,0.004,0.002,0.006,0.005c0.02-0.06,0.035-0.118,0.053-0.179
				c-0.061-0.052-0.137-0.101-0.225-0.14c-0.301-0.13-1.289-0.57-2.221-0.989c0.088,0.099,0.166,0.197,0.236,0.296
				C62.539,40.063,63.447,40.468,63.703,40.616z"/>
		</g>
		<g>
			<path fill="#F8CB96" d="M58.357,37.55c1.473,0.446,2.387,1.108,2.959,1.764c0.932,0.419,1.92,0.859,2.221,0.989
				c0.088,0.039,0.164,0.088,0.225,0.14c0.066-0.205,0.135-0.412,0.188-0.624c0.088-0.201,0.158-0.415,0.213-0.637
				c-2.02-1.032-4.822-2.294-5.482-2.329C58.431,36.84,58.318,37.204,58.357,37.55z"/>
		</g>
		<g>
			<path fill="#F8CB96" d="M61.552,39.609c0.721,0.988,0.713,1.883,0.713,1.883h-0.256c0.379,0.196,0.746,0.4,1.047,0.618
				c0.254-0.476,0.475-0.973,0.652-1.489c-0.002-0.003-0.004-0.003-0.006-0.005C63.447,40.468,62.539,40.063,61.552,39.609z"/>
		</g>
		<g>
			<path fill="#F8CB96" d="M65.943,50.707l0.604,1.948c0.172,0.127,0.312,0.229,0.416,0.3h1.686L71,52.772
				c0,0,0.072-0.311-0.225-1.313l-0.916-1.751L65.943,50.707z"/>
		</g>
		<g>
			<path fill="#F8CB96" d="M68.648,52.955h-1.686c0.104,0.07,0.174,0.119,0.174,0.119L68.648,52.955z"/>
		</g>
		<g>
			<path fill="#F8CB96" d="M61.753,47.106c0.166,0.303,0.33,0.604,0.49,0.898C62.195,47.646,62.017,47.332,61.753,47.106z"/>
		</g>
		<g>
			<path fill="#F8CB96" d="M61.562,46.75h0.006c0.385,0,0.697-0.311,0.697-0.697c0-0.384-0.312-0.695-0.697-0.695H61.14h-0.336
				C61.013,45.738,61.279,46.227,61.562,46.75z"/>
		</g>
		<g>
			<path fill="#F8CB96" d="M60.654,45.08c0.047,0.088,0.096,0.174,0.15,0.277h0.336c0.582,0,1.068-0.402,1.203-0.941
				c-0.135-0.226-0.273-0.439-0.416-0.632C61.542,44.253,61.117,44.687,60.654,45.08z"/>
		</g>
		<g>
			<path fill="#F8CB96" d="M60.89,43.005c-0.699,0.379-0.824,0.992-0.301,1.954c0.018,0.033,0.045,0.084,0.064,0.121
				c0.463-0.394,0.889-0.827,1.273-1.296C61.531,43.235,61.14,42.868,60.89,43.005z"/>
		</g>
		<g>
			<path fill="#F8CB96" d="M59.435,38.587c0.59,0.312,1.375,0.681,2.117,1.022c-0.07-0.099-0.148-0.197-0.236-0.296
				c-0.982-0.441-1.906-0.856-1.906-0.856C59.416,38.492,59.427,38.541,59.435,38.587z"/>
		</g>
		<g>
			<path fill="#F8CB96" d="M59.435,38.587c-0.008-0.046-0.02-0.095-0.025-0.13c0,0,0.924,0.415,1.906,0.856
				c-0.572-0.655-1.486-1.317-2.959-1.764c0.02,0.199,0.088,0.392,0.213,0.505C58.708,38.185,59.027,38.373,59.435,38.587z"/>
		</g>
		<g>
			<path fill="#F8CB96" d="M59.669,39.462c0.162,0.465,0.412,0.947,0.801,1.198c0.416,0.267,0.986,0.543,1.539,0.832h0.256
				c0,0,0.008-0.895-0.713-1.883c-0.742-0.342-1.527-0.711-2.117-1.022c0.029,0.145,0.07,0.329,0.129,0.538
				c0.158-0.069,0.287-0.15,0.373-0.238C59.937,38.887,59.88,39.144,59.669,39.462z"/>
		</g>
		<g>
			<path fill="#F8CB96" d="M59.937,38.887c-0.086,0.088-0.215,0.169-0.373,0.238c0.031,0.109,0.064,0.222,0.105,0.337
				C59.88,39.144,59.937,38.887,59.937,38.887z"/>
		</g>
		<path fill="#BE946B" d="M93.556,91.974L93.556,91.974H72.703H54.294H35.867H14.656h21.211h-5.234H10.039
			c1.865,2.292,3.906,4.431,6.105,6.401h19.723h18.428h18.418h18.053c2.199-1.971,4.24-4.109,6.105-6.401H93.556z"/>
		<polygon fill="#BE946B" points="35.867,91.974 35.867,91.974 37.033,91.974 		"/>
		<path fill="#BE946B" d="M65.533,96.942c-0.143,0-0.24-0.05-0.285-0.097C65.292,96.893,65.39,96.942,65.533,96.942L65.533,96.942z"
			/>
		<path fill="#BE946B" d="M66.158,96.509c-0.334,0-0.385,0.434-0.625,0.434l0,0C65.773,96.942,65.824,96.509,66.158,96.509z"/>
		<path fill="#BA202E" d="M59.093,74.305c-0.117,0-0.285-0.042-0.432-0.133h-0.484c-0.148,0.091-0.314,0.133-0.432,0.133
			c-0.23,0-0.389-0.059-0.498-0.133h-2.16l1.918,17.802h7.465l1.031-9.564c-0.209-0.128-0.254-0.314-0.254-0.314
			c0.045,0.046,0.141,0.094,0.277,0.095l0.078-0.715c-0.443-0.042-0.793-0.4-0.793-0.853c0-0.483,0.391-0.875,0.873-0.875
			c0.037,0,0.068,0.019,0.104,0.022l0.604-5.598h-6.803C59.48,74.246,59.324,74.305,59.093,74.305z"/>
		<g>
			<path fill="#BA202E" d="M59.093,74.305c0.23,0,0.387-0.059,0.494-0.133h-0.926C58.808,74.263,58.976,74.305,59.093,74.305z"/>
		</g>
		<g>
			<path fill="#BA202E" d="M57.746,74.305c0.117,0,0.283-0.042,0.432-0.133l0,0C58.029,74.263,57.863,74.305,57.746,74.305z"/>
		</g>
		<g>
			<path fill="#BA202E" d="M58.177,74.172h-0.93c0.109,0.074,0.268,0.133,0.498,0.133C57.863,74.305,58.029,74.263,58.177,74.172z"
				/>
		</g>
		<g>
			<path fill="#BA202E" d="M65.525,82.189L65.525,82.189c-0.137-0.001-0.232-0.049-0.277-0.095
				C65.292,82.141,65.388,82.188,65.525,82.189z"/>
		</g>
		<g>
			<path fill="#BA202E" d="M64.81,80.622c0,0.452,0.35,0.811,0.793,0.853l0.184-1.705c-0.035-0.004-0.066-0.022-0.104-0.022
				C65.201,79.747,64.81,80.139,64.81,80.622z"/>
		</g>
		<g>
			<path fill="#BA202E" d="M65.248,82.095c0,0,0.045,0.187,0.254,0.314l0.023-0.22C65.388,82.188,65.292,82.141,65.248,82.095z"/>
		</g>
		<g>
			<path fill="#BA202E" d="M57.314,88.721c-0.145,0-0.242-0.048-0.287-0.097C57.072,88.673,57.169,88.721,57.314,88.721
				L57.314,88.721z"/>
		</g>
		<g>
			<path fill="#BA202E" d="M57.732,88.354c-0.166,0.123-0.238,0.366-0.418,0.366l0,0C57.494,88.721,57.566,88.478,57.732,88.354z"/>
		</g>
		<g>
			<path fill="#FFFFFF" d="M64.347,73.079H60.98l-0.062,0.432l0.062-0.432h-1.049c-0.15,0.119-0.332,0.201-0.539,0.201
				c-0.205,0-0.385-0.082-0.535-0.201h-0.871c-0.148,0.113-0.324,0.192-0.523,0.192c-0.393,0-0.713-0.264-0.822-0.622h-1.553v1.522
				h2.16c-0.184-0.127-0.221-0.299-0.221-0.299c0.045,0.048,0.143,0.097,0.287,0.097c0.18,0,0.252-0.243,0.418-0.365
				c0.057-0.04,0.121-0.068,0.207-0.068c0.336,0,0.48,0.24,0.48,0.24s0.143-0.24,0.48-0.24c0.336,0,0.385,0.434,0.625,0.434
				c0.143,0,0.238-0.049,0.287-0.097c0,0-0.039,0.172-0.225,0.299h6.803v-1.522h-1.613C64.777,72.887,64.583,73.079,64.347,73.079z"
				/>
		</g>
		<g>
			<path fill="#FFFFFF" d="M58.419,73.921c-0.057,0.115-0.146,0.19-0.242,0.251h0.484C58.564,74.111,58.476,74.036,58.419,73.921z"
				/>
		</g>
		<g>
			<path fill="#FFFFFF" d="M57.314,73.97c-0.145,0-0.242-0.049-0.287-0.097C57.072,73.921,57.169,73.97,57.314,73.97L57.314,73.97z"
				/>
		</g>
		<g>
			<path fill="#FFFFFF" d="M58.417,73.776v0.145c-0.057,0.115-0.146,0.19-0.24,0.251l0,0c0.096-0.061,0.186-0.136,0.242-0.251
				c0.057,0.115,0.145,0.19,0.242,0.251h0.926c0.186-0.127,0.225-0.299,0.225-0.299c-0.049,0.048-0.145,0.097-0.287,0.097
				c-0.24,0-0.289-0.434-0.625-0.434c-0.338,0-0.48,0.24-0.48,0.24s-0.145-0.24-0.48-0.24
				C58.275,73.536,58.417,73.776,58.417,73.776z"/>
		</g>
		<g>
			<path fill="#FFFFFF" d="M57.462,73.271c0.199,0,0.375-0.079,0.523-0.192H57.13c-0.238,0-0.432-0.192-0.432-0.43H56.64
				C56.75,73.008,57.07,73.271,57.462,73.271z"/>
		</g>
		<g>
			<path fill="#FFFFFF" d="M59.392,73.28c0.207,0,0.389-0.082,0.539-0.201h-1.074C59.007,73.198,59.187,73.28,59.392,73.28z"/>
		</g>
		<g>
			<path fill="#FFFFFF" d="M57.732,73.604c-0.166,0.122-0.238,0.365-0.418,0.365l0,0C57.494,73.97,57.566,73.727,57.732,73.604z"/>
		</g>
		<g>
			<path fill="#FFFFFF" d="M58.417,73.921v-0.145c0,0-0.143-0.24-0.479-0.24c-0.086,0-0.15,0.028-0.207,0.068
				c-0.166,0.122-0.238,0.365-0.418,0.365l0,0l0,0c-0.145,0-0.242-0.049-0.287-0.097c0,0,0.037,0.172,0.221,0.299h0.93
				C58.271,74.111,58.361,74.036,58.417,73.921z"/>
		</g>
		<g>
			<path fill="#FFFFFF" d="M60.267,72.409c0,0.085-0.027,0.163-0.051,0.24h0.826l0.059-0.43h-0.873
				C60.242,72.283,60.267,72.342,60.267,72.409z"/>
		</g>
		<g>
			<path fill="#FFFFFF" d="M58.285,72.649h0.285c-0.023-0.077-0.047-0.155-0.047-0.24c0-0.067,0.023-0.126,0.037-0.189h-0.262
				c0.014,0.061,0.035,0.117,0.035,0.181C58.333,72.488,58.308,72.569,58.285,72.649z"/>
		</g>
		<g>
			<path fill="#FFFFFF" d="M64.777,72.649c0-0.236-0.193-0.43-0.43-0.43h-3.246l-0.059,0.43H64.777z"/>
		</g>
		<g>
			<path fill="#FFFFFF" d="M56.699,72.649h1.586c0.023-0.08,0.049-0.161,0.049-0.249c0-0.063-0.021-0.12-0.035-0.181H57.13
				C56.892,72.22,56.699,72.413,56.699,72.649z"/>
		</g>
		<g>
			<path fill="#FFFFFF" d="M58.57,72.649h1.646c0.023-0.077,0.051-0.155,0.051-0.24c0-0.067-0.025-0.126-0.039-0.189H58.56
				c-0.014,0.063-0.037,0.122-0.037,0.189C58.523,72.494,58.546,72.572,58.57,72.649z"/>
		</g>
		<g>
			<path fill="#FFFFFF" d="M58.57,72.649h-0.285c-0.055,0.174-0.158,0.32-0.299,0.43h0.871C58.718,72.97,58.623,72.823,58.57,72.649
				z"/>
		</g>
		<g>
			<path fill="#FFFFFF" d="M60.98,73.079h3.367c0.236,0,0.43-0.192,0.43-0.43h-3.734L60.98,73.079z"/>
		</g>
		<g>
			<path fill="#FFFFFF" d="M59.931,73.079h1.049l0.062-0.43h-0.826C60.166,72.823,60.068,72.97,59.931,73.079z"/>
		</g>
		<g>
			<path fill="#FFFFFF" d="M58.285,72.649h-1.586c0,0.237,0.193,0.43,0.432,0.43h0.855C58.126,72.97,58.23,72.823,58.285,72.649z"/>
		</g>
		<g>
			<path fill="#FFFFFF" d="M58.857,73.079h1.074c0.137-0.109,0.234-0.256,0.285-0.43H58.57
				C58.623,72.823,58.718,72.97,58.857,73.079z"/>
		</g>
		<g>
			<polygon fill="#FFFFFF" points="60.935,73.114 60.216,73.012 61.134,66.589 65.478,65.906 65.591,66.623 61.779,67.222 			"/>
		</g>
		<g>
			<g>
				<path fill="#A3A6A8" d="M44.871,58.927v0.145c-0.143,0.289-0.48,0.384-0.672,0.384c0.191,0,0.529-0.095,0.674-0.384
					c0.145,0.289,0.479,0.384,0.674,0.384c0.623,0,0.719-0.432,0.719-0.432c-0.047,0.048-0.145,0.096-0.287,0.096
					c-0.24,0-0.289-0.432-0.627-0.432c-0.334,0-0.479,0.239-0.479,0.239s-0.145-0.239-0.482-0.239
					C44.728,58.688,44.871,58.927,44.871,58.927z"/>
			</g>
			<g>
				<circle fill="#A3A6A8" cx="43.916" cy="57.55" r="0.872"/>
			</g>
			<g>
				<path fill="#A3A6A8" d="M45.845,58.431c0.482,0,0.875-0.392,0.875-0.874c0-0.479-0.393-0.871-0.875-0.871
					c-0.48,0-0.871,0.392-0.871,0.871C44.974,58.039,45.365,58.431,45.845,58.431z"/>
			</g>
			<g>
				<path fill="#A3A6A8" d="M44.871,59.071v-0.145c0,0-0.143-0.239-0.48-0.239c-0.082,0-0.148,0.027-0.205,0.065
					c-0.166,0.124-0.238,0.366-0.418,0.366l0,0h-0.002c-0.143,0-0.24-0.048-0.287-0.096c0,0,0.096,0.432,0.721,0.432
					C44.39,59.455,44.728,59.36,44.871,59.071z"/>
			</g>
		</g>
		<g>
			<g>
				<path fill="#A3A6A8" d="M50.943,67.194v0.145c-0.145,0.287-0.482,0.384-0.674,0.384c0.191,0,0.529-0.097,0.674-0.384
					c0.145,0.287,0.48,0.384,0.672,0.384c0.625,0,0.721-0.432,0.721-0.432c-0.049,0.048-0.145,0.095-0.289,0.095
					c-0.238,0-0.289-0.432-0.623-0.432C51.087,66.954,50.943,67.194,50.943,67.194s-0.145-0.24-0.482-0.24
					C50.798,66.954,50.943,67.194,50.943,67.194z"/>
			</g>
			<g>
				<circle fill="#A3A6A8" cx="49.986" cy="65.817" r="0.872"/>
			</g>
			<g>
				<path fill="#A3A6A8" d="M51.917,66.698c0.48,0,0.871-0.392,0.871-0.875c0-0.479-0.391-0.87-0.871-0.87
					c-0.482,0-0.873,0.392-0.873,0.87C51.044,66.307,51.435,66.698,51.917,66.698z"/>
			</g>
			<g>
				<path fill="#A3A6A8" d="M50.943,67.339v-0.145c0,0-0.145-0.24-0.482-0.24c-0.084,0-0.148,0.027-0.205,0.066
					c-0.166,0.124-0.238,0.365-0.42,0.365l0,0l0,0c-0.145,0-0.238-0.047-0.287-0.095c0,0,0.096,0.432,0.721,0.432
					C50.46,67.723,50.798,67.626,50.943,67.339z"/>
			</g>
		</g>
		<g>
			<g>
				<path fill="#A3A6A8" d="M44.701,76.096v0.145c-0.143,0.291-0.48,0.385-0.672,0.385c0.191,0,0.529-0.094,0.672-0.385
					c0.146,0.291,0.482,0.385,0.674,0.385c0.625,0,0.721-0.432,0.721-0.432c-0.047,0.047-0.145,0.097-0.289,0.097
					c-0.24,0-0.289-0.434-0.623-0.434C44.847,75.856,44.701,76.096,44.701,76.096s-0.143-0.239-0.48-0.239
					C44.558,75.856,44.701,76.096,44.701,76.096z"/>
			</g>
			<g>
				<circle fill="#A3A6A8" cx="43.746" cy="74.719" r="0.872"/>
			</g>
			<g>
				<circle fill="#A3A6A8" cx="45.677" cy="74.728" r="0.873"/>
			</g>
			<g>
				<path fill="#A3A6A8" d="M44.701,76.24v-0.145c0,0-0.143-0.239-0.48-0.239c-0.084,0-0.148,0.027-0.205,0.067
					c-0.166,0.123-0.238,0.366-0.42,0.366l0,0l0,0c-0.143,0-0.238-0.05-0.287-0.097c0,0,0.096,0.432,0.721,0.432
					C44.22,76.625,44.558,76.531,44.701,76.24z"/>
			</g>
		</g>
		<g>
			<g>
				<path fill="#A3A6A8" d="M40.402,86.827v0.143c-0.143,0.289-0.48,0.387-0.672,0.387c0.191,0,0.529-0.098,0.674-0.387
					c0.143,0.289,0.479,0.387,0.672,0.387c0.625,0,0.719-0.434,0.719-0.434c-0.047,0.047-0.145,0.097-0.285,0.097
					c-0.242,0-0.289-0.434-0.627-0.434c-0.336,0-0.479,0.241-0.479,0.241s-0.145-0.241-0.482-0.241
					C40.259,86.586,40.402,86.827,40.402,86.827z"/>
			</g>
			<g>
				<circle fill="#A3A6A8" cx="39.445" cy="85.45" r="0.871"/>
			</g>
			<g>
				<circle fill="#A3A6A8" cx="41.376" cy="85.458" r="0.872"/>
			</g>
			<g>
				<path fill="#A3A6A8" d="M40.402,86.97v-0.143c0,0-0.143-0.241-0.48-0.241c-0.084,0-0.15,0.027-0.207,0.067
					c-0.166,0.121-0.238,0.366-0.418,0.366l0,0l0,0c-0.145,0-0.24-0.05-0.289-0.097c0,0,0.098,0.434,0.723,0.434
					C39.921,87.356,40.259,87.259,40.402,86.97z"/>
			</g>
		</g>
		<g>
			<g>
				<path fill="#A3A6A8" d="M48.648,85.955V86.1c-0.145,0.289-0.48,0.384-0.674,0.384c0.193,0,0.529-0.095,0.674-0.384
					c0.145,0.289,0.48,0.384,0.674,0.384c0.623,0,0.721-0.434,0.721-0.434c-0.049,0.05-0.146,0.097-0.289,0.097
					c-0.24,0-0.289-0.432-0.625-0.432S48.648,85.955,48.648,85.955s-0.145-0.24-0.48-0.24
					C48.503,85.715,48.648,85.955,48.648,85.955z"/>
			</g>
			<g>
				<circle fill="#A3A6A8" cx="47.691" cy="84.578" r="0.872"/>
			</g>
			<g>
				<circle fill="#A3A6A8" cx="49.623" cy="84.586" r="0.873"/>
			</g>
			<g>
				<path fill="#A3A6A8" d="M48.648,86.1v-0.145c0,0-0.145-0.24-0.48-0.24c-0.084,0-0.15,0.026-0.207,0.066
					c-0.166,0.122-0.236,0.365-0.418,0.365l0,0l0,0c-0.145,0-0.238-0.047-0.289-0.097c0,0,0.098,0.434,0.721,0.434
					C48.167,86.483,48.503,86.389,48.648,86.1z"/>
			</g>
		</g>
		<path fill="#FFFFFF" d="M72.718,103.883v0.165l-0.15,5.239c6.773-2.46,12.932-6.196,18.197-10.912H72.712L72.718,103.883z"/>
		<g>
			<g>
				<path fill="#A3A6A8" d="M58.417,59.609v0.146c-0.143,0.287-0.479,0.382-0.672,0.382c0.193,0,0.529-0.095,0.674-0.382
					c0.143,0.287,0.48,0.382,0.674,0.382c0.623,0,0.719-0.434,0.719-0.434c-0.049,0.052-0.145,0.097-0.287,0.097
					c-0.24,0-0.289-0.432-0.625-0.432c-0.338,0-0.48,0.24-0.48,0.24s-0.145-0.24-0.48-0.24
					C58.275,59.369,58.417,59.609,58.417,59.609z"/>
			</g>
			<g>
				<circle fill="#A3A6A8" cx="57.462" cy="58.234" r="0.872"/>
			</g>
			<g>
				<path fill="#A3A6A8" d="M59.392,59.113c0.484,0,0.875-0.39,0.875-0.872c0-0.483-0.391-0.871-0.875-0.871
					c-0.48,0-0.869,0.388-0.869,0.871C58.523,58.724,58.912,59.113,59.392,59.113z"/>
			</g>
			<g>
				<path fill="#A3A6A8" d="M58.417,59.756v-0.146c0,0-0.143-0.24-0.479-0.24c-0.086,0-0.15,0.027-0.207,0.068
					c-0.166,0.12-0.238,0.363-0.418,0.363l0,0l0,0c-0.145,0-0.242-0.045-0.287-0.097c0,0,0.094,0.434,0.719,0.434
					C57.939,60.138,58.275,60.043,58.417,59.756z"/>
			</g>
		</g>
	</g>
</g>
</svg>
