<?xml version="1.0" encoding="utf-8"?>
<!-- Generator: Adobe Illustrator 16.0.0, SVG Export Plug-In . SVG Version: 6.00 Build 0)  -->
<!DOCTYPE svg PUBLIC "-//W3C//DTD SVG 1.1//EN" "http://www.w3.org/Graphics/SVG/1.1/DTD/svg11.dtd">
<svg version="1.1" id="Layer_1" xmlns="http://www.w3.org/2000/svg" xmlns:xlink="http://www.w3.org/1999/xlink" x="0px" y="0px"
	 width="37.333px" height="35.869px" viewBox="0 0 37.333 35.869" enable-background="new 0 0 37.333 35.869" xml:space="preserve">
<g>
	<g>
		<g>
			<circle fill="#414042" cx="18.185" cy="17.65" r="16.649"/>
		</g>
	</g>
	<g>
		<path fill="#FEFFFF" d="M24.876,14.594h-0.389v-1.871c0-0.012-0.001-0.023-0.003-0.035c-0.001-0.074-0.024-0.148-0.075-0.205
			l-3.114-3.559l-0.003-0.002c-0.019-0.021-0.04-0.037-0.063-0.053c-0.006-0.006-0.014-0.008-0.021-0.012
			c-0.02-0.012-0.04-0.021-0.062-0.027c-0.007-0.002-0.012-0.004-0.018-0.006c-0.023-0.006-0.048-0.008-0.072-0.008h-7.654
			c-0.35,0-0.634,0.283-0.634,0.633v5.145h-0.388c-0.499,0-0.905,0.404-0.905,0.906v4.708c0,0.5,0.406,0.906,0.905,0.906h0.388
			v3.223c0,0.35,0.284,0.633,0.634,0.633h10.451c0.351,0,0.634-0.283,0.634-0.633v-3.223h0.389c0.499,0,0.905-0.406,0.905-0.906
			V15.5C25.781,14.998,25.375,14.594,24.876,14.594z M13.402,9.449h7.338v3.242c0,0.174,0.142,0.316,0.316,0.316h2.797v1.586H13.402
			V9.449z M23.854,24.165H13.402v-3.051h10.451V24.165L23.854,24.165z"/>
	</g>
</g>
</svg>
