<?xml version="1.0" encoding="utf-8"?>
<!-- Generator: Adobe Illustrator 16.0.0, SVG Export Plug-In . SVG Version: 6.00 Build 0)  -->
<!DOCTYPE svg PUBLIC "-//W3C//DTD SVG 1.1//EN" "http://www.w3.org/Graphics/SVG/1.1/DTD/svg11.dtd">
<svg version="1.1" id="Layer_1" xmlns="http://www.w3.org/2000/svg" xmlns:xlink="http://www.w3.org/1999/xlink" x="0px" y="0px"
	 width="106.909px" height="26.288px" viewBox="0 0 106.909 26.288" enable-background="new 0 0 106.909 26.288"
	 xml:space="preserve">
<g>
	<path fill="#385B9B" d="M106.909,20.797c0,1.916-1.553,3.467-3.467,3.467H3.466C1.552,24.264,0,22.713,0,20.797V3.467
		C0,1.551,1.552,0,3.466,0h99.976c1.914,0,3.467,1.551,3.467,3.467V20.797z"/>
	<g>
		<g>
			<path fill="#FFFFFF" d="M11.675,20.569v-7.975h-2.63V9.847h2.63V6.862c0-1.789,1.621-2.99,2.93-2.99h2.943v2.5h-1.358
				c-0.67,0-1.562,0.543-1.562,1.211v2.264h2.654v2.748h-2.652v7.975"/>
			<path fill="#FFFFFF" d="M14.514,20.685v-8.205h2.652V9.962h-2.652V7.583c0-0.713,0.921-1.326,1.677-1.326h1.242V3.989h-2.828
				c-1.177,0-2.815,1.094-2.815,2.873v3.1H9.16v2.518h2.629v8.205 M11.56,20.454v-7.746H8.93V9.731h2.63V6.862
				c0-1.777,1.606-3.105,3.045-3.105h3.059v2.732H16.19c-0.638,0-1.446,0.516-1.446,1.094v2.148h2.65v2.977h-2.65v7.746"/>
		</g>
	</g>
	<text transform="matrix(1 0 0 1 34.4863 16.6475)" fill="#FFFFFF" font-family="'Lato-Bold'" font-size="13.2645">facebook</text>
	<line fill="#FFFFFF" stroke="#FFFFFF" stroke-miterlimit="10" x1="25.355" y1="3.815" x2="25.355" y2="20.628"/>
</g>
</svg>
