<?xml version="1.0" encoding="utf-8"?>
<!-- Generator: Adobe Illustrator 15.0.0, SVG Export Plug-In . SVG Version: 6.00 Build 0)  -->
<!DOCTYPE svg PUBLIC "-//W3C//DTD SVG 1.1//EN" "http://www.w3.org/Graphics/SVG/1.1/DTD/svg11.dtd">
<svg version="1.1" id="Layer_1" xmlns="http://www.w3.org/2000/svg" xmlns:xlink="http://www.w3.org/1999/xlink" x="0px" y="0px"
	 width="38px" height="38.667px" viewBox="0 0 38 38.667" enable-background="new 0 0 38 38.667" xml:space="preserve">
<g>
	<g>
		<g>
			<circle fill="#F15D22" cx="19.265" cy="18.529" r="16.649"/>
		</g>
	</g>
	<g>
		<path fill="#FFFFFF" d="M27.199,24.716c0,1.688-1.369,3.057-3.059,3.057c-1.688,0-3.059-1.369-3.059-3.057
			c0-0.221,0.025-0.434,0.07-0.641L14.203,20.6c-0.561,0.644-1.375,1.058-2.294,1.058c-1.689,0-3.059-1.369-3.059-3.057
			c0-1.689,1.369-3.059,3.059-3.059c0.919,0,1.733,0.414,2.294,1.055l6.947-3.475c-0.043-0.205-0.068-0.42-0.068-0.639
			c0-1.689,1.369-3.059,3.059-3.059c1.688,0,3.059,1.369,3.059,3.059s-1.369,3.059-3.059,3.059c-0.918,0-1.732-0.414-2.293-1.057
			l-6.95,3.475c0.044,0.207,0.068,0.42,0.068,0.641c0,0.219-0.024,0.432-0.068,0.639l6.95,3.474
			c0.561-0.643,1.375-1.057,2.293-1.057C25.83,21.658,27.199,23.027,27.199,24.716z"/>
	</g>
</g>
</svg>
