<?xml version="1.0" encoding="utf-8"?>
<!-- Generator: Adobe Illustrator 17.0.0, SVG Export Plug-In . SVG Version: 6.00 Build 0)  -->
<!DOCTYPE svg PUBLIC "-//W3C//DTD SVG 1.1//EN" "http://www.w3.org/Graphics/SVG/1.1/DTD/svg11.dtd">
<svg version="1.1" id="Layer_1" xmlns="http://www.w3.org/2000/svg" xmlns:xlink="http://www.w3.org/1999/xlink" x="0px" y="0px"
	 width="38px" height="38.9px" viewBox="0 0 38 38.9" enable-background="new 0 0 38 38.9" xml:space="preserve">
<g>
	<g>
		<circle fill="#3F3E3E" cx="19.082" cy="20.651" r="16.649"/>
	</g>
</g>
<g>
	<path fill="#FFFFFF" d="M27.311,12.188H11.256c-0.36,0-0.655,0.297-0.655,0.656V28.68c0,0.359,0.295,0.655,0.655,0.655h16.055
		c0.36,0,0.655-0.296,0.655-0.655V12.844C27.966,12.485,27.671,12.188,27.311,12.188z M26.117,25.165H12.258V13.956h13.859V25.165z"
		/>
	<circle fill="#FFFFFF" cx="14.929" cy="16.817" r="1.925"/>
	<path fill="#FFFFFF" d="M15.299,21.384l-1.806,2.129c-0.449,0.529-0.249,0.963,0.446,0.963h10.343c0.694,0,0.985-0.497,0.646-1.104
		l-3.118-5.577c-0.339-0.604-0.917-0.619-1.286-0.03l-1.812,2.895c-0.369,0.59-1.104,0.776-1.633,0.416
		C16.549,20.714,15.75,20.854,15.299,21.384z"/>
</g>
</svg>
