<?xml version="1.0" encoding="utf-8"?>
<!-- Generator: Adobe Illustrator 15.0.0, SVG Export Plug-In . SVG Version: 6.00 Build 0)  -->
<!DOCTYPE svg PUBLIC "-//W3C//DTD SVG 1.1//EN" "http://www.w3.org/Graphics/SVG/1.1/DTD/svg11.dtd">
<svg version="1.1" id="Layer_1" xmlns="http://www.w3.org/2000/svg" xmlns:xlink="http://www.w3.org/1999/xlink" x="0px" y="0px"
	 width="38px" height="38.9px" viewBox="0 0 38 38.9" enable-background="new 0 0 38 38.9" xml:space="preserve">
<g>
	<g>
		<circle fill="#404041" cx="19.188" cy="20.663" r="16.837"/>
	</g>
</g>
<path fill="#FFFFFF" d="M28.769,13.721h-5.187v-0.639c0-1.097-0.893-1.989-1.988-1.989h-4.406c-1.097,0-1.99,0.892-1.99,1.989v0.639
	h-5.186c-0.785,0-1.421,0.636-1.421,1.42v11.861c0,0.784,0.636,1.422,1.421,1.422h18.756c0.785,0,1.423-0.638,1.423-1.422V15.141
	C30.189,14.357,29.554,13.721,28.769,13.721z M16.335,13.082c0-0.471,0.382-0.852,0.852-0.852h4.406c0.47,0,0.852,0.381,0.852,0.852
	v0.639h-6.11V13.082z"/>
<g>
	<g id="Layer_2_227_">
		<g>
			<path fill="#404041" d="M16.039,24.384c-3.307,0-3.87-2.356-3.881-2.382l-0.213-0.984l0.707,0.717
				c0.096,0.09,0.457,0.39,1.234,0.39c0.402,0,0.695-0.382,1.039-0.822c0.454-0.598,1.017-1.332,2.073-1.332
				c1.818,0,2.61,1.284,2.642,1.339l0.011,1c-0.096,0.192-0.208,0.375-0.34,0.54C18.492,23.912,17.074,24.384,16.039,24.384z"/>
		</g>
	</g>
	<g id="Layer_2_226_">
		<g>
			<path fill="#404041" d="M22.738,24.384c-0.887,0-2.79-0.431-3.607-2.075l-0.033-0.064v-0.868l0.042-0.067
				c0.034-0.055,0.819-1.339,2.644-1.339c1.054,0,1.617,0.734,2.068,1.332c0.342,0.44,0.636,0.822,1.041,0.822
				c0.776,0,1.139-0.3,1.23-0.39l0.711-0.717l-0.217,0.984C26.616,22.027,26.05,24.384,22.738,24.384z"/>
		</g>
	</g>
</g>
</svg>
