<?xml version="1.0" encoding="utf-8"?>
<!-- Generator: Adobe Illustrator 16.0.0, SVG Export Plug-In . SVG Version: 6.00 Build 0)  -->
<!DOCTYPE svg PUBLIC "-//W3C//DTD SVG 1.1//EN" "http://www.w3.org/Graphics/SVG/1.1/DTD/svg11.dtd">
<svg version="1.1" id="Layer_1" xmlns="http://www.w3.org/2000/svg" xmlns:xlink="http://www.w3.org/1999/xlink" x="0px" y="0px"
	 width="43.721px" height="45.958px" viewBox="0 0 43.721 45.958" enable-background="new 0 0 43.721 45.958" xml:space="preserve">
<circle opacity="0.3" fill="#414042" cx="19.603" cy="26.354" r="19.603"/>
<path fill="#FFFFFF" d="M29.357,17.876H9.848c-0.193,0-0.357,0.059-0.486,0.186c-0.145,0.129-0.213,0.299-0.213,0.516v2.182
	c0,0.105,0.035,0.166,0.119,0.166l10.256,5.844l0.078,0.041c0.057,0,0.092-0.014,0.123-0.041l9.92-5.844
	c0.053-0.027,0.102-0.039,0.102-0.039c0.055,0,0.092-0.021,0.143-0.049c0.113,0,0.166-0.053,0.166-0.162v-2.098
	c0-0.217-0.066-0.387-0.207-0.516C29.709,17.935,29.549,17.876,29.357,17.876L29.357,17.876z M15.357,26.646
	c0.031-0.025,0.047-0.068,0.047-0.121c0-0.09-0.027-0.127-0.082-0.127l-5.881-3.375c-0.08-0.027-0.158-0.027-0.205,0
	c-0.062,0-0.088,0.041-0.088,0.127v8.848c0,0.08,0.035,0.133,0.119,0.16h0.094c0.055,0,0.08-0.016,0.08-0.041L15.357,26.646z
	 M22.525,27.306c-0.031-0.088-0.104-0.098-0.207-0.043l-2.27,1.322c-0.27,0.16-0.557,0.16-0.859,0l-1.971-1.115
	c-0.084-0.059-0.162-0.059-0.211,0l-7.529,6.998c-0.025,0.027-0.037,0.078-0.037,0.162c0,0.023,0.027,0.072,0.078,0.125
	c0.166,0.055,0.273,0.078,0.328,0.078H29.15c0.059,0,0.104-0.023,0.166-0.078c0-0.109-0.016-0.18-0.041-0.209L22.525,27.306z
	 M29.93,22.854h-0.158L24.17,26.19c-0.057,0-0.076,0.049-0.076,0.123c-0.031,0.027-0.016,0.068,0.037,0.121l5.592,6.055
	c0.059,0.055,0.1,0.08,0.125,0.08h0.082c0.084-0.08,0.125-0.137,0.125-0.156v-9.391C30.055,22.972,30.014,22.913,29.93,22.854
	L29.93,22.854z M29.93,22.854"/>
</svg>
