<?xml version="1.0" encoding="utf-8"?>
<!-- Generator: Adobe Illustrator 17.0.0, SVG Export Plug-In . SVG Version: 6.00 Build 0)  -->
<!DOCTYPE svg PUBLIC "-//W3C//DTD SVG 1.1//EN" "http://www.w3.org/Graphics/SVG/1.1/DTD/svg11.dtd">
<svg version="1.1" id="Layer_1" xmlns="http://www.w3.org/2000/svg" xmlns:xlink="http://www.w3.org/1999/xlink" x="0px" y="0px"
	 width="38px" height="40.25px" viewBox="0 0 38 40.25" enable-background="new 0 0 38 40.25" xml:space="preserve">
<g>
	<g>
		<circle fill="#3F3E3E" cx="18.536" cy="20.59" r="16.649"/>
	</g>
</g>
<g>
	<g>
		<g>
			<path fill="#FFFFFF" d="M18.537,21.35c-3.214,0-5.897-2.855-6.115-6.502c-0.008-0.158-0.012-0.314-0.012-0.475
				c0-3.85,2.748-6.981,6.127-6.981c3.378,0,6.126,3.131,6.126,6.981c0,0.131-0.003,0.26-0.008,0.389
				C24.476,18.459,21.789,21.35,18.537,21.35z M12.764,14.922c0.246,3.426,2.766,6.094,5.773,6.094c3.021,0,5.524-2.662,5.769-6.094
				l-0.814,0.006l-0.003-0.254c-0.03-1.877-1.135-3.584-2.829-4.387c-0.454,0.789-1.13,1.512-1.958,2.098
				c-1.717,1.213-3.717,1.566-4.876,0.891c-0.164,0.514-0.247,1-0.247,1.484v0.168L12.764,14.922z"/>
		</g>
		<g>
			<path fill="#FFFFFF" d="M25.777,31.707H11.296c-0.878,0-1.591-0.715-1.591-1.59v-4.359c0-1.678,1.362-3.039,3.04-3.039h2.972
				l2.82,4.228l2.819-4.228h2.973c1.674,0,3.038,1.361,3.038,3.039v4.359C27.367,30.992,26.653,31.707,25.777,31.707z"/>
		</g>
	</g>
	<g>
		<g id="Layer_2_4_">
			<g>
				<path fill="#FFFFFF" d="M17.054,19.492c-1.582,0-1.849-1.127-1.854-1.139l-0.101-0.471l0.337,0.342
					c0.046,0.043,0.218,0.188,0.589,0.188c0.192,0,0.332-0.184,0.497-0.395c0.218-0.285,0.486-0.635,0.991-0.635
					c0.867,0,1.247,0.613,1.263,0.639l0.003,0.478c-0.043,0.092-0.098,0.18-0.161,0.258C18.226,19.266,17.548,19.492,17.054,19.492z
					"/>
			</g>
		</g>
		<g id="Layer_2_3_">
			<g>
				<path fill="#FFFFFF" d="M20.257,19.492c-0.426,0-1.335-0.207-1.727-0.992l-0.016-0.031v-0.414l0.021-0.033
					c0.017-0.025,0.393-0.639,1.265-0.639c0.503,0,0.773,0.35,0.989,0.635c0.162,0.211,0.303,0.395,0.497,0.395
					c0.37,0,0.544-0.145,0.588-0.188l0.34-0.342l-0.104,0.471C22.106,18.366,21.838,19.492,20.257,19.492z"/>
			</g>
		</g>
	</g>
</g>
</svg>
