<?xml version="1.0" encoding="utf-8"?>
<!-- Generator: Adobe Illustrator 15.0.0, SVG Export Plug-In . SVG Version: 6.00 Build 0)  -->
<!DOCTYPE svg PUBLIC "-//W3C//DTD SVG 1.1//EN" "http://www.w3.org/Graphics/SVG/1.1/DTD/svg11.dtd">
<svg version="1.1" id="Layer_1" xmlns="http://www.w3.org/2000/svg" xmlns:xlink="http://www.w3.org/1999/xlink" x="0px" y="0px"
	 width="34.417px" height="34.334px" viewBox="0 0 34.417 34.334" enable-background="new 0 0 34.417 34.334" xml:space="preserve">
<g>
	<g>
		<path fill="#386A99" d="M17.431,0.358c-9.382,0-16.988,7.606-16.988,16.987s7.606,16.989,16.988,16.989
			c9.381,0,16.986-7.607,16.986-16.989C34.418,7.961,26.812,0.358,17.431,0.358z M13.184,25.574H8.937V10.708h4.247V25.574z
			 M11.192,9.799c-1.1,0-1.989-0.891-1.989-1.992c0-1.1,0.892-1.992,1.989-1.992c1.101,0.002,1.992,0.894,1.992,1.992
			C13.184,8.907,12.292,9.799,11.192,9.799z M28.048,25.574H23.8v-9.19c0-1.076-0.309-1.831-1.631-1.831
			c-2.191,0-2.615,1.831-2.615,1.831v9.19h-4.247V10.708h4.247v1.421c0.606-0.464,2.123-1.417,4.246-1.417
			c1.377,0,4.248,0.824,4.248,5.801V25.574z"/>
	</g>
</g>
</svg>
