<?xml version="1.0" encoding="utf-8"?>
<!-- Generator: Adobe Illustrator 16.0.0, SVG Export Plug-In . SVG Version: 6.00 Build 0)  -->
<!DOCTYPE svg PUBLIC "-//W3C//DTD SVG 1.1//EN" "http://www.w3.org/Graphics/SVG/1.1/DTD/svg11.dtd">
<svg version="1.1" id="Layer_1" xmlns="http://www.w3.org/2000/svg" xmlns:xlink="http://www.w3.org/1999/xlink" x="0px" y="0px"
	 width="38px" height="38.667px" viewBox="0 0 38 38.667" enable-background="new 0 0 38 38.667" xml:space="preserve">
<g>
	<g>
		<g>
			<circle fill="#404041" cx="19.023" cy="19.465" r="16.649"/>
		</g>
	</g>
	<g>
		<g>
			<g>
				<polygon fill="#FFFFFF" points="22.014,28.275 26.031,25.957 30.046,23.636 26.031,21.318 22.014,18.998 22.014,22.966 
					10.142,22.966 10.142,24.306 22.014,24.306 				"/>
				<g>
					<path fill="#FFFFFF" d="M22.218,28.359c2.679-1.547,5.356-3.092,8.033-4.639c0.097-0.057,0.198-0.16,0.066-0.236
						c-2.678-1.547-5.355-3.094-8.033-4.638c-0.156-0.09-0.608,0.033-0.608,0.244c0,1.265,0,2.531,0,3.796
						c0-0.145,0.604-0.094-0.479-0.094c-0.785,0-1.571,0-2.357,0c-2.854,0-5.708,0-8.562,0c-0.147,0-0.474,0.072-0.474,0.264
						c0,0.447,0,0.895,0,1.34c0,0.078,0.158,0.086,0.202,0.086c2.854,0,5.708,0,8.562,0c1.081,0,2.162,0,3.244,0
						c-0.271,0-0.137,3.432-0.137,3.883c0,0.184,0.675,0.062,0.675-0.18c0-1.322,0-2.646,0-3.969c0-0.078-0.158-0.084-0.202-0.084
						c-1.578,0-11.67,0.266-11.67-0.264c0-1.053-0.605-0.727,0.966-0.727c1.37,0,2.741,0,4.11,0c2.107,0,4.216,0,6.323,0
						c0.147,0,0.473-0.072,0.473-0.266c0-0.904,0-1.809,0-2.713c0-1.371-0.778-1.109,0.433-0.41c1.773,1.023,3.546,2.046,5.317,3.07
						c0.63,0.363,1.92,0.625,1.234,1.021c-1.001,0.578-2.001,1.156-3.002,1.734c-1.508,0.871-3.017,1.742-4.524,2.611
						C21.415,28.419,22.019,28.474,22.218,28.359z"/>
				</g>
			</g>
		</g>
		<g>
			<g>
				<polygon fill="#FFFFFF" points="16.346,10.652 12.328,12.973 8.313,15.291 12.328,17.611 16.346,19.929 16.346,15.963 
					28.218,15.963 28.218,14.623 16.346,14.623 				"/>
				<g>
					<path fill="#FFFFFF" d="M16.143,10.574c-2.678,1.547-5.355,3.094-8.033,4.639c-0.095,0.057-0.199,0.154-0.068,0.229
						c2.678,1.547,5.355,3.094,8.033,4.638c0.15,0.086,0.609-0.037,0.609-0.24c0-1.265,0-2.531,0-3.796
						c0,0.135-0.606,0.088,0.478,0.088c0.786,0,1.571,0,2.357,0c2.854,0,5.708,0,8.562,0c0.141,0,0.475-0.072,0.475-0.26
						c0-0.445,0-0.893,0-1.338c0-0.076-0.159-0.08-0.2-0.08c-2.854,0-5.708,0-8.562,0c-1.081,0-2.163,0-3.244,0
						c0.267,0,0.135-3.443,0.135-3.891c0-0.17-0.675-0.055-0.675,0.182c0,1.322,0,2.646,0,3.969c0,0.074,0.159,0.078,0.2,0.078
						c1.582,0,11.672-0.271,11.672,0.27c0,1.057,0.61,0.732-0.966,0.732c-1.369,0-2.739,0-4.108,0c-2.108,0-4.216,0-6.323,0
						c-0.141,0-0.475,0.072-0.475,0.26c0,0.904,0,1.809,0,2.713c0,1.369,0.78,1.113-0.432,0.414
						c-1.773-1.023-3.546-2.047-5.317-3.07c-0.615-0.355-1.929-0.633-1.236-1.033c1.001-0.578,2.001-1.154,3.002-1.734
						c1.508-0.869,3.016-1.74,4.524-2.609C16.942,10.504,16.336,10.465,16.143,10.574z"/>
				</g>
			</g>
		</g>
	</g>
</g>
</svg>
