<?xml version="1.0" encoding="utf-8"?>
<!-- Generator: Adobe Illustrator 16.0.0, SVG Export Plug-In . SVG Version: 6.00 Build 0)  -->
<!DOCTYPE svg PUBLIC "-//W3C//DTD SVG 1.1//EN" "http://www.w3.org/Graphics/SVG/1.1/DTD/svg11.dtd">
<svg version="1.1" id="Layer_1" xmlns="http://www.w3.org/2000/svg" xmlns:xlink="http://www.w3.org/1999/xlink" x="0px" y="0px"
	 width="106.909px" height="26.288px" viewBox="0 0 106.909 26.288" enable-background="new 0 0 106.909 26.288"
	 xml:space="preserve">
<g>
	<path fill="#39699A" d="M106.91,20.797c0,1.916-1.553,3.467-3.467,3.467H3.466C1.552,24.264,0,22.713,0,20.797V3.467
		C0,1.551,1.552,0,3.466,0h99.977c1.914,0,3.467,1.551,3.467,3.467V20.797z"/>
	<text transform="matrix(1 0 0 1 41.0811 16.6494)" fill="#FFFFFF" font-family="'Lato-Bold'" font-size="13.2645">Linkedin</text>
	<line fill="#FFFFFF" stroke="#FFFFFF" stroke-miterlimit="10" x1="34.023" y1="3.726" x2="34.023" y2="20.538"/>
	<path id="LinkedIn__x28_alt_x29__4_" fill="#F7F9F9" d="M13.296,20.54H9.5V9.194h3.797V20.54z M11.398,7.645h-0.023
		c-1.275,0-2.1-0.872-2.1-1.961c0-1.111,0.85-1.96,2.146-1.96c1.301,0,2.098,0.847,2.123,1.96
		C13.544,6.774,12.722,7.645,11.398,7.645z M26.984,20.54h-3.797v-6.07c0-1.525-0.549-2.566-1.922-2.566
		c-1.051,0-1.674,0.702-1.947,1.381c-0.102,0.241-0.127,0.58-0.127,0.919v6.337h-3.795c0,0,0.051-10.281,0-11.346h3.795v1.608
		c0.504-0.772,1.404-1.876,3.42-1.876c2.498,0,4.373,1.621,4.373,5.108V20.54z M19.167,10.839c0.006-0.012,0.016-0.023,0.023-0.035
		v0.035H19.167z"/>
</g>
</svg>
