<?xml version="1.0" encoding="utf-8"?>
<!-- Generator: Adobe Illustrator 17.0.0, SVG Export Plug-In . SVG Version: 6.00 Build 0)  -->
<!DOCTYPE svg PUBLIC "-//W3C//DTD SVG 1.1//EN" "http://www.w3.org/Graphics/SVG/1.1/DTD/svg11.dtd">
<svg version="1.1" id="Layer_1" xmlns="http://www.w3.org/2000/svg" xmlns:xlink="http://www.w3.org/1999/xlink" x="0px" y="0px"
	 width="38px" height="38.667px" viewBox="0 0 38 38.667" enable-background="new 0 0 38 38.667" xml:space="preserve">
<g>
	<g>
		<circle fill="#3F3E3E" cx="18.515" cy="18.895" r="16.649"/>
	</g>
</g>
<g>
	<path fill="#FFFFFF" stroke="#FFFFFF" stroke-miterlimit="10" d="M13.544,11.967c0.28-0.261,0.582-0.508,0.925-0.742
		c0.335-0.234,0.704-0.437,1.101-0.62c0.396-0.173,0.83-0.318,1.289-0.416c0.466-0.105,0.963-0.157,1.497-0.157
		c0.707,0,1.364,0.102,1.969,0.309c0.607,0.204,1.131,0.499,1.569,0.873c0.438,0.375,0.779,0.836,1.03,1.37
		c0.253,0.542,0.377,1.142,0.377,1.815c0,0.681-0.1,1.269-0.301,1.758c-0.201,0.497-0.457,0.93-0.764,1.297
		c-0.312,0.375-0.646,0.697-1.021,0.975c-0.367,0.27-0.705,0.526-1.023,0.768c-0.314,0.24-0.588,0.489-0.82,0.729
		c-0.229,0.239-0.363,0.51-0.394,0.804l-0.246,2.054h-1.638l-0.159-2.225v-0.151c0-0.375,0.103-0.71,0.3-0.999
		c0.202-0.294,0.457-0.567,0.767-0.824c0.31-0.253,0.639-0.51,0.994-0.763c0.356-0.259,0.687-0.542,0.998-0.845
		c0.309-0.313,0.561-0.664,0.766-1.056c0.203-0.397,0.3-0.861,0.3-1.401c0-0.386-0.075-0.732-0.224-1.046
		c-0.156-0.318-0.362-0.58-0.623-0.802c-0.259-0.221-0.566-0.386-0.92-0.506c-0.354-0.112-0.734-0.172-1.138-0.172
		c-0.547,0-1.011,0.063-1.399,0.198c-0.395,0.139-0.72,0.285-0.994,0.444c-0.262,0.159-0.483,0.311-0.648,0.445
		c-0.168,0.134-0.305,0.199-0.409,0.199c-0.228,0-0.401-0.105-0.528-0.304L13.544,11.967z M16.185,28.029
		c0-0.235,0.034-0.451,0.123-0.659c0.087-0.208,0.201-0.388,0.35-0.538c0.149-0.153,0.326-0.27,0.535-0.359
		c0.199-0.092,0.422-0.139,0.656-0.139c0.234,0,0.45,0.047,0.654,0.139c0.209,0.09,0.389,0.206,0.543,0.359
		c0.148,0.15,0.269,0.33,0.35,0.538c0.089,0.208,0.133,0.424,0.133,0.659c0,0.238-0.044,0.463-0.133,0.666
		c-0.081,0.202-0.201,0.38-0.35,0.53c-0.154,0.149-0.334,0.27-0.543,0.355c-0.204,0.09-0.42,0.126-0.654,0.126
		c-0.234,0-0.457-0.036-0.656-0.126c-0.209-0.086-0.386-0.206-0.535-0.355c-0.149-0.15-0.263-0.328-0.35-0.53
		C16.219,28.492,16.185,28.267,16.185,28.029z"/>
</g>
</svg>
