<?xml version="1.0" encoding="utf-8"?>
<!-- Generator: Adobe Illustrator 15.0.0, SVG Export Plug-In . SVG Version: 6.00 Build 0)  -->
<!DOCTYPE svg PUBLIC "-//W3C//DTD SVG 1.1//EN" "http://www.w3.org/Graphics/SVG/1.1/DTD/svg11.dtd">
<svg version="1.1" id="Layer_1" xmlns="http://www.w3.org/2000/svg" xmlns:xlink="http://www.w3.org/1999/xlink" x="0px" y="0px"
	 width="37.333px" height="35.869px" viewBox="0 0 37.333 35.869" enable-background="new 0 0 37.333 35.869" xml:space="preserve">
<g>
	<g>
		<g>
			<circle fill="#414042" cx="18.185" cy="17.65" r="16.649"/>
		</g>
	</g>
</g>
<path fill="#FFFFFF" d="M25.334,11.388H11.038c-0.142,0-0.262,0.043-0.356,0.136c-0.107,0.094-0.156,0.22-0.156,0.379v1.599
	c0,0.077,0.025,0.122,0.087,0.122l7.517,4.284l0.057,0.03c0.041,0,0.067-0.011,0.09-0.03l7.27-4.284
	c0.038-0.019,0.074-0.028,0.074-0.028c0.04,0,0.067-0.016,0.104-0.036c0.083,0,0.122-0.039,0.122-0.119v-1.537
	c0-0.159-0.049-0.284-0.152-0.378C25.591,11.432,25.475,11.388,25.334,11.388L25.334,11.388z M15.073,17.815
	c0.023-0.018,0.035-0.05,0.035-0.088c0-0.066-0.019-0.094-0.059-0.094l-4.311-2.474c-0.058-0.019-0.116-0.019-0.151,0
	c-0.045,0-0.063,0.03-0.063,0.093v6.485c0,0.06,0.024,0.097,0.087,0.117h0.069c0.041,0,0.058-0.012,0.058-0.029L15.073,17.815z
	 M20.327,18.298c-0.021-0.063-0.076-0.071-0.152-0.03l-1.664,0.969c-0.196,0.117-0.406,0.117-0.628,0l-1.445-0.818
	c-0.061-0.043-0.119-0.043-0.155,0l-5.519,5.129c-0.018,0.02-0.026,0.057-0.026,0.119c0,0.018,0.02,0.054,0.057,0.091
	c0.123,0.042,0.2,0.058,0.241,0.058H25.18c0.044,0,0.077-0.017,0.122-0.058c0-0.079-0.012-0.13-0.029-0.153L20.327,18.298z
	 M25.755,15.037h-0.116l-4.106,2.443c-0.042,0-0.056,0.036-0.056,0.091c-0.022,0.021-0.011,0.051,0.027,0.089l4.099,4.437
	c0.044,0.04,0.073,0.059,0.091,0.059h0.061c0.062-0.059,0.091-0.1,0.091-0.115v-6.882C25.846,15.122,25.817,15.08,25.755,15.037
	L25.755,15.037z"/>
</svg>
