<?xml version="1.0" encoding="utf-8"?>
<!-- Generator: Adobe Illustrator 16.0.0, SVG Export Plug-In . SVG Version: 6.00 Build 0)  -->
<!DOCTYPE svg PUBLIC "-//W3C//DTD SVG 1.1//EN" "http://www.w3.org/Graphics/SVG/1.1/DTD/svg11.dtd">
<svg version="1.1" id="Layer_1" xmlns="http://www.w3.org/2000/svg" xmlns:xlink="http://www.w3.org/1999/xlink" x="0px" y="0px"
	 width="106.909px" height="26.288px" viewBox="0 0 106.909 26.288" enable-background="new 0 0 106.909 26.288"
	 xml:space="preserve">
<g>
	<path fill="#01B0E6" d="M106.909,20.509c0,1.916-1.553,3.467-3.466,3.467H3.466C1.552,23.976,0,22.425,0,20.509V3.179
		c0-1.916,1.552-3.467,3.466-3.467h99.977c1.913,0,3.466,1.551,3.466,3.467V20.509z"/>
	<text transform="matrix(1 0 0 1 41.0815 16.3604)" fill="#FFFFFF" font-family="'Lato-Bold'" font-size="13.2645">tweeter</text>
	<line fill="#FFFFFF" stroke="#FFFFFF" stroke-miterlimit="10" x1="34.024" y1="3.438" x2="34.024" y2="20.25"/>
	<path fill="#FFFFFF" d="M27.757,5.673c-0.731,0.324-1.519,0.545-2.346,0.643c0.844-0.508,1.491-1.307,1.797-2.26
		c-0.79,0.469-1.664,0.807-2.595,0.99c-0.744-0.793-1.807-1.289-2.98-1.289c-2.255,0-4.082,1.828-4.082,4.082
		c0,0.322,0.035,0.633,0.104,0.934c-3.394-0.172-6.402-1.797-8.417-4.27C8.888,5.106,8.687,5.808,8.687,6.558
		c0,1.416,0.722,2.666,1.817,3.398c-0.671-0.021-1.3-0.205-1.851-0.512C8.652,9.46,8.652,9.479,8.652,9.495
		c0,1.979,1.409,3.631,3.277,4.004c-0.343,0.094-0.704,0.145-1.076,0.145c-0.263,0-0.519-0.027-0.769-0.074
		c0.521,1.621,2.027,2.801,3.815,2.836c-1.397,1.096-3.158,1.748-5.072,1.748c-0.329,0-0.654-0.02-0.973-0.057
		c1.807,1.16,3.953,1.834,6.26,1.834c7.51,0,11.618-6.223,11.618-11.619c0-0.178-0.004-0.354-0.013-0.529
		C26.517,7.21,27.209,6.491,27.757,5.673z"/>
</g>
</svg>
