<?xml version="1.0" encoding="utf-8"?>
<!-- Generator: Adobe Illustrator 16.0.0, SVG Export Plug-In . SVG Version: 6.00 Build 0)  -->
<!DOCTYPE svg PUBLIC "-//W3C//DTD SVG 1.1//EN" "http://www.w3.org/Graphics/SVG/1.1/DTD/svg11.dtd">
<svg version="1.1" id="Layer_1" xmlns="http://www.w3.org/2000/svg" xmlns:xlink="http://www.w3.org/1999/xlink" x="0px" y="0px"
	 width="127.027px" height="116.217px" viewBox="0 0 127.027 116.217" enable-background="new 0 0 127.027 116.217"
	 xml:space="preserve">
<circle fill="#FFFFFF" cx="61.867" cy="57.346" r="45.262"/>
<g enable-background="new    ">
	<path fill="#F15D22" d="M58.054,91.146c-3.269,0-6.205-0.516-8.807-1.544c-2.603-1.028-4.782-2.436-6.537-4.222
		c-1.756-1.785-3.103-3.843-4.041-6.174c-0.939-2.33-1.407-4.797-1.407-7.4c0-2.299,0.348-4.403,1.044-6.31
		c0.695-1.907,1.634-3.616,2.814-5.13c1.18-1.513,2.497-2.814,3.95-3.904c1.453-1.09,2.965-1.997,4.54-2.724
		c-0.908-1.09-1.802-2.209-2.679-3.359c-0.878-1.149-1.665-2.375-2.36-3.678c-0.697-1.301-1.257-2.678-1.68-4.131
		c-0.424-1.453-0.636-3.056-0.636-4.812c0-2.48,0.438-4.676,1.316-6.582c0.877-1.907,2.057-3.525,3.541-4.857
		c1.483-1.331,3.223-2.33,5.221-2.996s4.116-0.999,6.356-0.999c2.481,0,4.645,0.333,6.492,0.999
		c1.846,0.666,3.389,1.468,4.631,2.405c1.239,0.939,2.163,1.907,2.769,2.906c0.604,0.998,0.908,1.802,0.908,2.405
		c0,0.788-0.272,1.438-0.817,1.952c-0.545,0.516-1.211,0.772-1.998,0.772c-0.605,0-1.166-0.332-1.68-0.999
		c-0.514-0.665-1.166-1.407-1.951-2.225c-0.787-0.817-1.816-1.558-3.087-2.225c-1.271-0.665-2.937-0.998-4.994-0.998
		c-3.269,0-5.842,0.984-7.717,2.95c-1.877,1.968-2.814,4.585-2.814,7.854c0,1.575,0.241,3.073,0.726,4.495
		c0.484,1.423,1.12,2.769,1.907,4.04c0.786,1.271,1.68,2.497,2.678,3.677c0.999,1.181,2.043,2.347,3.133,3.496l18.431,20.156
		c1.271-2.905,2.073-5.856,2.406-8.853c0.332-2.996,0.559-5.553,0.682-7.672c0.059-0.848,0.271-1.467,0.635-1.861
		c0.363-0.394,1.059-0.591,2.088-0.591c0.969,0,1.635,0.259,1.998,0.772c0.363,0.515,0.545,1.316,0.545,2.405
		c0,0.908-0.061,2.12-0.182,3.632c-0.122,1.514-0.35,3.164-0.682,4.948c-0.332,1.786-0.787,3.647-1.361,5.584
		c-0.576,1.938-1.348,3.845-2.314,5.721l8.262,8.988c0.422,0.485,0.635,0.908,0.635,1.271c0,0.666-0.287,1.257-0.861,1.771
		c-0.576,0.513-1.196,0.771-1.861,0.771c-0.606,0-1.181-0.272-1.726-0.817l-7.354-7.899c-1.938,2.604-4.373,4.753-7.309,6.446
		C65.967,90.298,62.351,91.146,58.054,91.146z M58.871,85.698c3.389,0,6.174-0.694,8.354-2.088c2.179-1.392,3.934-3.146,5.266-5.266
		L52.969,57.553c-1.03,0.605-2.104,1.286-3.223,2.043c-1.121,0.757-2.149,1.68-3.087,2.769c-0.939,1.09-1.725,2.361-2.361,3.813
		c-0.636,1.453-0.953,3.148-0.953,5.085c0,1.938,0.332,3.783,0.999,5.538c0.666,1.756,1.664,3.284,2.996,4.585
		c1.331,1.303,2.965,2.347,4.903,3.133C54.179,85.306,56.388,85.698,58.871,85.698z"/>
</g>
</svg>
