<?xml version="1.0" encoding="utf-8"?>
<!-- Generator: Adobe Illustrator 16.0.0, SVG Export Plug-In . SVG Version: 6.00 Build 0)  -->
<!DOCTYPE svg PUBLIC "-//W3C//DTD SVG 1.1//EN" "http://www.w3.org/Graphics/SVG/1.1/DTD/svg11.dtd">
<svg version="1.1" id="Layer_1" xmlns="http://www.w3.org/2000/svg" xmlns:xlink="http://www.w3.org/1999/xlink" x="0px" y="0px"
	 width="56px" height="50.983px" viewBox="9.485 9.485 56 50.983" enable-background="new 9.485 9.485 56 50.983"
	 xml:space="preserve">
<circle fill="#FFFFFF" cx="37.18" cy="34.31" r="21.825"/>
<g enable-background="new    ">
	<path fill="#F15D22" d="M26.826,39.531c0-0.642,0.277-1.241,0.832-1.795c0.554-0.554,1.167-0.832,1.839-0.832
		c0.438,0,0.802,0.146,1.094,0.438l4.247,4.248V24.12c0-0.525,0.226-0.948,0.678-1.27c0.453-0.321,1.014-0.482,1.686-0.482
		c0.7,0,1.262,0.161,1.686,0.482c0.422,0.321,0.635,0.744,0.635,1.27V41.59l4.247-4.248c0.291-0.291,0.655-0.438,1.094-0.438
		c0.671,0,1.284,0.278,1.839,0.832c0.554,0.555,0.832,1.154,0.832,1.795c0,0.409-0.146,0.788-0.438,1.138l-8.58,8.581
		c-0.497,0.496-0.935,0.744-1.314,0.744c-0.467-0.059-0.919-0.306-1.357-0.744l-8.581-8.581
		C26.972,40.379,26.826,39.999,26.826,39.531z"/>
</g>
</svg>
