<?xml version="1.0" encoding="utf-8"?>
<!-- Generator: Adobe Illustrator 16.0.0, SVG Export Plug-In . SVG Version: 6.00 Build 0)  -->
<!DOCTYPE svg PUBLIC "-//W3C//DTD SVG 1.1//EN" "http://www.w3.org/Graphics/SVG/1.1/DTD/svg11.dtd">
<svg version="1.1" id="Layer_1" xmlns="http://www.w3.org/2000/svg" xmlns:xlink="http://www.w3.org/1999/xlink" x="0px" y="0px"
	 width="189.189px" height="275.676px" viewBox="0 0 189.189 275.676" enable-background="new 0 0 189.189 275.676"
	 xml:space="preserve">
<g>
	<polyline fill="#FBCD9A" points="98.326,94.659 81.633,126.287 75.069,118.879 87.272,92.876 	"/>
	<g>
		<rect x="104.172" y="74.45" fill="#FBCD9A" width="20.684" height="11.333"/>
		<path fill="#FBCD9A" d="M104.172,85.313c0,3.069,2.49,5.559,5.561,5.559h8.637c3.068,0,5.561-2.489,5.561-5.559l0,0
			c0-3.07-2.492-5.562-5.561-5.562h-8.637C106.662,79.752,104.172,82.243,104.172,85.313L104.172,85.313z"/>
		<rect x="98.343" y="37.582" fill="#846C39" width="30.593" height="37.221"/>
		<path fill="#FBCD9A" d="M138.541,108.973l16.514,37.398c0,0,0.512,1.195,0.441,2.559c-0.072,1.357-1.535,1.553-1.639,3.457
			c-0.102,1.902-0.333,6.256-0.422,7.889c-0.086,1.629,0.473,2.375,1.658,2.438c0.957,0.053,1.23-3.771,1.146-5.656
			c-0.051-1.264,2.912-1.729,2.996,0.162c0.047,1.088-0.146,2.719-0.217,4.078c-0.074,1.361-2.09,3.393-2.986,4.842
			c-0.68,1.096-0.656,2.01-0.484,2.668c0,0,3.716-4.379,4.374-5.131c0.407-0.465,0.877-0.121,0.489,0.447
			c-0.566,0.834-4.812,5.588-5.27,6.742c-0.254,0.643,0.406,1.824,0.918,1.545c0.893-0.48,3.988-4.146,6.047-6.855
			c1.847-2.426,1.092-7.668,1.184-14.484c0.089-6.812-0.846-7.996-0.846-7.996l-16.51-37.395L138.541,108.973z"/>
		<rect x="98.506" y="238.128" fill="#FBCD9A" width="8.016" height="12.205"/>
		<rect x="122.77" y="238.128" fill="#FBCD9A" width="8.016" height="12.205"/>
		<path fill="#FBCD9A" d="M101.516,54.954c0-4.159-2.127-11.33,0-14.057c2.129-2.726,8.512-1.005,12.674-1.005
			c4.75,0,10.121-4.019,12.211-0.583c1.572,2.58,0.461,12.077,0.461,15.645c0,8.32-4.352,15.068-12.672,15.068
			S101.516,63.274,101.516,54.954z"/>
		<g>
			<g>
				<g>
					<g id="Layer_2_8_">
						<path fill="#414142" d="M131.359,86.777c-0.283,0-0.777-0.14-0.99-0.563c-0.213,0.424-0.705,0.563-0.99,0.563
							c-0.919,0-1.059-0.636-1.059-0.636c0.07,0.072,0.213,0.144,0.424,0.144c0.354,0,0.422-0.637,0.92-0.637
							c0.492,0,0.705,0.354,0.705,0.354s0.213-0.354,0.707-0.354s0.566,0.637,0.916,0.637c0.215,0,0.355-0.071,0.428-0.144
							C132.42,86.142,132.279,86.777,131.359,86.777z"/>
					</g>
				</g>
			</g>
			<path fill="#414142" d="M130.494,83.975c0,0.712,0.572,1.284,1.283,1.284c0.707,0,1.283-0.572,1.283-1.284
				c0-0.704-0.576-1.281-1.283-1.281C131.066,82.693,130.494,83.271,130.494,83.975z"/>
			<circle fill="#414142" cx="128.936" cy="83.988" r="1.281"/>
			<g id="Layer_2_709_">
				<path fill="#414142" d="M130.369,86.003c0,0,0.213-0.354,0.707-0.354s0.566,0.637,0.922,0.637c0.209,0,0.35-0.071,0.422-0.144
					c0,0-0.141,0.636-1.061,0.636c-0.283,0-0.777-0.14-0.99-0.563"/>
			</g>
		</g>
		<polygon fill="#754C29" points="93.451,161.132 135.215,161.132 131.392,240.519 121.914,240.519 118.799,178.347 
			111.146,178.347 106.941,240.4 97.916,240.714 		"/>
		<path fill="#A58E50" d="M126.174,38.567c0,0-6.803,7.173-14.933,7.013c-8.132-0.157-12.915-5.579-12.915-5.579l1.598-0.158
			l-1.277-1.275h1.595l-1.756-1.595l4.306-0.955c0,0,0.16-8.132,4.621-10.045c4.467-1.912,14.829-0.955,20.406,6.219"/>
		<rect x="107.632" y="65.957" fill="#FBCD9A" width="12.634" height="15.781"/>
		<g>
			<g>
				<path fill="none" stroke="#FFFFFF" stroke-width="1.3225" stroke-miterlimit="10" stroke-dasharray="6.8054,6.8054" d="
					M124.115,234.751"/>
				<path fill="none" stroke="#FFFFFF" stroke-width="1.3225" stroke-miterlimit="10" stroke-dasharray="6.8054,6.8054" d="
					M119.803,179.589"/>
			</g>
		</g>
		<path fill="#231F20" d="M78.934,107.776c3.152-6.827,9.831-20.788,9.831-20.788l4.663-9.978c1.02-1.575,2.939-2.515,4.969-2.515
			h1.138h3.917h1.408V81.8v0.468h0.021c0.241,2.852,2.627,5.091,5.539,5.091h4.146h0.203h4.149c2.913,0,5.298-2.239,5.536-5.091
			h0.023V81.8v-7.304h1.406h3.916h1.137c2.033,0,3.955,0.939,4.971,2.515l4.664,9.978c0,0,2.605,5.493,5.758,12.32l2.256,4.823
			l-0.029,0.028c2.094,5.422,2.094,5.422,2.094,5.422l-11.059,3.688l-5.842-12.666c-0.139,2.606,3.215,7.568,2.376,11.3
			c-0.429,1.899-2.466,3.536-2.47,4.036c-0.079,6.861,0,10.73,0,13.982c0,5.87,3.021,37.351,3.021,37.351h-9.266h-1.527H114.77
			h-0.203h-11.115h-1.525h-9.267c0,0,3.022-31.481,3.022-37.351c0-3.252,0.073-7.121,0-13.982c-0.005-0.5-2.043-2.137-2.471-4.036
			c-0.84-3.731,2.516-8.693,2.375-11.3l-5.842,12.666"/>
		<path fill="#231F20" d="M80.777,104.16"/>
		<g>
			<path fill="#231F20" d="M83.49,252.908c10.621,0,13.734-6.723,13.734-6.723l10.07,1.465l1.209,11.486H74.102
				C74.521,256.683,76.324,252.908,83.49,252.908z"/>
			<path fill="#FFFFFF" d="M108.504,259.136l0.221,2.062H74.018c0,0-0.115-0.879,0.084-2.062H108.504z"/>
			<path fill="#FFFFFF" d="M154.832,261.199h-34.709l0.221-2.062h34.403C154.949,260.32,154.832,261.199,154.832,261.199z"/>
			<path fill="#231F20" d="M131.625,246.185c0,0,3.113,6.723,13.732,6.723c7.168,0,8.972,3.775,9.39,6.229h-34.403l1.209-11.486
				L131.625,246.185z"/>
		</g>
		<g>
			<path fill="#231F20" d="M126.521,48.926v2.041c0,0-0.932,0.234-1.062,1.166c-0.129,0.931-1.008,3.675-2.872,4.244
				c-1.862,0.568-4.19,0.26-5.176-0.518c-0.981-0.776-1.321-1.629-1.604-2.486c-0.286-0.851-0.23-1.887-1.396-1.887
				c-1.167,0-0.983,1.188-1.245,1.811c-0.256,0.62-0.773,2.043-1.912,2.691s-2.949,0.983-4.787,0.441
				c-1.838-0.544-2.668-2.927-2.98-4.066c-0.307-1.138-1.135-1.551-1.135-1.551v-1.993c0,0,2.613-0.361,4.996-0.337
				c2.379,0.025,4.215,0.417,4.758,0.698c0.543,0.287,0.676,1.012,2.306,1.012s2.03-0.781,2.327-0.983
				C117.518,48.678,120.195,48.173,126.521,48.926z"/>
			<path fill="#414142" d="M124.555,52.03c0.027-0.606-0.053-1.93-1.113-2.36s-3.882-0.28-5.354,0.126
				c-1.478,0.407-1.812,1.421-1.787,2.006c0.025,0.586,0.153,3.127,2.014,3.814c1.865,0.685,4.531,0.507,5.309-0.714
				C124.398,53.687,124.52,52.785,124.555,52.03z"/>
			<path fill="#414142" d="M104.32,52.03c-0.03-0.609,0.051-1.93,1.113-2.36c1.061-0.431,3.881-0.28,5.355,0.126
				c1.479,0.407,1.812,1.419,1.787,2.006c-0.027,0.586-0.156,3.12-2.018,3.808c-1.864,0.686-4.531,0.507-5.305-0.709
				C104.473,53.682,104.354,52.783,104.32,52.03z"/>
		</g>
		<path fill="#595A5C" d="M40.237,110.142c0.218,0.193,0.968-0.468,1.675-1.476l0,0c0.709-1.003,1.104-1.976,0.884-2.164
			L24.202,90.241c-0.22-0.194-0.968,0.463-1.677,1.473l0,0c-0.707,1.005-1.098,1.974-0.879,2.169L40.237,110.142z"/>
		<path fill="#FBCD9A" d="M47.85,112.624c-2.365-1.967-2.844-1.538-4.111-4.935l-0.455-1.214l-0.281-0.755
			c0,0-1.447-1.447-2.26-2.426c-0.648-0.771-1.41-1.426-2.358-1.07c-0.47,0.176-0.673,0.317-0.866,0.741
			c-0.195,0.427-0.217,0.655-0.037,1.127l3.354,2.461l-9.359-4.271l-0.01,0.02c-0.062-0.035-0.129-0.083-0.199-0.115l-5.035-4.811
			c-0.918-0.42-2.004-0.013-2.427,0.903c-0.192,0.428-0.203,0.885-0.073,1.305c0.092,0.296,0.26,0.565,0.5,0.786
			c0.136,0.132,0.293,0.248,0.482,0.335l5.18,4.862c0.074,0.034,0,0,0.072,0.018l-0.195,0.428c-0.062-0.036-0.133-0.082-0.203-0.115
			l-3.268-1.979c-0.189-0.087-0.387-0.133-0.582-0.15c-0.762-0.071-1.51,0.327-1.844,1.054c-0.418,0.92-0.012,2.008,0.904,2.424
			l3.275,1.979c0.068,0.03,0.146,0.054,0.217,0.074l-0.186,0.406l-3.371-1.953c-0.92-0.418-2.002-0.012-2.422,0.902
			c-0.42,0.925-0.014,2.004,0.902,2.422l3.371,1.958l-0.215,0.463l0.115,0.002c-0.918-0.417-2-0.013-2.416,0.905
			c-0.422,0.923-0.021,2.009,0.898,2.422c0,0,8.633,4.664,13.246,3.698l-0.016,0.026c0,0,7.391-0.418,8.529,0.018
			c0.177,0.065,0.929,0.294,2.08,0.626l13.322-4.214C55.977,115.927,49.011,113.585,47.85,112.624z"/>
		<path fill="#FBCD9A" d="M75.9,117.752l-28.189-5.524l-5.594,8.167l34.734,8.516c0,0,3.602,1.908,4.781-2.623"/>
		<path fill="#A58E50" d="M92.629,88.163c0,0,2.873-34.357,3.773-48.568c0.756-11.916,5.854-14.916,17.787-14.916
			c11.936,0,18.264,2.979,18.264,14.916h-0.011l3.347,48.976c0,0-9.141,2.066-10.57,0c4.033-10.561,0-52.324,0-52.324H103.15
			c0,0-3.043,47.772,0,52.324c0.803,1.203-2.553,1.221-5.727,0.778C94.721,88.973,92.629,88.163,92.629,88.163z"/>
	</g>
	<path fill="#570A30" d="M97.258,31.782c0-9.297,8.156-16.838,17.457-16.838c9.299,0,16.834,7.541,16.834,16.838H97.258z"/>
	<path fill="#771341" d="M95.557,34.598c0,1.648,1.338,2.984,2.982,2.984h31.539c1.646,0,2.982-1.336,2.982-2.984l0,0
		c0-1.646-1.337-3.923-2.982-3.923H98.539C96.895,30.675,95.557,32.952,95.557,34.598L95.557,34.598z"/>
</g>
</svg>
