<?xml version="1.0" encoding="utf-8"?>
<!-- Generator: Adobe Illustrator 16.0.0, SVG Export Plug-In . SVG Version: 6.00 Build 0)  -->
<!DOCTYPE svg PUBLIC "-//W3C//DTD SVG 1.1//EN" "http://www.w3.org/Graphics/SVG/1.1/DTD/svg11.dtd">
<svg version="1.1" id="Layer_1" xmlns="http://www.w3.org/2000/svg" xmlns:xlink="http://www.w3.org/1999/xlink" x="0px" y="0px"
	 width="243.486px" height="252.324px" viewBox="0 0 243.486 252.324" enable-background="new 0 0 243.486 252.324"
	 xml:space="preserve">
<g>
	<g>
		<path fill="#FBCD9A" d="M76.061,132.439c0,1,0.585,1.811,1.304,1.811c0.718,0,1.3-0.811,1.3-1.811s-0.485-2.404-1.205-2.404
			S76.061,131.439,76.061,132.439z"/>
		<polyline fill="#9E2922" points="101.66,120.008 89.117,138.142 78.059,136.16 86.171,114.508 		"/>
		<polygon fill="#FFFFFF" points="166.181,169.316 166.125,169.316 161.803,169.316 103.367,169.316 99.045,169.316 99.045,173.64 
			99.045,235.029 103.367,235.029 103.367,173.64 161.803,173.64 161.803,235.029 166.125,235.029 166.125,173.64 166.181,173.64 		
			"/>
		<rect x="125.919" y="62.475" fill="#FBCD9A" width="13.51" height="16.877"/>
		<path fill="#FBCD9A" d="M142.393,23.436h-19.945c-3.391,0-6.137,2.75-6.137,6.139v22.672c0,0.876,0.187,1.701,0.516,2.454
			c1.778,6.965,8.074,12.12,15.594,12.12c7.516,0,13.812-5.155,15.589-12.12c0.331-0.753,0.519-1.578,0.519-2.454V29.574
			C148.527,26.186,145.78,23.436,142.393,23.436z"/>
		<rect x="109.316" y="210.845" fill="#6E6F71" width="9.206" height="8.352"/>
		<rect x="146.141" y="210.845" fill="#6E6F71" width="9.207" height="8.352"/>
		<path fill="#9E2922" d="M115.277,75.362h-5.298c-3.39,0-6.136,2.722-6.136,6.078v73.45v0.826v6.078h5.283h46.436h6.24v-6.078
			v-0.26l-0.104-74.016c0-3.356-2.745-6.078-6.136-6.078h-5.191"/>
		<path fill="#3E2519" d="M121.646,25.141c0,0,7.273,7.67,15.973,7.5c8.691-0.17,17.385-5.967,17.385-5.967l-5.283-0.169
			l1.363-1.364h-1.704l3.408-1.705l-6.138-1.023c0,0-0.169-8.693-4.943-10.738c-4.771-2.048-15.854-1.025-21.818,6.646
			c0,0-4.945-1.701-7.162,1.875c-1.96,3.164-0.512,8.865,2.217,11.252v9.463h1.367v-9.184
			C116.311,31.727,121.646,33.385,121.646,25.141z"/>
		<rect x="114.943" y="30.703" fill="#3E2519" width="1.879" height="12.252"/>
		<rect x="147.337" y="29.233" fill="#3E2519" width="1.876" height="13.722"/>
		<g>
			<g>
				<g>
					<g id="Layer_2_28_">
						<path fill="#3E2519" d="M128.226,56.056c1.254,0,3.448-0.626,4.389-2.507c0.939,1.881,3.134,2.507,4.386,2.507
							c4.072,0,4.702-2.819,4.702-2.819c-0.315,0.312-0.942,0.629-1.882,0.629c-1.564,0-1.878-2.823-4.072-2.823
							s-3.134,1.567-3.134,1.567s-0.94-1.567-3.135-1.567c-2.193,0-2.506,2.823-4.071,2.823c-0.941,0-1.566-0.316-1.879-0.629
							C123.529,53.236,124.151,56.056,128.226,56.056z"/>
					</g>
				</g>
			</g>
			<g id="Layer_2_706_">
				<path fill="#3E2519" d="M132.614,52.609c0,0-0.94-1.567-3.135-1.567c-2.193,0-2.506,2.823-4.071,2.823
					c-0.941,0-1.566-0.316-1.879-0.629c0,0,0.622,2.819,4.696,2.819c1.254,0,3.448-0.626,4.389-2.507"/>
			</g>
		</g>
		
			<line fill="none" stroke="#231F20" stroke-width="0.6612" stroke-miterlimit="10" x1="132.824" y1="161.695" x2="132.824" y2="75.261"/>
		<g>
			<g>
				<g>
					<g id="Layer_2_27_">
						<path fill="#414142" d="M114.059,84.742c0.301,0,0.832-0.149,1.059-0.604c0.225,0.454,0.756,0.604,1.057,0.604
							c0.984,0,1.133-0.682,1.133-0.682c-0.073,0.078-0.227,0.152-0.452,0.152c-0.38,0-0.452-0.679-0.981-0.679
							c-0.531,0-0.756,0.378-0.756,0.378s-0.227-0.378-0.758-0.378c-0.527,0-0.605,0.679-0.982,0.679
							c-0.227,0-0.379-0.074-0.455-0.152C112.922,84.061,113.075,84.742,114.059,84.742z"/>
					</g>
				</g>
			</g>
			<path fill="#414142" d="M114.981,81.748c0,0.758-0.612,1.369-1.369,1.369s-1.373-0.611-1.373-1.369
				c0-0.76,0.616-1.373,1.373-1.373S114.981,80.988,114.981,81.748z"/>
			<path fill="#414142" d="M118.022,81.762c0,0.755-0.614,1.37-1.373,1.37c-0.757,0-1.372-0.615-1.372-1.37
				c0-0.762,0.615-1.373,1.372-1.373C117.408,80.389,118.022,81,118.022,81.762z"/>
			<g id="Layer_2_703_">
				<path fill="#414142" d="M115.117,83.912c0,0-0.227-0.378-0.758-0.378c-0.527,0-0.605,0.679-0.984,0.679
					c-0.225,0-0.377-0.074-0.453-0.152c0,0,0.153,0.682,1.137,0.682c0.301,0,0.832-0.149,1.059-0.604"/>
			</g>
		</g>
		<g>
			<g>
				<g>
					<g id="Layer_2_26_">
						<path fill="#414142" d="M124.979,95.662c0.299,0,0.828-0.15,1.058-0.605c0.227,0.455,0.755,0.605,1.058,0.605
							c0.982,0,1.132-0.682,1.132-0.682c-0.073,0.076-0.226,0.152-0.452,0.152c-0.379,0-0.453-0.681-0.982-0.681
							c-0.528,0-0.755,0.38-0.755,0.38s-0.229-0.38-0.759-0.38c-0.527,0-0.604,0.681-0.981,0.681c-0.227,0-0.378-0.076-0.454-0.152
							C123.842,94.98,123.994,95.662,124.979,95.662z"/>
					</g>
				</g>
			</g>
			<path fill="#414142" d="M125.902,92.666c0,0.756-0.613,1.371-1.372,1.371c-0.755,0-1.372-0.615-1.372-1.371
				c0-0.758,0.617-1.373,1.372-1.373C125.289,91.293,125.902,91.908,125.902,92.666z"/>
			<circle fill="#414142" cx="127.569" cy="92.68" r="1.371"/>
			<g id="Layer_2_700_">
				<path fill="#414142" d="M126.034,94.832c0,0-0.228-0.38-0.757-0.38c-0.527,0-0.604,0.681-0.981,0.681
					c-0.227,0-0.378-0.076-0.454-0.152c0,0,0.152,0.682,1.137,0.682c0.299,0,0.828-0.15,1.056-0.605"/>
			</g>
		</g>
		<g>
			<g>
				<g>
					<g id="Layer_2_25_">
						<path fill="#414142" d="M138.256,108.939c0.301,0,0.831-0.148,1.058-0.604c0.228,0.456,0.755,0.604,1.058,0.604
							c0.981,0,1.133-0.68,1.133-0.68c-0.074,0.075-0.229,0.152-0.452,0.152c-0.378,0-0.453-0.683-0.983-0.683
							c-0.527,0-0.755,0.38-0.755,0.38s-0.227-0.38-0.757-0.38c-0.529,0-0.607,0.683-0.982,0.683c-0.229,0-0.377-0.077-0.454-0.152
							C137.12,108.26,137.271,108.939,138.256,108.939z"/>
					</g>
				</g>
			</g>
			<circle fill="#414142" cx="137.808" cy="105.941" r="1.372"/>
			<path fill="#414142" d="M142.219,105.958c0,0.756-0.615,1.37-1.375,1.37c-0.754,0-1.369-0.614-1.369-1.37
				c0-0.757,0.615-1.372,1.369-1.372C141.604,104.586,142.219,105.201,142.219,105.958z"/>
			<g id="Layer_2_697_">
				<path fill="#414142" d="M139.311,108.109c0,0-0.224-0.38-0.754-0.38c-0.529,0-0.607,0.683-0.984,0.683
					c-0.227,0-0.375-0.077-0.452-0.152c0,0,0.151,0.68,1.136,0.68c0.301,0,0.831-0.148,1.055-0.604"/>
			</g>
		</g>
		<g>
			<g>
				<g>
					<g id="Layer_2_24_">
						<path fill="#414142" d="M151.183,121.867c0.303,0,0.831-0.148,1.06-0.604c0.225,0.455,0.756,0.604,1.057,0.604
							c0.984,0,1.133-0.679,1.133-0.679c-0.074,0.075-0.227,0.151-0.451,0.151c-0.376,0-0.455-0.682-0.982-0.682
							c-0.531,0-0.756,0.379-0.756,0.379s-0.229-0.379-0.757-0.379c-0.526,0-0.606,0.682-0.981,0.682
							c-0.229,0-0.379-0.076-0.451-0.151C150.053,121.188,150.199,121.867,151.183,121.867z"/>
					</g>
				</g>
			</g>
			<path fill="#414142" d="M152.109,118.873c0,0.756-0.617,1.369-1.373,1.369c-0.757,0-1.37-0.613-1.37-1.369
				c0-0.76,0.613-1.373,1.37-1.373C151.492,117.5,152.109,118.113,152.109,118.873z"/>
			<circle fill="#414142" cx="153.776" cy="118.886" r="1.37"/>
			<g id="Layer_2_694_">
				<path fill="#414142" d="M152.242,121.037c0,0-0.229-0.379-0.757-0.379c-0.526,0-0.606,0.682-0.983,0.682
					c-0.227,0-0.377-0.076-0.449-0.151c0,0,0.146,0.679,1.13,0.679c0.303,0,0.831-0.148,1.06-0.604"/>
			</g>
		</g>
		<g>
			<g>
				<g>
					<g id="Layer_2_23_">
						<path fill="#414142" d="M138.256,86.659c0.301,0,0.831-0.153,1.058-0.604c0.228,0.451,0.755,0.604,1.058,0.604
							c0.981,0,1.133-0.681,1.133-0.681c-0.074,0.076-0.229,0.152-0.452,0.152c-0.378,0-0.453-0.682-0.983-0.682
							c-0.527,0-0.755,0.377-0.755,0.377s-0.227-0.377-0.757-0.377c-0.529,0-0.607,0.682-0.982,0.682
							c-0.229,0-0.377-0.076-0.454-0.152C137.12,85.979,137.271,86.659,138.256,86.659z"/>
					</g>
				</g>
			</g>
			<circle fill="#414142" cx="137.808" cy="83.661" r="1.372"/>
			<path fill="#414142" d="M142.219,83.675c0,0.757-0.615,1.37-1.375,1.37c-0.754,0-1.369-0.613-1.369-1.37s0.615-1.372,1.369-1.372
				C141.604,82.303,142.219,82.918,142.219,83.675z"/>
			<g id="Layer_2_669_">
				<path fill="#414142" d="M139.311,85.826c0,0-0.224-0.377-0.754-0.377c-0.529,0-0.607,0.682-0.984,0.682
					c-0.227,0-0.375-0.076-0.452-0.152c0,0,0.151,0.681,1.136,0.681c0.301,0,0.831-0.153,1.055-0.604"/>
			</g>
		</g>
		<g>
			<g>
				<g>
					<g id="Layer_2_22_">
						<path fill="#414142" d="M151.183,99.587c0.303,0,0.831-0.151,1.06-0.604c0.225,0.453,0.756,0.604,1.057,0.604
							c0.984,0,1.133-0.68,1.133-0.68c-0.074,0.075-0.227,0.151-0.451,0.151c-0.376,0-0.455-0.682-0.982-0.682
							c-0.531,0-0.756,0.381-0.756,0.381s-0.229-0.381-0.757-0.381c-0.526,0-0.606,0.682-0.981,0.682
							c-0.229,0-0.379-0.076-0.451-0.151C150.053,98.907,150.199,99.587,151.183,99.587z"/>
					</g>
				</g>
			</g>
			<circle fill="#414142" cx="150.738" cy="96.59" r="1.372"/>
			<path fill="#414142" d="M155.146,96.605c0,0.758-0.615,1.369-1.371,1.369s-1.369-0.611-1.369-1.369
				c0-0.76,0.613-1.372,1.369-1.372S155.146,95.846,155.146,96.605z"/>
			<g id="Layer_2_665_">
				<path fill="#414142" d="M152.242,98.758c0,0-0.229-0.381-0.757-0.381c-0.526,0-0.606,0.682-0.983,0.682
					c-0.227,0-0.377-0.076-0.449-0.151c0,0,0.146,0.68,1.13,0.68c0.303,0,0.831-0.151,1.06-0.604"/>
			</g>
		</g>
		<g>
			<g>
				<g>
					<g id="Layer_2_21_">
						<path fill="#414142" d="M114.059,107.943c0.301,0,0.832-0.15,1.059-0.604c0.225,0.453,0.756,0.604,1.057,0.604
							c0.984,0,1.133-0.68,1.133-0.68c-0.073,0.076-0.227,0.152-0.452,0.152c-0.38,0-0.452-0.681-0.981-0.681
							c-0.531,0-0.756,0.377-0.756,0.377s-0.227-0.377-0.758-0.377c-0.527,0-0.605,0.681-0.982,0.681
							c-0.227,0-0.379-0.076-0.455-0.152C112.922,107.264,113.075,107.943,114.059,107.943z"/>
					</g>
				</g>
			</g>
			<path fill="#414142" d="M114.981,104.949c0,0.756-0.612,1.369-1.369,1.369s-1.373-0.613-1.373-1.369
				c0-0.758,0.616-1.375,1.373-1.375S114.981,104.191,114.981,104.949z"/>
			<circle fill="#414142" cx="116.65" cy="104.961" r="1.373"/>
			<g id="Layer_2_660_">
				<path fill="#414142" d="M115.117,107.112c0,0-0.227-0.377-0.758-0.377c-0.527,0-0.605,0.681-0.984,0.681
					c-0.225,0-0.377-0.076-0.453-0.152c0,0,0.153,0.68,1.137,0.68c0.301,0,0.832-0.15,1.059-0.604"/>
			</g>
		</g>
		<g>
			<g>
				<g>
					<g id="Layer_2_20_">
						<path fill="#414142" d="M124.979,118.861c0.299,0,0.828-0.148,1.058-0.602c0.227,0.453,0.755,0.602,1.058,0.602
							c0.982,0,1.132-0.68,1.132-0.68c-0.073,0.078-0.226,0.152-0.452,0.152c-0.379,0-0.453-0.682-0.982-0.682
							c-0.528,0-0.755,0.38-0.755,0.38s-0.229-0.38-0.759-0.38c-0.527,0-0.604,0.682-0.981,0.682c-0.227,0-0.378-0.074-0.454-0.152
							C123.842,118.182,123.994,118.861,124.979,118.861z"/>
					</g>
				</g>
			</g>
			<path fill="#414142" d="M125.902,115.866c0,0.757-0.613,1.37-1.372,1.37c-0.755,0-1.372-0.613-1.372-1.37
				c0-0.759,0.617-1.372,1.372-1.372C125.289,114.494,125.902,115.107,125.902,115.866z"/>
			<circle fill="#414142" cx="127.569" cy="115.881" r="1.371"/>
			<g id="Layer_2_656_">
				<path fill="#414142" d="M126.034,118.032c0,0-0.228-0.38-0.757-0.38c-0.527,0-0.604,0.682-0.981,0.682
					c-0.227,0-0.378-0.074-0.454-0.152c0,0,0.152,0.68,1.137,0.68c0.299,0,0.828-0.148,1.056-0.602"/>
			</g>
		</g>
		<g>
			<g>
				<g>
					<g id="Layer_2_19_">
						<path fill="#414142" d="M138.256,132.138c0.301,0,0.831-0.148,1.058-0.602c0.228,0.453,0.755,0.602,1.058,0.602
							c0.981,0,1.133-0.678,1.133-0.678c-0.074,0.076-0.229,0.15-0.452,0.15c-0.378,0-0.453-0.682-0.983-0.682
							c-0.527,0-0.755,0.381-0.755,0.381s-0.227-0.381-0.757-0.381c-0.529,0-0.607,0.682-0.982,0.682
							c-0.229,0-0.377-0.074-0.454-0.15C137.12,131.46,137.271,132.138,138.256,132.138z"/>
					</g>
				</g>
			</g>
			<circle fill="#414142" cx="137.808" cy="129.144" r="1.372"/>
			<path fill="#414142" d="M142.219,129.156c0,0.756-0.615,1.373-1.375,1.373c-0.754,0-1.369-0.617-1.369-1.373
				c0-0.758,0.615-1.371,1.369-1.371C141.604,127.785,142.219,128.398,142.219,129.156z"/>
			<g id="Layer_2_651_">
				<path fill="#414142" d="M139.311,131.31c0,0-0.224-0.381-0.754-0.381c-0.529,0-0.607,0.682-0.984,0.682
					c-0.227,0-0.375-0.074-0.452-0.15c0,0,0.151,0.678,1.136,0.678c0.301,0,0.831-0.148,1.055-0.602"/>
			</g>
		</g>
		<g>
			<g>
				<g>
					<g id="Layer_2_18_">
						<path fill="#414142" d="M151.183,145.07c0.303,0,0.831-0.15,1.06-0.604c0.225,0.453,0.756,0.604,1.057,0.604
							c0.984,0,1.133-0.68,1.133-0.68c-0.074,0.076-0.227,0.154-0.451,0.154c-0.376,0-0.455-0.684-0.982-0.684
							c-0.531,0-0.756,0.379-0.756,0.379s-0.229-0.379-0.757-0.379c-0.526,0-0.606,0.684-0.981,0.684
							c-0.229,0-0.379-0.078-0.451-0.154C150.053,144.39,150.199,145.07,151.183,145.07z"/>
					</g>
				</g>
			</g>
			<path fill="#414142" d="M152.109,142.072c0,0.756-0.617,1.375-1.373,1.375c-0.757,0-1.37-0.619-1.37-1.375
				c0-0.758,0.613-1.371,1.37-1.371C151.492,140.701,152.109,141.314,152.109,142.072z"/>
			<circle fill="#414142" cx="153.776" cy="142.087" r="1.37"/>
			<g id="Layer_2_647_">
				<path fill="#414142" d="M152.242,144.24c0,0-0.229-0.379-0.757-0.379c-0.526,0-0.606,0.684-0.983,0.684
					c-0.227,0-0.377-0.078-0.449-0.154c0,0,0.146,0.68,1.13,0.68c0.303,0,0.831-0.15,1.06-0.604"/>
			</g>
		</g>
		<g>
			<g>
				<g>
					<g id="Layer_2_17_">
						<path fill="#414142" d="M114.059,130.277c0.301,0,0.832-0.152,1.059-0.605c0.225,0.453,0.756,0.605,1.057,0.605
							c0.984,0,1.133-0.682,1.133-0.682c-0.073,0.076-0.227,0.152-0.452,0.152c-0.38,0-0.452-0.68-0.981-0.68
							c-0.531,0-0.756,0.377-0.756,0.377s-0.227-0.377-0.758-0.377c-0.527,0-0.605,0.68-0.982,0.68
							c-0.227,0-0.379-0.076-0.455-0.152C112.922,129.595,113.075,130.277,114.059,130.277z"/>
					</g>
				</g>
			</g>
			<circle fill="#414142" cx="113.61" cy="127.279" r="1.371"/>
			<path fill="#414142" d="M118.022,127.291c0,0.762-0.614,1.373-1.373,1.373c-0.757,0-1.372-0.611-1.372-1.373
				c0-0.756,0.615-1.369,1.372-1.369C117.408,125.921,118.022,126.535,118.022,127.291z"/>
			<g id="Layer_2_332_">
				<path fill="#414142" d="M115.117,129.445c0,0-0.227-0.377-0.758-0.377c-0.527,0-0.605,0.68-0.984,0.68
					c-0.225,0-0.377-0.076-0.453-0.152c0,0,0.153,0.682,1.137,0.682c0.301,0,0.832-0.152,1.059-0.605"/>
			</g>
		</g>
		<g>
			<g>
				<g>
					<g id="Layer_2_16_">
						<path fill="#414142" d="M124.979,141.195c0.299,0,0.828-0.15,1.058-0.605c0.227,0.455,0.755,0.605,1.058,0.605
							c0.982,0,1.132-0.68,1.132-0.68c-0.073,0.074-0.226,0.152-0.452,0.152c-0.379,0-0.453-0.682-0.982-0.682
							c-0.528,0-0.755,0.379-0.755,0.379s-0.229-0.379-0.759-0.379c-0.527,0-0.604,0.682-0.981,0.682
							c-0.227,0-0.378-0.078-0.454-0.152C123.842,140.515,123.994,141.195,124.979,141.195z"/>
					</g>
				</g>
			</g>
			<path fill="#414142" d="M125.902,138.199c0,0.758-0.613,1.373-1.372,1.373c-0.755,0-1.372-0.615-1.372-1.373
				c0-0.756,0.617-1.371,1.372-1.371C125.289,136.828,125.902,137.443,125.902,138.199z"/>
			<circle fill="#414142" cx="127.569" cy="138.21" r="1.371"/>
			<g id="Layer_2_329_">
				<path fill="#414142" d="M126.034,140.365c0,0-0.228-0.379-0.757-0.379c-0.527,0-0.604,0.682-0.981,0.682
					c-0.227,0-0.378-0.078-0.454-0.152c0,0,0.152,0.68,1.137,0.68c0.299,0,0.828-0.15,1.056-0.605"/>
			</g>
		</g>
		<g>
			<g>
				<g>
					<g id="Layer_2_15_">
						<path fill="#414142" d="M138.256,154.474c0.301,0,0.831-0.15,1.058-0.605c0.228,0.455,0.755,0.605,1.058,0.605
							c0.981,0,1.133-0.68,1.133-0.68c-0.074,0.074-0.229,0.15-0.452,0.15c-0.378,0-0.453-0.682-0.983-0.682
							c-0.527,0-0.755,0.377-0.755,0.377s-0.227-0.377-0.757-0.377c-0.529,0-0.607,0.682-0.982,0.682
							c-0.229,0-0.377-0.076-0.454-0.15C137.12,153.794,137.271,154.474,138.256,154.474z"/>
					</g>
				</g>
			</g>
			<circle fill="#414142" cx="137.808" cy="151.476" r="1.372"/>
			<path fill="#414142" d="M142.219,151.492c0,0.756-0.615,1.369-1.375,1.369c-0.754,0-1.369-0.613-1.369-1.369
				c0-0.758,0.615-1.373,1.369-1.373C141.604,150.119,142.219,150.734,142.219,151.492z"/>
			<g id="Layer_2_326_">
				<path fill="#414142" d="M139.311,153.64c0,0-0.224-0.377-0.754-0.377c-0.529,0-0.607,0.682-0.984,0.682
					c-0.227,0-0.375-0.076-0.452-0.15c0,0,0.151,0.68,1.136,0.68c0.301,0,0.831-0.15,1.055-0.605"/>
			</g>
		</g>
		<g>
			<g>
				<g>
					<g id="Layer_2_14_">
						<path fill="#414142" d="M114.059,152.923c0.301,0,0.832-0.148,1.059-0.605c0.225,0.457,0.756,0.605,1.057,0.605
							c0.984,0,1.133-0.682,1.133-0.682c-0.073,0.076-0.227,0.154-0.452,0.154c-0.38,0-0.452-0.682-0.981-0.682
							c-0.531,0-0.756,0.377-0.756,0.377s-0.227-0.377-0.758-0.377c-0.527,0-0.605,0.682-0.982,0.682
							c-0.227,0-0.379-0.078-0.455-0.154C112.922,152.242,113.075,152.923,114.059,152.923z"/>
					</g>
				</g>
			</g>
			<circle fill="#414142" cx="113.61" cy="149.927" r="1.371"/>
			<circle fill="#414142" cx="116.65" cy="149.941" r="1.373"/>
			<g id="Layer_2_323_">
				<path fill="#414142" d="M115.117,152.091c0,0-0.227-0.377-0.758-0.377c-0.527,0-0.605,0.682-0.984,0.682
					c-0.225,0-0.377-0.078-0.453-0.154c0,0,0.153,0.682,1.137,0.682c0.301,0,0.832-0.148,1.059-0.605"/>
			</g>
		</g>
		<polygon fill="#231F20" points="161.803,161.695 103.844,161.695 107.082,210.845 120.209,210.845 122.935,180.101 
			141.346,180.101 145.268,210.845 158.393,211.052 		"/>
		<circle fill="none" stroke="#414142" stroke-width="1.3225" stroke-miterlimit="10" cx="131.012" cy="81.396" r="0.768"/>
		<circle fill="none" stroke="#414142" stroke-width="1.3225" stroke-miterlimit="10" cx="131.012" cy="90.858" r="0.768"/>
		<circle fill="none" stroke="#414142" stroke-width="1.3225" stroke-miterlimit="10" cx="131.012" cy="100.321" r="0.768"/>
		<circle fill="none" stroke="#414142" stroke-width="1.3225" stroke-miterlimit="10" cx="131.012" cy="109.781" r="0.768"/>
		<circle fill="none" stroke="#414142" stroke-width="1.3225" stroke-miterlimit="10" cx="131.012" cy="119.242" r="0.768"/>
		<path fill="none" stroke="#414142" stroke-width="1.3225" stroke-miterlimit="10" d="M131.779,128.703
			c0,0.424-0.345,0.77-0.768,0.77s-0.768-0.346-0.768-0.77c0-0.422,0.345-0.766,0.768-0.766S131.779,128.281,131.779,128.703z"/>
		<circle fill="none" stroke="#414142" stroke-width="1.3225" stroke-miterlimit="10" cx="131.012" cy="138.166" r="0.768"/>
		<circle fill="none" stroke="#414142" stroke-width="1.3225" stroke-miterlimit="10" cx="131.012" cy="147.628" r="0.768"/>
		<path fill="none" stroke="#414142" stroke-width="1.3225" stroke-miterlimit="10" d="M131.779,157.087
			c0,0.426-0.345,0.768-0.768,0.768s-0.768-0.342-0.768-0.768c0-0.42,0.345-0.764,0.768-0.764S131.779,156.667,131.779,157.087z"/>
		<polygon fill="#231F20" points="132.824,75.362 125.448,70.913 123.158,75.362 129.607,79.096 		"/>
		<polygon fill="#231F20" points="132.824,75.362 140.082,70.913 142.375,75.362 135.928,79.096 		"/>
		<g>
			<g>
				<g>
					<g id="Layer_2_13_">
						<path fill="#414142" d="M157.582,84.75c0.215-0.213,0.48-0.693,0.321-1.175c0.479,0.16,0.962-0.108,1.175-0.321
							c0.692-0.696,0.32-1.282,0.32-1.282c0.002,0.105-0.052,0.267-0.214,0.427c-0.265,0.27-0.802-0.162-1.175,0.213
							c-0.375,0.373-0.268,0.803-0.268,0.803s-0.428-0.105-0.801,0.266c-0.375,0.377,0.053,0.911-0.216,1.177
							c-0.159,0.161-0.319,0.213-0.425,0.213C156.301,85.069,156.887,85.445,157.582,84.75z"/>
					</g>
				</g>
			</g>
			<circle fill="#414142" cx="155.146" cy="82.948" r="1.371"/>
			<path fill="#414142" d="M158.275,79.84c0.533,0.533,0.533,1.402,0,1.938c-0.535,0.533-1.407,0.533-1.938,0
				c-0.538-0.535-0.538-1.402,0-1.938C156.868,79.303,157.74,79.303,158.275,79.84z"/>
			<g id="Layer_2_320_">
				<path fill="#414142" d="M157.742,83.415c0,0-0.428-0.106-0.801,0.265c-0.375,0.377,0.053,0.911-0.216,1.177
					c-0.159,0.161-0.319,0.213-0.425,0.213c0,0,0.586,0.376,1.281-0.319c0.215-0.213,0.48-0.693,0.321-1.175"/>
			</g>
		</g>
		<g>
			<g>
				<g>
					<g id="Layer_2_12_">
						<path fill="#414142" d="M105.588,96.607c0.213,0.215,0.692,0.479,1.176,0.32c-0.162,0.482,0.107,0.962,0.32,1.178
							c0.693,0.692,1.282,0.316,1.282,0.316c-0.106,0.002-0.269-0.051-0.429-0.211c-0.264-0.268,0.16-0.801-0.211-1.176
							c-0.377-0.375-0.803-0.267-0.803-0.267s0.106-0.431-0.268-0.804c-0.373-0.374-0.91,0.055-1.176-0.211
							c-0.158-0.163-0.216-0.322-0.213-0.43C105.268,95.324,104.891,95.91,105.588,96.607z"/>
					</g>
				</g>
			</g>
			<circle fill="#414142" cx="107.391" cy="94.171" r="1.372"/>
			<path fill="#414142" d="M110.5,97.299c-0.535,0.535-1.404,0.535-1.941,0c-0.535-0.536-0.535-1.402,0-1.938
				c0.537-0.537,1.406-0.537,1.941,0C111.033,95.896,111.036,96.764,110.5,97.299z"/>
			<g id="Layer_2_317_">
				<path fill="#414142" d="M106.924,96.769c0,0,0.106-0.431-0.268-0.804c-0.373-0.374-0.91,0.055-1.176-0.214
					c-0.158-0.16-0.216-0.319-0.213-0.427c0,0-0.377,0.586,0.32,1.283c0.213,0.215,0.692,0.479,1.176,0.32"/>
			</g>
		</g>
		<g>
			<path fill="#FBCD9A" d="M95.443,96.951l10.443,4.558c0,0-4.006,15.112-7.561,18.231c-5.418,4.753-10.396,4.771-12.162-4.111
				C85.353,111.549,95.443,96.951,95.443,96.951z"/>
			<polygon fill="#9E2922" points="123.271,90.408 106.66,76.332 86.943,101.683 101.468,114.944 			"/>
		</g>
		<g>
			<path fill="#FBCD9A" d="M169.932,96.951l-10.445,4.558c0,0,4.006,15.112,7.562,18.231c5.417,4.753,10.395,4.771,12.16-4.111
				C180.021,111.549,169.932,96.951,169.932,96.951z"/>
			<polygon fill="#9E2922" points="142.102,90.408 158.714,76.332 178.433,101.683 163.906,114.944 			"/>
		</g>
		<g>
			<g>
				<g>
					<g id="Layer_2_11_">
						<path fill="#414142" d="M151.183,99.587c0.303,0,0.831-0.151,1.06-0.604c0.225,0.453,0.756,0.604,1.057,0.604
							c0.984,0,1.133-0.68,1.133-0.68c-0.074,0.075-0.227,0.151-0.451,0.151c-0.376,0-0.455-0.682-0.982-0.682
							c-0.531,0-0.756,0.381-0.756,0.381s-0.229-0.381-0.757-0.381c-0.526,0-0.606,0.682-0.981,0.682
							c-0.229,0-0.379-0.076-0.451-0.151C150.053,98.907,150.199,99.587,151.183,99.587z"/>
					</g>
				</g>
			</g>
			<circle fill="#414142" cx="150.738" cy="96.59" r="1.372"/>
			<path fill="#414142" d="M155.146,96.605c0,0.758-0.615,1.369-1.371,1.369s-1.369-0.611-1.369-1.369
				c0-0.76,0.613-1.372,1.369-1.372S155.146,95.846,155.146,96.605z"/>
			<g id="Layer_2_166_">
				<path fill="#414142" d="M152.242,98.758c0,0-0.229-0.381-0.757-0.381c-0.526,0-0.606,0.682-0.983,0.682
					c-0.227,0-0.377-0.076-0.449-0.151c0,0,0.146,0.68,1.13,0.68c0.303,0,0.831-0.151,1.06-0.604"/>
			</g>
		</g>
		<g>
			<g>
				<g>
					<g id="Layer_2_10_">
						<path fill="#414142" d="M157.582,84.75c0.215-0.213,0.48-0.693,0.321-1.175c0.479,0.16,0.962-0.108,1.175-0.321
							c0.692-0.696,0.32-1.282,0.32-1.282c0.002,0.105-0.052,0.267-0.214,0.427c-0.265,0.27-0.802-0.162-1.175,0.213
							c-0.375,0.373-0.268,0.803-0.268,0.803s-0.428-0.105-0.801,0.266c-0.375,0.377,0.053,0.911-0.216,1.177
							c-0.159,0.161-0.319,0.213-0.425,0.213C156.301,85.069,156.887,85.445,157.582,84.75z"/>
					</g>
				</g>
			</g>
			<circle fill="#414142" cx="155.146" cy="82.948" r="1.371"/>
			<path fill="#414142" d="M158.275,79.84c0.533,0.533,0.533,1.402,0,1.938c-0.535,0.533-1.407,0.533-1.938,0
				c-0.538-0.535-0.538-1.402,0-1.938C156.868,79.303,157.74,79.303,158.275,79.84z"/>
			<g id="Layer_2_158_">
				<path fill="#414142" d="M157.742,83.415c0,0-0.428-0.106-0.801,0.265c-0.375,0.377,0.053,0.911-0.216,1.177
					c-0.159,0.161-0.319,0.213-0.425,0.213c0,0,0.586,0.376,1.281-0.319c0.215-0.213,0.48-0.693,0.321-1.175"/>
			</g>
		</g>
		<ellipse fill="#231F20" cx="114.543" cy="161.794" rx="10.699" ry="8.965"/>
		<path fill="#231F20" d="M161.803,161.794c0,4.951-4.789,8.965-10.701,8.965c-5.908,0-10.697-4.014-10.697-8.965
			s4.789-8.965,10.697-8.965C157.014,152.83,161.803,156.843,161.803,161.794z"/>
		<polygon fill="#231F20" points="121.385,229.394 106.457,229.394 107.982,215.955 119.857,215.955 		"/>
		<path fill="#231F20" d="M103.188,235.029c0-5.928,4.804-10.734,10.734-10.734c5.929,0,10.732,4.807,10.732,10.734"/>
		<polygon fill="#231F20" points="158.568,229.394 143.642,229.394 145.167,215.955 157.043,215.955 		"/>
		<path fill="#231F20" d="M140.371,235.029c0-5.928,4.803-10.734,10.733-10.734c5.928,0,10.732,4.807,10.732,10.734"/>
		<polygon fill="#FFFFFF" points="207.383,136.691 207.383,136.691 18.916,136.691 18.916,235.029 29.084,235.029 29.084,146.863 
			207.383,146.863 207.383,235.029 217.554,235.029 217.554,146.863 217.554,136.691 217.554,136.691 		"/>
		<path fill="#FBCD9A" d="M87.286,132.486c-0.146-0.912,0.239-1.732,0.856-1.826c0.619-0.1,1.234,0.561,1.378,1.475
			c0.143,0.914-0.238,1.734-0.86,1.83C88.045,134.06,87.43,133.402,87.286,132.486z"/>
		<path fill="#BBBDBF" d="M89.072,136.691c0-3.371-2.732-6.105-6.104-6.105s-6.104,2.734-6.104,6.105"/>
		<path fill="#FBCD9A" d="M88.627,130.691c0,0-1.104-1.385-2.29-1.742c-0.415-0.121-2.86-1.742-5.817-0.736
			c-2.955,0.998-3.216,1.561-3.146,2.295c0.064,0.736,0.619,1.328,0.619,1.328l9.967,0.762L88.627,130.691z"/>
		<path fill="#FBCD9A" d="M78.326,132.312c0,0.855,0.683,1.547,1.525,1.547c0.842,0,1.525-0.691,1.525-1.547
			c0-0.857-0.684-1.549-1.525-1.549C79.009,130.763,78.326,131.455,78.326,132.312z"/>
		<path fill="#FBCD9A" d="M83.691,132.312c0,0.855,0.684,1.547,1.528,1.547c0.839,0,1.526-0.691,1.526-1.547
			c0-0.857-0.688-1.549-1.526-1.549C84.375,130.763,83.691,131.455,83.691,132.312z"/>
		<rect x="173.43" y="132.138" fill="#8CC541" width="33.188" height="4.553"/>
		<rect x="171.904" y="123.07" fill="#C3996B" width="33.188" height="4.549"/>
		<rect x="172.35" y="118.536" fill="#D7DE27" width="33.187" height="4.549"/>
		<rect x="174.133" y="114.438" fill="#231F20" width="33.186" height="4.551"/>
		<rect x="175.377" y="127.587" fill="#595A5C" width="33.189" height="4.551"/>
		<g>
			<g>
				<path fill="#BBBDBF" d="M180.463,117.716c0,3.365-3,6.096-6.701,6.096h-83.74c-3.7,0-6.701-2.731-6.701-6.096V65.951
					c0-3.369,3.001-6.098,6.701-6.098h83.74c3.701,0,6.701,2.729,6.701,6.098V117.716z"/>
				<rect x="123.049" y="100.373" fill="#BBBDBF" width="17.688" height="34.601"/>
				<path fill="#BBBDBF" d="M154.398,135.886c0,0.508-0.453,0.916-1.012,0.916h-42.99c-0.559,0-1.015-0.408-1.015-0.916l0,0
					c0-0.506,0.456-0.912,1.015-0.912h42.99C153.945,134.974,154.398,135.38,154.398,135.886L154.398,135.886z"/>
				
					<image overflow="visible" width="960" height="960" xlink:href="AD3C1E30AFEDB86E.png"  transform="matrix(0.0146 0 0 0.0146 125.9434 83.2939)">
				</image>
			</g>
			<rect x="124.875" y="82.205" fill="#BBBDBF" width="13.418" height="15.195"/>
			<g>
				<circle fill="#FFFFFF" cx="129.552" cy="88.449" r="3.134"/>
				<circle fill="#FFFFFF" cx="136.355" cy="88.479" r="3.135"/>
				<g>
					<g>
						<g id="Layer_2_9_">
							<path fill="#FFFFFF" d="M132.985,93.918c0.521,1.033,1.729,1.381,2.417,1.381c2.248,0,2.595-1.557,2.595-1.557
								c-0.175,0.176-0.521,0.348-1.038,0.348c-0.865,0-1.034-1.557-2.244-1.557c-1.209,0-1.729,0.867-1.729,0.867"/>
						</g>
					</g>
				</g>
				<g id="Layer_2_41_">
					<g>
						<path fill="#FFFFFF" d="M132.985,93.4c0,0-0.518-0.867-1.729-0.867c-1.208,0-1.38,1.557-2.244,1.557
							c-0.517,0-0.862-0.172-1.036-0.348c0,0,0.346,1.557,2.591,1.557c0.689,0,1.9-0.348,2.418-1.381"/>
					</g>
				</g>
			</g>
		</g>
	</g>
	<g>
		<path fill="#493E4F" d="M62.047,134.583c0,1.16-0.969,2.098-2.165,2.098H36.377c-1.194,0-2.16-0.938-2.16-2.098v-14.211
			c0-1.158,0.966-2.095,2.16-2.095h23.505c1.196,0,2.165,0.937,2.165,2.095V134.583z"/>
		<path fill="#C8B9BB" d="M34.162,124.285v-3.939c0-1.165,0.973-2.103,2.172-2.103h23.595c1.196,0,2.169,0.938,2.169,2.103v3.939"/>
		<path fill="#C8B9BB" d="M62.098,134.068v0.543c0,1.164-0.973,2.104-2.169,2.104H36.334c-1.199,0-2.172-0.939-2.172-2.104v-0.543"
			/>
		<circle fill="#E6E7E8" cx="49.041" cy="129.339" r="7.464"/>
		<circle fill="#493E4F" cx="49.04" cy="129.339" r="6.665"/>
		<circle fill="#58595B" cx="49.04" cy="129.339" r="4.532"/>
		<path d="M52.344,129.339c0,1.828-1.477,3.305-3.305,3.305c-1.825,0-3.308-1.477-3.308-3.305c0-1.826,1.482-3.309,3.308-3.309
			C50.867,126.031,52.344,127.513,52.344,129.339z"/>
		<rect x="35.627" y="125.21" fill="#E6E7E8" width="5.197" height="2.266"/>
		<rect x="54.332" y="119.28" fill="#493E4F" width="5.758" height="3.588"/>
		<rect x="46.961" y="119.28" fill="#493E4F" width="6.423" height="2.598"/>
	</g>
</g>
</svg>
