<?xml version="1.0" encoding="utf-8"?>
<!-- Generator: Adobe Illustrator 16.0.0, SVG Export Plug-In . SVG Version: 6.00 Build 0)  -->
<!DOCTYPE svg PUBLIC "-//W3C//DTD SVG 1.1//EN" "http://www.w3.org/Graphics/SVG/1.1/DTD/svg11.dtd">
<svg version="1.1" id="Layer_1" xmlns="http://www.w3.org/2000/svg" xmlns:xlink="http://www.w3.org/1999/xlink" x="0px" y="0px"
	 width="344.444px" height="229.667px" viewBox="0 0 344.444 229.667" enable-background="new 0 0 344.444 229.667"
	 xml:space="preserve">
<g>
	<polyline fill="#FBCD9A" points="272.376,75.357 257.388,103.749 251.498,97.099 262.451,73.755 	"/>
	<g>
		<rect x="277.623" y="57.214" fill="#FBCD9A" width="18.568" height="10.174"/>
		<path fill="#FBCD9A" d="M277.623,66.966c0,2.756,2.234,4.99,4.992,4.99h7.754c2.754,0,4.99-2.234,4.99-4.99l0,0
			c0-2.756-2.236-4.992-4.99-4.992h-7.754C279.857,61.974,277.623,64.21,277.623,66.966L277.623,66.966z"/>
		<rect x="272.39" y="24.117" fill="#846C39" width="27.463" height="33.414"/>
		<path fill="#FBCD9A" d="M308.478,88.207l14.824,33.572c0,0,0.459,1.074,0.396,2.297c-0.066,1.219-1.379,1.395-1.471,3.104
			s-0.301,5.617-0.379,7.082c-0.078,1.463,0.424,2.133,1.488,2.189c0.857,0.047,1.104-3.387,1.029-5.078
			c-0.047-1.135,2.613-1.553,2.689,0.145c0.043,0.977-0.133,2.441-0.195,3.662c-0.066,1.223-1.877,3.045-2.682,4.346
			c-0.609,0.984-0.586,1.805-0.432,2.396c0,0,3.334-3.932,3.924-4.607c0.365-0.416,0.787-0.107,0.439,0.402
			c-0.508,0.748-4.318,5.016-4.73,6.053c-0.227,0.576,0.367,1.637,0.824,1.387c0.801-0.432,3.58-3.723,5.428-6.154
			c1.66-2.178,0.982-6.885,1.062-13.004c0.08-6.115-0.758-7.178-0.758-7.178l-14.822-33.57L308.478,88.207z"/>
		<rect x="272.537" y="204.154" fill="#FBCD9A" width="7.195" height="10.957"/>
		<rect x="294.318" y="204.154" fill="#FBCD9A" width="7.195" height="10.957"/>
		<path fill="#FBCD9A" d="M275.238,39.712c0-3.734-1.908-10.172,0-12.619c1.912-2.447,7.641-0.902,11.377-0.902
			c4.266,0,9.086-3.607,10.963-0.523c1.412,2.316,0.414,10.842,0.414,14.045c0,7.469-3.906,13.527-11.377,13.527
			C279.146,53.24,275.238,47.181,275.238,39.712z"/>
		<g>
			<g>
				<g>
					<g id="Layer_2_29_">
						<path fill="#414142" d="M302.029,68.281c-0.254,0-0.697-0.125-0.889-0.506c-0.191,0.381-0.633,0.506-0.889,0.506
							c-0.824,0-0.951-0.57-0.951-0.57c0.064,0.064,0.191,0.129,0.381,0.129c0.318,0,0.381-0.572,0.826-0.572
							c0.441,0,0.633,0.318,0.633,0.318s0.191-0.318,0.635-0.318s0.508,0.572,0.822,0.572c0.195,0,0.32-0.064,0.385-0.129
							C302.982,67.71,302.855,68.281,302.029,68.281z"/>
					</g>
				</g>
			</g>
			<path fill="#414142" d="M301.253,65.765c0,0.639,0.514,1.152,1.15,1.152c0.635,0,1.152-0.514,1.152-1.152
				c0-0.633-0.518-1.15-1.152-1.15C301.767,64.615,301.253,65.132,301.253,65.765z"/>
			<path fill="#414142" d="M298.703,65.777c0,0.637,0.518,1.152,1.15,1.152c0.635,0,1.152-0.516,1.152-1.152
				c0-0.635-0.518-1.148-1.152-1.148C299.22,64.628,298.703,65.142,298.703,65.777z"/>
			<g id="Layer_2_1103_">
				<path fill="#414142" d="M301.14,67.585c0,0,0.191-0.318,0.635-0.318s0.508,0.572,0.828,0.572c0.189,0,0.314-0.064,0.379-0.129
					c0,0-0.127,0.57-0.953,0.57c-0.254,0-0.697-0.125-0.889-0.506"/>
			</g>
		</g>
		<linearGradient id="SVGID_1_" gradientUnits="userSpaceOnUse" x1="267.9995" y1="170.7534" x2="305.4917" y2="170.7534">
			<stop  offset="0" style="stop-color:#09A7A6"/>
			<stop  offset="1" style="stop-color:#007A78"/>
		</linearGradient>
		<polygon fill="url(#SVGID_1_)" points="268,135.031 305.492,135.031 302.058,206.3 293.55,206.3 290.753,150.486 283.882,150.486 
			280.109,206.193 272.005,206.474 		"/>
		<path fill="#A58E50" d="M297.375,25.001c0,0-6.107,6.439-13.406,6.295c-7.299-0.141-11.592-5.008-11.592-5.008l1.432-0.143
			l-1.145-1.145h1.43l-1.576-1.432l3.867-0.857c0,0,0.143-7.301,4.148-9.018c4.008-1.717,13.311-0.857,18.318,5.582"/>
		<rect x="280.73" y="49.589" fill="#FBCD9A" width="11.34" height="14.168"/>
		<g>
			<g>
				<path fill="none" stroke="#FFFFFF" stroke-width="1.3225" stroke-miterlimit="10" stroke-dasharray="6.8054,6.8054" d="
					M295.527,201.123"/>
				<path fill="none" stroke="#FFFFFF" stroke-width="1.3225" stroke-miterlimit="10" stroke-dasharray="6.8054,6.8054" d="
					M291.656,151.601"/>
			</g>
		</g>
		<path fill="#231F20" d="M254.964,87.132c2.83-6.129,8.828-18.662,8.828-18.662l4.184-8.957c0.916-1.414,2.641-2.258,4.461-2.258
			h1.021h3.52h1.262v6.557v0.42h0.021c0.215,2.561,2.355,4.57,4.971,4.57h3.723h0.182h3.725c2.615,0,4.758-2.01,4.971-4.57h0.02
			v-0.42v-6.557h1.264h3.516h1.02c1.826,0,3.551,0.844,4.463,2.258l4.188,8.957c0,0,2.338,4.932,5.168,11.061l2.025,4.33
			l-0.025,0.025c1.879,4.867,1.879,4.867,1.879,4.867l-9.928,3.311l-5.242-11.371c-0.127,2.34,2.887,6.795,2.133,10.145
			c-0.385,1.705-2.215,3.174-2.219,3.623c-0.07,6.16,0,9.632,0,12.552c0,5.269,2.713,33.532,2.713,33.532h-8.318h-1.371h-9.979
			h-0.182h-9.977h-1.371h-8.32c0,0,2.715-28.263,2.715-33.532c0-2.92,0.064-6.392-0.002-12.552
			c-0.004-0.449-1.832-1.918-2.217-3.623c-0.754-3.35,2.258-7.805,2.131-10.145l-5.244,11.371"/>
		<path fill="#231F20" d="M256.621,83.886"/>
		<g>
			<path fill="#231F20" d="M259.056,217.421c9.535,0,12.33-6.035,12.33-6.035l9.039,1.314l1.088,10.312h-30.885
				C251.003,220.81,252.623,217.421,259.056,217.421z"/>
			<path fill="#FFFFFF" d="M281.513,223.013l0.197,1.852h-31.158c0,0-0.104-0.789,0.076-1.852H281.513z"/>
			<path fill="#FFFFFF" d="M323.101,224.865h-31.158l0.197-1.852h30.885C323.207,224.076,323.101,224.865,323.101,224.865z"/>
			<path fill="#231F20" d="M302.267,211.386c0,0,2.795,6.035,12.33,6.035c6.434,0,8.053,3.389,8.428,5.592H292.14l1.086-10.312
				L302.267,211.386z"/>
		</g>
		<g>
			<path fill="#231F20" d="M297.687,34.3v1.832c0,0-0.838,0.211-0.955,1.047c-0.115,0.836-0.904,3.299-2.578,3.811
				c-1.672,0.51-3.762,0.232-4.645-0.465s-1.188-1.463-1.441-2.232c-0.256-0.764-0.207-1.693-1.254-1.693s-0.883,1.066-1.117,1.625
				c-0.23,0.557-0.695,1.834-1.717,2.416s-2.648,0.883-4.297,0.396c-1.65-0.488-2.395-2.627-2.674-3.65
				c-0.277-1.021-1.021-1.393-1.021-1.393v-1.789c0,0,2.348-0.324,4.484-0.303c2.137,0.023,3.785,0.375,4.273,0.627
				c0.486,0.258,0.605,0.908,2.068,0.908s1.822-0.701,2.09-0.883C289.603,34.078,292.007,33.625,297.687,34.3z"/>
			<linearGradient id="SVGID_2_" gradientUnits="userSpaceOnUse" x1="288.5093" y1="37.6992" x2="295.9243" y2="37.6992">
				<stop  offset="0" style="stop-color:#00A9C6"/>
				<stop  offset="1" style="stop-color:#004241"/>
			</linearGradient>
			<path fill="url(#SVGID_2_)" d="M295.921,37.087c0.023-0.545-0.049-1.732-1-2.119c-0.953-0.387-3.484-0.252-4.807,0.113
				c-1.326,0.365-1.627,1.275-1.604,1.801c0.021,0.525,0.137,2.807,1.809,3.424c1.674,0.615,4.066,0.455,4.764-0.641
				C295.781,38.574,295.888,37.765,295.921,37.087z"/>
			<linearGradient id="SVGID_3_" gradientUnits="userSpaceOnUse" x1="277.7515" y1="37.6963" x2="285.1685" y2="37.6963">
				<stop  offset="0" style="stop-color:#00A9C6"/>
				<stop  offset="1" style="stop-color:#004241"/>
			</linearGradient>
			<path fill="url(#SVGID_3_)" d="M277.755,37.087c-0.025-0.547,0.047-1.732,1-2.119s3.484-0.252,4.809,0.113
				c1.326,0.365,1.627,1.273,1.604,1.801c-0.023,0.525-0.141,2.801-1.812,3.418c-1.672,0.615-4.066,0.455-4.762-0.637
				C277.894,38.57,277.787,37.763,277.755,37.087z"/>
		</g>
		<path fill="#595A5C" d="M220.226,89.255c0.197,0.174,0.869-0.42,1.504-1.324l0,0c0.637-0.9,0.99-1.773,0.793-1.943L205.832,71.39
			c-0.197-0.174-0.869,0.416-1.506,1.322l0,0c-0.635,0.902-0.984,1.771-0.789,1.947L220.226,89.255z"/>
		<path fill="#FBCD9A" d="M227.06,91.484c-2.123-1.766-2.553-1.381-3.691-4.43l-0.406-1.09l-0.254-0.678
			c0,0-1.299-1.299-2.029-2.178c-0.58-0.691-1.266-1.279-2.115-0.961c-0.422,0.158-0.605,0.285-0.779,0.666
			c-0.176,0.383-0.193,0.588-0.033,1.012l3.01,2.209l-8.402-3.834l-0.008,0.018c-0.055-0.031-0.115-0.074-0.18-0.104l-4.52-4.318
			c-0.824-0.377-1.799-0.012-2.178,0.811c-0.174,0.385-0.184,0.795-0.066,1.172c0.084,0.266,0.234,0.508,0.449,0.705
			c0.123,0.119,0.262,0.223,0.434,0.301l4.648,4.365c0.066,0.031,0,0,0.064,0.016l-0.174,0.385
			c-0.057-0.033-0.119-0.074-0.184-0.104l-2.932-1.777c-0.172-0.078-0.348-0.119-0.523-0.135c-0.684-0.064-1.355,0.293-1.654,0.945
			c-0.375,0.826-0.012,1.803,0.811,2.176l2.941,1.777c0.061,0.027,0.131,0.049,0.193,0.066l-0.166,0.365l-3.025-1.754
			c-0.826-0.375-1.799-0.01-2.176,0.811c-0.377,0.83-0.012,1.799,0.811,2.174l3.027,1.758l-0.193,0.416l0.104,0.002
			c-0.824-0.375-1.797-0.012-2.17,0.812c-0.379,0.828-0.018,1.803,0.807,2.174c0,0,7.75,4.188,11.893,3.32l-0.014,0.023
			c0,0,6.635-0.375,7.656,0.016c0.158,0.059,0.834,0.264,1.867,0.562l11.959-3.783C234.357,94.449,228.103,92.347,227.06,91.484z"/>
		<path fill="#FBCD9A" d="M252.242,96.087l-25.307-4.959l-5.021,7.332l31.184,7.644c0,0,3.232,1.713,4.291-2.355"/>
		<path fill="#A58E50" d="M267.259,69.525c0,0,2.58-30.844,3.389-43.602c0.68-10.697,5.254-13.391,15.967-13.391
			c10.715,0,16.396,2.674,16.396,13.391h-0.01l3.006,43.967c0,0-8.207,1.855-9.49,0c3.621-9.48,0-46.973,0-46.973h-19.812
			c0,0-2.73,42.887,0,46.973c0.721,1.08-2.291,1.096-5.139,0.699C269.138,70.251,267.259,69.525,267.259,69.525z"/>
	</g>
	<path fill="#570A30" d="M271.416,18.91c0-8.346,7.322-15.115,15.672-15.115c8.348,0,15.111,6.77,15.111,15.115H271.416z"/>
	<path fill="#771341" d="M269.888,21.437c0,1.48,1.201,2.68,2.678,2.68h28.312c1.479,0,2.678-1.199,2.678-2.68l0,0
		c0-1.477-1.199-3.521-2.678-3.521h-28.312C271.089,17.916,269.888,19.96,269.888,21.437L269.888,21.437z"/>
</g>
<path fill="#FBCD9A" d="M62.78,138.394c0,0.836,0.486,1.51,1.087,1.51c0.597,0,1.084-0.674,1.084-1.51
	c0-0.832-0.405-2.004-1.006-2.004C63.346,136.39,62.78,137.562,62.78,138.394z"/>
<polyline fill="#9E2922" points="84.124,128.031 73.665,143.15 64.445,141.498 71.209,123.445 "/>
<polygon fill="#FFFFFF" points="137.918,169.14 137.872,169.14 134.269,169.14 85.547,169.14 81.942,169.14 81.942,172.746 
	81.942,223.929 85.547,223.929 85.547,172.746 134.269,172.746 134.269,223.929 137.872,223.929 137.872,172.746 137.918,172.746 
	"/>
<rect x="104.351" y="80.061" fill="#FBCD9A" width="11.263" height="14.074"/>
<path fill="#FBCD9A" d="M118.083,47.514h-16.629c-2.826,0-5.117,2.291-5.117,5.117v18.902c0,0.73,0.156,1.418,0.433,2.049
	c1.48,5.805,6.731,10.104,13,10.104c6.267,0,11.517-4.299,12.997-10.104c0.276-0.631,0.434-1.318,0.434-2.049V52.631
	C123.2,49.805,120.908,47.514,118.083,47.514z"/>
<rect x="90.507" y="203.765" fill="#6E6F71" width="7.675" height="6.963"/>
<rect x="121.21" y="203.765" fill="#6E6F71" width="7.675" height="6.963"/>
<path fill="#9E2922" d="M95.477,90.807H91.06c-2.826,0-5.116,2.27-5.116,5.068v61.238v0.689v5.066h4.405h38.715h5.205v-5.066v-0.217
	l-0.089-61.71c0-2.799-2.29-5.068-5.116-5.068h-4.328"/>
<path fill="#3E2519" d="M100.786,55.934c0,0,6.064,6.396,13.316,6.254c7.248-0.141,14.496-4.975,14.496-4.975l-4.405-0.141
	l1.138-1.139h-1.421l2.841-1.42l-5.116-0.854c0,0-0.142-7.248-4.123-8.955c-3.977-1.705-13.217-0.852-18.19,5.543
	c0,0-4.123-1.418-5.972,1.564c-1.634,2.637-0.426,7.391,1.849,9.381v7.889h1.139v-7.656
	C96.337,61.426,100.786,62.809,100.786,55.934z"/>
<rect x="95.198" y="60.572" fill="#3E2519" width="1.565" height="10.217"/>
<rect x="122.206" y="59.346" fill="#3E2519" width="1.564" height="11.443"/>
<g>
	<g>
		<g>
			<g id="Layer_2_28_">
				<path fill="#3E2519" d="M106.272,74.711c1.045,0,2.876-0.523,3.658-2.09c0.784,1.566,2.613,2.09,3.658,2.09
					c3.396,0,3.919-2.35,3.919-2.35c-0.263,0.26-0.784,0.523-1.568,0.523c-1.304,0-1.566-2.355-3.396-2.355
					s-2.613,1.309-2.613,1.309s-0.782-1.309-2.613-1.309c-1.828,0-2.089,2.355-3.396,2.355c-0.784,0-1.305-0.264-1.566-0.523
					C102.355,72.361,102.876,74.711,106.272,74.711z"/>
			</g>
		</g>
	</g>
	<g id="Layer_2_1100_">
		<path fill="#3E2519" d="M109.931,71.838c0,0-0.782-1.309-2.613-1.309c-1.828,0-2.089,2.355-3.396,2.355
			c-0.784,0-1.305-0.264-1.566-0.523c0,0,0.521,2.35,3.917,2.35c1.045,0,2.876-0.523,3.658-2.09"/>
	</g>
</g>
<line fill="none" stroke="#231F20" stroke-width="0.6612" stroke-miterlimit="10" x1="110.106" y1="162.785" x2="110.106" y2="90.723"/>
<g>
	<g>
		<g>
			<g id="Layer_2_27_">
				<path fill="#414142" d="M94.461,98.629c0.251,0,0.693-0.125,0.882-0.504c0.188,0.379,0.629,0.504,0.882,0.504
					c0.82,0,0.944-0.57,0.944-0.57c-0.062,0.066-0.189,0.129-0.377,0.129c-0.315,0-0.378-0.568-0.82-0.568
					c-0.44,0-0.629,0.316-0.629,0.316s-0.188-0.316-0.631-0.316c-0.44,0-0.505,0.568-0.818,0.568c-0.19,0-0.316-0.062-0.38-0.129
					C93.514,98.059,93.64,98.629,94.461,98.629z"/>
			</g>
		</g>
	</g>
	<circle fill="#414142" cx="94.086" cy="96.131" r="1.143"/>
	<path fill="#414142" d="M97.766,96.143c0,0.629-0.514,1.143-1.145,1.143c-0.633,0-1.145-0.514-1.145-1.143
		c0-0.635,0.512-1.145,1.145-1.145C97.252,94.998,97.766,95.508,97.766,96.143z"/>
	<g id="Layer_2_1097_">
		<path fill="#414142" d="M95.343,97.936c0,0-0.188-0.316-0.631-0.316c-0.44,0-0.505,0.568-0.82,0.568
			c-0.188,0-0.314-0.062-0.378-0.129c0,0,0.126,0.57,0.947,0.57c0.251,0,0.693-0.125,0.882-0.504"/>
	</g>
</g>
<g>
	<g>
		<g>
			<g id="Layer_2_26_">
				<path fill="#414142" d="M103.565,107.732c0.25,0,0.69-0.127,0.881-0.504c0.19,0.377,0.631,0.504,0.883,0.504
					c0.819,0,0.943-0.568,0.943-0.568c-0.062,0.064-0.188,0.127-0.377,0.127c-0.316,0-0.378-0.566-0.818-0.566
					s-0.631,0.316-0.631,0.316s-0.19-0.316-0.631-0.316c-0.441,0-0.504,0.566-0.82,0.566c-0.188,0-0.313-0.062-0.377-0.127
					C102.618,107.164,102.745,107.732,103.565,107.732z"/>
			</g>
		</g>
	</g>
	<path fill="#414142" d="M104.335,105.232c0,0.631-0.511,1.145-1.144,1.145c-0.63,0-1.144-0.514-1.144-1.145
		c0-0.629,0.514-1.143,1.144-1.143C103.824,104.09,104.335,104.604,104.335,105.232z"/>
	<circle fill="#414142" cx="105.726" cy="105.246" r="1.144"/>
	<g id="Layer_2_1094_">
		<path fill="#414142" d="M104.445,107.041c0,0-0.189-0.316-0.63-0.316c-0.441,0-0.504,0.566-0.82,0.566
			c-0.188,0-0.313-0.062-0.377-0.127c0,0,0.127,0.568,0.947,0.568c0.25,0,0.69-0.127,0.88-0.504"/>
	</g>
</g>
<g>
	<g>
		<g>
			<g id="Layer_2_25_">
				<path fill="#414142" d="M114.636,118.802c0.25,0,0.692-0.125,0.881-0.504c0.188,0.379,0.63,0.504,0.881,0.504
					c0.819,0,0.946-0.568,0.946-0.568c-0.062,0.064-0.19,0.127-0.378,0.127c-0.313,0-0.378-0.568-0.819-0.568
					s-0.63,0.316-0.63,0.316s-0.188-0.316-0.631-0.316c-0.44,0-0.506,0.568-0.819,0.568c-0.188,0-0.315-0.062-0.379-0.127
					C113.688,118.234,113.814,118.802,114.636,118.802z"/>
			</g>
		</g>
	</g>
	<circle fill="#414142" cx="114.262" cy="116.304" r="1.144"/>
	<circle fill="#414142" cx="116.794" cy="116.316" r="1.144"/>
	<g id="Layer_2_1091_">
		<path fill="#414142" d="M115.515,118.109c0,0-0.187-0.316-0.629-0.316c-0.44,0-0.506,0.568-0.821,0.568
			c-0.187,0-0.313-0.062-0.377-0.127c0,0,0.127,0.568,0.948,0.568c0.25,0,0.692-0.125,0.879-0.504"/>
	</g>
</g>
<g>
	<g>
		<g>
			<g id="Layer_2_24_">
				<path fill="#414142" d="M125.413,129.582c0.252,0,0.693-0.125,0.883-0.504c0.188,0.379,0.631,0.504,0.881,0.504
					c0.82,0,0.944-0.566,0.944-0.566c-0.062,0.062-0.188,0.125-0.375,0.125c-0.315,0-0.38-0.568-0.819-0.568
					c-0.442,0-0.631,0.318-0.631,0.318s-0.189-0.318-0.631-0.318c-0.439,0-0.505,0.568-0.817,0.568
					c-0.189,0-0.317-0.062-0.378-0.125C124.47,129.015,124.593,129.582,125.413,129.582z"/>
			</g>
		</g>
	</g>
	<circle fill="#414142" cx="125.042" cy="127.083" r="1.144"/>
	<path fill="#414142" d="M128.718,127.093c0,0.631-0.512,1.145-1.144,1.145c-0.63,0-1.142-0.514-1.142-1.145
		c0-0.629,0.512-1.143,1.142-1.143C128.206,125.951,128.718,126.464,128.718,127.093z"/>
	<g id="Layer_2_1088_">
		<path fill="#414142" d="M126.296,128.89c0,0-0.189-0.318-0.631-0.318c-0.439,0-0.505,0.568-0.819,0.568
			c-0.188,0-0.315-0.062-0.376-0.125c0,0,0.123,0.566,0.943,0.566c0.252,0,0.693-0.125,0.883-0.504"/>
	</g>
</g>
<g>
	<g>
		<g>
			<g id="Layer_2_23_">
				<path fill="#414142" d="M114.636,100.227c0.25,0,0.692-0.127,0.881-0.506c0.188,0.379,0.63,0.506,0.881,0.506
					c0.819,0,0.946-0.568,0.946-0.568c-0.062,0.062-0.19,0.127-0.378,0.127c-0.313,0-0.378-0.568-0.819-0.568
					s-0.63,0.316-0.63,0.316s-0.188-0.316-0.631-0.316c-0.44,0-0.506,0.568-0.819,0.568c-0.188,0-0.315-0.064-0.379-0.127
					C113.688,99.658,113.814,100.227,114.636,100.227z"/>
			</g>
		</g>
	</g>
	<circle fill="#414142" cx="114.262" cy="97.727" r="1.144"/>
	<circle fill="#414142" cx="116.794" cy="97.738" r="1.144"/>
	<g id="Layer_2_1085_">
		<path fill="#414142" d="M115.515,99.533c0,0-0.187-0.316-0.629-0.316c-0.44,0-0.506,0.568-0.821,0.568
			c-0.187,0-0.313-0.064-0.377-0.127c0,0,0.127,0.568,0.948,0.568c0.25,0,0.692-0.127,0.879-0.506"/>
	</g>
</g>
<g>
	<g>
		<g>
			<g id="Layer_2_22_">
				<path fill="#414142" d="M125.413,111.004c0.252,0,0.693-0.125,0.883-0.502c0.188,0.377,0.631,0.502,0.881,0.502
					c0.82,0,0.944-0.566,0.944-0.566c-0.062,0.064-0.188,0.127-0.375,0.127c-0.315,0-0.38-0.568-0.819-0.568
					c-0.442,0-0.631,0.316-0.631,0.316s-0.189-0.316-0.631-0.316c-0.439,0-0.505,0.568-0.817,0.568
					c-0.189,0-0.317-0.062-0.378-0.127C124.47,110.438,124.593,111.004,125.413,111.004z"/>
			</g>
		</g>
	</g>
	<circle fill="#414142" cx="125.042" cy="108.506" r="1.144"/>
	<path fill="#414142" d="M128.718,108.52c0,0.631-0.512,1.141-1.144,1.141c-0.63,0-1.142-0.51-1.142-1.141
		c0-0.635,0.512-1.145,1.142-1.145C128.206,107.375,128.718,107.885,128.718,108.52z"/>
	<g id="Layer_2_1082_">
		<path fill="#414142" d="M126.296,110.312c0,0-0.189-0.316-0.631-0.316c-0.439,0-0.505,0.568-0.819,0.568
			c-0.188,0-0.315-0.062-0.376-0.127c0,0,0.123,0.566,0.943,0.566c0.252,0,0.693-0.125,0.883-0.502"/>
	</g>
</g>
<g>
	<g>
		<g>
			<g id="Layer_2_21_">
				<path fill="#414142" d="M94.461,117.972c0.251,0,0.693-0.127,0.882-0.504c0.188,0.377,0.629,0.504,0.882,0.504
					c0.82,0,0.944-0.566,0.944-0.566c-0.062,0.062-0.189,0.125-0.377,0.125c-0.315,0-0.378-0.566-0.82-0.566
					c-0.44,0-0.629,0.314-0.629,0.314s-0.188-0.314-0.631-0.314c-0.44,0-0.505,0.566-0.818,0.566c-0.19,0-0.316-0.062-0.38-0.125
					C93.514,117.406,93.64,117.972,94.461,117.972z"/>
			</g>
		</g>
	</g>
	<circle fill="#414142" cx="94.086" cy="115.474" r="1.143"/>
	<circle fill="#414142" cx="96.621" cy="115.484" r="1.145"/>
	<g id="Layer_2_1079_">
		<path fill="#414142" d="M95.343,117.279c0,0-0.188-0.314-0.631-0.314c-0.44,0-0.505,0.566-0.82,0.566
			c-0.188,0-0.314-0.062-0.378-0.125c0,0,0.126,0.566,0.947,0.566c0.251,0,0.693-0.127,0.882-0.504"/>
	</g>
</g>
<g>
	<g>
		<g>
			<g id="Layer_2_20_">
				<path fill="#414142" d="M103.565,127.076c0.25,0,0.69-0.125,0.881-0.502c0.19,0.377,0.631,0.502,0.883,0.502
					c0.819,0,0.943-0.568,0.943-0.568c-0.062,0.066-0.188,0.127-0.377,0.127c-0.316,0-0.378-0.566-0.818-0.566
					s-0.631,0.316-0.631,0.316s-0.19-0.316-0.631-0.316c-0.441,0-0.504,0.566-0.82,0.566c-0.188,0-0.313-0.061-0.377-0.127
					C102.618,126.507,102.745,127.076,103.565,127.076z"/>
			</g>
		</g>
	</g>
	<circle fill="#414142" cx="103.191" cy="124.578" r="1.144"/>
	<circle fill="#414142" cx="105.726" cy="124.589" r="1.144"/>
	<g id="Layer_2_1076_">
		<path fill="#414142" d="M104.445,126.384c0,0-0.189-0.316-0.63-0.316c-0.441,0-0.504,0.566-0.82,0.566
			c-0.188,0-0.313-0.061-0.377-0.127c0,0,0.127,0.568,0.947,0.568c0.25,0,0.69-0.125,0.88-0.502"/>
	</g>
</g>
<g>
	<g>
		<g>
			<g id="Layer_2_19_">
				<path fill="#414142" d="M114.636,138.144c0.25,0,0.692-0.125,0.881-0.502c0.188,0.377,0.63,0.502,0.881,0.502
					c0.819,0,0.946-0.564,0.946-0.564c-0.062,0.062-0.19,0.123-0.378,0.123c-0.313,0-0.378-0.566-0.819-0.566
					s-0.63,0.316-0.63,0.316s-0.188-0.316-0.631-0.316c-0.44,0-0.506,0.566-0.819,0.566c-0.188,0-0.315-0.061-0.379-0.123
					C113.688,137.58,113.814,138.144,114.636,138.144z"/>
			</g>
		</g>
	</g>
	<circle fill="#414142" cx="114.262" cy="135.648" r="1.144"/>
	<circle fill="#414142" cx="116.794" cy="135.658" r="1.144"/>
	<g id="Layer_2_1073_">
		<path fill="#414142" d="M115.515,137.453c0,0-0.187-0.316-0.629-0.316c-0.44,0-0.506,0.566-0.821,0.566
			c-0.187,0-0.313-0.061-0.377-0.123c0,0,0.127,0.564,0.948,0.564c0.25,0,0.692-0.125,0.879-0.502"/>
	</g>
</g>
<g>
	<g>
		<g>
			<g id="Layer_2_18_">
				<path fill="#414142" d="M125.413,148.925c0.252,0,0.693-0.125,0.883-0.504c0.188,0.379,0.631,0.504,0.881,0.504
					c0.82,0,0.944-0.568,0.944-0.568c-0.062,0.064-0.188,0.129-0.375,0.129c-0.315,0-0.38-0.568-0.819-0.568
					c-0.442,0-0.631,0.314-0.631,0.314s-0.189-0.314-0.631-0.314c-0.439,0-0.505,0.568-0.817,0.568
					c-0.189,0-0.317-0.064-0.378-0.129C124.47,148.357,124.593,148.925,125.413,148.925z"/>
			</g>
		</g>
	</g>
	<circle fill="#414142" cx="125.042" cy="146.425" r="1.144"/>
	<circle fill="#414142" cx="127.575" cy="146.439" r="1.143"/>
	<g id="Layer_2_1070_">
		<path fill="#414142" d="M126.296,148.232c0,0-0.189-0.314-0.631-0.314c-0.439,0-0.505,0.568-0.819,0.568
			c-0.188,0-0.315-0.064-0.376-0.129c0,0,0.123,0.568,0.943,0.568c0.252,0,0.693-0.125,0.883-0.504"/>
	</g>
</g>
<g>
	<g>
		<g>
			<g id="Layer_2_17_">
				<path fill="#414142" d="M94.461,136.593c0.251,0,0.693-0.129,0.882-0.506c0.188,0.377,0.629,0.506,0.882,0.506
					c0.82,0,0.944-0.57,0.944-0.57c-0.062,0.064-0.189,0.129-0.377,0.129c-0.315,0-0.378-0.568-0.82-0.568
					c-0.44,0-0.629,0.316-0.629,0.316s-0.188-0.316-0.631-0.316c-0.44,0-0.505,0.568-0.818,0.568c-0.19,0-0.316-0.064-0.38-0.129
					C93.514,136.023,93.64,136.593,94.461,136.593z"/>
			</g>
		</g>
	</g>
	<circle fill="#414142" cx="94.086" cy="134.093" r="1.143"/>
	<circle fill="#414142" cx="96.621" cy="134.103" r="1.145"/>
	<g id="Layer_2_1067_">
		<path fill="#414142" d="M95.343,135.9c0,0-0.188-0.316-0.631-0.316c-0.44,0-0.505,0.568-0.82,0.568
			c-0.188,0-0.314-0.064-0.378-0.129c0,0,0.126,0.57,0.947,0.57c0.251,0,0.693-0.129,0.882-0.506"/>
	</g>
</g>
<g>
	<g>
		<g>
			<g id="Layer_2_16_">
				<path fill="#414142" d="M103.565,145.695c0.25,0,0.69-0.125,0.881-0.504c0.19,0.379,0.631,0.504,0.883,0.504
					c0.819,0,0.943-0.566,0.943-0.566c-0.062,0.062-0.188,0.125-0.377,0.125c-0.316,0-0.378-0.566-0.818-0.566
					s-0.631,0.316-0.631,0.316s-0.19-0.316-0.631-0.316c-0.441,0-0.504,0.566-0.82,0.566c-0.188,0-0.313-0.062-0.377-0.125
					C102.618,145.128,102.745,145.695,103.565,145.695z"/>
			</g>
		</g>
	</g>
	<path fill="#414142" d="M104.335,143.197c0,0.633-0.511,1.145-1.144,1.145c-0.63,0-1.144-0.512-1.144-1.145
		c0-0.629,0.514-1.145,1.144-1.145C103.824,142.052,104.335,142.568,104.335,143.197z"/>
	<circle fill="#414142" cx="105.726" cy="143.208" r="1.144"/>
	<g id="Layer_2_1064_">
		<path fill="#414142" d="M104.445,145.003c0,0-0.189-0.316-0.63-0.316c-0.441,0-0.504,0.566-0.82,0.566
			c-0.188,0-0.313-0.062-0.377-0.125c0,0,0.127,0.566,0.947,0.566c0.25,0,0.69-0.125,0.88-0.504"/>
	</g>
</g>
<g>
	<g>
		<g>
			<g id="Layer_2_15_">
				<path fill="#414142" d="M114.636,156.767c0.25,0,0.692-0.129,0.881-0.506c0.188,0.377,0.63,0.506,0.881,0.506
					c0.819,0,0.946-0.568,0.946-0.568c-0.062,0.062-0.19,0.127-0.378,0.127c-0.313,0-0.378-0.568-0.819-0.568
					s-0.63,0.314-0.63,0.314s-0.188-0.314-0.631-0.314c-0.44,0-0.506,0.568-0.819,0.568c-0.188,0-0.315-0.064-0.379-0.127
					C113.688,156.199,113.814,156.767,114.636,156.767z"/>
			</g>
		</g>
	</g>
	<circle fill="#414142" cx="114.262" cy="154.267" r="1.144"/>
	<circle fill="#414142" cx="116.794" cy="154.279" r="1.144"/>
	<g id="Layer_2_1061_">
		<path fill="#414142" d="M115.515,156.072c0,0-0.187-0.314-0.629-0.314c-0.44,0-0.506,0.568-0.821,0.568
			c-0.187,0-0.313-0.064-0.377-0.127c0,0,0.127,0.568,0.948,0.568c0.25,0,0.692-0.129,0.879-0.506"/>
	</g>
</g>
<g>
	<g>
		<g>
			<g id="Layer_2_14_">
				<path fill="#414142" d="M94.461,155.472c0.251,0,0.693-0.123,0.882-0.504c0.188,0.381,0.629,0.504,0.882,0.504
					c0.82,0,0.944-0.568,0.944-0.568c-0.062,0.064-0.189,0.129-0.377,0.129c-0.315,0-0.378-0.566-0.82-0.566
					c-0.44,0-0.629,0.312-0.629,0.312s-0.188-0.312-0.631-0.312c-0.44,0-0.505,0.566-0.818,0.566c-0.19,0-0.316-0.064-0.38-0.129
					C93.514,154.904,93.64,155.472,94.461,155.472z"/>
			</g>
		</g>
	</g>
	<circle fill="#414142" cx="94.086" cy="152.974" r="1.143"/>
	<circle fill="#414142" cx="96.621" cy="152.986" r="1.145"/>
	<g id="Layer_2_1058_">
		<path fill="#414142" d="M95.343,154.779c0,0-0.188-0.312-0.631-0.312c-0.44,0-0.505,0.566-0.82,0.566
			c-0.188,0-0.314-0.064-0.378-0.129c0,0,0.126,0.568,0.947,0.568c0.251,0,0.693-0.123,0.882-0.504"/>
	</g>
</g>
<polygon fill="#231F20" points="134.269,162.785 85.943,162.785 88.644,203.765 99.588,203.765 101.861,178.132 117.211,178.132 
	120.481,203.765 131.426,203.937 "/>
<circle fill="none" stroke="#414142" stroke-width="1.3225" stroke-miterlimit="10" cx="108.597" cy="95.838" r="0.64"/>
<circle fill="none" stroke="#414142" stroke-width="1.3225" stroke-miterlimit="10" cx="108.597" cy="103.729" r="0.64"/>
<circle fill="none" stroke="#414142" stroke-width="1.3225" stroke-miterlimit="10" cx="108.597" cy="111.617" r="0.64"/>
<path fill="none" stroke="#414142" stroke-width="1.3225" stroke-miterlimit="10" d="M109.236,119.503
	c0,0.354-0.289,0.641-0.642,0.641s-0.638-0.287-0.638-0.641c0-0.352,0.285-0.637,0.638-0.637S109.236,119.152,109.236,119.503z"/>
<circle fill="none" stroke="#414142" stroke-width="1.3225" stroke-miterlimit="10" cx="108.597" cy="127.392" r="0.64"/>
<path fill="none" stroke="#414142" stroke-width="1.3225" stroke-miterlimit="10" d="M109.236,135.279
	c0,0.355-0.289,0.641-0.642,0.641s-0.638-0.285-0.638-0.641c0-0.35,0.285-0.639,0.638-0.639S109.236,134.929,109.236,135.279z"/>
<circle fill="none" stroke="#414142" stroke-width="1.3225" stroke-miterlimit="10" cx="108.597" cy="143.169" r="0.64"/>
<path fill="none" stroke="#414142" stroke-width="1.3225" stroke-miterlimit="10" d="M109.236,151.056
	c0,0.355-0.289,0.641-0.642,0.641s-0.638-0.285-0.638-0.641c0-0.352,0.285-0.637,0.638-0.637S109.236,150.705,109.236,151.056z"/>
<circle fill="none" stroke="#414142" stroke-width="1.3225" stroke-miterlimit="10" cx="108.597" cy="158.947" r="0.64"/>
<polygon fill="#231F20" points="110.106,90.807 103.957,87.098 102.048,90.807 107.425,93.92 "/>
<polygon fill="#231F20" points="110.106,90.807 116.157,87.098 118.068,90.807 112.694,93.92 "/>
<g>
	<g>
		<g>
			<g id="Layer_2_13_">
				<path fill="#414142" d="M130.748,98.633c0.18-0.178,0.4-0.578,0.268-0.979c0.401,0.135,0.803-0.09,0.98-0.268
					c0.577-0.58,0.266-1.068,0.266-1.068c0.003,0.088-0.042,0.223-0.177,0.354c-0.222,0.227-0.668-0.133-0.98,0.18
					c-0.312,0.311-0.222,0.668-0.222,0.668s-0.358-0.088-0.669,0.223c-0.313,0.312,0.045,0.758-0.179,0.98
					c-0.135,0.135-0.267,0.18-0.355,0.18C129.68,98.902,130.169,99.215,130.748,98.633z"/>
			</g>
		</g>
	</g>
	<circle fill="#414142" cx="128.719" cy="97.131" r="1.143"/>
	<path fill="#414142" d="M131.326,94.539c0.444,0.445,0.444,1.17,0,1.617c-0.445,0.445-1.173,0.445-1.616,0
		c-0.447-0.447-0.447-1.172,0-1.617C130.153,94.094,130.881,94.094,131.326,94.539z"/>
	<g id="Layer_2_1055_">
		<path fill="#414142" d="M130.883,97.52c0,0-0.358-0.088-0.669,0.223c-0.313,0.312,0.045,0.758-0.179,0.98
			c-0.135,0.135-0.267,0.18-0.355,0.18c0,0,0.489,0.312,1.068-0.27c0.18-0.178,0.4-0.578,0.268-0.977"/>
	</g>
</g>
<g>
	<g>
		<g>
			<g id="Layer_2_12_">
				<path fill="#414142" d="M87.397,108.52c0.178,0.18,0.578,0.4,0.981,0.27c-0.135,0.4,0.089,0.801,0.268,0.979
					c0.578,0.58,1.068,0.266,1.068,0.266c-0.089,0.002-0.225-0.043-0.358-0.176c-0.221-0.225,0.134-0.668-0.176-0.98
					c-0.313-0.312-0.67-0.223-0.67-0.223s0.09-0.359-0.222-0.67c-0.311-0.311-0.758,0.047-0.98-0.176
					c-0.133-0.135-0.18-0.268-0.178-0.357C87.131,107.451,86.817,107.939,87.397,108.52z"/>
			</g>
		</g>
	</g>
	<circle fill="#414142" cx="88.9" cy="106.488" r="1.144"/>
	<path fill="#414142" d="M91.493,109.098c-0.447,0.445-1.17,0.445-1.617,0c-0.447-0.447-0.447-1.17,0-1.615
		c0.447-0.449,1.17-0.449,1.617,0C91.939,107.928,91.94,108.65,91.493,109.098z"/>
	<g id="Layer_2_1052_">
		<path fill="#414142" d="M88.511,108.654c0,0,0.09-0.359-0.222-0.67c-0.311-0.311-0.758,0.047-0.98-0.178
			c-0.133-0.133-0.18-0.266-0.178-0.355c0,0-0.313,0.488,0.267,1.068c0.178,0.18,0.578,0.4,0.981,0.268"/>
	</g>
</g>
<g>
	<path fill="#FBCD9A" d="M78.939,108.809l8.708,3.799c0,0-3.34,12.597-6.304,15.201c-4.519,3.961-8.667,3.977-10.141-3.428
		C70.526,120.978,78.939,108.809,78.939,108.809z"/>
	<polygon fill="#9E2922" points="102.142,103.352 88.292,91.615 71.853,112.752 83.963,123.81 	"/>
</g>
<g>
	<path fill="#FBCD9A" d="M141.045,108.809l-8.709,3.799c0,0,3.34,12.597,6.305,15.201c4.519,3.961,8.667,3.977,10.14-3.428
		C149.458,120.978,141.045,108.809,141.045,108.809z"/>
	<polygon fill="#9E2922" points="117.844,103.352 131.692,91.615 148.132,112.752 136.021,123.81 	"/>
</g>
<g>
	<g>
		<g>
			<g id="Layer_2_11_">
				<path fill="#414142" d="M125.413,111.004c0.252,0,0.693-0.125,0.883-0.502c0.188,0.377,0.631,0.502,0.881,0.502
					c0.82,0,0.944-0.566,0.944-0.566c-0.062,0.064-0.188,0.127-0.375,0.127c-0.315,0-0.38-0.568-0.819-0.568
					c-0.442,0-0.631,0.316-0.631,0.316s-0.189-0.316-0.631-0.316c-0.439,0-0.505,0.568-0.817,0.568
					c-0.189,0-0.317-0.062-0.378-0.127C124.47,110.438,124.593,111.004,125.413,111.004z"/>
			</g>
		</g>
	</g>
	<circle fill="#414142" cx="125.042" cy="108.506" r="1.144"/>
	<path fill="#414142" d="M128.718,108.52c0,0.631-0.512,1.141-1.144,1.141c-0.63,0-1.142-0.51-1.142-1.141
		c0-0.635,0.512-1.145,1.142-1.145C128.206,107.375,128.718,107.885,128.718,108.52z"/>
	<g id="Layer_2_1049_">
		<path fill="#414142" d="M126.296,110.312c0,0-0.189-0.316-0.631-0.316c-0.439,0-0.505,0.568-0.819,0.568
			c-0.188,0-0.315-0.062-0.376-0.127c0,0,0.123,0.566,0.943,0.566c0.252,0,0.693-0.125,0.883-0.502"/>
	</g>
</g>
<g>
	<g>
		<g>
			<g id="Layer_2_10_">
				<path fill="#414142" d="M130.748,98.633c0.18-0.178,0.4-0.578,0.268-0.979c0.401,0.135,0.803-0.09,0.98-0.268
					c0.577-0.58,0.266-1.068,0.266-1.068c0.003,0.088-0.042,0.223-0.177,0.354c-0.222,0.227-0.668-0.133-0.98,0.18
					c-0.312,0.311-0.222,0.668-0.222,0.668s-0.358-0.088-0.669,0.223c-0.313,0.312,0.045,0.758-0.179,0.98
					c-0.135,0.135-0.267,0.18-0.355,0.18C129.68,98.902,130.169,99.215,130.748,98.633z"/>
			</g>
		</g>
	</g>
	<circle fill="#414142" cx="128.719" cy="97.131" r="1.143"/>
	<path fill="#414142" d="M131.326,94.539c0.444,0.445,0.444,1.17,0,1.617c-0.445,0.445-1.173,0.445-1.616,0
		c-0.447-0.447-0.447-1.172,0-1.617C130.153,94.094,130.881,94.094,131.326,94.539z"/>
	<g id="Layer_2_1046_">
		<path fill="#414142" d="M130.883,97.52c0,0-0.358-0.088-0.669,0.223c-0.313,0.312,0.045,0.758-0.179,0.98
			c-0.135,0.135-0.267,0.18-0.355,0.18c0,0,0.489,0.312,1.068-0.27c0.18-0.178,0.4-0.578,0.268-0.977"/>
	</g>
</g>
<ellipse fill="#231F20" cx="94.865" cy="162.869" rx="8.921" ry="7.475"/>
<ellipse fill="#231F20" cx="125.347" cy="162.869" rx="8.922" ry="7.475"/>
<polygon fill="#231F20" points="100.569,219.23 88.121,219.23 89.395,208.027 99.296,208.027 "/>
<path fill="#231F20" d="M85.396,223.929c0-4.943,4.007-8.951,8.948-8.951c4.943,0,8.949,4.008,8.949,8.951"/>
<polygon fill="#231F20" points="131.571,219.23 119.125,219.23 120.396,208.027 130.298,208.027 "/>
<path fill="#231F20" d="M116.397,223.929c0-4.943,4.007-8.951,8.951-8.951c4.942,0,8.947,4.008,8.947,8.951"/>
<polygon fill="#4F2E16" points="172.271,141.941 172.271,141.941 17.945,141.941 47.588,141.941 39.11,141.941 9.468,141.941 
	9.468,150.419 9.468,223.929 17.945,223.929 17.945,150.419 172.271,150.419 172.271,223.929 180.75,223.929 180.75,150.419 
	180.75,141.941 180.75,141.941 "/>
<path fill="#FBCD9A" d="M72.139,138.435c-0.121-0.762,0.2-1.445,0.714-1.525c0.518-0.082,1.029,0.471,1.148,1.232
	c0.12,0.762-0.198,1.443-0.716,1.525C72.772,139.748,72.258,139.197,72.139,138.435z"/>
<path fill="#BBBDBF" d="M73.628,141.941c0-2.812-2.278-5.09-5.088-5.09c-2.812,0-5.09,2.277-5.09,5.09"/>
<path fill="#FBCD9A" d="M73.256,136.937c0,0-0.92-1.154-1.909-1.451c-0.344-0.102-2.385-1.451-4.851-0.615
	c-2.464,0.834-2.681,1.301-2.623,1.914c0.056,0.615,0.517,1.107,0.517,1.107l8.31,0.635L73.256,136.937z"/>
<ellipse fill="#FBCD9A" cx="65.94" cy="138.289" rx="1.272" ry="1.291"/>
<ellipse fill="#FBCD9A" cx="70.415" cy="138.289" rx="1.272" ry="1.291"/>
<rect x="143.961" y="138.144" fill="#8CC541" width="27.671" height="3.797"/>
<rect x="142.688" y="130.582" fill="#C3996B" width="27.672" height="3.797"/>
<rect x="143.061" y="126.804" fill="#D7DE27" width="27.669" height="3.793"/>
<rect x="144.547" y="123.386" fill="#231F20" width="27.669" height="3.793"/>
<rect x="145.587" y="134.351" fill="#595A5C" width="27.67" height="3.793"/>
<g>
	<path fill="#BBBDBF" d="M149.823,126.119c0,2.807-2.499,5.084-5.584,5.084H74.42c-3.085,0-5.588-2.277-5.588-5.084V82.961
		c0-2.809,2.503-5.086,5.588-5.086h69.819c3.085,0,5.584,2.277,5.584,5.086V126.119z"/>
	<rect x="101.956" y="111.658" fill="#BBBDBF" width="14.745" height="28.851"/>
	<path fill="#BBBDBF" d="M128.095,141.269c0,0.424-0.379,0.764-0.845,0.764H91.407c-0.464,0-0.846-0.34-0.846-0.764l0,0
		c0-0.42,0.382-0.76,0.846-0.76h35.843C127.716,140.509,128.095,140.849,128.095,141.269L128.095,141.269z"/>
	
		<image overflow="visible" width="960" height="960" xlink:href="A3C4586F45E7C7C7.png"  transform="matrix(0.0122 0 0 0.0122 104.3701 97.4199)">
	</image>
</g>
<rect x="103.479" y="96.512" fill="#BBBDBF" width="11.187" height="12.67"/>
<g>
	<circle fill="#FFFFFF" cx="107.379" cy="101.719" r="2.613"/>
	<circle fill="#FFFFFF" cx="113.051" cy="101.744" r="2.614"/>
	<g>
		<g>
			<g id="Layer_2_9_">
				<path fill="#FFFFFF" d="M110.241,106.277c0.433,0.863,1.441,1.152,2.016,1.152c1.873,0,2.162-1.299,2.162-1.299
					c-0.146,0.146-0.434,0.291-0.865,0.291c-0.721,0-0.864-1.297-1.871-1.297c-1.009,0-1.441,0.721-1.441,0.721"/>
			</g>
		</g>
	</g>
	<g id="Layer_2_1042_">
		<g>
			<path fill="#FFFFFF" d="M110.241,105.846c0,0-0.432-0.721-1.441-0.721c-1.008,0-1.15,1.297-1.871,1.297
				c-0.432,0-0.72-0.145-0.864-0.291c0,0,0.289,1.299,2.161,1.299c0.574,0,1.584-0.289,2.016-1.152"/>
		</g>
	</g>
</g>
</svg>
