<?xml version="1.0" encoding="utf-8"?>
<!-- Generator: Adobe Illustrator 16.0.0, SVG Export Plug-In . SVG Version: 6.00 Build 0)  -->
<!DOCTYPE svg PUBLIC "-//W3C//DTD SVG 1.1//EN" "http://www.w3.org/Graphics/SVG/1.1/DTD/svg11.dtd">
<svg version="1.1" id="Layer_1" xmlns="http://www.w3.org/2000/svg" xmlns:xlink="http://www.w3.org/1999/xlink" x="0px" y="0px"
	 width="101.539px" height="103.078px" viewBox="0 0 101.539 103.078" enable-background="new 0 0 101.539 103.078"
	 xml:space="preserve">
<path fill="#00A7A6" d="M7.188,50.144c0-24.068,19.51-43.579,43.582-43.579c24.066,0,43.582,19.511,43.582,43.579
	c0,24.072-19.516,43.582-43.582,43.582C26.697,93.726,7.188,74.216,7.188,50.144z"/>
<g>
	<g>
		<g>
			<path fill="#FFFFFF" d="M69.27,80.427c-0.584,0-1.055-0.475-1.055-1.053v-22.74l-8.176-9.198v20.371
				c0,0.577-0.467,1.047-1.055,1.047c-0.576,0-1.049-0.47-1.049-1.047V44.666c0-0.431,0.271-0.823,0.682-0.98
				c0.404-0.158,0.867-0.039,1.158,0.286L70.05,55.539c0.175,0.193,0.269,0.44,0.269,0.694v23.142
				C70.318,79.953,69.844,80.427,69.27,80.427z"/>
			<path fill="#FFFFFF" d="M69.27,80.966c-0.879,0-1.6-0.717-1.6-1.592V56.841l-7.082-7.976v18.941c0,0.88-0.719,1.592-1.604,1.592
				c-0.877,0-1.592-0.712-1.592-1.592v-23.14c0-0.656,0.409-1.254,1.024-1.488c0.604-0.229,1.33-0.053,1.765,0.437l10.276,11.563
				c0.26,0.285,0.401,0.664,0.401,1.057v23.141C70.861,80.25,70.152,80.966,69.27,80.966z M59.5,46.005l9.256,10.425v22.944
				c0,0.277,0.229,0.506,0.514,0.506c0.277,0,0.508-0.229,0.508-0.506V56.233c0-0.125-0.047-0.239-0.133-0.33L59.371,44.332
				c-0.139-0.159-0.363-0.217-0.561-0.141c-0.201,0.076-0.33,0.27-0.33,0.475v23.141c0,0.271,0.225,0.506,0.504,0.506
				c0.283,0,0.516-0.233,0.516-0.506V46.005z"/>
		</g>
	</g>
	<g>
		<g>
			<path fill="#FFFFFF" d="M46.018,80.427c-0.582,0-1.051-0.475-1.051-1.053v-22.74l-8.178-9.198v20.371
				c0,0.577-0.473,1.047-1.057,1.047c-0.582,0-1.049-0.47-1.049-1.047V44.666c0-0.431,0.273-0.823,0.674-0.98
				c0.406-0.158,0.871-0.039,1.164,0.286l10.281,11.566c0.17,0.193,0.27,0.44,0.27,0.694v23.142
				C47.072,79.953,46.598,80.427,46.018,80.427z"/>
			<path fill="#FFFFFF" d="M46.018,80.966c-0.883,0-1.6-0.717-1.6-1.592V56.841l-7.084-7.976v18.941c0,0.88-0.721,1.592-1.602,1.592
				s-1.594-0.712-1.594-1.592v-23.14c0-0.656,0.416-1.254,1.027-1.488c0.584-0.229,1.322-0.062,1.76,0.43l10.281,11.569
				c0.26,0.285,0.406,0.664,0.406,1.057v23.141C47.613,80.25,46.896,80.966,46.018,80.966z M36.246,46.005l9.26,10.425v22.944
				c0,0.277,0.232,0.506,0.512,0.506c0.28,0,0.508-0.229,0.508-0.506V56.233c0-0.125-0.047-0.239-0.125-0.33L36.115,44.332
				c-0.135-0.155-0.365-0.217-0.559-0.141c-0.199,0.076-0.332,0.27-0.332,0.475v23.141c0,0.271,0.232,0.506,0.508,0.506
				c0.281,0,0.514-0.233,0.514-0.506V46.005z"/>
		</g>
	</g>
	<g>
		<g>
			<polygon fill="#FFFFFF" points="36.871,43.972 58.984,44.666 69.27,56.233 46.361,56.233 			"/>
		</g>
	</g>
	<g>
		<g>
			<polyline fill="#FFFFFF" points="36.082,44.666 36.082,23.989 58.984,23.989 58.984,44.666 			"/>
			<polygon fill="#FFFFFF" points="60.078,44.666 57.902,44.666 57.902,25.074 37.166,25.074 37.166,44.666 34.996,44.666 
				34.996,22.904 60.078,22.904 			"/>
		</g>
		<g>
			<path fill="#FFFFFF" d="M58.984,45.719c-0.576,0-1.049-0.469-1.049-1.053V25.041H37.137v19.625c0,0.584-0.473,1.053-1.055,1.053
				c-0.58,0-1.049-0.469-1.049-1.053V23.989c0-0.58,0.469-1.053,1.049-1.053h22.902c0.588,0,1.055,0.473,1.055,1.053v20.677
				C60.039,45.25,59.572,45.719,58.984,45.719z"/>
			<path fill="#FFFFFF" d="M58.984,46.805c-1.176,0-2.133-0.957-2.133-2.139V26.127H38.223c0,0-4.084,42.856-4.084,41.68
				L33.946,23.99c0-1.177,0.957-2.14,2.137-2.14h22.901c1.187,0,2.146,0.963,2.146,2.14v20.677
				C61.129,45.848,60.17,46.805,58.984,46.805z"/>
		</g>
	</g>
</g>
</svg>
