<?xml version="1.0" encoding="utf-8"?>
<!-- Generator: Adobe Illustrator 15.0.0, SVG Export Plug-In . SVG Version: 6.00 Build 0)  -->
<!DOCTYPE svg PUBLIC "-//W3C//DTD SVG 1.1//EN" "http://www.w3.org/Graphics/SVG/1.1/DTD/svg11.dtd">
<svg version="1.1" id="Layer_1" xmlns="http://www.w3.org/2000/svg" xmlns:xlink="http://www.w3.org/1999/xlink" x="0px" y="0px"
	 width="153.961px" height="38px" viewBox="0 0 153.961 38" enable-background="new 0 0 153.961 38" xml:space="preserve">
<g id="Anuncios">
	<g>
		<g>
			<g>
				<path fill="#424243" d="M64.939,22.861c0.408,0,0.756,0.141,1.043,0.42c0.289,0.279,0.432,0.623,0.432,1.031
					c0,0.398-0.141,0.734-0.426,1.006c-0.283,0.271-0.633,0.408-1.049,0.408c-0.408,0-0.75-0.137-1.029-0.408
					c-0.281-0.271-0.42-0.607-0.42-1.006c0-0.408,0.139-0.752,0.42-1.031C64.189,23.002,64.531,22.861,64.939,22.861z"/>
				<path fill="#424243" d="M75.967,14.507h2.447L70.6,31.156h-2.436l3.744-7.989l-4.26-8.66h2.488l2.977,6.229L75.967,14.507z"/>
				<path fill="#424243" d="M79.41,24.744v-2.35c0.615,0.432,1.244,0.781,1.887,1.049c0.645,0.268,1.186,0.4,1.625,0.4
					c0.455,0,0.846-0.111,1.176-0.334c0.326-0.225,0.49-0.492,0.49-0.805c0-0.318-0.107-0.585-0.316-0.797
					c-0.213-0.213-0.672-0.518-1.375-0.918c-1.403-0.782-2.326-1.451-2.762-2.007c-0.436-0.556-0.654-1.161-0.654-1.816
					c0-0.847,0.33-1.538,0.99-2.074c0.66-0.535,1.508-0.803,2.547-0.803c1.08,0,2.187,0.304,3.32,0.911v2.157
					c-1.295-0.782-2.354-1.174-3.176-1.174c-0.424,0-0.766,0.09-1.025,0.27s-0.391,0.418-0.391,0.714
					c0,0.257,0.117,0.501,0.354,0.732c0.234,0.232,0.648,0.512,1.24,0.839l0.779,0.443c1.84,1.039,2.76,2.189,2.76,3.453
					c0,0.901-0.354,1.643-1.062,2.223c-0.707,0.578-1.616,0.869-2.727,0.869c-0.656,0-1.24-0.07-1.75-0.211
					C80.828,25.378,80.184,25.12,79.41,24.744z"/>
				<path fill="#424243" d="M98.793,20.213h-7.756c0.055,1.055,0.41,1.895,1.061,2.518s1.494,0.936,2.525,0.936
					c1.438,0,2.764-0.447,3.979-1.344v2.135c-0.672,0.447-1.338,0.768-1.996,0.959s-1.432,0.288-2.317,0.288
					c-1.216,0-2.199-0.252-2.949-0.755c-0.752-0.504-1.354-1.182-1.805-2.032c-0.453-0.851-0.679-1.836-0.679-2.955
					c0-1.678,0.476-3.043,1.427-4.094c0.95-1.051,2.187-1.576,3.704-1.576c1.464,0,2.63,0.512,3.5,1.534
					c0.871,1.023,1.308,2.394,1.308,4.111L98.793,20.213L98.793,20.213z M91.084,18.906h5.553c-0.057-0.871-0.316-1.542-0.779-2.014
					c-0.465-0.472-1.088-0.707-1.871-0.707c-0.782,0-1.424,0.235-1.924,0.707C91.562,17.364,91.238,18.035,91.084,18.906z"/>
				<path fill="#424243" d="M100.592,18.319c0-1.175,0.43-2.104,1.289-2.787c0.859-0.684,2.031-1.025,3.518-1.025h4.543v1.702
					h-2.229c0.431,0.44,0.729,0.839,0.897,1.199c0.168,0.359,0.252,0.771,0.252,1.234c0,0.575-0.164,1.141-0.491,1.696
					c-0.328,0.557-0.748,0.98-1.265,1.275c-0.516,0.297-1.36,0.533-2.535,0.707c-0.823,0.121-1.233,0.404-1.233,0.853
					c0,0.257,0.151,0.466,0.459,0.63c0.31,0.163,0.867,0.334,1.675,0.51c1.352,0.295,2.219,0.526,2.606,0.694
					c0.387,0.169,0.735,0.407,1.049,0.72c0.526,0.527,0.791,1.19,0.791,1.989c0,1.048-0.465,1.884-1.396,2.507
					c-0.933,0.623-2.176,0.934-3.734,0.934c-1.574,0-2.83-0.312-3.771-0.94c-0.938-0.628-1.406-1.469-1.406-2.522
					c0-1.496,0.923-2.459,2.771-2.891c-0.735-0.471-1.104-0.938-1.104-1.402c0-0.352,0.156-0.67,0.474-0.959
					c0.315-0.287,0.742-0.498,1.276-0.635C101.402,21.088,100.592,19.926,100.592,18.319z M104.176,26.051
					c-0.734,0-1.336,0.156-1.805,0.469c-0.467,0.312-0.701,0.711-0.701,1.197c0,1.135,1.023,1.702,3.07,1.702
					c0.967,0,1.715-0.142,2.246-0.425c0.531-0.284,0.797-0.686,0.797-1.205c0-0.512-0.336-0.93-1.006-1.253
					C106.105,26.213,105.238,26.051,104.176,26.051z M104.691,16.4c-0.592,0-1.096,0.2-1.512,0.6s-0.621,0.88-0.621,1.439
					c0,0.567,0.203,1.037,0.608,1.409c0.408,0.371,0.924,0.557,1.547,0.557c0.615,0,1.129-0.188,1.541-0.568
					c0.41-0.379,0.617-0.853,0.617-1.42c0-0.575-0.209-1.056-0.623-1.438C105.834,16.593,105.314,16.4,104.691,16.4z"/>
				<path fill="#424243" d="M118.658,25.535v-1.414c-0.465,0.507-0.994,0.9-1.59,1.184c-0.594,0.281-1.188,0.424-1.779,0.424
					c-0.695,0-1.336-0.174-1.926-0.521c-0.586-0.348-1.029-0.818-1.33-1.415c-0.299-0.595-0.449-1.584-0.449-2.968v-6.316h2.182
					v6.285c0,1.156,0.166,1.967,0.498,2.426s0.912,0.688,1.744,0.688c1.039,0,1.922-0.508,2.65-1.521v-7.876h2.182v11.028
					L118.658,25.535L118.658,25.535z"/>
				<path fill="#424243" d="M125.033,9.867c0.361,0,0.67,0.124,0.926,0.372c0.254,0.248,0.383,0.552,0.383,0.911
					c0,0.352-0.129,0.655-0.383,0.911c-0.256,0.256-0.564,0.384-0.926,0.384c-0.334,0-0.629-0.13-0.887-0.39
					c-0.254-0.26-0.383-0.561-0.383-0.905c0-0.336,0.129-0.634,0.383-0.893C124.404,9.998,124.699,9.867,125.033,9.867z
					 M123.957,14.507h2.182v11.028h-2.182V14.507z"/>
				<path fill="#424243" d="M136.65,8.789h2.195v16.746h-4.664c-1.632,0-2.933-0.516-3.902-1.547
					c-0.971-1.03-1.455-2.414-1.455-4.147c0-1.622,0.508-2.956,1.527-4.003c1.02-1.047,2.319-1.571,3.901-1.571
					c0.733,0,1.535,0.156,2.396,0.468V8.789H136.65z M136.65,23.665v-6.988c-0.678-0.344-1.367-0.516-2.062-0.516
					c-1.088,0-1.952,0.355-2.596,1.066c-0.646,0.712-0.966,1.671-0.966,2.878c0,1.135,0.279,2.01,0.841,2.625
					c0.334,0.367,0.688,0.615,1.063,0.742c0.377,0.129,1.051,0.191,2.027,0.191L136.65,23.665L136.65,23.665z"/>
				<path fill="#424243" d="M147.08,14.483c1.678,0,3.072,0.542,4.184,1.625s1.666,2.443,1.666,4.082c0,1.59-0.564,2.91-1.689,3.961
					c-1.127,1.053-2.545,1.578-4.258,1.578c-1.652,0-3.035-0.535-4.146-1.602c-1.109-1.066-1.666-2.398-1.666-3.998
					c0-1.614,0.561-2.959,1.686-4.034C143.977,15.021,145.387,14.483,147.08,14.483z M146.959,16.449
					c-1.045,0-1.904,0.344-2.576,1.03c-0.672,0.688-1.006,1.562-1.006,2.626c0,1.055,0.342,1.916,1.029,2.582
					c0.688,0.668,1.57,1.002,2.65,1.002c1.069,0,1.946-0.338,2.631-1.014c0.684-0.676,1.024-1.541,1.024-2.596
					c0-1.047-0.354-1.914-1.065-2.602C148.934,16.793,148.039,16.449,146.959,16.449z"/>
			</g>
		</g>
		<path fill="#F05D22" d="M23.553,12.492c0,6.081-4.928,11.011-11.01,11.011S1.531,18.573,1.531,12.492
			c0-6.084,4.93-11.011,11.012-11.011C18.625,1.482,23.553,6.408,23.553,12.492z"/>
		<circle fill="#00A5A4" cx="36.445" cy="12.598" r="11.01"/>
		<g>
			<g>
				<g>
					<path fill="#00A5A4" d="M24.605,31.695c1.818,3.643,6.07,4.857,8.496,4.857c7.889,0,9.101-5.462,9.101-5.462
						c-0.605,0.604-1.82,1.214-3.642,1.214c-3.031,0-3.639-5.464-7.885-5.464c-4.252,0-6.07,3.037-6.07,3.037"/>
				</g>
			</g>
		</g>
		<g id="Layer_2_264_">
			<g>
				<path fill="#F05D22" d="M24.603,29.878c0,0-1.82-3.037-6.066-3.037c-4.25,0-4.857,5.464-7.891,5.464
					c-1.82,0-3.035-0.607-3.641-1.214c0,0,1.213,5.462,9.104,5.462c2.428,0,6.674-1.215,8.494-4.857"/>
			</g>
		</g>
	</g>
</g>
<g id="Selecionado" display="none">
</g>
<g id="Hover" display="none">
</g>
<g id="Grilla" display="none">
</g>
</svg>
