<?xml version="1.0" encoding="utf-8"?>
<!-- Generator: Adobe Illustrator 16.0.0, SVG Export Plug-In . SVG Version: 6.00 Build 0)  -->
<!DOCTYPE svg PUBLIC "-//W3C//DTD SVG 1.1//EN" "http://www.w3.org/Graphics/SVG/1.1/DTD/svg11.dtd">
<svg version="1.1" id="Layer_1" xmlns="http://www.w3.org/2000/svg" xmlns:xlink="http://www.w3.org/1999/xlink" x="0px" y="0px"
	 width="101.539px" height="103.077px" viewBox="0 0 101.539 103.077" enable-background="new 0 0 101.539 103.077"
	 xml:space="preserve">
<g>
	<path fill="#FFFFFF" d="M50.77,94.37c-3.942,0-7.743-0.513-11.389-1.536c-3.658-1.033-7.072-2.466-10.245-4.333
		c-3.171-1.852-6.048-4.078-8.65-6.672c-2.598-2.61-4.82-5.485-6.685-8.651c-1.854-3.173-3.3-6.594-4.323-10.237
		c-1.026-3.66-1.54-7.464-1.54-11.39c0-3.941,0.514-7.746,1.54-11.397c1.023-3.66,2.47-7.064,4.323-10.238
		c1.865-3.173,4.086-6.057,6.685-8.659c2.602-2.593,5.479-4.82,8.65-6.67c3.172-1.852,6.587-3.302,10.245-4.334
		c3.646-1.023,7.447-1.544,11.389-1.544c5.882,0,11.436,1.135,16.664,3.396c5.221,2.252,9.766,5.306,13.618,9.153
		c3.856,3.865,6.911,8.395,9.163,13.625c2.264,5.229,3.387,10.784,3.387,16.669c0,3.925-0.508,7.73-1.54,11.39
		c-1.029,3.643-2.474,7.063-4.33,10.237c-1.856,3.166-4.091,6.041-6.68,8.651c-2.594,2.594-5.485,4.82-8.657,6.672
		c-3.167,1.868-6.579,3.301-10.238,4.333C58.509,93.857,54.702,94.37,50.77,94.37L50.77,94.37z"/>
	<path fill="#F15D22" d="M71.409,33.9H30.81c-0.396,0-0.744,0.127-1.021,0.383c-0.294,0.257-0.438,0.615-0.438,1.075v4.531
		c0,0.239,0.083,0.35,0.252,0.35l21.34,12.156l0.167,0.094c0.119,0,0.196-0.035,0.258-0.094l20.645-12.156
		c0.106-0.061,0.196-0.086,0.258-0.086c0.062,0,0.136-0.025,0.25-0.094c0.232,0,0.348-0.102,0.348-0.333v-4.368
		c0-0.46-0.143-0.818-0.434-1.075C72.157,34.028,71.809,33.9,71.409,33.9L71.409,33.9z M42.289,52.14
		c0.06-0.051,0.085-0.145,0.085-0.256c0-0.171-0.051-0.256-0.171-0.256l-12.245-7.021c-0.17-0.06-0.322-0.06-0.428,0
		c-0.117,0-0.179,0.085-0.179,0.256v18.418c0,0.171,0.083,0.282,0.252,0.342h0.186c0.106,0,0.17-0.034,0.17-0.086L42.289,52.14z
		 M57.198,53.513c-0.064-0.17-0.209-0.205-0.429-0.085l-4.713,2.747c-0.572,0.342-1.169,0.342-1.8,0l-4.105-2.312
		c-0.175-0.127-0.325-0.127-0.436,0L30.041,68.417c-0.064,0.06-0.082,0.171-0.082,0.342c0,0.06,0.054,0.145,0.169,0.256
		c0.341,0.119,0.565,0.171,0.682,0.171h40.176c0.109,0,0.22-0.052,0.342-0.171c0-0.222-0.028-0.367-0.09-0.427L57.198,53.513z
		 M72.607,44.257h-0.334l-11.652,6.944c-0.109,0-0.171,0.086-0.171,0.256c-0.055,0.06-0.028,0.136,0.08,0.256l11.649,12.592
		c0.119,0.12,0.208,0.17,0.257,0.17h0.171c0.172-0.17,0.263-0.29,0.263-0.333V44.607C72.87,44.487,72.779,44.385,72.607,44.257
		L72.607,44.257z M72.607,44.257"/>
</g>
</svg>
