<?xml version="1.0" encoding="utf-8"?>
<!-- Generator: Adobe Illustrator 16.0.0, SVG Export Plug-In . SVG Version: 6.00 Build 0)  -->
<!DOCTYPE svg PUBLIC "-//W3C//DTD SVG 1.1//EN" "http://www.w3.org/Graphics/SVG/1.1/DTD/svg11.dtd">
<svg version="1.1" id="Layer_1" xmlns="http://www.w3.org/2000/svg" xmlns:xlink="http://www.w3.org/1999/xlink" x="0px" y="0px"
	 width="43.519px" height="35.286px" viewBox="29.351 33.9 43.519 35.286" enable-background="new 29.351 33.9 43.519 35.286"
	 xml:space="preserve">
<path fill="#FFFFFF" d="M71.409,33.9H30.81c-0.396,0-0.744,0.127-1.021,0.383c-0.294,0.257-0.438,0.615-0.438,1.075v4.531
	c0,0.239,0.083,0.35,0.252,0.35l21.34,12.155l0.167,0.096c0.119,0,0.197-0.035,0.258-0.096l20.646-12.155
	c0.105-0.062,0.195-0.086,0.258-0.086c0.063,0,0.138-0.025,0.25-0.094c0.231,0,0.35-0.102,0.35-0.333v-4.368
	c0-0.46-0.145-0.818-0.436-1.075C72.157,34.028,71.809,33.9,71.409,33.9L71.409,33.9z M42.289,52.141
	c0.06-0.052,0.085-0.146,0.085-0.257c0-0.171-0.051-0.256-0.171-0.256l-12.245-7.021c-0.17-0.06-0.322-0.06-0.428,0
	c-0.117,0-0.179,0.085-0.179,0.256v18.418c0,0.172,0.083,0.281,0.252,0.342h0.186c0.106,0,0.17-0.033,0.17-0.086L42.289,52.141z
	 M57.198,53.514c-0.064-0.171-0.21-0.205-0.429-0.087l-4.713,2.748c-0.572,0.343-1.169,0.343-1.803,0l-4.105-2.312
	c-0.175-0.127-0.325-0.127-0.436,0L30.041,68.417c-0.064,0.06-0.082,0.17-0.082,0.342c0,0.06,0.054,0.146,0.169,0.257
	c0.341,0.118,0.565,0.17,0.682,0.17h40.176c0.109,0,0.22-0.052,0.342-0.17c0-0.224-0.028-0.367-0.09-0.429L57.198,53.514z
	 M72.607,44.257h-0.334l-11.652,6.944c-0.109,0-0.171,0.086-0.171,0.256c-0.056,0.06-0.028,0.136,0.079,0.256l11.65,12.592
	c0.116,0.12,0.207,0.17,0.256,0.17h0.172c0.172-0.17,0.263-0.289,0.263-0.332V44.607C72.87,44.487,72.779,44.385,72.607,44.257
	L72.607,44.257z"/>
</svg>
