<?xml version="1.0" encoding="utf-8"?>
<!-- Generator: Adobe Illustrator 16.0.0, SVG Export Plug-In . SVG Version: 6.00 Build 0)  -->
<!DOCTYPE svg PUBLIC "-//W3C//DTD SVG 1.1//EN" "http://www.w3.org/Graphics/SVG/1.1/DTD/svg11.dtd">
<svg version="1.1" id="Layer_1" xmlns="http://www.w3.org/2000/svg" xmlns:xlink="http://www.w3.org/1999/xlink" x="0px" y="0px"
	 width="18.833px" height="19.5px" viewBox="0 0 18.833 19.5" enable-background="new 0 0 18.833 19.5" xml:space="preserve">
<g opacity="0.3">
	<circle fill="#F05D22" cx="9.417" cy="9.916" r="8.699"/>
</g>
<g>
	<g>
		<path fill="#FFFFFF" d="M12.085,12.46c1.821-0.074,2.631-0.902,2.631-1.917c0-0.883-0.61-1.625-1.967-1.853
			c0.006-0.328,0.006-0.644,0.006-0.938H4.114c0,1.931,0.002,4.735,1.737,6.076c-1.053,0.08-1.737,0.209-1.737,0.352
			c0,0.244,1.936,0.443,4.322,0.443s4.319-0.199,4.319-0.443c0-0.143-0.685-0.271-1.735-0.352
			C11.491,13.463,11.835,12.993,12.085,12.46z M12.718,9.528c0.761,0.179,0.896,0.552,0.888,1.033
			c-0.011,0.549-0.168,0.92-1.207,1.049C12.587,10.942,12.675,10.226,12.718,9.528z M5.159,8.422h1.351
			c-0.604,1.787,0.416,4.614,0.416,4.614C4.716,11.342,5.159,8.422,5.159,8.422z"/>
		<path fill="#FFFFFF" d="M9.143,6.585c0.172-1.556,3.606-0.776,2.893-2.798c-0.109-0.309-0.605-0.176-0.494,0.136
			c0.314,0.887-0.879,0.994-1.486,1.198c-0.729,0.243-1.333,0.65-1.423,1.464C8.595,6.914,9.108,6.911,9.143,6.585z"/>
		<path fill="#FFFFFF" d="M11.582,5.496c-0.671,0.159-1.283,0.446-1.491,1.149c-0.094,0.317,0.4,0.452,0.494,0.137
			c0.23-0.777,1.251-0.791,1.904-0.98c0.701-0.203,1.102-0.689,1.006-1.435c-0.041-0.321-0.553-0.326-0.512,0
			C13.099,5.27,12.27,5.334,11.582,5.496z"/>
	</g>
</g>
</svg>
