<?xml version="1.0" encoding="utf-8"?>
<!-- Generator: Adobe Illustrator 17.0.0, SVG Export Plug-In . SVG Version: 6.00 Build 0)  -->
<!DOCTYPE svg PUBLIC "-//W3C//DTD SVG 1.1//EN" "http://www.w3.org/Graphics/SVG/1.1/DTD/svg11.dtd">
<svg version="1.1" xmlns="http://www.w3.org/2000/svg" xmlns:xlink="http://www.w3.org/1999/xlink" x="0px" y="0px"
	 width="67.333px" height="66.049px" viewBox="0 0 67.333 66.049" enable-background="new 0 0 67.333 66.049" xml:space="preserve">
<g id="Anuncios">
	<circle fill="#D25D2B" cx="33.667" cy="33.025" r="32.873"/>
	<g>
		<g>
			<line fill="#FFFFFF" x1="19.317" y1="22.881" x2="48.597" y2="22.881"/>
			<g>
				<path fill="#FFFFFF" d="M19.317,25.381c9.76,0,19.52,0,29.28,0c3.224,0,3.224-5,0-5c-9.76,0-19.52,0-29.28,0
					C16.093,20.381,16.093,25.381,19.317,25.381L19.317,25.381z"/>
			</g>
		</g>
		<g>
			<line fill="#FFFFFF" x1="19.317" y1="33.376" x2="48.597" y2="33.376"/>
			<g>
				<path fill="#FFFFFF" d="M19.317,35.876c9.76,0,19.52,0,29.28,0c3.224,0,3.224-5,0-5c-9.76,0-19.52,0-29.28,0
					C16.093,30.876,16.093,35.876,19.317,35.876L19.317,35.876z"/>
			</g>
		</g>
		<g>
			<line fill="#FFFFFF" x1="19.317" y1="43.165" x2="48.597" y2="43.165"/>
			<g>
				<path fill="#FFFFFF" d="M19.317,45.665c9.76,0,19.52,0,29.28,0c3.224,0,3.224-5,0-5c-9.76,0-19.52,0-29.28,0
					C16.093,40.665,16.093,45.665,19.317,45.665L19.317,45.665z"/>
			</g>
		</g>
	</g>
</g>
<g id="Selecionado" display="none">
</g>
<g id="Hover" display="none">
</g>
<g id="Grilla" display="none">
</g>
</svg>
