<?xml version="1.0" encoding="utf-8"?>
<!-- Generator: Adobe Illustrator 16.0.0, SVG Export Plug-In . SVG Version: 6.00 Build 0)  -->
<!DOCTYPE svg PUBLIC "-//W3C//DTD SVG 1.1//EN" "http://www.w3.org/Graphics/SVG/1.1/DTD/svg11.dtd">
<svg version="1.1" id="Layer_1" xmlns="http://www.w3.org/2000/svg" xmlns:xlink="http://www.w3.org/1999/xlink" x="0px" y="0px"
	 width="101.539px" height="103.077px" viewBox="0 0 101.539 103.077" enable-background="new 0 0 101.539 103.077"
	 xml:space="preserve">
<path fill-rule="evenodd" clip-rule="evenodd" fill="#F15D22" d="M7.669,50.535c0-23.71,19.223-42.932,42.936-42.932
	c23.707,0,42.934,19.222,42.934,42.932c0,23.715-19.227,42.938-42.934,42.938C26.892,93.474,7.669,74.25,7.669,50.535z"/>
<path fill-rule="evenodd" clip-rule="evenodd" fill="#FFFFFF" d="M28.156,38.437c0-0.531,0-1.058,0-1.588
	c0.607-2.972,2.486-4.664,5.516-5.211c0.578,0,1.158,0,1.734,0c3.217,0.646,6.119,2.809,6.119,6.195
	c0,1.024-0.402,2.508-0.979,3.397c-0.312,0.474-1.23,0.919-1.211,1.513c0.023,0.592,1.654,1.434,2.338,1.807
	c2.75,1.521,5.334,2.791,7.709,4.536c4.324-3.047,9.926-6.903,14.652-10.271c2.146-1.532,4.779-3.676,8.684-2.947
	c1.018,0.19,1.764,0.732,2.721,1.134c0,0.177,0,0.354,0,0.526c-6.496,4.668-13.062,9.49-19.637,14.352
	c-0.303,0.226-1.352,0.784-1.363,0.904c-0.025,0.312,2.348,1.756,2.645,1.966c6.09,4.374,12.225,9.151,18.355,13.443
	c0,0.077,0,0.153,0,0.229c-1.439,0.865-3.037,1.598-5.213,1.358c-2.234-0.243-4.143-1.454-5.889-2.645
	c-4.992-3.407-10.186-7.349-14.955-10.573c-2.371,1.631-4.766,2.938-7.551,4.458c-0.697,0.374-2.271,1.11-2.344,1.661
	c-0.092,0.66,0.971,1.219,1.283,1.736c0.617,1.033,0.975,2.482,0.83,3.852c-0.305,2.956-2.959,5.043-6.119,5.592
	c-0.555,0-1.107,0-1.658,0c-1.336-0.33-2.613-0.708-3.479-1.44c-1.059-0.889-1.988-2.53-2.033-4.376
	c-0.156-6.307,5.918-6.67,10.266-8.914c3.236-1.669,5.141-3.822,6.881-6.268c-1.766-2.295-3.221-4.261-5.895-5.897
	C35.277,44.354,28.896,44.192,28.156,38.437z M34.951,41.833c2.312,0.105,3.904-1.855,3.555-4.305
	c-0.361-2.469-3.869-4.345-6.271-2.564c-0.705,0.521-1.43,1.937-1.209,3.32C31.339,40.222,32.978,41.748,34.951,41.833z
	 M37.296,70.308c2.75-2.167,1.109-7.563-3.023-6.568c-1.861,0.445-3.449,2.373-3.094,4.607
	C31.638,71.231,35.22,71.954,37.296,70.308z"/>
</svg>
