<?xml version="1.0" encoding="utf-8"?>
<!-- Generator: Adobe Illustrator 15.0.0, SVG Export Plug-In . SVG Version: 6.00 Build 0)  -->
<!DOCTYPE svg PUBLIC "-//W3C//DTD SVG 1.1//EN" "http://www.w3.org/Graphics/SVG/1.1/DTD/svg11.dtd">
<svg version="1.1" id="Layer_1" xmlns="http://www.w3.org/2000/svg" xmlns:xlink="http://www.w3.org/1999/xlink" x="0px" y="0px"
	 width="138px" height="147.333px" viewBox="14.133 30.489 138 147.333" enable-background="new 14.133 30.489 138 147.333"
	 xml:space="preserve">
<g>
	<path fill="#C4202E" d="M43.442,128.172l-11.944,0.243c-7.645,0.157-13.786,2.81-13.722,5.927l0.294,14.559l130.675-2.651
		l-0.539-14.552c-0.062-3.12-6.305-5.521-13.948-5.366l-11.708,0.237"/>
	<g>
		<g>
			<g>
				<g id="Layer_2_16_">
					<path fill="#FFFFFF" d="M47.518,153.053c0.6-0.01,1.637-0.329,2.073-1.243c0.468,0.893,1.522,1.172,2.121,1.156
						c1.951-0.038,2.217-1.393,2.217-1.393c-0.143,0.152-0.439,0.308-0.89,0.317c-0.746,0.016-0.924-1.331-1.977-1.312
						c-1.048,0.027-1.48,0.784-1.48,0.784s-0.467-0.743-1.512-0.722c-1.054,0.02-1.175,1.377-1.928,1.391
						c-0.442,0.008-0.747-0.138-0.902-0.283C45.238,151.749,45.567,153.091,47.518,153.053z"/>
				</g>
			</g>
		</g>
		<circle fill="#FFFFFF" cx="46.51" cy="147.13" r="2.719"/>
		<path fill="#FFFFFF" d="M55.256,146.978c0.031,1.503-1.162,2.743-2.666,2.774c-1.504,0.03-2.745-1.165-2.773-2.662
			c-0.034-1.511,1.164-2.752,2.666-2.78C53.983,144.283,55.224,145.471,55.256,146.978z"/>
		<g id="Layer_2_7_">
			<path fill="#FFFFFF" d="M49.58,151.364c0,0-0.466-0.743-1.512-0.719c-1.054,0.018-1.176,1.375-1.928,1.387
				c-0.442,0.01-0.748-0.136-0.903-0.282c0,0,0.33,1.342,2.28,1.304c0.601-0.01,1.638-0.329,2.074-1.243"/>
		</g>
	</g>
	<polygon points="84.358,133.695 69.554,125.174 65.185,134.084 78.119,141.227 	"/>
	<polygon points="84.358,133.695 98.564,124.583 103.29,133.311 90.654,140.973 	"/>
	<g>
		<g>
			<g>
				<g id="Layer_2_15_">
					<path fill="#FFFFFF" d="M133.826,151.313c0.416-0.428,0.925-1.395,0.592-2.338c0.954,0.292,1.898-0.256,2.315-0.687
						c1.347-1.41,0.578-2.559,0.578-2.559c0.012,0.212-0.091,0.534-0.399,0.859c-0.521,0.541-1.604-0.286-2.326,0.468
						c-0.729,0.762-0.495,1.603-0.495,1.603s-0.853-0.192-1.583,0.562c-0.727,0.754,0.148,1.797-0.372,2.342
						c-0.313,0.327-0.629,0.436-0.841,0.442C131.296,152.008,132.48,152.725,133.826,151.313z"/>
				</g>
			</g>
		</g>
		<path fill="#FFFFFF" d="M130.809,145.873c1.081,1.043,1.116,2.767,0.077,3.85c-1.039,1.084-2.761,1.118-3.845,0.08
			c-1.08-1.044-1.117-2.761-0.081-3.851C128.004,144.872,129.724,144.833,130.809,145.873z"/>
		<path fill="#FFFFFF" d="M135.002,141.549c1.081,1.038,1.115,2.761,0.077,3.847c-1.038,1.077-2.759,1.116-3.847,0.073
			c-1.08-1.034-1.117-2.755-0.077-3.842C132.196,140.541,133.92,140.508,135.002,141.549z"/>
		<g id="Layer_2_5_">
			<path fill="#FFFFFF" d="M134.09,148.664c0,0-0.851-0.197-1.582,0.558c-0.726,0.754,0.148,1.797-0.371,2.342
				c-0.314,0.327-0.629,0.436-0.842,0.442c0,0,1.185,0.718,2.531-0.693c0.416-0.428,0.925-1.395,0.586-2.338"/>
		</g>
	</g>
	<path fill="#FBCE99" d="M116.577,117.341c0.139,6.721-5.207,12.28-11.923,12.417l-39.557,0.804
		c-6.717,0.135-12.281-5.206-12.416-11.925L51.77,73.673c-0.137-6.721,5.205-12.278,11.925-12.416l39.553-0.798
		c6.721-0.137,12.28,5.198,12.417,11.917L116.577,117.341z"/>
	<path fill="#3E2418" d="M62.178,64.668c0,0,14.734,14.92,31.971,14.232c17.232-0.691,34.237-12.534,34.237-12.534l-10.479-0.122
		l2.645-2.762l-3.381,0.065l6.695-3.509l-12.216-1.787c0,0-0.688-17.229-10.232-21.096c-9.551-3.867-31.482-1.393-43.006,14.061
		c0,0-9.873-3.181-14.123,4.003c-3.766,6.354-0.657,17.602,4.845,22.224l0.381,18.768l2.708-0.056l-0.369-18.212
		C51.856,77.944,62.511,81.019,62.178,64.668z"/>
	
		<rect x="49.353" y="75.93" transform="matrix(0.9998 -0.0198 0.0198 0.9998 -1.7344 1.0316)" fill="#3E2418" width="3.723" height="24.304"/>
	
		<rect x="113.558" y="71.713" transform="matrix(0.9998 -0.0205 0.0205 0.9998 -1.7218 2.3797)" fill="#3E2418" width="3.722" height="27.222"/>
	<g>
		<g>
			<g>
				<g>
					<defs>
						
							<rect id="SVGID_1_" x="29.436" y="142.606" transform="matrix(-0.9998 0.0203 -0.0203 -0.9998 97.8663 315.347)" width="35.794" height="31.128"/>
					</defs>
					<clipPath id="SVGID_2_">
						<use xlink:href="#SVGID_1_"  overflow="visible"/>
					</clipPath>
					<g clip-path="url(#SVGID_2_)">
						<path fill="#FBCE99" d="M59.958,162.73c1.979-0.038,3.548-1.673,3.504-3.642l-0.713-35.128l-25.425,0.363l0.04-0.003
							l-5.152,0.106l0.034-0.011l-2.31,0.707l-1.444,1.271l-1.759,1.833l-1.09,1.137l-4.86,5.059
							c-1.363,1.424-1.318,3.693,0.103,5.057c0.713,0.687,1.638,1.015,2.55,0.998c0.917-0.021,1.824-0.384,2.508-1.1l5.726-5.957
							l0.403,20.113l0.048-0.004c-0.015,0.15-0.038,0.304-0.037,0.453l0.19,9.312c0.041,1.977,1.672,3.547,3.643,3.509
							c0.921-0.022,1.738-0.392,2.363-0.973c0.448-0.421,0.785-0.944,0.968-1.548c0.115-0.357,0.188-0.736,0.18-1.134l-0.188-9.312
							c-0.005-0.148-0.038-0.303-0.058-0.447l0.924-0.02c-0.017,0.148-0.041,0.301-0.038,0.452l0.327,15.963
							c0.008,0.41,0.098,0.792,0.229,1.156c0.517,1.394,1.854,2.378,3.414,2.347c1.978-0.039,3.543-1.672,3.507-3.65l-0.324-15.964
							c-0.004-0.148-0.034-0.302-0.055-0.45l0.876-0.017l0.29,14.173c0.039,1.972,1.67,3.539,3.645,3.499
							c1.977-0.04,3.542-1.671,3.501-3.646l-0.292-14.167l1.006-0.023l0.125,6.188C56.355,161.212,57.99,162.776,59.958,162.73
							L59.958,162.73z"/>
					</g>
				</g>
			</g>
		</g>
		<path fill="#FBCE99" d="M31.869,142.945c0,0,14.774-7.526,31.357-0.607"/>
	</g>
	<g>
		<g>
			<g>
				<g>
					<defs>
						
							<rect id="SVGID_3_" x="106.37" y="141.044" transform="matrix(-0.9998 0.0202 -0.0202 -0.9998 251.6666 310.6763)" width="35.791" height="31.129"/>
					</defs>
					<clipPath id="SVGID_4_">
						<use xlink:href="#SVGID_3_"  overflow="visible"/>
					</clipPath>
					<g clip-path="url(#SVGID_4_)">
						<path fill="#FBCE99" d="M136.889,161.17c1.98-0.04,3.547-1.672,3.499-3.641l-0.71-35.131l-25.422,0.363h0.038l-5.151,0.106
							l0.032-0.013l-2.31,0.706l-1.443,1.271l-1.757,1.837l-1.092,1.135l-4.859,5.058c-1.361,1.423-1.317,3.692,0.102,5.057
							c0.715,0.684,1.636,1.015,2.553,0.997c0.919-0.019,1.823-0.387,2.506-1.101l5.726-5.96l0.406,20.112h0.046
							c-0.016,0.146-0.039,0.304-0.035,0.452l0.188,9.313c0.041,1.976,1.67,3.547,3.643,3.506c0.92-0.019,1.736-0.393,2.361-0.971
							c0.449-0.42,0.783-0.947,0.965-1.547c0.114-0.358,0.188-0.737,0.181-1.135l-0.188-9.309c-0.005-0.152-0.031-0.307-0.059-0.451
							l0.926-0.021c-0.014,0.147-0.036,0.304-0.034,0.453l0.323,15.964c0.009,0.412,0.097,0.793,0.23,1.157
							c0.514,1.394,1.851,2.378,3.413,2.349c1.978-0.042,3.547-1.677,3.505-3.648l-0.324-15.966
							c-0.002-0.151-0.032-0.303-0.055-0.45l0.88-0.018l0.287,14.173c0.04,1.973,1.671,3.535,3.644,3.501
							c1.978-0.043,3.541-1.672,3.502-3.648l-0.292-14.168l1.007-0.025l0.125,6.19C133.283,159.654,134.918,161.213,136.889,161.17
							L136.889,161.17z"/>
					</g>
				</g>
			</g>
		</g>
		<path fill="#FBCE99" d="M108.797,141.386c0,0,14.775-7.529,31.355-0.606"/>
	</g>
	<circle fill="#FBCE99" cx="84.568" cy="114.949" r="31.955"/>
	<g>
		<g>
			<g>
				<g id="Layer_2_14_">
					<path fill="#3E2418" d="M76.469,125.71c2.487-0.052,6.811-1.38,8.598-5.147c1.942,3.691,6.317,4.843,8.802,4.793
						c8.073-0.16,9.203-5.782,9.203-5.782c-0.605,0.634-1.841,1.284-3.704,1.324c-3.102,0.061-3.837-5.52-8.188-5.433
						c-4.347,0.091-6.149,3.237-6.149,3.237s-1.929-3.071-6.279-2.985c-4.352,0.088-4.857,5.693-7.962,5.761
						c-1.867,0.032-3.123-0.562-3.751-1.175C67.037,120.305,68.392,125.875,76.469,125.71z"/>
				</g>
			</g>
		</g>
		<g id="Layer_2_3_">
			<path fill="#3E2418" d="M85.03,118.702c0,0-1.928-3.071-6.277-2.985c-4.351,0.088-4.857,5.694-7.964,5.762
				c-1.866,0.033-3.122-0.562-3.75-1.174c0,0,1.354,5.568,9.431,5.405c2.487-0.052,6.811-1.38,8.596-5.147"/>
		</g>
	</g>
</g>
</svg>
