<?xml version="1.0" encoding="utf-8"?>
<!-- Generator: Adobe Illustrator 16.0.0, SVG Export Plug-In . SVG Version: 6.00 Build 0)  -->
<!DOCTYPE svg PUBLIC "-//W3C//DTD SVG 1.1//EN" "http://www.w3.org/Graphics/SVG/1.1/DTD/svg11.dtd">
<svg version="1.1" id="Layer_1" xmlns="http://www.w3.org/2000/svg" xmlns:xlink="http://www.w3.org/1999/xlink" x="0px" y="0px"
	 width="148.334px" height="294.528px" viewBox="0 0 148.334 294.528" enable-background="new 0 0 148.334 294.528"
	 xml:space="preserve">
<g>
	<g>
		<rect x="41.822" y="106.376" fill="#FBCE99" width="25.594" height="31.973"/>
		<path fill="#A7A9AC" d="M21.664,130.79H11.627C5.201,130.79,0,135.944,0,142.304V281.45v1.566v11.512h10.01h87.967h11.826v-11.512
			v-0.494l-0.201-140.219c0-6.359-5.203-11.514-11.625-11.514h-9.838"/>
		<circle fill="#FBCE99" cx="54.135" cy="84.091" r="30.52"/>
		<path fill="#FBCE99" d="M84.654,86.997c0,6.422-5.207,11.627-11.625,11.627H35.243c-6.423,0-11.628-5.205-11.628-11.627V44.044
			c0-6.42,5.205-11.625,11.628-11.625h37.786c6.418,0,11.625,5.205,11.625,11.625V86.997z"/>
		<path fill="#3E2418" d="M33.729,35.644c0,0,13.779,14.535,30.253,14.211C80.453,49.53,96.92,38.548,96.92,38.548l-10.008-0.32
			l2.581-2.584h-3.228l6.459-3.225l-11.628-1.941c0,0-0.323-16.469-9.364-20.348c-9.043-3.873-30.037-1.936-41.339,12.598
			c0,0-9.366-3.229-13.563,3.551c-3.717,5.996-0.969,16.793,4.197,21.314v17.928h2.588V48.122
			C23.615,48.122,33.729,51.265,33.729,35.644z"/>
		<rect x="21.027" y="46.185" fill="#3E2418" width="3.555" height="23.213"/>
		<rect x="82.393" y="43.397" fill="#3E2418" width="3.557" height="26"/>
		<g>
			<g>
				<g>
					<g id="Layer_2_34_">
						<path fill="#3E2418" d="M46.191,94.214c2.377,0,6.532-1.188,8.314-4.75c1.78,3.562,5.935,4.75,8.309,4.75
							c7.717,0,8.902-5.344,8.902-5.344c-0.592,0.594-1.781,1.189-3.56,1.189c-2.965,0-3.561-5.344-7.717-5.344
							c-4.154,0-5.935,2.969-5.935,2.969s-1.782-2.969-5.938-2.969c-4.157,0-4.748,5.344-7.716,5.344
							c-1.782,0-2.97-0.596-3.561-1.189C37.292,88.87,38.477,94.214,46.191,94.214z"/>
					</g>
				</g>
			</g>
			<g id="Layer_2_57_">
				<path fill="#3E2418" d="M54.504,87.685c0,0-1.78-2.969-5.936-2.969c-4.157,0-4.748,5.344-7.719,5.344
					c-1.779,0-2.969-0.596-3.558-1.189c0,0,1.185,5.344,8.899,5.344c2.377,0,6.532-1.188,8.312-4.75"/>
			</g>
		</g>
		
			<line fill="none" stroke="#000000" stroke-width="0.5" stroke-miterlimit="10" x1="54.902" y1="294.335" x2="54.902" y2="130.597"/>
		<g>
			<g>
				<g>
					<g id="Layer_2_33_">
						<path fill="#FFFFFF" d="M19.352,148.56c0.574,0,1.572-0.285,2.005-1.145c0.427,0.859,1.43,1.145,2.005,1.145
							c1.861,0,2.145-1.287,2.145-1.287c-0.141,0.143-0.428,0.287-0.855,0.287c-0.717,0-0.859-1.291-1.864-1.291
							c-1.003,0-1.43,0.717-1.43,0.717s-0.433-0.717-1.431-0.717c-1.006,0-1.148,1.291-1.864,1.291c-0.427,0-0.717-0.145-0.86-0.287
							C17.201,147.272,17.489,148.56,19.352,148.56z"/>
					</g>
				</g>
			</g>
			<path fill="#FFFFFF" d="M21.104,142.886c0,1.432-1.167,2.596-2.601,2.596s-2.598-1.164-2.598-2.596c0-1.438,1.164-2.6,2.598-2.6
				S21.104,141.448,21.104,142.886z"/>
			<path fill="#FFFFFF" d="M26.861,142.909c0,1.434-1.166,2.598-2.601,2.598c-1.434,0-2.597-1.164-2.597-2.598
				c0-1.438,1.163-2.598,2.597-2.598C25.695,140.312,26.861,141.472,26.861,142.909z"/>
			<g id="Layer_2_55_">
				<path fill="#FFFFFF" d="M21.356,146.985c0,0-0.433-0.717-1.431-0.717c-1.006,0-1.148,1.291-1.864,1.291
					c-0.427,0-0.717-0.145-0.86-0.287c0,0,0.288,1.287,2.15,1.287c0.574,0,1.572-0.285,2.005-1.145"/>
			</g>
		</g>
		<g>
			<g>
				<g>
					<g id="Layer_2_32_">
						<path fill="#FFFFFF" d="M40.033,169.247c0.576,0,1.579-0.287,2.009-1.145c0.427,0.857,1.431,1.145,2.003,1.145
							c1.861,0,2.146-1.289,2.146-1.289c-0.141,0.145-0.428,0.287-0.857,0.287c-0.715,0-0.858-1.291-1.861-1.291
							c-1.004,0-1.431,0.719-1.431,0.719s-0.43-0.719-1.433-0.719c-1,0-1.148,1.291-1.863,1.291c-0.426,0-0.713-0.143-0.857-0.287
							C37.889,167.958,38.175,169.247,40.033,169.247z"/>
					</g>
				</g>
			</g>
			<circle fill="#FFFFFF" cx="39.191" cy="163.569" r="2.6"/>
			<path fill="#FFFFFF" d="M47.544,163.595c0,1.434-1.163,2.598-2.595,2.598c-1.438,0-2.6-1.164-2.6-2.598
				c0-1.436,1.161-2.598,2.6-2.598C46.381,160.997,47.544,162.159,47.544,163.595z"/>
			<g id="Layer_2_53_">
				<path fill="#FFFFFF" d="M42.042,167.673c0,0-0.43-0.719-1.433-0.719c-1,0-1.148,1.291-1.863,1.291
					c-0.426,0-0.713-0.143-0.857-0.287c0,0,0.286,1.289,2.145,1.289c0.576,0,1.579-0.287,2.009-1.145"/>
			</g>
		</g>
		<g>
			<g>
				<g>
					<g id="Layer_2_31_">
						<path fill="#FFFFFF" d="M65.189,194.399c0.574,0,1.574-0.285,2.006-1.145c0.431,0.859,1.433,1.145,2.006,1.145
							c1.859,0,2.146-1.289,2.146-1.289c-0.143,0.145-0.43,0.289-0.859,0.289c-0.713,0-0.859-1.289-1.86-1.289
							c-1.002,0-1.433,0.717-1.433,0.717s-0.432-0.717-1.432-0.717c-1.004,0-1.146,1.289-1.861,1.289
							c-0.43,0-0.717-0.145-0.859-0.289C63.043,193.11,63.327,194.399,65.189,194.399z"/>
					</g>
				</g>
			</g>
			<path fill="#FFFFFF" d="M66.943,188.724c0,1.436-1.164,2.598-2.601,2.598c-1.432,0-2.597-1.162-2.597-2.598s1.165-2.6,2.597-2.6
				C65.779,186.124,66.943,187.288,66.943,188.724z"/>
			<circle fill="#FFFFFF" cx="70.101" cy="188.749" r="2.599"/>
			<g id="Layer_2_51_">
				<path fill="#FFFFFF" d="M67.193,192.827c0,0-0.43-0.717-1.43-0.717c-1.004,0-1.146,1.289-1.861,1.289
					c-0.43,0-0.717-0.145-0.859-0.289c0,0,0.284,1.289,2.146,1.289c0.574,0,1.574-0.285,2.004-1.145"/>
			</g>
		</g>
		<g>
			<g>
				<g>
					<g id="Layer_2_28_">
						<path fill="#FFFFFF" d="M89.684,218.894c0.572,0,1.574-0.285,2.005-1.143c0.431,0.857,1.429,1.143,2.004,1.143
							c1.86,0,2.147-1.289,2.147-1.289c-0.141,0.146-0.43,0.287-0.857,0.287c-0.717,0-0.86-1.289-1.865-1.289
							c-0.998,0-1.429,0.717-1.429,0.717s-0.431-0.717-1.433-0.717c-1.004,0-1.146,1.289-1.861,1.289
							c-0.432,0-0.718-0.141-0.859-0.287C87.535,217.604,87.822,218.894,89.684,218.894z"/>
					</g>
				</g>
			</g>
			<path fill="#FFFFFF" d="M91.437,213.218c0,1.434-1.164,2.596-2.601,2.596c-1.432,0-2.598-1.162-2.598-2.596
				c0-1.436,1.166-2.598,2.598-2.598C90.272,210.62,91.437,211.782,91.437,213.218z"/>
			<path fill="#FFFFFF" d="M97.193,213.243c0,1.432-1.166,2.596-2.598,2.596c-1.436,0-2.601-1.164-2.601-2.596
				c0-1.436,1.165-2.6,2.601-2.6C96.027,210.644,97.193,211.808,97.193,213.243z"/>
			<g id="Layer_2_49_">
				<path fill="#FFFFFF" d="M91.688,217.319c0,0-0.431-0.717-1.433-0.717c-1.004,0-1.146,1.289-1.861,1.289
					c-0.432,0-0.718-0.141-0.859-0.287c0,0,0.287,1.289,2.148,1.289c0.572,0,1.574-0.285,2.005-1.143"/>
			</g>
		</g>
		<g>
			<g>
				<g>
					<g id="Layer_2_27_">
						<path fill="#FFFFFF" d="M65.189,152.188c0.574,0,1.574-0.285,2.006-1.145c0.431,0.859,1.433,1.145,2.006,1.145
							c1.859,0,2.146-1.287,2.146-1.287c-0.143,0.143-0.43,0.287-0.859,0.287c-0.713,0-0.859-1.291-1.86-1.291
							c-1.002,0-1.433,0.717-1.433,0.717s-0.432-0.717-1.432-0.717c-1.004,0-1.146,1.291-1.861,1.291
							c-0.43,0-0.717-0.145-0.859-0.287C63.043,150.901,63.327,152.188,65.189,152.188z"/>
					</g>
				</g>
			</g>
			<path fill="#FFFFFF" d="M66.943,146.513c0,1.434-1.164,2.598-2.601,2.598c-1.432,0-2.597-1.164-2.597-2.598
				c0-1.436,1.165-2.598,2.597-2.598C65.779,143.915,66.943,145.077,66.943,146.513z"/>
			<circle fill="#FFFFFF" cx="70.101" cy="146.536" r="2.599"/>
			<g id="Layer_2_47_">
				<path fill="#FFFFFF" d="M67.193,150.614c0,0-0.43-0.717-1.43-0.717c-1.004,0-1.146,1.291-1.861,1.291
					c-0.43,0-0.717-0.145-0.859-0.287c0,0,0.284,1.287,2.146,1.287c0.574,0,1.574-0.285,2.004-1.145"/>
			</g>
		</g>
		<g>
			<g>
				<g>
					<g id="Layer_2_26_">
						<path fill="#FFFFFF" d="M19.352,192.513c0.574,0,1.572-0.285,2.005-1.145c0.427,0.859,1.43,1.145,2.005,1.145
							c1.861,0,2.145-1.287,2.145-1.287c-0.141,0.143-0.428,0.287-0.855,0.287c-0.717,0-0.859-1.291-1.864-1.291
							c-1.003,0-1.43,0.717-1.43,0.717s-0.433-0.717-1.431-0.717c-1.006,0-1.148,1.291-1.864,1.291c-0.427,0-0.717-0.145-0.86-0.287
							C17.201,191.226,17.489,192.513,19.352,192.513z"/>
					</g>
				</g>
			</g>
			<circle fill="#FFFFFF" cx="18.505" cy="186.837" r="2.599"/>
			<circle fill="#FFFFFF" cx="24.263" cy="186.862" r="2.599"/>
			<g id="Layer_2_45_">
				<path fill="#FFFFFF" d="M21.356,190.938c0,0-0.433-0.717-1.431-0.717c-1.006,0-1.148,1.291-1.864,1.291
					c-0.427,0-0.717-0.145-0.86-0.287c0,0,0.288,1.287,2.15,1.287c0.574,0,1.572-0.285,2.005-1.145"/>
			</g>
		</g>
		<g>
			<g>
				<g>
					<g id="Layer_2_25_">
						<path fill="#FFFFFF" d="M40.033,213.2c0.576,0,1.579-0.285,2.009-1.146c0.427,0.861,1.431,1.146,2.003,1.146
							c1.861,0,2.146-1.289,2.146-1.289c-0.141,0.143-0.428,0.287-0.857,0.287c-0.715,0-0.858-1.291-1.861-1.291
							c-1.004,0-1.431,0.719-1.431,0.719s-0.43-0.719-1.433-0.719c-1,0-1.148,1.291-1.863,1.291c-0.426,0-0.713-0.145-0.857-0.287
							C37.889,211.911,38.175,213.2,40.033,213.2z"/>
					</g>
				</g>
			</g>
			<circle fill="#FFFFFF" cx="39.191" cy="207.522" r="2.6"/>
			<path fill="#FFFFFF" d="M47.544,207.548c0,1.434-1.163,2.598-2.595,2.598c-1.438,0-2.6-1.164-2.6-2.598
				c0-1.436,1.161-2.598,2.6-2.598C46.381,204.95,47.544,206.112,47.544,207.548z"/>
			<g id="Layer_2_43_">
				<path fill="#FFFFFF" d="M42.042,211.626c0,0-0.43-0.719-1.433-0.719c-1,0-1.148,1.291-1.863,1.291
					c-0.426,0-0.713-0.145-0.857-0.287c0,0,0.286,1.289,2.145,1.289c0.576,0,1.579-0.285,2.009-1.146"/>
			</g>
		</g>
		<g>
			<g>
				<g>
					<g id="Layer_2_22_">
						<path fill="#414042" d="M65.189,238.354c0.574,0,1.574-0.287,2.006-1.146c0.431,0.859,1.433,1.146,2.006,1.146
							c1.859,0,2.146-1.291,2.146-1.291c-0.143,0.145-0.43,0.289-0.859,0.289c-0.713,0-0.859-1.291-1.86-1.291
							c-1.002,0-1.433,0.719-1.433,0.719s-0.432-0.719-1.432-0.719c-1.004,0-1.146,1.291-1.861,1.291
							c-0.43,0-0.717-0.145-0.859-0.289C63.043,237.063,63.327,238.354,65.189,238.354z"/>
					</g>
				</g>
			</g>
			<path fill="#414042" d="M66.943,232.675c0,1.436-1.164,2.6-2.601,2.6c-1.432,0-2.597-1.164-2.597-2.6
				c0-1.434,1.165-2.598,2.597-2.598C65.779,230.077,66.943,231.241,66.943,232.675z"/>
			<circle fill="#414042" cx="70.101" cy="232.702" r="2.599"/>
			<g id="Layer_2_41_">
				<path fill="#414042" d="M67.193,236.78c0,0-0.43-0.719-1.43-0.719c-1.004,0-1.146,1.291-1.861,1.291
					c-0.43,0-0.717-0.145-0.859-0.289c0,0,0.284,1.291,2.146,1.291c0.574,0,1.574-0.287,2.004-1.146"/>
			</g>
		</g>
		<g>
			<g>
				<g>
					<g id="Layer_2_21_">
						<path fill="#414042" d="M89.684,262.847c0.572,0,1.574-0.285,2.005-1.146c0.431,0.861,1.429,1.146,2.004,1.146
							c1.86,0,2.147-1.287,2.147-1.287c-0.141,0.141-0.43,0.287-0.857,0.287c-0.717,0-0.86-1.291-1.865-1.291
							c-0.998,0-1.429,0.717-1.429,0.717s-0.431-0.717-1.433-0.717c-1.004,0-1.146,1.291-1.861,1.291
							c-0.432,0-0.718-0.146-0.859-0.287C87.535,261.56,87.822,262.847,89.684,262.847z"/>
					</g>
				</g>
			</g>
			<path fill="#414042" d="M91.437,257.171c0,1.432-1.164,2.596-2.601,2.596c-1.432,0-2.598-1.164-2.598-2.596
				c0-1.436,1.166-2.6,2.598-2.6C90.272,254.571,91.437,255.735,91.437,257.171z"/>
			<path fill="#414042" d="M97.193,257.194c0,1.436-1.166,2.598-2.598,2.598c-1.436,0-2.601-1.162-2.601-2.598
				s1.165-2.598,2.601-2.598C96.027,254.597,97.193,255.759,97.193,257.194z"/>
			<g id="Layer_2_39_">
				<path fill="#414042" d="M91.688,261.272c0,0-0.431-0.717-1.433-0.717c-1.004,0-1.146,1.291-1.861,1.291
					c-0.432,0-0.718-0.146-0.859-0.287c0,0,0.287,1.287,2.148,1.287c0.572,0,1.574-0.285,2.005-1.146"/>
			</g>
		</g>
		<g>
			<g>
				<g>
					<g id="Layer_2_14_">
						<path fill="#414042" d="M19.352,234.825c0.574,0,1.572-0.289,2.005-1.146c0.427,0.857,1.43,1.146,2.005,1.146
							c1.861,0,2.145-1.293,2.145-1.293c-0.141,0.146-0.428,0.287-0.855,0.287c-0.717,0-0.859-1.289-1.864-1.289
							c-1.003,0-1.43,0.717-1.43,0.717s-0.433-0.717-1.431-0.717c-1.006,0-1.148,1.289-1.864,1.289c-0.427,0-0.717-0.141-0.86-0.287
							C17.201,233.532,17.489,234.825,19.352,234.825z"/>
					</g>
				</g>
			</g>
			<circle fill="#414042" cx="18.505" cy="229.146" r="2.599"/>
			<circle fill="#414042" cx="24.263" cy="229.171" r="2.599"/>
			<g id="Layer_2_37_">
				<path fill="#414042" d="M21.356,233.247c0,0-0.433-0.717-1.431-0.717c-1.006,0-1.148,1.289-1.864,1.289
					c-0.427,0-0.717-0.141-0.86-0.287c0,0,0.288,1.293,2.15,1.293c0.574,0,1.572-0.289,2.005-1.146"/>
			</g>
		</g>
		<g>
			<g>
				<g>
					<g id="Layer_2_13_">
						<path fill="#414042" d="M40.033,255.507c0.576,0,1.579-0.283,2.009-1.143c0.427,0.859,1.431,1.143,2.003,1.143
							c1.861,0,2.146-1.285,2.146-1.285c-0.141,0.143-0.428,0.285-0.857,0.285c-0.715,0-0.858-1.291-1.861-1.291
							c-1.004,0-1.431,0.717-1.431,0.717s-0.43-0.717-1.433-0.717c-1,0-1.148,1.291-1.863,1.291c-0.426,0-0.713-0.143-0.857-0.285
							C37.889,254.222,38.175,255.507,40.033,255.507z"/>
					</g>
				</g>
			</g>
			<circle fill="#414042" cx="39.191" cy="249.831" r="2.6"/>
			<path fill="#414042" d="M47.544,249.858c0,1.434-1.163,2.596-2.595,2.596c-1.438,0-2.6-1.162-2.6-2.596
				c0-1.436,1.161-2.6,2.6-2.6C46.381,247.259,47.544,248.423,47.544,249.858z"/>
			<g id="Layer_2_35_">
				<path fill="#414042" d="M42.042,253.933c0,0-0.43-0.717-1.433-0.717c-1,0-1.148,1.291-1.863,1.291
					c-0.426,0-0.713-0.143-0.857-0.285c0,0,0.286,1.285,2.145,1.285c0.576,0,1.579-0.283,2.009-1.143"/>
			</g>
		</g>
		<g>
			<g>
				<g>
					<g id="Layer_2_12_">
						<path fill="#414042" d="M65.189,280.661c0.574,0,1.574-0.285,2.006-1.145c0.431,0.859,1.433,1.145,2.006,1.145
							c1.859,0,2.146-1.287,2.146-1.287c-0.143,0.143-0.43,0.287-0.859,0.287c-0.713,0-0.859-1.291-1.86-1.291
							c-1.002,0-1.433,0.717-1.433,0.717s-0.432-0.717-1.432-0.717c-1.004,0-1.146,1.291-1.861,1.291
							c-0.43,0-0.717-0.145-0.859-0.287C63.043,279.374,63.327,280.661,65.189,280.661z"/>
					</g>
				</g>
			</g>
			<path fill="#414042" d="M66.943,274.985c0,1.436-1.164,2.6-2.601,2.6c-1.432,0-2.597-1.164-2.597-2.6s1.165-2.598,2.597-2.598
				C65.779,272.388,66.943,273.55,66.943,274.985z"/>
			<circle fill="#414042" cx="70.101" cy="275.011" r="2.599"/>
			<g id="Layer_2_29_">
				<path fill="#414042" d="M67.193,279.087c0,0-0.43-0.717-1.43-0.717c-1.004,0-1.146,1.291-1.861,1.291
					c-0.43,0-0.717-0.145-0.859-0.287c0,0,0.284,1.287,2.146,1.287c0.574,0,1.574-0.285,2.004-1.145"/>
			</g>
		</g>
		<g>
			<g>
				<g>
					<g id="Layer_2_11_">
						<path fill="#414042" d="M19.352,277.726c0.574,0,1.572-0.287,2.005-1.146c0.427,0.859,1.43,1.146,2.005,1.146
							c1.861,0,2.145-1.289,2.145-1.289c-0.141,0.143-0.428,0.287-0.855,0.287c-0.717,0-0.859-1.291-1.864-1.291
							c-1.003,0-1.43,0.717-1.43,0.717s-0.433-0.717-1.431-0.717c-1.006,0-1.148,1.291-1.864,1.291c-0.427,0-0.717-0.145-0.86-0.287
							C17.201,276.437,17.489,277.726,19.352,277.726z"/>
					</g>
				</g>
			</g>
			<circle fill="#414042" cx="18.505" cy="272.046" r="2.599"/>
			<circle fill="#414042" cx="24.263" cy="272.073" r="2.599"/>
			<g id="Layer_2_23_">
				<path fill="#414042" d="M21.356,276.149c0,0-0.433-0.717-1.431-0.717c-1.006,0-1.148,1.291-1.864,1.291
					c-0.427,0-0.717-0.145-0.86-0.287c0,0,0.288,1.289,2.15,1.289c0.574,0,1.572-0.287,2.005-1.146"/>
			</g>
		</g>
		<path fill="none" stroke="#414042" stroke-miterlimit="10" d="M52.922,142.224c0,0.803-0.652,1.453-1.453,1.453
			c-0.799,0-1.455-0.65-1.455-1.453s0.656-1.453,1.455-1.453C52.27,140.771,52.922,141.421,52.922,142.224z"/>
		<path fill="none" stroke="#414042" stroke-miterlimit="10" d="M52.922,160.147c0,0.803-0.652,1.453-1.453,1.453
			c-0.799,0-1.455-0.65-1.455-1.453s0.656-1.453,1.455-1.453C52.27,158.694,52.922,159.345,52.922,160.147z"/>
		<path fill="none" stroke="#414042" stroke-miterlimit="10" d="M52.922,178.069c0,0.805-0.652,1.455-1.453,1.455
			c-0.799,0-1.455-0.65-1.455-1.455c0-0.801,0.656-1.451,1.455-1.451C52.27,176.618,52.922,177.269,52.922,178.069z"/>
		<path fill="none" stroke="#414042" stroke-miterlimit="10" d="M52.922,195.995c0,0.803-0.652,1.455-1.453,1.455
			c-0.799,0-1.455-0.652-1.455-1.455s0.656-1.451,1.455-1.451C52.27,194.544,52.922,195.192,52.922,195.995z"/>
		<path fill="none" stroke="#414042" stroke-miterlimit="10" d="M52.922,213.919c0,0.803-0.652,1.453-1.453,1.453
			c-0.799,0-1.455-0.65-1.455-1.453c0-0.801,0.656-1.453,1.455-1.453C52.27,212.466,52.922,213.118,52.922,213.919z"/>
		<path fill="none" stroke="#414042" stroke-miterlimit="10" d="M52.922,231.847c0,0.799-0.652,1.449-1.453,1.449
			c-0.799,0-1.455-0.65-1.455-1.449c0-0.807,0.656-1.455,1.455-1.455C52.27,230.392,52.922,231.04,52.922,231.847z"/>
		<path fill="none" stroke="#414042" stroke-miterlimit="10" d="M52.922,249.769c0,0.801-0.652,1.453-1.453,1.453
			c-0.799,0-1.455-0.652-1.455-1.453c0-0.803,0.656-1.453,1.455-1.453C52.27,248.315,52.922,248.966,52.922,249.769z"/>
		<path fill="none" stroke="#414042" stroke-miterlimit="10" d="M52.922,267.692c0,0.803-0.652,1.453-1.453,1.453
			c-0.799,0-1.455-0.65-1.455-1.453s0.656-1.453,1.455-1.453C52.27,266.239,52.922,266.89,52.922,267.692z"/>
		<path fill="none" stroke="#414042" stroke-miterlimit="10" d="M52.922,285.616c0,0.803-0.652,1.453-1.453,1.453
			c-0.799,0-1.455-0.65-1.455-1.453c0-0.801,0.656-1.453,1.455-1.453C52.27,284.163,52.922,284.815,52.922,285.616z"/>
		<polygon points="54.902,130.79 40.934,122.362 36.592,130.79 48.807,137.862 		"/>
		<polygon points="54.902,130.79 68.652,122.362 72.994,130.79 60.781,137.862 		"/>
		<g>
			<g>
				<g>
					<g id="Layer_2_10_">
						<path fill="#FFFFFF" d="M3.303,171.036c0.404,0.404,1.316,0.91,2.229,0.609c-0.304,0.91,0.203,1.82,0.605,2.225
							c1.318,1.316,2.432,0.607,2.432,0.607c-0.201,0.002-0.507-0.1-0.81-0.402c-0.509-0.508,0.303-1.521-0.405-2.229
							c-0.708-0.709-1.521-0.508-1.521-0.508s0.203-0.811-0.504-1.518c-0.706-0.709-1.723,0.102-2.23-0.404
							c-0.301-0.303-0.404-0.607-0.402-0.811C2.695,168.606,1.988,169.72,3.303,171.036z"/>
					</g>
				</g>
			</g>
			<path fill="#FFFFFF" d="M8.555,168.261c-1.011,1.014-2.658,1.014-3.672,0c-1.014-1.016-1.014-2.66,0-3.676
				c1.014-1.014,2.661-1.012,3.672,0C9.572,165.601,9.572,167.245,8.555,168.261z"/>
			<path fill="#FFFFFF" d="M12.609,172.349c-1.014,1.014-2.658,1.014-3.674,0c-1.018-1.014-1.018-2.658,0-3.674
				c1.016-1.016,2.66-1.016,3.674,0S13.623,171.335,12.609,172.349z"/>
			<g id="Layer_2_19_">
				<path fill="#FFFFFF" d="M5.832,171.339c0,0,0.203-0.811-0.504-1.518c-0.706-0.709-1.723,0.102-2.23-0.404
					c-0.301-0.303-0.404-0.607-0.402-0.811c0,0-0.707,1.113,0.607,2.43c0.404,0.404,1.316,0.91,2.225,0.605"/>
			</g>
		</g>
	</g>
</g>
<g>
	<path fill="#FBCE99" d="M147.341,211.327c0.128-0.076-26.278-43.98-26.278-43.98l-18.367,11.346l25.093,40.631l-0.034,0.119
		c0,0,0.496,0.816,0.283,1.557c-0.047,0.166-0.117,0.318-0.192,0.461l-27.991,14.609c0,0-3.107,1.564-6.742,1.598
		c-3.634,0.033,8.457,16.084,8.457,16.084s38.051-16.291,38.49-16.525C150.83,231.433,148.381,216.042,147.341,211.327z"/>
	<g>
		<path fill-rule="evenodd" clip-rule="evenodd" fill="#FBCE99" d="M79.689,235.954c0.014,0.559-1.919,0.678-2.383,0.926
			c1.807,1.615,3.286,5.412,1.016,6.625c2.662,0.77,2.139,6.75-0.583,8.52c2.97,1,6.165,4.637,3.897,6.779
			c2.729,0.23,3.533,4.336,2.403,6.484c4.954-0.99,7.062-2.238,11.964-4.844c3.51-1.447,10.033-7.674,10.324-12.039
			c0.135-2.053-2.142,2.453-2.75-0.359c-0.607-2.799-0.826-6.24-1.709-7.889c-1.465-2.729-5.016-1.402-7.926-0.785
			c-1.934-4.447-8.713-10.258-11.275-15.074c-1.217-2.293-1.082-4.07-2.571-4.947c-1.425-0.84-3.776-0.215-4.539,0.984
			C72.979,224.382,79.395,231.032,79.689,235.954z"/>
		<path fill-rule="evenodd" clip-rule="evenodd" fill="#FBCE99" stroke="#FBCE99" stroke-miterlimit="10" d="M77.071,237.604
			c-2.087,0.15-12.905,1.492-14.095,4.123c-0.849,1.865,0.283,4.557,1.677,4.971c1.198,0.361,14-0.812,15.48-2.189
			C82.459,242.341,79.848,237.403,77.071,237.604z"/>
		<path fill-rule="evenodd" clip-rule="evenodd" fill="#FBCE99" stroke="#FBCE99" stroke-miterlimit="10" d="M79.184,244.907
			c-1.516-0.264-5.312,0.9-8.896,1.68c-3.492,0.754-9.515,1.053-8.407,5.072c0.967,3.516,5.678,1.773,9.943,0.85
			c3.559-0.771,9.646-1.113,9.863-4.141C81.848,246.089,79.912,245.034,79.184,244.907z"/>
		<path fill-rule="evenodd" clip-rule="evenodd" fill="#FBCE99" stroke="#FBCE99" stroke-miterlimit="10" d="M80.453,252.069
			c-1.549-0.203-13.699,1.795-15.102,4.037c-0.574,0.906-0.462,2.336-0.125,3.258c1.123,3.051,5.512,1.416,9.492,0.488
			c3.703-0.857,8.459-1.098,8.506-4.391C83.268,252.659,81.289,252.179,80.453,252.069z"/>
		<path fill-rule="evenodd" clip-rule="evenodd" fill="#FBCE99" stroke="#FBCE99" stroke-width="2" stroke-miterlimit="10" d="
			M71.219,267.485c1.746,0.309,12.49-0.434,13.678-4.295c0.543-1.775-1.15-3.338-2.975-3.201c-3.103,0.238-8.719,1.605-10.854,2.701
			c-1.016,0.52-1.4,1.498-1.301,2.273C70.001,266.845,71.143,267.472,71.219,267.485z"/>
	</g>
	<polygon fill="#A7A9AC" points="78.961,143.938 109.494,137.497 144.967,195.083 118.494,214.497 	"/>
	<g>
		<g>
			<g>
				<g id="Layer_2_9_">
					<path fill="#FFFFFF" d="M104.543,167.854c0.572,0,1.576-0.283,2.004-1.143c0.432,0.859,1.431,1.143,2.004,1.143
						c1.861,0,2.148-1.287,2.148-1.287c-0.141,0.145-0.43,0.287-0.858,0.287c-0.716,0-0.859-1.289-1.863-1.289
						c-0.999,0-1.431,0.715-1.431,0.715s-0.428-0.715-1.432-0.715s-1.146,1.289-1.861,1.289c-0.431,0-0.717-0.143-0.859-0.287
						C102.395,166.567,102.68,167.854,104.543,167.854z"/>
				</g>
			</g>
		</g>
		<path fill="#FFFFFF" d="M106.296,162.179c0,1.436-1.165,2.6-2.601,2.6c-1.432,0-2.598-1.164-2.598-2.6
			c0-1.432,1.166-2.6,2.598-2.6C105.131,159.579,106.296,160.747,106.296,162.179z"/>
		<path fill="#FFFFFF" d="M112.053,162.206c0,1.434-1.166,2.596-2.598,2.596c-1.436,0-2.601-1.162-2.601-2.596
			c0-1.436,1.165-2.6,2.601-2.6C110.887,159.606,112.053,160.771,112.053,162.206z"/>
		<g id="Layer_2_17_">
			<path fill="#FFFFFF" d="M106.547,166.28c0,0-0.428-0.715-1.432-0.715s-1.146,1.289-1.861,1.289c-0.431,0-0.717-0.143-0.859-0.287
				c0,0,0.285,1.287,2.148,1.287c0.572,0,1.576-0.283,2.004-1.143"/>
		</g>
	</g>
	<g>
		<g>
			<g>
				<g id="Layer_2_8_">
					<path fill="#FFFFFF" d="M116.568,189.903c0.572,0,1.576-0.285,2.004-1.145c0.432,0.859,1.432,1.145,2.006,1.145
						c1.86,0,2.147-1.287,2.147-1.287c-0.142,0.143-0.431,0.287-0.858,0.287c-0.715,0-0.861-1.291-1.863-1.291
						c-1,0-1.432,0.717-1.432,0.717s-0.428-0.717-1.432-0.717c-1.002,0-1.145,1.291-1.861,1.291c-0.43,0-0.717-0.145-0.857-0.287
						C114.422,188.616,114.707,189.903,116.568,189.903z"/>
				</g>
			</g>
		</g>
		<circle fill="#FFFFFF" cx="115.723" cy="184.228" r="2.599"/>
		<path fill="#FFFFFF" d="M124.08,184.253c0,1.436-1.168,2.598-2.599,2.598c-1.437,0-2.602-1.162-2.602-2.598
			s1.165-2.598,2.602-2.598C122.912,181.655,124.08,182.817,124.08,184.253z"/>
		<g id="Layer_2_15_">
			<path fill="#FFFFFF" d="M118.572,188.329c0,0-0.428-0.717-1.432-0.717c-1.002,0-1.145,1.291-1.861,1.291
				c-0.43,0-0.717-0.145-0.857-0.287c0,0,0.285,1.287,2.146,1.287c0.572,0,1.576-0.285,2.004-1.145"/>
		</g>
	</g>
</g>
</svg>
