<?xml version="1.0" encoding="utf-8"?>
<!-- Generator: Adobe Illustrator 16.0.0, SVG Export Plug-In . SVG Version: 6.00 Build 0)  -->
<!DOCTYPE svg PUBLIC "-//W3C//DTD SVG 1.1//EN" "http://www.w3.org/Graphics/SVG/1.1/DTD/svg11.dtd">
<svg version="1.1" id="Layer_1" xmlns="http://www.w3.org/2000/svg" xmlns:xlink="http://www.w3.org/1999/xlink" x="0px" y="0px"
	 width="132.125px" height="161.941px" viewBox="0 0 132.125 161.941" enable-background="new 0 0 132.125 161.941"
	 xml:space="preserve">
<g>
	<defs>
		<rect id="SVGID_1_" width="132.125" height="161.941"/>
	</defs>
	<clipPath id="SVGID_2_">
		<use xlink:href="#SVGID_1_"  overflow="visible"/>
	</clipPath>
	<g clip-path="url(#SVGID_2_)">
		<g>
			<path fill="#FCCE99" d="M107.114,105.726l11.312-8.601c0,0,7.639,7.87,8.23,11.134c0.9,4.977-3.744,9.349-9.723,7.201
				C114.188,114.473,107.114,105.726,107.114,105.726z"/>
			<path fill="#FCCE99" d="M127.403,113.72c-0.443-8.207-7.73-14.456-7.73-14.456l-16.906,36.15l8.955,5.971
				C111.721,141.385,127.581,117.021,127.403,113.72z"/>
			<path fill="#FCCE99" d="M98.426,142.52l-1.984,1.574l0.014,0.012c-0.049,0.038-0.102,0.074-0.148,0.119l-2.344,2.277
				c-0.594,0.578-0.609,1.526-0.033,2.121c0.268,0.277,0.617,0.42,0.973,0.445c0.256,0.02,0.514-0.029,0.75-0.145
				c0.145-0.066,0.279-0.154,0.4-0.27l2.342-2.277c0.049-0.044,0.088-0.097,0.123-0.145l0.27,0.275
				c-0.047,0.037-0.104,0.076-0.148,0.121l-3.289,3.208c-0.121,0.12-0.215,0.257-0.289,0.399c-0.279,0.561-0.199,1.25,0.258,1.722
				c0.578,0.594,1.527,0.608,2.121,0.032l3.289-3.213c0.047-0.041,0.086-0.096,0.123-0.145l0.256,0.265l-3.27,3.257
				c-0.594,0.578-0.605,1.525-0.031,2.123c0.576,0.594,1.525,0.605,2.117,0.027l3.271-3.255l0.293,0.303l-1.863,1.808
				c-0.596,0.578-0.607,1.527-0.029,2.119c0.576,0.596,1.527,0.609,2.119,0.031c0,0,6.467-5.756,7.104-9.567l0.016,0.017
				c0,0,0.094-2.858,0.766-3.6c0.105-0.113,0.742-0.84,0.223-2.393l-7.258-7.525c-1.34,1.576-0.979,2.4-1.637,3.034"/>
		</g>
		<polygon fill="#E6E7E7" points="61.949,93.103 62.113,72.781 32.16,73.799 31.334,92.136 		"/>
		<rect x="72.409" y="60.752" fill="#FCCE99" width="12.605" height="15.752"/>
		<path fill="#FCCE99" d="M87.782,24.319H69.165c-3.163,0-5.725,2.565-5.725,5.729v21.159c0,0.816,0.174,1.588,0.479,2.292
			c1.662,6.497,7.54,11.31,14.555,11.31s12.893-4.812,14.551-11.31c0.309-0.704,0.484-1.476,0.484-2.292V30.048
			C93.508,26.885,90.942,24.319,87.782,24.319z"/>
		<path fill="#E6E7E7" d="M62.477,72.781h-4.945c-3.166,0-5.729,2.54-5.729,5.672v68.549v0.771v5.672h4.932h43.338h5.824v-5.672
			v-0.242l-0.098-69.078c0-3.132-2.564-5.672-5.727-5.672h-4.85"/>
		<polygon fill="#E6E7E7" points="87.87,86.824 103.374,73.686 121.776,97.344 108.219,109.721 		"/>
		<path fill="#3D2519" d="M68.42,25.909c0,0,6.789,7.158,14.902,7c8.115-0.158,16.23-5.567,16.23-5.567l-4.932-0.159l1.27-1.273
			h-1.59l3.18-1.59l-5.725-0.955c0,0-0.158-8.114-4.615-10.024c-4.453-1.909-14.797-0.954-20.365,6.206c0,0-4.616-1.589-6.682,1.748
			c-1.83,2.955-0.479,8.275,2.066,10.502v8.832h1.279v-8.572C63.439,32.056,68.42,33.604,68.42,25.909z"/>
		<rect x="62.16" y="31.102" fill="#3D2519" width="1.754" height="11.436"/>
		<rect x="92.393" y="29.729" fill="#3D2519" width="1.752" height="12.808"/>
		<g>
			<g>
				<g id="Layer_2_26_">
					<path fill="#3D2519" d="M74.561,54.763c1.168,0,3.215-0.586,4.094-2.34c0.877,1.754,2.924,2.34,4.096,2.34
						c3.799,0,4.385-2.631,4.385-2.631c-0.291,0.291-0.879,0.586-1.754,0.586c-1.463,0-1.756-2.635-3.803-2.635
						s-2.924,1.463-2.924,1.463s-0.879-1.463-2.926-1.463s-2.338,2.635-3.799,2.635c-0.879,0-1.463-0.295-1.756-0.586
						C70.174,52.132,70.76,54.763,74.561,54.763z"/>
				</g>
			</g>
		</g>
		<g id="Layer_2_237_">
			<path fill="#3D2519" d="M78.653,51.546c0,0-0.877-1.463-2.924-1.463s-2.338,2.635-3.803,2.635c-0.875,0-1.463-0.295-1.752-0.586
				c0,0,0.586,2.631,4.385,2.631c1.17,0,3.217-0.586,4.094-2.34"/>
		</g>
		
			<line fill="none" stroke="#232020" stroke-width="0.8923" stroke-miterlimit="10" x1="78.85" y1="153.35" x2="78.85" y2="72.686"/>
		<g>
			<g>
				<g id="Layer_2_23_">
					<path fill="#414142" d="M61.336,81.534c0.283,0,0.775-0.14,0.986-0.562c0.215,0.423,0.707,0.562,0.99,0.562
						c0.916,0,1.057-0.635,1.057-0.635c-0.068,0.072-0.211,0.142-0.422,0.142c-0.354,0-0.424-0.635-0.918-0.635
						c-0.492,0-0.707,0.354-0.707,0.354s-0.211-0.354-0.703-0.354c-0.494,0-0.564,0.635-0.918,0.635
						c-0.211,0-0.352-0.069-0.422-0.142C60.279,80.899,60.416,81.534,61.336,81.534z"/>
				</g>
			</g>
		</g>
		<circle fill="#414142" cx="60.919" cy="78.739" r="1.28"/>
		<path fill="#414142" d="M65.035,78.752c0,0.705-0.574,1.279-1.279,1.279c-0.707,0-1.279-0.574-1.279-1.279
			c0-0.71,0.572-1.281,1.279-1.281C64.461,77.471,65.035,78.042,65.035,78.752z"/>
		<g id="Layer_2_234_">
			<path fill="#414142" d="M62.322,80.76c0,0-0.211-0.354-0.703-0.354c-0.494,0-0.564,0.635-0.918,0.635
				c-0.211,0-0.352-0.069-0.422-0.142c0,0,0.137,0.635,1.057,0.635c0.283,0,0.775-0.14,0.986-0.562"/>
		</g>
		<g>
			<g>
				<g id="Layer_2_22_">
					<path fill="#414142" d="M71.526,91.727c0.285,0,0.777-0.142,0.988-0.566c0.211,0.425,0.705,0.566,0.988,0.566
						c0.918,0,1.059-0.637,1.059-0.637c-0.072,0.07-0.211,0.142-0.424,0.142c-0.352,0-0.424-0.634-0.918-0.634
						s-0.705,0.354-0.705,0.354s-0.211-0.354-0.703-0.354c-0.496,0-0.566,0.634-0.918,0.634c-0.211,0-0.354-0.071-0.424-0.142
						C70.469,91.09,70.608,91.727,71.526,91.727z"/>
				</g>
			</g>
		</g>
		<path fill="#414142" d="M72.389,88.93c0,0.705-0.57,1.278-1.279,1.278c-0.703,0-1.279-0.573-1.279-1.278
			c0-0.707,0.576-1.279,1.279-1.279C71.819,87.65,72.389,88.223,72.389,88.93z"/>
		<circle fill="#414142" cx="73.947" cy="88.943" r="1.28"/>
		<g id="Layer_2_231_">
			<path fill="#414142" d="M72.514,90.952c0,0-0.211-0.354-0.703-0.354c-0.496,0-0.566,0.634-0.918,0.634
				c-0.211,0-0.354-0.071-0.424-0.142c0,0,0.139,0.637,1.057,0.637c0.285,0,0.777-0.142,0.988-0.566"/>
		</g>
		<g>
			<g>
				<g id="Layer_2_21_">
					<path fill="#414142" d="M83.918,104.117c0.283,0,0.775-0.14,0.988-0.563c0.211,0.424,0.705,0.563,0.988,0.563
						c0.916,0,1.057-0.634,1.057-0.634c-0.068,0.07-0.211,0.142-0.422,0.142c-0.354,0-0.422-0.637-0.918-0.637
						c-0.494,0-0.705,0.354-0.705,0.354s-0.213-0.354-0.705-0.354c-0.494,0-0.564,0.637-0.918,0.637
						c-0.211,0-0.354-0.071-0.424-0.142C82.86,103.483,83.002,104.117,83.918,104.117z"/>
				</g>
			</g>
		</g>
		<path fill="#414142" d="M84.782,101.32c0,0.708-0.572,1.28-1.281,1.28c-0.703,0-1.279-0.572-1.279-1.28
			c0-0.707,0.576-1.279,1.279-1.279C84.209,100.041,84.782,100.613,84.782,101.32z"/>
		<circle fill="#414142" cx="86.338" cy="101.334" r="1.279"/>
		<g id="Layer_2_228_">
			<path fill="#414142" d="M84.905,103.342c0,0-0.211-0.354-0.703-0.354c-0.494,0-0.564,0.637-0.918,0.637
				c-0.211,0-0.354-0.071-0.424-0.142c0,0,0.143,0.634,1.059,0.634c0.283,0,0.775-0.14,0.986-0.563"/>
		</g>
		<g>
			<g>
				<g id="Layer_2_20_">
					<path fill="#414142" d="M95.987,116.184c0.281,0,0.775-0.141,0.986-0.563c0.211,0.423,0.703,0.563,0.988,0.563
						c0.914,0,1.055-0.635,1.055-0.635c-0.066,0.071-0.209,0.142-0.422,0.142c-0.354,0-0.422-0.636-0.918-0.636
						c-0.492,0-0.703,0.354-0.703,0.354s-0.211-0.354-0.705-0.354s-0.566,0.636-0.92,0.636c-0.211,0-0.352-0.07-0.422-0.142
						C94.926,115.549,95.069,116.184,95.987,116.184z"/>
				</g>
			</g>
		</g>
		<circle fill="#414142" cx="95.569" cy="113.387" r="1.279"/>
		<circle fill="#414142" cx="98.405" cy="113.399" r="1.281"/>
		<g id="Layer_2_225_">
			<path fill="#414142" d="M96.971,115.409c0,0-0.209-0.354-0.703-0.354s-0.566,0.636-0.92,0.636c-0.211,0-0.352-0.07-0.422-0.142
				c0,0,0.143,0.635,1.061,0.635c0.281,0,0.775-0.141,0.984-0.563"/>
		</g>
		<g>
			<g>
				<g id="Layer_2_19_">
					<path fill="#414142" d="M83.918,83.323c0.283,0,0.775-0.141,0.988-0.563c0.211,0.423,0.705,0.563,0.988,0.563
						c0.916,0,1.057-0.636,1.057-0.636c-0.068,0.072-0.211,0.143-0.422,0.143c-0.354,0-0.422-0.637-0.918-0.637
						c-0.494,0-0.705,0.354-0.705,0.354s-0.213-0.354-0.705-0.354c-0.494,0-0.564,0.637-0.918,0.637
						c-0.211,0-0.354-0.07-0.424-0.143C82.86,82.688,83.002,83.323,83.918,83.323z"/>
				</g>
			</g>
		</g>
		<path fill="#414142" d="M84.782,80.525c0,0.708-0.572,1.28-1.281,1.28c-0.703,0-1.279-0.572-1.279-1.28
			c0-0.707,0.576-1.278,1.279-1.278C84.209,79.247,84.782,79.818,84.782,80.525z"/>
		<circle fill="#414142" cx="86.338" cy="80.537" r="1.279"/>
		<g id="Layer_2_222_">
			<path fill="#414142" d="M84.905,82.547c0,0-0.211-0.354-0.703-0.354c-0.494,0-0.564,0.637-0.918,0.637
				c-0.211,0-0.354-0.07-0.424-0.143c0,0,0.143,0.636,1.059,0.636c0.283,0,0.775-0.141,0.986-0.563"/>
		</g>
		<g>
			<g>
				<g id="Layer_2_18_">
					<path fill="#414142" d="M95.987,95.39c0.281,0,0.775-0.142,0.986-0.564c0.211,0.423,0.703,0.564,0.988,0.564
						c0.914,0,1.055-0.635,1.055-0.635c-0.066,0.07-0.209,0.142-0.422,0.142c-0.354,0-0.422-0.638-0.918-0.638
						c-0.492,0-0.703,0.356-0.703,0.356s-0.211-0.356-0.705-0.356s-0.566,0.638-0.92,0.638c-0.211,0-0.352-0.071-0.422-0.142
						C94.926,94.755,95.069,95.39,95.987,95.39z"/>
				</g>
			</g>
		</g>
		<circle fill="#414142" cx="95.569" cy="92.593" r="1.279"/>
		<circle fill="#414142" cx="98.405" cy="92.605" r="1.281"/>
		<g id="Layer_2_219_">
			<path fill="#414142" d="M96.971,94.615c0,0-0.209-0.356-0.703-0.356s-0.566,0.638-0.92,0.638c-0.211,0-0.352-0.071-0.422-0.142
				c0,0,0.143,0.635,1.061,0.635c0.281,0,0.775-0.142,0.984-0.564"/>
		</g>
		<g>
			<g>
				<g id="Layer_2_17_">
					<path fill="#414142" d="M61.336,103.188c0.283,0,0.775-0.14,0.986-0.563c0.215,0.424,0.707,0.563,0.99,0.563
						c0.916,0,1.057-0.635,1.057-0.635c-0.068,0.071-0.211,0.143-0.422,0.143c-0.354,0-0.424-0.636-0.918-0.636
						c-0.492,0-0.707,0.352-0.707,0.352s-0.211-0.352-0.703-0.352c-0.494,0-0.564,0.636-0.918,0.636
						c-0.211,0-0.352-0.071-0.422-0.143C60.279,102.553,60.416,103.188,61.336,103.188z"/>
				</g>
			</g>
		</g>
		<path fill="#414142" d="M62.199,100.393c0,0.705-0.574,1.278-1.281,1.278s-1.279-0.573-1.279-1.278
			c0-0.709,0.572-1.281,1.279-1.281S62.199,99.684,62.199,100.393z"/>
		<circle fill="#414142" cx="63.756" cy="100.404" r="1.279"/>
		<g id="Layer_2_216_">
			<path fill="#414142" d="M62.322,102.411c0,0-0.211-0.352-0.703-0.352c-0.494,0-0.564,0.636-0.918,0.636
				c-0.211,0-0.352-0.071-0.422-0.143c0,0,0.137,0.635,1.057,0.635c0.283,0,0.775-0.14,0.986-0.563"/>
		</g>
		<g>
			<g>
				<g id="Layer_2_16_">
					<path fill="#414142" d="M71.526,113.377c0.285,0,0.777-0.139,0.988-0.562c0.211,0.423,0.705,0.562,0.988,0.562
						c0.918,0,1.059-0.634,1.059-0.634c-0.072,0.072-0.211,0.142-0.424,0.142c-0.352,0-0.424-0.636-0.918-0.636
						s-0.705,0.354-0.705,0.354s-0.211-0.354-0.703-0.354c-0.496,0-0.566,0.636-0.918,0.636c-0.211,0-0.354-0.069-0.424-0.142
						C70.469,112.743,70.608,113.377,71.526,113.377z"/>
				</g>
			</g>
		</g>
		<path fill="#414142" d="M72.389,110.583c0,0.705-0.57,1.278-1.279,1.278c-0.703,0-1.279-0.573-1.279-1.278
			c0-0.709,0.576-1.282,1.279-1.282C71.819,109.301,72.389,109.874,72.389,110.583z"/>
		<circle fill="#414142" cx="73.947" cy="110.595" r="1.28"/>
		<g id="Layer_2_213_">
			<path fill="#414142" d="M72.514,112.603c0,0-0.211-0.354-0.703-0.354c-0.496,0-0.566,0.636-0.918,0.636
				c-0.211,0-0.354-0.069-0.424-0.142c0,0,0.139,0.634,1.057,0.634c0.285,0,0.777-0.139,0.988-0.562"/>
		</g>
		<g>
			<g>
				<g id="Layer_2_15_">
					<path fill="#414142" d="M83.918,125.77c0.283,0,0.775-0.14,0.988-0.563c0.211,0.424,0.705,0.563,0.988,0.563
						c0.916,0,1.057-0.635,1.057-0.635c-0.068,0.071-0.211,0.141-0.422,0.141c-0.354,0-0.422-0.635-0.918-0.635
						c-0.494,0-0.705,0.354-0.705,0.354s-0.213-0.354-0.705-0.354c-0.494,0-0.564,0.635-0.918,0.635
						c-0.211,0-0.354-0.069-0.424-0.141C82.86,125.135,83.002,125.77,83.918,125.77z"/>
				</g>
			</g>
		</g>
		<path fill="#414142" d="M84.782,122.975c0,0.705-0.572,1.279-1.281,1.279c-0.703,0-1.279-0.574-1.279-1.279
			c0-0.709,0.576-1.281,1.279-1.281C84.209,121.693,84.782,122.266,84.782,122.975z"/>
		<circle fill="#414142" cx="86.338" cy="122.985" r="1.279"/>
		<g id="Layer_2_210_">
			<path fill="#414142" d="M84.905,124.995c0,0-0.211-0.354-0.703-0.354c-0.494,0-0.564,0.635-0.918,0.635
				c-0.211,0-0.354-0.069-0.424-0.141c0,0,0.143,0.635,1.059,0.635c0.283,0,0.775-0.14,0.986-0.563"/>
		</g>
		<g>
			<g>
				<g id="Layer_2_14_">
					<path fill="#414142" d="M95.987,137.838c0.281,0,0.775-0.141,0.986-0.566c0.211,0.426,0.703,0.566,0.988,0.566
						c0.914,0,1.055-0.637,1.055-0.637c-0.066,0.07-0.209,0.143-0.422,0.143c-0.354,0-0.422-0.637-0.918-0.637
						c-0.492,0-0.703,0.354-0.703,0.354s-0.211-0.354-0.705-0.354s-0.566,0.637-0.92,0.637c-0.211,0-0.352-0.072-0.422-0.143
						C94.926,137.201,95.069,137.838,95.987,137.838z"/>
				</g>
			</g>
		</g>
		<circle fill="#414142" cx="95.569" cy="135.039" r="1.279"/>
		<circle fill="#414142" cx="98.405" cy="135.053" r="1.281"/>
		<g id="Layer_2_207_">
			<path fill="#414142" d="M96.971,137.061c0,0-0.209-0.354-0.703-0.354s-0.566,0.637-0.92,0.637c-0.211,0-0.352-0.072-0.422-0.143
				c0,0,0.143,0.637,1.061,0.637c0.281,0,0.775-0.141,0.984-0.566"/>
		</g>
		<g>
			<g>
				<g id="Layer_2_13_">
					<path fill="#414142" d="M61.336,124.031c0.283,0,0.775-0.142,0.986-0.564c0.215,0.423,0.707,0.564,0.99,0.564
						c0.916,0,1.057-0.636,1.057-0.636c-0.068,0.071-0.211,0.143-0.422,0.143c-0.354,0-0.424-0.636-0.918-0.636
						c-0.492,0-0.707,0.353-0.707,0.353s-0.211-0.353-0.703-0.353c-0.494,0-0.564,0.636-0.918,0.636
						c-0.211,0-0.352-0.071-0.422-0.143C60.279,123.396,60.416,124.031,61.336,124.031z"/>
				</g>
			</g>
		</g>
		<circle fill="#414142" cx="60.919" cy="121.233" r="1.28"/>
		<circle fill="#414142" cx="63.756" cy="121.246" r="1.279"/>
		<g id="Layer_2_204_">
			<path fill="#414142" d="M62.322,123.255c0,0-0.211-0.353-0.703-0.353c-0.494,0-0.564,0.636-0.918,0.636
				c-0.211,0-0.352-0.071-0.422-0.143c0,0,0.137,0.636,1.057,0.636c0.283,0,0.775-0.142,0.986-0.564"/>
		</g>
		<g>
			<g>
				<g id="Layer_2_12_">
					<path fill="#414142" d="M71.526,134.221c0.285,0,0.777-0.139,0.988-0.564c0.211,0.426,0.705,0.564,0.988,0.564
						c0.918,0,1.059-0.633,1.059-0.633c-0.072,0.068-0.211,0.141-0.424,0.141c-0.352,0-0.424-0.635-0.918-0.635
						s-0.705,0.354-0.705,0.354s-0.211-0.354-0.703-0.354c-0.496,0-0.566,0.635-0.918,0.635c-0.211,0-0.354-0.072-0.424-0.141
						C70.469,133.588,70.608,134.221,71.526,134.221z"/>
				</g>
			</g>
		</g>
		<path fill="#414142" d="M72.389,131.426c0,0.705-0.57,1.279-1.279,1.279c-0.703,0-1.279-0.574-1.279-1.279
			c0-0.707,0.576-1.281,1.279-1.281C71.819,130.145,72.389,130.719,72.389,131.426z"/>
		<circle fill="#414142" cx="73.947" cy="131.438" r="1.28"/>
		<g id="Layer_2_199_">
			<path fill="#414142" d="M72.514,133.447c0,0-0.211-0.354-0.703-0.354c-0.496,0-0.566,0.635-0.918,0.635
				c-0.211,0-0.354-0.072-0.424-0.141c0,0,0.139,0.633,1.057,0.633c0.285,0,0.777-0.139,0.988-0.564"/>
		</g>
		<g>
			<g>
				<g id="Layer_2_11_">
					<path fill="#414142" d="M83.918,146.613c0.283,0,0.775-0.141,0.988-0.564c0.211,0.424,0.705,0.564,0.988,0.564
						c0.916,0,1.057-0.635,1.057-0.635c-0.068,0.07-0.211,0.143-0.422,0.143c-0.354,0-0.422-0.637-0.918-0.637
						c-0.494,0-0.705,0.352-0.705,0.352s-0.213-0.352-0.705-0.352c-0.494,0-0.564,0.637-0.918,0.637
						c-0.211,0-0.354-0.072-0.424-0.143C82.86,145.979,83.002,146.613,83.918,146.613z"/>
				</g>
			</g>
		</g>
		<path fill="#414142" d="M84.782,143.816c0,0.707-0.572,1.279-1.281,1.279c-0.703,0-1.279-0.572-1.279-1.279
			s0.576-1.279,1.279-1.279C84.209,142.537,84.782,143.109,84.782,143.816z"/>
		<circle fill="#414142" cx="86.338" cy="143.83" r="1.279"/>
		<g id="Layer_2_31_">
			<path fill="#414142" d="M84.905,145.836c0,0-0.211-0.352-0.703-0.352c-0.494,0-0.564,0.637-0.918,0.637
				c-0.211,0-0.354-0.072-0.424-0.143c0,0,0.143,0.635,1.059,0.635c0.283,0,0.775-0.141,0.986-0.564"/>
		</g>
		<g>
			<g>
				<g id="Layer_2_10_">
					<path fill="#414142" d="M61.336,145.166c0.283,0,0.775-0.141,0.986-0.564c0.215,0.424,0.707,0.564,0.99,0.564
						c0.916,0,1.057-0.635,1.057-0.635c-0.068,0.07-0.211,0.141-0.422,0.141c-0.354,0-0.424-0.635-0.918-0.635
						c-0.492,0-0.707,0.354-0.707,0.354s-0.211-0.354-0.703-0.354c-0.494,0-0.564,0.635-0.918,0.635
						c-0.211,0-0.352-0.07-0.422-0.141C60.279,144.531,60.416,145.166,61.336,145.166z"/>
				</g>
			</g>
		</g>
		<circle fill="#414142" cx="60.919" cy="142.369" r="1.28"/>
		<circle fill="#414142" cx="63.756" cy="142.381" r="1.279"/>
		<g id="Layer_2_29_">
			<path fill="#414142" d="M62.322,144.391c0,0-0.211-0.354-0.703-0.354c-0.494,0-0.564,0.635-0.918,0.635
				c-0.211,0-0.352-0.07-0.422-0.141c0,0,0.137,0.635,1.057,0.635c0.283,0,0.775-0.141,0.986-0.564"/>
		</g>
		<polygon fill="#232020" points="105.756,153.35 51.664,153.35 54.686,232.58 66.938,232.58 69.483,170.531 86.665,170.531 
			90.325,232.58 102.575,232.775 		"/>
		<polygon fill="#726659" points="105.426,161.623 51.979,161.623 51.664,155.736 105.659,155.736 		"/>
		<rect x="74.733" y="155.498" fill="#FAB041" width="7.477" height="6.443"/>
		<circle fill="none" stroke="#232020" stroke-width="1.7847" stroke-miterlimit="10" cx="71.591" cy="158.898" r="0.956"/>
		<circle fill="none" stroke="#232020" stroke-width="1.7847" stroke-miterlimit="10" cx="67.714" cy="158.898" r="0.954"/>
		<path fill="none" stroke="#414142" stroke-width="1.7847" stroke-miterlimit="10" d="M77.874,78.412
			c0,0.396-0.32,0.719-0.715,0.719s-0.715-0.323-0.715-0.719c0-0.394,0.32-0.715,0.715-0.715S77.874,78.019,77.874,78.412z"/>
		<circle fill="none" stroke="#414142" stroke-width="1.7847" stroke-miterlimit="10" cx="77.159" cy="87.244" r="0.715"/>
		<path fill="none" stroke="#414142" stroke-width="1.7847" stroke-miterlimit="10" d="M77.874,96.075
			c0,0.394-0.32,0.714-0.715,0.714s-0.715-0.32-0.715-0.714c0-0.397,0.32-0.718,0.715-0.718S77.874,95.678,77.874,96.075z"/>
		<circle fill="none" stroke="#414142" stroke-width="1.7847" stroke-miterlimit="10" cx="77.159" cy="104.903" r="0.715"/>
		<circle fill="none" stroke="#414142" stroke-width="1.7847" stroke-miterlimit="10" cx="77.159" cy="113.733" r="0.715"/>
		<circle fill="none" stroke="#414142" stroke-width="1.7847" stroke-miterlimit="10" cx="77.159" cy="122.563" r="0.715"/>
		<circle fill="none" stroke="#414142" stroke-width="1.7847" stroke-miterlimit="10" cx="77.159" cy="131.395" r="0.715"/>
		<circle fill="none" stroke="#414142" stroke-width="1.7847" stroke-miterlimit="10" cx="77.159" cy="140.223" r="0.715"/>
		<circle fill="none" stroke="#414142" stroke-width="1.7847" stroke-miterlimit="10" cx="77.159" cy="149.053" r="0.715"/>
		<polygon fill="#232020" points="78.85,72.781 71.969,68.628 69.831,72.781 75.846,76.266 		"/>
		<polygon fill="#232020" points="78.85,72.781 85.625,68.628 87.764,72.781 81.749,76.266 		"/>
		<g>
			<g>
				<g id="Layer_2_9_">
					<path fill="#414142" d="M101.958,81.541c0.197-0.198,0.449-0.646,0.299-1.097c0.449,0.15,0.896-0.101,1.098-0.298
						c0.648-0.65,0.297-1.198,0.297-1.198c0.004,0.099-0.049,0.25-0.197,0.399c-0.25,0.249-0.75-0.151-1.098,0.198
						s-0.252,0.748-0.252,0.748s-0.396-0.099-0.748,0.249c-0.348,0.352,0.051,0.85-0.197,1.1c-0.15,0.149-0.299,0.198-0.4,0.198
						C100.758,81.841,101.307,82.191,101.958,81.541z"/>
				</g>
			</g>
		</g>
		<circle fill="#414142" cx="99.685" cy="79.86" r="1.28"/>
		<path fill="#414142" d="M102.604,76.958c0.5,0.499,0.5,1.31,0,1.81c-0.502,0.499-1.312,0.499-1.812,0
			c-0.496-0.5-0.496-1.309,0-1.81C101.292,76.459,102.104,76.457,102.604,76.958z"/>
		<g id="Layer_2_27_">
			<path fill="#414142" d="M102.104,80.296c0,0-0.396-0.101-0.748,0.247c-0.348,0.352,0.051,0.85-0.197,1.1
				c-0.15,0.149-0.299,0.198-0.4,0.198c0,0,0.549,0.351,1.199-0.3c0.197-0.198,0.449-0.646,0.299-1.095"/>
		</g>
		<g>
			<g>
				<g id="Layer_2_8_">
					<path fill="#414142" d="M53.43,92.607c0.201,0.2,0.648,0.448,1.098,0.3c-0.146,0.449,0.1,0.897,0.299,1.099
						c0.648,0.647,1.197,0.297,1.197,0.297c-0.098,0.001-0.248-0.05-0.398-0.198c-0.25-0.249,0.15-0.748-0.199-1.099
						c-0.348-0.349-0.748-0.248-0.748-0.248s0.1-0.401-0.248-0.75c-0.352-0.348-0.848,0.052-1.1-0.197
						c-0.15-0.15-0.199-0.3-0.197-0.4C53.133,91.41,52.781,91.958,53.43,92.607z"/>
				</g>
			</g>
		</g>
		<path fill="#414142" d="M56.021,91.24c-0.502,0.499-1.314,0.499-1.812,0c-0.5-0.5-0.5-1.31,0-1.812
			c0.498-0.499,1.311-0.498,1.812,0C56.518,89.931,56.518,90.74,56.021,91.24z"/>
		<circle fill="#414142" cx="57.109" cy="92.349" r="1.279"/>
		<g id="Layer_2_24_">
			<path fill="#414142" d="M54.678,92.758c0,0,0.1-0.401-0.248-0.75c-0.352-0.348-0.848,0.052-1.1-0.198
				c-0.15-0.149-0.199-0.299-0.197-0.399c0,0-0.352,0.548,0.297,1.197c0.201,0.2,0.648,0.448,1.098,0.299"/>
		</g>
		
			<rect x="70.356" y="46.084" transform="matrix(0.9625 0.2714 -0.2714 0.9625 15.7764 -17.6479)" fill="#A6A9AB" width="2.662" height="4.251"/>
		
			<rect x="67.998" y="50.056" transform="matrix(0.9625 0.2713 -0.2713 0.9625 17.6359 -16.8256)" fill="#4A4050" width="3.34" height="10.625"/>
		<g>
			<path fill="#4A4050" d="M74.069,32.821c-4.066-0.065-7.416,3.177-7.48,7.243c-0.066,4.065,3.176,7.415,7.242,7.48
				c4.066,0.066,7.416-3.177,7.48-7.242C81.377,36.236,78.135,32.887,74.069,32.821z M72.327,45.941
				c-3.18-0.896-5.031-4.201-4.135-7.382c0.896-3.18,4.201-5.03,7.381-4.134s5.031,4.201,4.135,7.381S75.506,46.838,72.327,45.941z"
				/>
			<circle opacity="0.5" fill="#F2F2F2" cx="73.95" cy="40.184" r="5.982"/>
		</g>
		<path fill="#E3B586" d="M68.444,68.295l3.076-0.101l-0.004-0.021c0.074-0.002,0.152,0.001,0.23-0.008l3.936-0.528
			c0.998-0.132,1.699-1.049,1.568-2.046c-0.062-0.465-0.299-0.855-0.627-1.14c-0.238-0.203-0.523-0.342-0.84-0.4
			c-0.188-0.039-0.383-0.053-0.586-0.026l-3.934,0.527c-0.078,0.009-0.154,0.032-0.225,0.054l-0.062-0.465
			c0.074-0.002,0.156,0,0.232-0.011l5.531-0.752c0.209-0.028,0.396-0.096,0.572-0.182c0.678-0.342,1.102-1.076,0.996-1.865
			c-0.135-0.998-1.053-1.699-2.049-1.566l-5.535,0.755c-0.076,0.009-0.152,0.031-0.225,0.053l-0.059-0.443l5.549-0.813
			c0.996-0.133,1.695-1.052,1.566-2.049c-0.135-0.998-1.051-1.696-2.049-1.562l-5.547,0.811l-0.068-0.506l3.129-0.417
			c0.998-0.134,1.697-1.051,1.562-2.047c-0.133-0.999-1.051-1.7-2.045-1.563c0,0-10.481,0.939-13.86,4.198l-0.004-0.027
			c0,0-2.16,2.723-3.354,2.961c-0.184,0.035-1.33,0.282-2.006,1.773l1.104,6.167c2.467-0.542,2.373-0.333,3.861-0.135"/>
		<g>
			<path fill="#FCCE99" d="M42.738,76.697l-3.002,11.777c0,0-14.461,1.93-18.42-0.023c-6.031-2.981-7.82-7.268-0.787-11.957
				C23.76,74.342,42.738,76.697,42.738,76.697z"/>
			<path fill="#FCCE99" d="M17.369,78.468c-5.506,8.333,7.609,9.32,7.609,9.32l33.414-22.253l-3.92-6.165
				C54.473,59.37,19.584,75.117,17.369,78.468z"/>
			<path fill="#FCCE99" d="M68.272,67.883l3.076-0.102l-0.004-0.021c0.074-0.001,0.152,0.002,0.23-0.008l3.936-0.527
				c1-0.133,1.699-1.049,1.568-2.047c-0.061-0.464-0.297-0.855-0.627-1.139c-0.236-0.203-0.523-0.343-0.838-0.401
				c-0.188-0.039-0.383-0.052-0.586-0.026l-3.934,0.527c-0.078,0.01-0.154,0.032-0.225,0.054l-0.064-0.465
				c0.074-0.002,0.156,0,0.232-0.011l5.533-0.752c0.207-0.028,0.395-0.096,0.572-0.181c0.678-0.343,1.1-1.076,0.994-1.866
				c-0.135-0.998-1.053-1.699-2.049-1.566l-5.535,0.756c-0.074,0.008-0.152,0.03-0.225,0.053l-0.059-0.444l5.549-0.813
				c0.998-0.133,1.697-1.051,1.566-2.048c-0.133-0.999-1.051-1.696-2.047-1.562l-5.549,0.811l-0.066-0.507l3.127-0.416
				c0.998-0.134,1.697-1.051,1.562-2.048c-0.133-0.999-1.051-1.7-2.045-1.563c0,0-10.481,0.939-13.86,4.198l-0.004-0.027
				c0,0-2.16,2.723-3.352,2.961c-0.184,0.035-1.332,0.283-1.947,2.175l1.111,7.408c2.449-0.567,2.689-1.634,3.795-1.776"/>
		</g>
	</g>
</g>
</svg>
