<?xml version="1.0" encoding="utf-8"?>
<!-- Generator: Adobe Illustrator 16.0.0, SVG Export Plug-In . SVG Version: 6.00 Build 0)  -->
<!DOCTYPE svg PUBLIC "-//W3C//DTD SVG 1.1//EN" "http://www.w3.org/Graphics/SVG/1.1/DTD/svg11.dtd">
<svg version="1.1" id="Layer_1" xmlns="http://www.w3.org/2000/svg" xmlns:xlink="http://www.w3.org/1999/xlink" x="0px" y="0px"
	 width="18.833px" height="19.5px" viewBox="0 0 18.833 19.5" enable-background="new 0 0 18.833 19.5" xml:space="preserve">
<g opacity="0.3">
	<circle fill="#F05D22" cx="9.417" cy="9.698" r="8.698"/>
</g>
<path fill="#FFFFFF" d="M10.205,14.32c-1.783,0-3.459-0.969-4.351-2.508C4.469,9.416,5.299,6.34,7.684,4.959
	c0.812-0.479,1.768-0.708,2.705-0.665c0.23,0.018,0.43,0.142,0.522,0.34c0.108,0.201,0.076,0.445-0.046,0.632
	c-0.77,1.105-0.832,2.58-0.156,3.733c0.633,1.076,1.785,1.754,3.045,1.754c0.094,0,0.186,0,0.277-0.018
	c0.23-0.015,0.445,0.092,0.568,0.276c0.123,0.187,0.139,0.433,0.029,0.633c-0.443,0.847-1.105,1.535-1.936,2.013
	C11.942,14.09,11.081,14.32,10.205,14.32z"/>
</svg>
