<?xml version="1.0" encoding="utf-8"?>
<!-- Generator: Adobe Illustrator 15.0.0, SVG Export Plug-In . SVG Version: 6.00 Build 0)  -->
<!DOCTYPE svg PUBLIC "-//W3C//DTD SVG 1.1//EN" "http://www.w3.org/Graphics/SVG/1.1/DTD/svg11.dtd">
<svg version="1.1" id="Layer_1" xmlns="http://www.w3.org/2000/svg" xmlns:xlink="http://www.w3.org/1999/xlink" x="0px" y="0px"
	 width="18.833px" height="19.5px" viewBox="0 0 18.833 19.5" enable-background="new 0 0 18.833 19.5" xml:space="preserve">
<g>
	<circle fill="#F05D22" cx="9.417" cy="9.75" r="8.698"/>
</g>
<g>
	<circle fill="#00A7A6" cx="9.417" cy="9.75" r="8.698"/>
</g>
<path fill="#FFFFFF" d="M10.206,14.372c-1.783,0-3.459-0.969-4.352-2.508C4.469,9.468,5.299,6.39,7.684,5.01
	c0.812-0.479,1.768-0.708,2.705-0.665c0.23,0.02,0.43,0.143,0.521,0.34c0.108,0.201,0.076,0.445-0.045,0.632
	c-0.771,1.105-0.832,2.58-0.156,3.733c0.633,1.076,1.785,1.754,3.045,1.754c0.094,0,0.186,0,0.277-0.018
	c0.229-0.015,0.444,0.092,0.567,0.276c0.123,0.187,0.14,0.433,0.028,0.634c-0.442,0.846-1.104,1.534-1.936,2.012
	C11.942,14.141,11.081,14.372,10.206,14.372z"/>
</svg>
