<?xml version="1.0" encoding="utf-8"?>
<!-- Generator: Adobe Illustrator 15.0.0, SVG Export Plug-In . SVG Version: 6.00 Build 0)  -->
<!DOCTYPE svg PUBLIC "-//W3C//DTD SVG 1.1//EN" "http://www.w3.org/Graphics/SVG/1.1/DTD/svg11.dtd">
<svg version="1.1" id="Layer_1" xmlns="http://www.w3.org/2000/svg" xmlns:xlink="http://www.w3.org/1999/xlink" x="0px" y="0px"
	 width="101.539px" height="100.912px" viewBox="0 0 101.539 100.912" enable-background="new 0 0 101.539 100.912"
	 xml:space="preserve">
<path id="LinkedIn__x28_alt_x29__3_" fill="#E1E1E1" d="M94.042,0.067H7.497C3.354,0.067,0,3.303,0,7.293v86.392
	c0,3.994,3.354,7.227,7.497,7.227h86.545c4.143,0,7.497-3.232,7.497-7.227V7.293C101.539,3.303,98.185,0.067,94.042,0.067z
	 M54.502,45.551c0.032-0.046,0.062-0.093,0.104-0.142v0.142H54.502z"/>
<path fill="#FFFFFF" d="M74.17,83.02c-3.195,1.491-6.104,2.548-8.708,3.152c-2.603,0.606-5.419,0.901-8.433,0.901
	c-3.431,0-5.46-0.434-8.095-1.284c-2.635-0.857-4.883-2.095-6.749-3.676c-1.864-1.593-3.154-3.29-3.87-5.083
	c-0.724-1.787-1.078-4.39-1.078-7.799V43.104H27.036V32.566c2.95-0.953,6.371-2.319,8.464-4.087c2.115-1.78,3.799-3.908,5.072-6.405
	c1.275-2.483,2.148-5.645,2.627-9.489h10.667v17.232h17.361v13.287H53.866v19.102c0,4.326-0.055,6.818,0.408,8.042
	c0.458,1.218,1.614,2.482,2.864,3.22c1.66,0.988,3.556,1.48,5.695,1.48c3.799,0,7.575-1.229,11.336-3.677V83.02L74.17,83.02z"/>
</svg>
