<?xml version="1.0" encoding="utf-8"?>
<!-- Generator: Adobe Illustrator 15.0.0, SVG Export Plug-In . SVG Version: 6.00 Build 0)  -->
<!DOCTYPE svg PUBLIC "-//W3C//DTD SVG 1.1//EN" "http://www.w3.org/Graphics/SVG/1.1/DTD/svg11.dtd">
<svg version="1.1" id="Layer_1" xmlns="http://www.w3.org/2000/svg" xmlns:xlink="http://www.w3.org/1999/xlink" x="0px" y="0px"
	 width="50px" height="50px" viewBox="0 0 50 50" enable-background="new 0 0 50 50" xml:space="preserve">
<path id="LinkedIn__x28_alt_x29__3_" fill="#00A7A6" d="M46.24,0.076H3.759c-2.034,0-3.68,1.6-3.68,3.572v42.704
	c0,1.977,1.646,3.572,3.68,3.572H46.24c2.033,0,3.681-1.596,3.681-3.572V3.648C49.921,1.675,48.273,0.076,46.24,0.076z
	 M26.831,22.557c0.017-0.021,0.03-0.045,0.052-0.069v0.069H26.831z"/>
<path fill="#FFFFFF" d="M36.484,41.08c-1.566,0.736-2.994,1.26-4.273,1.557c-1.277,0.303-2.659,0.447-4.139,0.447
	c-1.686,0-2.68-0.215-3.975-0.635c-1.294-0.424-2.396-1.035-3.312-1.816c-0.914-0.789-1.549-1.627-1.899-2.514
	c-0.354-0.885-0.528-2.17-0.528-3.855V21.348h-5.009v-5.209c1.448-0.471,3.128-1.146,4.155-2.021c1.039-0.88,1.865-1.931,2.49-3.166
	c0.625-1.228,1.055-2.79,1.289-4.69h5.236v8.519h8.521v6.567H26.52v9.441c0,2.141-0.027,3.371,0.199,3.977
	c0.225,0.604,0.792,1.229,1.406,1.592c0.812,0.488,1.745,0.732,2.796,0.732c1.864,0,3.717-0.607,5.563-1.818V41.08L36.484,41.08z"/>
</svg>
