<?xml version="1.0" encoding="utf-8"?>
<!-- Generator: Adobe Illustrator 15.0.0, SVG Export Plug-In . SVG Version: 6.00 Build 0)  -->
<!DOCTYPE svg PUBLIC "-//W3C//DTD SVG 1.1//EN" "http://www.w3.org/Graphics/SVG/1.1/DTD/svg11.dtd">
<svg version="1.1" id="Layer_1" xmlns="http://www.w3.org/2000/svg" xmlns:xlink="http://www.w3.org/1999/xlink" x="0px" y="0px"
	 width="101.539px" height="100.912px" viewBox="0 0 101.539 100.912" enable-background="new 0 0 101.539 100.912"
	 xml:space="preserve">
<path id="LinkedIn__x28_alt_x29_" fill="#F05D22" d="M93.938,0H7.928C3.811,0,0.478,3.239,0.478,7.232v86.449
	c0,3.996,3.333,7.23,7.451,7.23h86.01c4.114,0,7.451-3.234,7.451-7.23V7.232C101.39,3.239,98.053,0,93.938,0z M31.07,84.472H15.822
	V38.911H31.07V84.472z M23.442,32.687h-0.094c-5.118,0-8.432-3.501-8.432-7.874c0-4.463,3.412-7.871,8.624-7.871
	c5.22,0,8.42,3.4,8.525,7.871C32.066,29.193,28.76,32.687,23.442,32.687z M86.032,84.472H70.789V60.095
	c0-6.125-2.208-10.305-7.722-10.305c-4.217,0-6.722,2.819-7.82,5.545c-0.407,0.967-0.505,2.328-0.505,3.689v25.447h-15.24
	c0,0,0.2-41.287,0-45.562h15.24v6.459c2.022-3.103,5.635-7.534,13.732-7.534c10.032,0,17.558,6.51,17.558,20.513V84.472z
	 M54.644,45.515c0.026-0.047,0.062-0.094,0.099-0.141v0.141H54.644z"/>
</svg>
