<?xml version="1.0" encoding="utf-8"?>
<!-- Generator: Adobe Illustrator 15.0.0, SVG Export Plug-In . SVG Version: 6.00 Build 0)  -->
<!DOCTYPE svg PUBLIC "-//W3C//DTD SVG 1.1//EN" "http://www.w3.org/Graphics/SVG/1.1/DTD/svg11.dtd">
<svg version="1.1" id="Layer_1" xmlns="http://www.w3.org/2000/svg" xmlns:xlink="http://www.w3.org/1999/xlink" x="0px" y="0px"
	 width="50px" height="50px" viewBox="25.77 25.456 50 50" enable-background="new 25.77 25.456 50 50" xml:space="preserve">
<path fill="#00A7A6" d="M32.188,25.456h37.164c3.527,0,6.418,2.613,6.418,6.418v37.163c0,3.805-2.891,6.419-6.418,6.419H32.188
	c-3.531,0-6.418-2.614-6.418-6.419V31.874C25.77,28.069,28.657,25.456,32.188,25.456L32.188,25.456z M62.193,31.014
	c-1.24,0-2.251,1.011-2.251,2.249v5.39c0,1.237,1.013,2.249,2.251,2.249h5.65c1.237,0,2.252-1.012,2.252-2.249v-5.39
	c0-1.237-1.016-2.249-2.252-2.249H62.193L62.193,31.014z M70.119,46.6h-4.402c0.417,1.361,0.642,2.799,0.642,4.29
	c0,8.317-6.956,15.058-15.541,15.058c-8.583,0-15.541-6.74-15.541-15.058c0-1.49,0.226-2.929,0.641-4.29h-4.592v21.121
	c0,1.093,0.896,1.99,1.989,1.99h34.817c1.096,0,1.988-0.897,1.988-1.99V46.6L70.119,46.6z M50.815,40.617
	c-5.546,0-10.043,4.356-10.043,9.73c0,5.376,4.496,9.73,10.043,9.73s10.043-4.354,10.043-9.73
	C60.859,44.974,56.362,40.617,50.815,40.617z"/>
</svg>
