<?xml version="1.0" encoding="utf-8"?>
<!-- Generator: Adobe Illustrator 15.0.0, SVG Export Plug-In . SVG Version: 6.00 Build 0)  -->
<!DOCTYPE svg PUBLIC "-//W3C//DTD SVG 1.1//EN" "http://www.w3.org/Graphics/SVG/1.1/DTD/svg11.dtd">
<svg version="1.1" id="Layer_1" xmlns="http://www.w3.org/2000/svg" xmlns:xlink="http://www.w3.org/1999/xlink" x="0px" y="0px"
	 width="50px" height="50px" viewBox="25.77 25.456 50 50" enable-background="new 25.77 25.456 50 50" xml:space="preserve">
<path id="LinkedIn__x28_alt_x29__1_" fill="#00A7A6" d="M72.031,25.456H29.458c-2.038,0-3.688,1.605-3.688,3.583v42.835
	c0,1.979,1.65,3.582,3.688,3.582h42.574c2.038,0,3.689-1.604,3.689-3.582V29.039C75.721,27.061,74.069,25.456,72.031,25.456z
	 M52.581,48.008c0.014-0.023,0.03-0.046,0.049-0.07v0.07H52.581z"/>
<path fill="#FFFFFF" d="M50.889,31.689c-10.434,0-18.892,8.465-18.892,18.908c0,10.444,8.458,18.908,18.892,18.908
	c10.433,0,18.891-8.464,18.891-18.908C69.779,40.156,61.32,31.689,50.889,31.689z M52.719,56.955
	c-1.716-0.134-2.436-0.985-3.78-1.803c-0.74,3.884-1.644,7.61-4.323,9.556c-0.824-5.873,1.215-10.282,2.163-14.963
	c-1.615-2.723,0.194-8.203,3.603-6.851c4.191,1.66-3.634,10.121,1.619,11.176c5.482,1.104,7.721-9.522,4.322-12.978
	c-4.913-4.992-14.301-0.114-13.147,7.028c0.281,1.749,2.083,2.277,0.722,4.688c-3.145-0.697-4.084-3.179-3.963-6.49
	c0.195-5.417,4.863-9.209,9.543-9.732c5.922-0.665,11.481,2.174,12.246,7.751C62.588,50.629,59.049,57.443,52.719,56.955z"/>
</svg>
