<?xml version="1.0" encoding="utf-8"?>
<!-- Generator: Adobe Illustrator 15.0.0, SVG Export Plug-In . SVG Version: 6.00 Build 0)  -->
<!DOCTYPE svg PUBLIC "-//W3C//DTD SVG 1.1//EN" "http://www.w3.org/Graphics/SVG/1.1/DTD/svg11.dtd">
<svg version="1.1" id="Layer_1" xmlns="http://www.w3.org/2000/svg" xmlns:xlink="http://www.w3.org/1999/xlink" x="0px" y="0px"
	 width="101.539px" height="100.912px" viewBox="0 0 101.539 100.912" enable-background="new 0 0 101.539 100.912"
	 xml:space="preserve">
<path fill="#E1E1E1" d="M13.034,0h75.471c7.164,0,13.034,5.265,13.034,12.929v74.868c0,7.665-5.87,12.93-13.034,12.93H13.034
	C5.865,100.727,0,95.462,0,87.797V12.929C0,5.265,5.865,0,13.034,0L13.034,0z M73.968,11.195c-2.516,0-4.569,2.038-4.569,4.53v10.86
	c0,2.492,2.054,4.53,4.569,4.53h11.475c2.512,0,4.572-2.039,4.572-4.53v-10.86c0-2.492-2.061-4.53-4.572-4.53H73.968L73.968,11.195z
	 M90.064,42.595h-8.94c0.846,2.742,1.304,5.638,1.304,8.641c0,16.756-14.127,30.335-31.562,30.335
	c-17.43,0-31.56-13.579-31.56-30.335c0-3.003,0.458-5.899,1.302-8.641h-9.327v42.549c0,2.203,1.822,4.008,4.04,4.008h70.707
	c2.222,0,4.037-1.805,4.037-4.008V42.595L90.064,42.595z M50.862,30.542c-11.262,0-20.392,8.776-20.392,19.602
	c0,10.83,9.13,19.602,20.392,19.602c11.265,0,20.398-8.771,20.398-19.602C71.261,39.318,62.127,30.542,50.862,30.542z"/>
</svg>
