<?xml version="1.0" encoding="utf-8"?>
<!-- Generator: Adobe Illustrator 15.0.0, SVG Export Plug-In . SVG Version: 6.00 Build 0)  -->
<!DOCTYPE svg PUBLIC "-//W3C//DTD SVG 1.1//EN" "http://www.w3.org/Graphics/SVG/1.1/DTD/svg11.dtd">
<svg version="1.1" id="Layer_1" xmlns="http://www.w3.org/2000/svg" xmlns:xlink="http://www.w3.org/1999/xlink" x="0px" y="0px"
	 width="50px" height="50px" viewBox="25.77 25.456 50 50" enable-background="new 25.77 25.456 50 50" xml:space="preserve">
<path id="LinkedIn__x28_alt_x29_" fill="#00A7A6" d="M72.072,25.456H29.46c-2.04,0-3.691,1.604-3.691,3.583v42.829
	c0,1.979,1.651,3.582,3.691,3.582h42.613c2.038,0,3.69-1.603,3.69-3.582V29.039C75.765,27.061,74.112,25.456,72.072,25.456z
	 M40.926,67.306h-7.554V44.733h7.554V67.306z M37.146,41.65h-0.046c-2.536,0-4.178-1.734-4.178-3.901
	c0-2.211,1.691-3.899,4.273-3.899c2.586,0,4.171,1.684,4.223,3.899C41.419,39.919,39.781,41.65,37.146,41.65z M68.155,67.306h-7.552
	V55.229c0-3.034-1.094-5.104-3.825-5.104c-2.09,0-3.331,1.396-3.875,2.746c-0.2,0.479-0.25,1.154-0.25,1.828v12.605h-7.55
	c0,0,0.099-20.454,0-22.571h7.55v3.2c1.001-1.538,2.792-3.733,6.805-3.733c4.97,0,8.697,3.226,8.697,10.162V67.306z M52.605,48.005
	c0.014-0.023,0.031-0.046,0.05-0.069v0.069H52.605z"/>
</svg>
