<?xml version="1.0" encoding="utf-8"?>
<!-- Generator: Adobe Illustrator 15.0.0, SVG Export Plug-In . SVG Version: 6.00 Build 0)  -->
<!DOCTYPE svg PUBLIC "-//W3C//DTD SVG 1.1//EN" "http://www.w3.org/Graphics/SVG/1.1/DTD/svg11.dtd">
<svg version="1.1" id="Layer_1" xmlns="http://www.w3.org/2000/svg" xmlns:xlink="http://www.w3.org/1999/xlink" x="0px" y="0px"
	 width="101.539px" height="100.912px" viewBox="0 0 101.539 100.912" enable-background="new 0 0 101.539 100.912"
	 xml:space="preserve">
<g>
	<g>
		<path fill="#F05D22" d="M74.288,44.874c-7.908,0-9.008,7.841-9.008,7.841h16.81C82.09,52.714,82.196,44.874,74.288,44.874z"/>
		<path fill="#F05D22" d="M36.137,52.714H21.234v13.598h14.217c2.138-0.057,6.081-0.727,6.081-6.604
			C41.532,52.646,36.137,52.714,36.137,52.714z"/>
		<path fill="#F05D22" d="M39.758,38.812c0-5.29-3.621-5.29-3.621-5.29h-1.922h-12.98V44.87h13.974
			C37.627,44.874,39.758,44.102,39.758,38.812z"/>
		<path fill="#F05D22" d="M96.141,0H5.402C2.415,0,0,2.4,0,5.369v90.173c0,2.965,2.415,5.369,5.402,5.369h90.738
			c2.979,0,5.398-2.404,5.398-5.369V5.369C101.539,2.4,99.12,0,96.141,0z M63.069,27.478h21.12v6.266h-21.12V27.478z M52.397,60.34
			c0,15.522-16.26,15.011-16.26,15.011H21.234h-0.44H9.5V24.479h11.294h0.44h14.903c8.094,0,14.486,4.446,14.486,13.545
			s-7.81,9.683-7.81,9.683C53.11,47.707,52.397,60.34,52.397,60.34z M91.901,59.507H65.378c0,9.449,9.008,8.854,9.008,8.854
			c8.508,0,8.204-5.475,8.204-5.475h9.016c0,14.528-17.52,13.534-17.52,13.534c-21.021,0-19.672-19.453-19.672-19.453
			s-0.015-19.543,19.672-19.543C94.806,37.421,91.901,59.507,91.901,59.507z"/>
	</g>
</g>
</svg>
