<?xml version="1.0" encoding="utf-8"?>
<!-- Generator: Adobe Illustrator 15.0.0, SVG Export Plug-In . SVG Version: 6.00 Build 0)  -->
<!DOCTYPE svg PUBLIC "-//W3C//DTD SVG 1.1//EN" "http://www.w3.org/Graphics/SVG/1.1/DTD/svg11.dtd">
<svg version="1.1" id="Layer_1" xmlns="http://www.w3.org/2000/svg" xmlns:xlink="http://www.w3.org/1999/xlink" x="0px" y="0px"
	 width="50px" height="50px" viewBox="25.77 25.456 50 50" enable-background="new 25.77 25.456 50 50" xml:space="preserve">
<g>
	<g>
		<path fill="#00A7A6" d="M62.297,47.662c-3.889,0-4.43,3.889-4.43,3.889h8.265C66.132,51.551,66.186,47.662,62.297,47.662z"/>
		<path fill="#00A7A6" d="M43.538,51.551H36.21v6.743h6.99c1.051-0.028,2.99-0.359,2.99-3.273
			C46.19,51.517,43.538,51.551,43.538,51.551z"/>
		<path fill="#00A7A6" d="M45.318,44.655c0-2.624-1.78-2.624-1.78-2.624h-0.945H36.21v5.629h6.871
			C44.27,47.662,45.318,47.278,45.318,44.655z"/>
		<path fill="#00A7A6" d="M73.039,25.405H28.426c-1.469,0-2.656,1.19-2.656,2.663v44.726c0,1.47,1.188,2.663,2.656,2.663h44.613
			c1.467,0,2.655-1.193,2.655-2.663V28.067C75.694,26.595,74.506,25.405,73.039,25.405z M56.779,39.034h10.385v3.107H56.779V39.034z
			 M51.532,55.333c0,7.698-7.996,7.444-7.996,7.444H36.21h-0.216H30.44V37.545h5.553h0.216h7.328c3.979,0,7.123,2.206,7.123,6.718
			c0,4.514-3.84,4.803-3.84,4.803C51.883,49.067,51.532,55.333,51.532,55.333z M70.955,54.92h-13.04
			c0,4.687,4.431,4.392,4.431,4.392c4.182,0,4.032-2.717,4.032-2.717h4.434c0,7.207-8.614,6.714-8.614,6.714
			c-10.337,0-9.673-9.65-9.673-9.65s-0.009-9.692,9.673-9.692C72.384,43.965,70.955,54.92,70.955,54.92z"/>
	</g>
</g>
</svg>
