<?xml version="1.0" encoding="utf-8"?>
<!-- Generator: Adobe Illustrator 15.0.0, SVG Export Plug-In . SVG Version: 6.00 Build 0)  -->
<!DOCTYPE svg PUBLIC "-//W3C//DTD SVG 1.1//EN" "http://www.w3.org/Graphics/SVG/1.1/DTD/svg11.dtd">
<svg version="1.1" id="Layer_1" xmlns="http://www.w3.org/2000/svg" xmlns:xlink="http://www.w3.org/1999/xlink" x="0px" y="0px"
	 width="101.539px" height="100.912px" viewBox="0 0 101.539 100.912" enable-background="new 0 0 101.539 100.912"
	 xml:space="preserve">
<path id="LinkedIn__x28_alt_x29__1_" fill="#F05D22" d="M93.574,0H7.46C3.337,0,0,3.231,0,7.213v86.231
	c0,3.986,3.337,7.213,7.46,7.213h86.114c4.119,0,7.461-3.227,7.461-7.213V7.213C101.035,3.231,97.693,0,93.574,0z M54.231,45.4
	c0.027-0.047,0.062-0.093,0.099-0.14v0.14H54.231z"/>
<path fill="#FFFFFF" d="M50.808,12.549c-21.104,0-38.212,17.043-38.212,38.065c0,21.026,17.107,38.064,38.212,38.064
	c21.101,0,38.209-17.038,38.209-38.064C89.017,29.593,71.908,12.549,50.808,12.549z M54.51,63.413
	c-3.47-0.269-4.927-1.982-7.648-3.63c-1.496,7.82-3.325,15.32-8.744,19.236c-1.668-11.822,2.458-20.698,4.375-30.121
	c-3.267-5.48,0.392-16.512,7.287-13.79c8.477,3.341-7.35,20.374,3.275,22.497c11.089,2.221,15.619-19.171,8.743-26.126
	c-9.938-10.049-28.925-0.231-26.593,14.149c0.57,3.521,4.213,4.585,1.461,9.439c-6.361-1.404-8.262-6.4-8.015-13.066
	c0.393-10.906,9.836-18.538,19.303-19.594c11.976-1.337,23.222,4.377,24.768,15.604C74.473,50.677,67.313,64.396,54.51,63.413z"/>
</svg>
