<?xml version="1.0" encoding="utf-8"?>
<!-- Generator: Adobe Illustrator 16.0.0, SVG Export Plug-In . SVG Version: 6.00 Build 0)  -->
<!DOCTYPE svg PUBLIC "-//W3C//DTD SVG 1.1//EN" "http://www.w3.org/Graphics/SVG/1.1/DTD/svg11.dtd">
<svg version="1.1" id="Layer_1" xmlns="http://www.w3.org/2000/svg" xmlns:xlink="http://www.w3.org/1999/xlink" x="0px" y="0px"
	 width="18.833px" height="19.5px" viewBox="0 0 18.833 19.5" enable-background="new 0 0 18.833 19.5" xml:space="preserve">
<g opacity="0.3">
	<g>
		<circle fill="#F05D22" cx="9.416" cy="9.24" r="8.699"/>
	</g>
	<path fill="#FFFFFF" d="M9.263,3.171c-0.559,0-1.012,1.484-1.012,1.484c0,0.197,0.027,0.386,0.075,0.558
		C8.632,5.144,8.95,5.105,9.276,5.105c0.327,0,0.644,0.039,0.948,0.108c0.049-0.172,0.076-0.36,0.076-0.558
		c0,0-0.453-1.484-1.013-1.484H9.263z"/>
	<path fill="#FFFFFF" d="M8.327,13.632c-0.048,0.172-0.075,0.358-0.075,0.557c0,0,0.453,1.483,1.012,1.483h0.025
		c0.559,0,1.012-1.483,1.012-1.483c0-0.197-0.027-0.385-0.074-0.557c-0.308,0.067-0.623,0.108-0.949,0.108
		C8.949,13.739,8.632,13.7,8.327,13.632z"/>
	<path fill="#FFFFFF" d="M5.072,14.05c0.413,0.375,1.747-0.416,1.747-0.416c0.133-0.146,0.239-0.306,0.321-0.464
		c-0.558-0.317-1.035-0.756-1.402-1.278c-0.151,0.096-0.299,0.215-0.434,0.36c0,0-0.666,1.402-0.252,1.777L5.072,14.05z"/>
	<path fill="#FFFFFF" d="M5.072,4.795l-0.02,0.019C4.638,5.19,5.304,6.591,5.304,6.591c0.133,0.146,0.28,0.268,0.434,0.362
		c0.365-0.522,0.845-0.961,1.4-1.278c-0.08-0.16-0.188-0.317-0.319-0.466C6.82,5.209,5.485,4.42,5.072,4.795z"/>
	<path fill="#FFFFFF" d="M12.814,6.953c0.15-0.096,0.3-0.216,0.433-0.36c0,0,0.666-1.403,0.254-1.779L13.48,4.796
		c-0.414-0.377-1.748,0.414-1.748,0.414c-0.133,0.147-0.239,0.305-0.319,0.465C11.968,5.994,12.447,6.431,12.814,6.953z"/>
	<path fill="#FFFFFF" d="M13.48,14.05l0.021-0.019c0.412-0.377-0.254-1.779-0.254-1.779c-0.133-0.146-0.28-0.266-0.435-0.36
		c-0.364,0.522-0.844,0.961-1.399,1.278c0.08,0.16,0.188,0.318,0.319,0.466C11.732,13.634,13.066,14.425,13.48,14.05z"/>
	<path fill="#FFFFFF" d="M3.025,9.41v0.024c0,0.56,1.484,1.011,1.484,1.011c0.196,0,0.385-0.027,0.557-0.074
		c-0.068-0.305-0.108-0.623-0.108-0.95c0-0.326,0.04-0.643,0.108-0.949C4.894,8.425,4.707,8.397,4.509,8.397
		C4.509,8.397,3.025,8.851,3.025,9.41z"/>
	<path fill="#FFFFFF" d="M15.708,9.41v0.024c0,0.56-1.482,1.011-1.482,1.011c-0.196,0-0.387-0.027-0.559-0.074
		c0.068-0.305,0.109-0.623,0.109-0.95c0-0.326-0.039-0.643-0.109-0.949c0.172-0.047,0.361-0.074,0.559-0.074
		C14.226,8.397,15.708,8.851,15.708,9.41z"/>
	<path fill="#FFFFFF" d="M12.101,11.647c0.367-0.467,0.621-1.025,0.722-1.639c0.03-0.189,0.053-0.386,0.053-0.587
		c0-0.198-0.021-0.395-0.053-0.586c-0.101-0.612-0.354-1.171-0.722-1.638c-0.244-0.309-0.537-0.577-0.869-0.792
		c-0.405-0.265-0.87-0.447-1.369-0.529c-0.191-0.03-0.387-0.052-0.586-0.052c-0.201,0-0.396,0.021-0.588,0.052
		C8.191,5.959,7.726,6.142,7.32,6.406C6.989,6.621,6.696,6.89,6.452,7.198C6.083,7.665,5.831,8.224,5.73,8.836
		C5.699,9.027,5.677,9.224,5.677,9.422c0,0.202,0.021,0.397,0.053,0.587c0.101,0.612,0.354,1.172,0.722,1.639
		c0.244,0.309,0.536,0.578,0.868,0.793c0.406,0.264,0.871,0.447,1.369,0.529c0.191,0.028,0.388,0.051,0.588,0.051
		c0.199,0,0.395-0.021,0.586-0.051c0.499-0.082,0.964-0.267,1.369-0.529C11.564,12.226,11.857,11.955,12.101,11.647z"/>
</g>
</svg>
