<?xml version="1.0" encoding="utf-8"?>
<!-- Generator: Adobe Illustrator 15.0.0, SVG Export Plug-In . SVG Version: 6.00 Build 0)  -->
<!DOCTYPE svg PUBLIC "-//W3C//DTD SVG 1.1//EN" "http://www.w3.org/Graphics/SVG/1.1/DTD/svg11.dtd">
<svg version="1.1" id="Layer_1" xmlns="http://www.w3.org/2000/svg" xmlns:xlink="http://www.w3.org/1999/xlink" x="0px" y="0px"
	 width="18.833px" height="19.5px" viewBox="0 0 18.833 19.5" enable-background="new 0 0 18.833 19.5" xml:space="preserve">
<g>
	<g>
		<circle fill="#00A7A6" cx="9.702" cy="9.75" r="8.699"/>
	</g>
	<path fill="#FFFFFF" d="M9.549,3.681c-0.559,0-1.012,1.484-1.012,1.484c0,0.197,0.027,0.386,0.075,0.558
		c0.306-0.069,0.623-0.107,0.948-0.107c0.328,0,0.645,0.039,0.949,0.107c0.049-0.172,0.076-0.36,0.076-0.558
		c0,0-0.453-1.484-1.013-1.484H9.549z"/>
	<path fill="#FFFFFF" d="M8.613,14.141c-0.048,0.173-0.075,0.359-0.075,0.558c0,0,0.453,1.483,1.012,1.483h0.025
		c0.559,0,1.012-1.483,1.012-1.483c0-0.197-0.027-0.385-0.074-0.558c-0.307,0.068-0.623,0.109-0.949,0.109
		C9.235,14.249,8.918,14.21,8.613,14.141z"/>
	<path fill="#FFFFFF" d="M5.358,14.559c0.412,0.375,1.746-0.416,1.746-0.416c0.134-0.146,0.24-0.305,0.322-0.463
		c-0.558-0.317-1.035-0.756-1.402-1.278c-0.15,0.096-0.299,0.215-0.434,0.36c0,0-0.666,1.402-0.252,1.777L5.358,14.559z"/>
	<path fill="#FFFFFF" d="M5.358,5.305l-0.02,0.02C4.924,5.7,5.59,7.101,5.59,7.101c0.133,0.146,0.28,0.268,0.434,0.362
		c0.365-0.522,0.845-0.961,1.4-1.279c-0.08-0.159-0.188-0.316-0.32-0.465C7.106,5.719,5.77,4.93,5.358,5.305z"/>
	<path fill="#FFFFFF" d="M13.1,7.463c0.15-0.096,0.3-0.216,0.433-0.361c0,0,0.666-1.401,0.254-1.777l-0.021-0.019
		c-0.414-0.377-1.748,0.414-1.748,0.414c-0.133,0.147-0.239,0.305-0.319,0.464C12.254,6.504,12.733,6.94,13.1,7.463z"/>
	<path fill="#FFFFFF" d="M13.766,14.559l0.021-0.018c0.412-0.377-0.254-1.779-0.254-1.779c-0.133-0.146-0.28-0.266-0.435-0.36
		c-0.364,0.522-0.844,0.961-1.399,1.278c0.08,0.16,0.188,0.318,0.319,0.466C12.018,14.143,13.352,14.934,13.766,14.559z"/>
	<path fill="#FFFFFF" d="M3.311,9.92v0.024c0,0.56,1.484,1.011,1.484,1.011c0.196,0,0.385-0.027,0.557-0.074
		c-0.068-0.305-0.108-0.623-0.108-0.95c0-0.326,0.04-0.643,0.108-0.949C5.18,8.934,4.993,8.907,4.795,8.907
		C4.795,8.908,3.311,9.36,3.311,9.92z"/>
	<path fill="#FFFFFF" d="M15.995,9.92v0.024c0,0.56-1.482,1.011-1.482,1.011c-0.196,0-0.387-0.027-0.559-0.074
		c0.068-0.305,0.109-0.623,0.109-0.95c0-0.326-0.039-0.643-0.109-0.949c0.172-0.048,0.361-0.074,0.559-0.074
		C14.512,8.908,15.995,9.36,15.995,9.92z"/>
	<path fill="#FFFFFF" d="M12.387,12.157c0.367-0.467,0.621-1.025,0.722-1.64c0.03-0.188,0.053-0.385,0.053-0.586
		c0-0.198-0.021-0.395-0.053-0.586c-0.101-0.612-0.354-1.171-0.722-1.638c-0.244-0.309-0.537-0.577-0.869-0.792
		c-0.405-0.265-0.87-0.447-1.369-0.529c-0.191-0.03-0.387-0.052-0.586-0.052c-0.201,0-0.396,0.021-0.588,0.052
		C8.477,6.469,8.012,6.651,7.606,6.916C7.275,7.131,6.982,7.399,6.738,7.708C6.37,8.175,6.117,8.733,6.016,9.346
		C5.985,9.537,5.963,9.733,5.963,9.932c0,0.202,0.021,0.397,0.053,0.586c0.101,0.613,0.354,1.173,0.722,1.64
		c0.244,0.309,0.536,0.578,0.868,0.793c0.406,0.264,0.871,0.447,1.369,0.529c0.191,0.028,0.388,0.051,0.588,0.051
		c0.199,0,0.395-0.021,0.586-0.051c0.499-0.082,0.964-0.267,1.369-0.529C11.85,12.735,12.143,12.465,12.387,12.157z"/>
</g>
</svg>
