<?xml version="1.0" encoding="utf-8"?>
<!-- Generator: Adobe Illustrator 16.0.0, SVG Export Plug-In . SVG Version: 6.00 Build 0)  -->
<!DOCTYPE svg PUBLIC "-//W3C//DTD SVG 1.1//EN" "http://www.w3.org/Graphics/SVG/1.1/DTD/svg11.dtd">
<svg version="1.1" id="Layer_1" xmlns="http://www.w3.org/2000/svg" xmlns:xlink="http://www.w3.org/1999/xlink" x="0px" y="0px"
	 width="43px" height="44.666px" viewBox="0 0 43 44.666" enable-background="new 0 0 43 44.666" xml:space="preserve">
<g id="Mensaje_de_error_1" display="none">
	
		<text transform="matrix(0.7071 0.7071 -0.7071 0.7071 363.2246 73.6162)" display="inline" fill="#ED1C24" font-family="'Lato-Bold'" font-size="24">+</text>
	<text transform="matrix(1 0 0 1 386.333 78.4717)" display="inline" fill="#ED1C24" font-family="'Lato-Light'" font-size="16">Este correo electrónico no es válido por favor </text>
	<text transform="matrix(1 0 0 1 386.333 96.4717)" display="inline" fill="#ED1C24" font-family="'Lato-Light'" font-size="16">inténtelo nuevamente</text>
	
		<rect x="366.939" y="24.867" display="inline" fill="none" stroke="#ED1C24" stroke-width="0.5" stroke-miterlimit="10" width="239.434" height="30"/>
</g>
<g id="Mensaje_de_error_2_copy" display="none">
	
		<text transform="matrix(0.7071 0.7071 -0.7071 0.7071 363.2246 73.6162)" display="inline" fill="#ED1C24" font-family="'Lato-Bold'" font-size="24">+</text>
	<text transform="matrix(1 0 0 1 386.333 78.4717)" display="inline" fill="#ED1C24" font-family="'Lato-Light'" font-size="16">Por favor escriba un correo eléctrónico para que </text>
	<text transform="matrix(1 0 0 1 386.333 96.4717)" display="inline" fill="#ED1C24" font-family="'Lato-Light'" font-size="16">podamos informarle de las novedades </text>
	
		<rect x="366.939" y="24.867" display="inline" fill="none" stroke="#ED1C24" stroke-width="0.5" stroke-miterlimit="10" width="239.434" height="30"/>
</g>
<g id="Mensaje_de_error_3_copy_2" display="none">
	
		<text transform="matrix(0.7071 0.7071 -0.7071 0.7071 363.2246 73.6162)" display="inline" fill="#ED1C24" font-family="'Lato-Bold'" font-size="24">+</text>
	<text transform="matrix(1 0 0 1 386.333 78.4717)" display="inline" fill="#ED1C24" font-family="'Lato-Light'" font-size="16">Este correo ya está registrado en nuestra base </text>
	<text transform="matrix(1 0 0 1 386.333 96.4717)" display="inline" fill="#ED1C24" font-family="'Lato-Light'" font-size="16">de datos</text>
	
		<rect x="366.939" y="24.867" display="inline" fill="none" stroke="#ED1C24" stroke-width="0.5" stroke-miterlimit="10" width="239.434" height="30"/>
</g>
<circle fill="#FFFFFF" cx="21.5" cy="22.333" r="19.701"/>
<path d="M34.809,14.078c-0.979,0.435-2.031,0.729-3.137,0.859c1.129-0.677,1.994-1.746,2.402-3.021
	c-1.057,0.626-2.225,1.08-3.469,1.325c-0.996-1.061-2.416-1.725-3.986-1.725c-3.016,0-5.459,2.446-5.459,5.461
	c0,0.43,0.047,0.846,0.141,1.245c-4.539-0.229-8.562-2.402-11.256-5.707c-0.469,0.808-0.739,1.745-0.739,2.747
	c0,1.895,0.965,3.565,2.43,4.545c-0.896-0.029-1.737-0.274-2.474-0.684C9.26,19.145,9.26,19.169,9.26,19.191
	c0,2.646,1.884,4.854,4.382,5.354c-0.459,0.125-0.941,0.192-1.439,0.192c-0.352,0-0.693-0.035-1.027-0.1
	c0.695,2.168,2.711,3.747,5.101,3.793c-1.868,1.465-4.223,2.338-6.782,2.338c-0.44,0-0.875-0.025-1.302-0.076
	c2.416,1.551,5.288,2.453,8.371,2.453c10.043,0,15.538-8.32,15.538-15.538c0-0.237-0.006-0.473-0.017-0.708
	C33.15,16.134,34.076,15.173,34.809,14.078z"/>
</svg>
