<?xml version="1.0" encoding="utf-8"?>
<!-- Generator: Adobe Illustrator 16.0.0, SVG Export Plug-In . SVG Version: 6.00 Build 0)  -->
<!DOCTYPE svg PUBLIC "-//W3C//DTD SVG 1.1//EN" "http://www.w3.org/Graphics/SVG/1.1/DTD/svg11.dtd">
<svg version="1.1" id="Layer_1" xmlns="http://www.w3.org/2000/svg" xmlns:xlink="http://www.w3.org/1999/xlink" x="0px" y="0px"
	 width="101.539px" height="103.078px" viewBox="0 0 101.539 103.078" enable-background="new 0 0 101.539 103.078"
	 xml:space="preserve">
<g>
	<path fill="#00A7A6" d="M93.924,50.54c0,24.336-19.73,44.061-44.066,44.061C25.526,94.6,5.795,74.875,5.795,50.54
		c0-24.332,19.73-44.062,44.062-44.062C74.193,6.477,93.924,26.208,93.924,50.54z"/>
</g>
<g>
	<path fill="#FFFFFF" d="M75.07,48.702c-0.823-12.625-10.907-22.709-23.534-23.551v-0.049h-3.352v0.049
		c-12.631,0.842-22.711,10.926-23.547,23.551h-0.053v3.358h0.053c0.836,12.62,10.916,22.71,23.547,23.533v0.066h3.352v-0.066
		C64.163,74.77,74.247,64.68,75.07,52.06h0.066v-3.358H75.07z M40.415,30.618c-1.631,2.148-2.994,4.871-3.973,7.967h-5.045
		C33.588,35.159,36.711,32.378,40.415,30.618L40.415,30.618z M29.637,41.958h5.916c-0.455,2.123-0.73,4.39-0.838,6.744h-6.697
		C28.2,46.315,28.76,44.061,29.637,41.958L29.637,41.958z M28.018,52.06h6.697c0.107,2.354,0.383,4.621,0.838,6.745h-5.916
		C28.76,56.701,28.2,54.447,28.018,52.06L28.018,52.06z M31.397,62.177h5.031c0.992,3.097,2.34,5.812,3.986,7.966
		C36.711,68.382,33.588,65.604,31.397,62.177L31.397,62.177z M48.184,72.074c-3.48-0.925-6.459-4.643-8.264-9.896h8.264V72.074z
		 M48.184,58.805h-9.221c-0.477-2.104-0.779-4.358-0.871-6.745h10.092V58.805z M48.184,48.702H38.092
		c0.092-2.387,0.395-4.641,0.871-6.744h9.221V48.702z M48.184,38.584H39.92c1.805-5.254,4.783-8.977,8.264-9.895V38.584z
		 M68.327,38.584h-5.039c-0.986-3.096-2.336-5.818-3.981-7.967C63.008,32.378,66.131,35.159,68.327,38.584L68.327,38.584z
		 M51.536,28.69c3.473,0.918,6.457,4.641,8.266,9.895h-8.266V28.69z M51.536,41.958h9.221c0.479,2.104,0.757,4.357,0.871,6.744
		H51.536V41.958z M51.536,52.06h10.092c-0.096,2.387-0.394,4.641-0.871,6.745h-9.221V52.06z M51.536,72.074v-9.896h8.266
		C57.993,67.431,55.008,71.149,51.536,72.074L51.536,72.074z M59.305,70.143c1.633-2.172,2.996-4.869,3.982-7.966h5.039
		C66.131,65.604,63.008,68.382,59.305,70.143L59.305,70.143z M70.088,58.805h-5.926c0.461-2.124,0.738-4.392,0.836-6.745h6.699
		C71.514,54.447,70.956,56.701,70.088,58.805L70.088,58.805z M64.999,48.702c-0.099-2.354-0.375-4.621-0.836-6.744h5.926
		c0.867,2.104,1.427,4.357,1.609,6.744H64.999z"/>
</g>
</svg>
